<svg version="1.1" viewBox="0.0 0.0 933.0 577.0" fill="none" stroke="none" stroke-linecap="square" stroke-miterlimit="10" width="933" height="577" xmlns:xlink="http://www.w3.org/1999/xlink" xmlns="http://www.w3.org/2000/svg"><path fill="#ffffff" d="M0 0L933.0 0L933.0 577.0L0 577.0L0 0Z" fill-rule="nonzero"/><path fill="#ffffff" d="M0 0L933.0 0L933.0 577.0L0 577.0L0 0Z" fill-rule="nonzero"/><path stroke="#cccccc" stroke-width="1.0" stroke-linecap="butt" d="M204.5 83.5L204.5 517.5" fill-rule="nonzero"/><path stroke="#cccccc" stroke-width="1.0" stroke-linecap="butt" d="M344.5 83.5L344.5 517.5" fill-rule="nonzero"/><path stroke="#cccccc" stroke-width="1.0" stroke-linecap="butt" d="M484.5 83.5L484.5 517.5" fill-rule="nonzero"/><path stroke="#cccccc" stroke-width="1.0" stroke-linecap="butt" d="M624.5 83.5L624.5 517.5" fill-rule="nonzero"/><path stroke="#cccccc" stroke-width="1.0" stroke-linecap="butt" d="M764.5 83.5L764.5 517.5" fill-rule="nonzero"/><path stroke="#cccccc" stroke-width="1.0" stroke-linecap="butt" d="M904.5 83.5L904.5 517.5" fill-rule="nonzero"/><path stroke="#333333" stroke-width="1.0" stroke-linecap="butt" d="M67.5 517.5L904.5 517.5" fill-rule="nonzero"/><path stroke="#cccccc" stroke-width="1.0" stroke-linecap="butt" d="M67.5 408.5L904.5 408.5" fill-rule="nonzero"/><path stroke="#cccccc" stroke-width="1.0" stroke-linecap="butt" d="M67.5 300.5L904.5 300.5" fill-rule="nonzero"/><path stroke="#cccccc" stroke-width="1.0" stroke-linecap="butt" d="M67.5 191.5L904.5 191.5" fill-rule="nonzero"/><path stroke="#cccccc" stroke-width="1.0" stroke-linecap="butt" d="M67.5 83.5L904.5 83.5" fill-rule="nonzero"/><clipPath id="id_0"><path d="M67.85 83.083336L904.15 83.083336L904.15 517.15L67.85 517.15L67.85 83.083336Z" clip-rule="nonzero"/></clipPath><path stroke="#4285f4" stroke-width="4.0" stroke-linecap="butt" clip-path="url(#id_0)" d="M67.85 499.27786L70.64699 488.73468L73.44398 481.46457L76.24097 475.3438L79.03796 469.9523L81.83495 464.72006L84.63194 460.47705L87.42893 456.16336L90.22592 452.18604L93.02291 448.8156L95.8199 445.23346L98.61689 441.7954L101.41388 438.70544L104.21087 435.68564L107.00786 433.09412L109.80485 430.07715L112.60184 426.93826L115.39883 424.47702L118.195816 422.0218L120.99281 419.5518L123.7898 417.0712L126.58679 414.7039L129.38377 412.42783L132.18077 410.07462L134.97775 407.6853L137.77475 405.48215L140.57173 403.42743L143.36873 401.16727L146.16573 399.1219L148.9627 397.2525L151.7597 394.82172L154.55669 393.29004L157.35368 391.20093L160.15067 389.4329L162.94766 387.17288L165.74464 385.6691L168.54164 383.8426L171.33862 382.027L174.13562 380.01276L176.9326 378.3668L179.7296 376.61774L182.5266 375.102L185.32358 373.19046L188.12057 371.40738L190.91756 370.13907L193.71455 368.12192L196.51154 366.623L199.30853 365.1519L202.10551 363.4207L204.90251 361.75684L207.6995 360.28516L210.49649 358.8495L213.29347 357.30948L216.09047 355.86365L218.88745 354.22638L221.68445 352.8857L224.48145 351.24878L227.27843 349.9435L230.07542 348.50034L232.8724 346.87375L235.6694 345.34616L238.46638 344.11887L241.26338 342.6602L244.06036 340.93576L246.85736 339.88394L249.65434 338.53357L252.45134 337.14923L255.24832 335.81628L258.04532 334.56177L260.84232 333.16504L263.6393 332.05637L266.43628 330.6713L269.23328 329.34036L272.03027 328.05832L274.82727 326.8071L277.62424 325.51578L280.42123 324.23996L283.21823 322.86713L286.01523 321.56796L288.8122 320.7263L291.6092 319.2265L294.4062 318.1024L297.2032 316.7675L300.00015 315.8992L302.79715 314.2936L305.59415 313.46222L308.39114 312.11633L311.18814 310.93506L313.9851 309.49893L316.7821 308.43204L319.5791 307.3628L322.3761 306.30234L325.17307 304.8229L327.97006 303.8586L330.76706 302.87823L333.56406 301.81152L336.36102 300.39755L339.15802 299.49506L341.95502 298.2434L344.752 297.25064L347.549 295.94498L350.34598 294.84488L353.14297 293.81625L355.93997 292.68445L358.73697 291.74884L361.53394 290.73105L364.33093 289.72437L367.12793 288.6978L369.92493 287.40024L372.7219 286.42044L375.5189 285.51248L378.3159 284.15955L381.11288 283.1024L383.90985 282.20148L386.70685 281.12784L389.50385 280.1549L392.30084 279.0418L395.09784 278.16623L397.8948 276.97037L400.6918 276.19553L403.4888 275.04816L406.2858 274.124L409.08276 273.01297L411.87976 271.81396L414.67676 271.03262L417.47375 269.7198L420.27072 269.27924L423.06772 267.86792L425.86472 267.1739L428.6617 266.1288L431.4587 265.06445L434.25568 264.23755L437.05267 263.28513L439.84967 262.45865L442.64667 261.46973L445.44363 260.49115L448.24063 259.53485L451.03763 258.4641L453.83463 257.7916L456.6316 256.60687L459.4286 255.74706L462.2256 254.66008L465.02258 253.78069L467.81958 252.9157L470.61655 252.3016L473.41354 251.20586L476.21054 250.33414L479.00754 249.22073L481.8045 248.84653L484.6015 247.44293L487.3985 246.71553L490.1955 245.8873L492.99246 244.91537L495.78946 243.74055L498.58646 243.26207L501.38345 242.20303L504.18042 241.19183L506.97742 240.31718L509.7744 239.75452L512.5714 238.57278L515.3684 237.9132L518.1654 236.9514L520.9624 236.01198L523.75934 235.3132L526.55634 234.21106L529.35333 233.46153L532.1503 232.65616L534.9473 231.661L537.7443 231.09042L540.5413 229.99458L543.3383 229.35892L546.13525 228.6884L548.93225 227.36197L551.72925 226.59077L554.52625 225.88329L557.32324 224.77179L560.12024 224.43259L562.91724 223.25856L565.71423 222.54465L568.5112 221.75812L571.30817 220.86848L574.10516 219.98462L576.90216 219.2145L579.69916 218.57645L582.49615 217.7737L585.29315 216.71361L588.09015 216.1369L590.88715 215.19002L593.68414 214.36992L596.4811 213.24077L599.2781 212.91055L602.0751 212.0132L604.8721 211.50848L607.66907 210.56763L610.46606 209.75854L613.26306 208.95692L616.06006 208.169L618.857 207.41138L621.654 206.38736L624.451 205.79712L627.248 204.8977L630.045 204.06218L632.842 203.29514L635.639 202.75668L638.436 201.76735L641.233 200.97256L644.0299 200.04187L646.8269 199.52274L649.6239 198.95726L652.4209 197.99376L655.2179 197.25302L658.0149 196.50034L660.8119 195.88544L663.6089 194.99298L666.4058 194.15988L669.2028 193.29364L671.9998 192.5052L674.7968 191.82253L677.5938 191.16899L680.3908 190.55469L683.1878 189.73271L685.9848 188.94342L688.7818 188.32521L691.57874 187.5382L694.37573 187.01442L697.1727 185.97156L699.9697 185.27055L702.7667 184.45071L705.5637 183.92723L708.3607 183.18813L711.1577 182.43929L713.9547 181.85869L716.75165 180.96704L719.54865 180.37888L722.34564 179.66582L725.14264 178.86433L727.93964 178.01173L730.73663 177.34607L733.5336 176.67088L736.3306 175.86684L739.12756 175.32712L741.92456 174.5675L744.72156 173.6669L747.51855 172.8892L750.31555 172.20569L753.11255 171.63493L755.90955 171.03886L758.70654 170.5016L761.50354 169.61783L764.3005 168.77264L767.0975 168.13805L769.8945 167.3723L772.69147 166.7842L775.48846 166.06866L778.28546 165.52531L781.08246 164.7894L783.87946 164.08723L786.6764 163.58275L789.4734 162.60168L792.2704 161.93732L795.0674 161.28123L797.8644 160.95724L800.6614 159.98267L803.4584 159.07538L806.2554 158.63641L809.05237 157.99283L811.8493 157.19753L814.6463 156.61165L817.4433 155.76656L820.2403 155.24432L823.0373 154.71066L825.8343 153.83954L828.6313 153.32498L831.4283 152.61757L834.2253 151.91829L837.0222 151.40561L839.8192 150.71791L842.6162 149.9169L845.4132 149.29599L848.2102 148.52214L851.0072 147.7846L853.8042 147.36118L856.6012 146.6059L859.39813 145.81773L862.1951 145.37978L864.9921 144.65523L867.7891 143.99686L870.5861 143.35782L873.3831 142.61778L876.1801 142.07874L878.9771 141.22166L881.7741 140.56284L884.57104 140.13297L887.36804 139.14467L890.16504 138.84572L892.96204 138.32129L895.75903 137.64294L898.556 136.77232L901.353 136.4346L904.15 135.88065" fill-rule="nonzero"/><path stroke="#db4437" stroke-width="4.0" stroke-linecap="butt" clip-path="url(#id_0)" d="M67.85 517.15L70.64699 517.15L73.44398 517.15L76.24097 517.15L79.03796 509.4767L81.83495 507.75217L84.63194 507.75217L87.42893 498.35437L90.22592 499.992L93.02291 496.13583L95.8199 498.35437L98.61689 488.43918L101.41388 487.931L104.21087 485.98096L107.00786 481.98657L109.80485 476.18585L112.60184 476.91095L115.39883 471.7542L118.195816 471.7542L120.99281 473.40555L123.7898 464.82516L126.58679 468.017L129.38377 461.55176L132.18077 458.71198L134.97775 459.9853L137.77475 453.64224L140.57173 453.4109L143.36873 458.46063L146.16573 448.09042L148.9627 471.43112L151.7597 440.4171L154.55669 453.87445L157.35368 443.9515L160.15067 441.57687L162.94766 436.30692L165.74464 437.96255L168.54164 439.84378L171.33862 427.99445L174.13562 424.2747L176.9326 430.67645L179.7296 428.82382L182.5266 425.71222L185.32358 423.1718L188.12057 419.3344L190.91756 421.61835L193.71455 417.69284L196.51154 417.9893L199.30853 421.004L202.10551 414.4884L204.90251 414.05917L207.6995 410.5493L210.49649 406.48428L213.29347 417.84094L216.09047 406.48428L218.88745 411.93918L221.68445 403.33676L224.48145 401.54028L227.27843 397.78168L230.07542 396.55484L232.8724 398.39984L235.6694 393.7794L238.46638 391.88492L241.26338 391.29874L244.06036 391.53287L246.85736 392.947L249.65434 386.47864L252.45134 389.7873L255.24832 385.9166L258.04532 381.72137L260.84232 379.24414L263.6393 377.44138L266.43628 381.72137L269.23328 383.032L272.03027 379.99335L274.82727 376.49634L277.62424 375.24603L280.42123 377.7578L283.21823 369.4517L286.01523 366.8828L288.8122 375.03873L291.6092 370.55206L294.4062 369.85086L297.2032 365.5176L300.00015 364.35715L302.79715 359.98804L305.59415 370.95425L308.39114 365.22665L311.18814 365.32358L313.9851 359.33377L316.7821 357.2029L319.5791 359.14734L322.3761 354.9185L325.17307 362.1572L327.97006 352.21893L330.76706 350.00262L333.56406 351.77332L336.36102 353.4732L339.15802 346.43015L341.95502 344.88513L344.752 347.64154L347.549 352.93448L350.34598 341.752L353.14297 343.8628L355.93997 344.28802L358.73697 344.1178L361.53394 336.13522L364.33093 345.3129L367.12793 336.86856L369.92493 335.24292L372.7219 332.03442L375.5189 333.9528L378.3159 335.08115L381.11288 335.7291L383.90985 331.47864L386.70685 331.55795L389.50385 331.95493L392.30084 326.4723L395.09784 329.27194L397.8948 326.16376L400.6918 324.93454L403.4888 323.33304L406.2858 325.54816L409.08276 324.01776L411.87976 324.24655L414.67676 322.34824L417.47375 320.69287L420.27072 323.1812L423.06772 331.1618L425.86472 314.0614L428.6617 323.409L431.4587 324.094L434.25568 323.71313L437.05267 317.64453L439.84967 311.6835L442.64667 310.6117L445.44363 310.25565L448.24063 306.5885L451.03763 315.80844L453.83463 309.6163L456.6316 307.99133L459.4286 305.19498L462.2256 308.90823L465.02258 313.3379L467.81958 304.6401L470.61655 308.3435L473.41354 300.65994L476.21054 297.9571L479.00754 293.37137L481.8045 301.54565L484.6015 301.00015L487.3985 300.864L490.1955 291.9289L492.99246 299.57477L495.78946 295.35352L498.58646 289.39423L501.38345 293.8323L504.18042 295.61914L506.97742 292.12506L509.7744 297.01892L512.5714 285.61246L515.3684 289.00677L518.1654 284.78745L520.9624 284.09167L523.75934 281.51636L526.55634 285.9942L529.35333 280.02185L532.1503 278.78357L534.9473 285.16788L537.7443 285.93054L540.5413 278.16684L543.3383 287.1433L546.13525 277.61313L548.93225 282.58075L551.72925 274.25684L554.52625 280.7679L557.32324 280.20813L560.12024 276.14282L562.91724 270.76697L565.71423 271.66476L568.5112 270.46844L571.30817 270.64752L574.10516 268.2704L576.90216 269.04047L579.69916 267.03143L582.49615 264.33878L585.29315 265.389L588.09015 267.32587L590.88715 261.73212L593.68414 272.68625L596.4811 263.52493L599.2781 263.3509L602.0751 260.3527L604.8721 260.5821L607.66907 262.02042L610.46606 256.65347L613.26306 259.78012L616.06006 261.329L618.857 259.0377L621.654 257.89963L624.451 259.78012L627.248 252.1715L630.045 249.62836L632.842 258.07L635.639 258.07L638.436 246.45583L641.233 247.16368L644.0299 257.84283L646.8269 246.40146L649.6239 245.80408L652.4209 249.46333L655.2179 246.18408L658.0149 247.43642L660.8119 249.1336L663.6089 250.39978L666.4058 245.26215L669.2028 240.6986L671.9998 245.74983L674.7968 248.58495L677.5938 238.73549L680.3908 237.57475L683.1878 239.7949L685.9848 241.17822L688.7818 242.46132L691.57874 234.90234L694.37573 235.26764L697.1727 236.52371L699.9697 241.65869L702.7667 242.94403L705.5637 231.89355L708.3607 232.20334L711.1577 233.39397L713.9547 230.86337L716.75165 229.99062L719.54865 226.98204L722.34564 228.96724L725.14264 232.87569L727.93964 230.86337L730.73663 228.15115L733.5336 224.45659L736.3306 229.88812L739.12756 227.48976L741.92456 222.05249L744.72156 222.25209L747.51855 220.60947L750.31555 218.18707L753.11255 217.79344L755.90955 223.05182L758.70654 218.72917L761.50354 216.76262L764.3005 223.40237L767.0975 217.69511L769.8945 217.59682L772.69147 215.78415L775.48846 213.35178L778.28546 211.75703L781.08246 224.6075L783.87946 213.98232L786.6764 214.03088L789.4734 212.9644L792.2704 208.44917L795.0674 212.91602L797.8644 210.89067L800.6614 207.11691L803.4584 216.12625L806.2554 213.10962L809.05237 207.1644L811.8493 208.35382L814.6463 203.34164L817.4433 217.05678L820.2403 207.30688L823.0373 203.71712L825.8343 207.40192L828.6313 200.53972L831.4283 201.23787L834.2253 209.35648L837.0222 205.97952L839.8192 201.6575L842.6162 197.43994L845.4132 197.3939L848.2102 203.15407L851.0072 202.68562L853.8042 198.59305L856.6012 196.93388L859.39813 207.8775L862.1951 198.77792L864.9921 193.32274L867.7891 193.27728L870.5861 195.28328L873.3831 193.41367L876.1801 189.34703L878.9771 187.86852L881.7741 193.68658L884.57104 185.55211L887.36804 186.35211L890.16504 191.96193L892.96204 187.64508L895.75903 187.6004L898.556 186.66374L901.353 182.41522L904.15 185.68532" fill-rule="nonzero"/><path fill="#757575" d="M57.94375 517.6969Q57.94375 520.54065 56.959373 521.9313Q55.990623 523.3219 53.9125 523.3219Q51.865623 523.3219 50.88125 521.9625Q49.896873 520.60315 49.865623 517.91565L49.865623 515.7438Q49.865623 512.91565 50.834373 511.55627Q51.81875 510.18127 53.896873 510.18127Q55.959373 510.18127 56.928123 511.5094Q57.9125 512.8219 57.94375 515.5875L57.94375 517.6969ZM56.31875 515.4625Q56.31875 513.4 55.725 512.4625Q55.146873 511.5094 53.896873 511.5094Q52.646873 511.5094 52.06875 512.4625Q51.50625 513.4 51.490623 515.3375L51.490623 517.9469Q51.490623 520.025 52.084373 521.0094Q52.69375 521.9938 53.9125 521.9938Q55.115623 521.9938 55.69375 521.0719Q56.2875 520.1344 56.31875 518.1344L56.31875 515.4625Z" fill-rule="nonzero"/><path fill="#757575" d="M48.303123 414.63333L39.9125 414.63333L39.9125 413.46146L44.35 408.53958Q45.334373 407.4302 45.69375 406.72708Q46.06875 406.02396 46.06875 405.27396Q46.06875 404.27396 45.459373 403.63333Q44.865623 402.9927 43.85 402.9927Q42.63125 402.9927 41.959373 403.69583Q41.2875 404.38333 41.2875 405.60208L39.6625 405.60208Q39.6625 403.83646 40.803123 402.75833Q41.94375 401.66458 43.85 401.66458Q45.63125 401.66458 46.6625 402.60208Q47.709373 403.53958 47.709373 405.08646Q47.709373 406.97708 45.303123 409.58646L41.88125 413.3052L48.303123 413.3052L48.303123 414.63333ZM57.94375 409.1802Q57.94375 412.02396 56.959373 413.41458Q55.990623 414.8052 53.9125 414.8052Q51.865623 414.8052 50.88125 413.44583Q49.896873 412.08646 49.865623 409.39896L49.865623 407.22708Q49.865623 404.39896 50.834373 403.03958Q51.81875 401.66458 53.896873 401.66458Q55.959373 401.66458 56.928123 402.9927Q57.9125 404.3052 57.94375 407.07083L57.94375 409.1802ZM56.31875 406.94583Q56.31875 404.88333 55.725 403.94583Q55.146873 402.9927 53.896873 402.9927Q52.646873 402.9927 52.06875 403.94583Q51.50625 404.88333 51.490623 406.82083L51.490623 409.4302Q51.490623 411.50833 52.084373 412.4927Q52.69375 413.47708 53.9125 413.47708Q55.115623 413.47708 55.69375 412.5552Q56.2875 411.6177 56.31875 409.6177L56.31875 406.94583Z" fill-rule="nonzero"/><path fill="#757575" d="M46.771873 301.8198L48.553123 301.8198L48.553123 303.14792L46.771873 303.14792L46.771873 306.11667L45.146873 306.11667L45.146873 303.14792L39.31875 303.14792L39.31875 302.1948L45.053123 293.3198L46.771873 293.3198L46.771873 301.8198ZM41.1625 301.8198L45.146873 301.8198L45.146873 295.53854L44.94375 295.89792L41.1625 301.8198ZM57.94375 300.66354Q57.94375 303.5073 56.959373 304.89792Q55.990623 306.28854 53.9125 306.28854Q51.865623 306.28854 50.88125 304.92917Q49.896873 303.5698 49.865623 300.8823L49.865623 298.71042Q49.865623 295.8823 50.834373 294.52292Q51.81875 293.14792 53.896873 293.14792Q55.959373 293.14792 56.928123 294.47604Q57.9125 295.78854 57.94375 298.55417L57.94375 300.66354ZM56.31875 298.42917Q56.31875 296.36667 55.725 295.42917Q55.146873 294.47604 53.896873 294.47604Q52.646873 294.47604 52.06875 295.42917Q51.50625 296.36667 51.490623 298.30417L51.490623 300.91354Q51.490623 302.99167 52.084373 303.97604Q52.69375 304.96042 53.9125 304.96042Q55.115623 304.96042 55.69375 304.03854Q56.2875 303.10104 56.31875 301.10104L56.31875 298.42917Z" fill-rule="nonzero"/><path fill="#757575" d="M46.2875 184.7875L46.2875 186.17813L45.990623 186.17813Q44.1 186.20938 42.975 187.30313Q41.85 188.38126 41.678123 190.36563Q42.678123 189.20938 44.428123 189.20938Q46.1 189.20938 47.1 190.39688Q48.1 191.56876 48.1 193.42813Q48.1 195.39688 47.021873 196.58438Q45.94375 197.77188 44.13125 197.77188Q42.303123 197.77188 41.146873 196.36563Q40.00625 194.95938 40.00625 192.725L40.00625 192.1Q40.00625 188.56876 41.50625 186.70938Q43.021873 184.83438 46.00625 184.7875L46.2875 184.7875ZM44.1625 190.55313Q43.31875 190.55313 42.615623 191.06876Q41.9125 191.56876 41.646873 192.31876L41.646873 192.9125Q41.646873 194.49063 42.35 195.45938Q43.06875 196.42813 44.13125 196.42813Q45.225 196.42813 45.85 195.63126Q46.490623 194.81876 46.490623 193.50626Q46.490623 192.17813 45.85 191.36563Q45.209373 190.55313 44.1625 190.55313ZM57.94375 192.14688Q57.94375 194.99063 56.959373 196.38126Q55.990623 197.77188 53.9125 197.77188Q51.865623 197.77188 50.88125 196.4125Q49.896873 195.05313 49.865623 192.36563L49.865623 190.19376Q49.865623 187.36563 50.834373 186.00626Q51.81875 184.63126 53.896873 184.63126Q55.959373 184.63126 56.928123 185.95938Q57.9125 187.27188 57.94375 190.0375L57.94375 192.14688ZM56.31875 189.9125Q56.31875 187.85 55.725 186.9125Q55.146873 185.95938 53.896873 185.95938Q52.646873 185.95938 52.06875 186.9125Q51.50625 187.85 51.490623 189.7875L51.490623 192.39688Q51.490623 194.475 52.084373 195.45938Q52.69375 196.44376 53.9125 196.44376Q55.115623 196.44376 55.69375 195.52188Q56.2875 194.58438 56.31875 192.58438L56.31875 189.9125Z" fill-rule="nonzero"/><path fill="#757575" d="M47.678123 79.63021Q47.678123 80.583336 47.1625 81.333336Q46.6625 82.083336 45.803123 82.50521Q46.803123 82.927086 47.38125 83.75521Q47.975 84.583336 47.975 85.63021Q47.975 87.28646 46.85 88.270836Q45.725 89.25521 43.896873 89.25521Q42.053123 89.25521 40.94375 88.270836Q39.834373 87.28646 39.834373 85.63021Q39.834373 84.59896 40.396873 83.770836Q40.975 82.927086 41.975 82.489586Q41.115623 82.06771 40.615623 81.31771Q40.13125 80.56771 40.13125 79.63021Q40.13125 78.00521 41.1625 77.06771Q42.209373 76.114586 43.896873 76.114586Q45.584373 76.114586 46.63125 77.06771Q47.678123 78.00521 47.678123 79.63021ZM46.35 85.59896Q46.35 84.520836 45.6625 83.84896Q44.990623 83.16146 43.88125 83.16146Q42.7875 83.16146 42.115623 83.833336Q41.459373 84.50521 41.459373 85.59896Q41.459373 86.677086 42.1 87.302086Q42.75625 87.927086 43.896873 87.927086Q45.053123 87.927086 45.69375 87.302086Q46.35 86.677086 46.35 85.59896ZM43.896873 77.44271Q42.94375 77.44271 42.35 78.03646Q41.75625 78.63021 41.75625 79.645836Q41.75625 80.63021 42.334373 81.239586Q42.928123 81.833336 43.896873 81.833336Q44.88125 81.833336 45.459373 81.239586Q46.053123 80.63021 46.053123 79.66146Q46.053123 78.677086 45.44375 78.06771Q44.834373 77.44271 43.896873 77.44271ZM57.94375 83.63021Q57.94375 86.47396 56.959373 87.864586Q55.990623 89.25521 53.9125 89.25521Q51.865623 89.25521 50.88125 87.895836Q49.896873 86.53646 49.865623 83.84896L49.865623 81.677086Q49.865623 78.84896 50.834373 77.489586Q51.81875 76.114586 53.896873 76.114586Q55.959373 76.114586 56.928123 77.44271Q57.9125 78.75521 57.94375 81.520836L57.94375 83.63021ZM56.31875 81.395836Q56.31875 79.333336 55.725 78.395836Q55.146873 77.44271 53.896873 77.44271Q52.646873 77.44271 52.06875 78.395836Q51.50625 79.333336 51.490623 81.270836L51.490623 83.88021Q51.490623 85.958336 52.084373 86.94271Q52.69375 87.927086 53.9125 87.927086Q55.115623 87.927086 55.69375 87.00521Q56.2875 86.06771 56.31875 84.06771L56.31875 81.395836Z" fill-rule="nonzero"/><path fill="#757575" d="M196.71501 536.72815L197.37126 530.35315L203.91814 530.35315L203.91814 531.85315L198.74626 531.85315L198.35564 535.3375Q199.29314 534.79065 200.49626 534.79065Q202.24626 534.79065 203.26189 535.9469Q204.29314 537.10315 204.29314 539.0719Q204.29314 541.0563 203.23064 542.1969Q202.16814 543.3219 200.24626 543.3219Q198.54314 543.3219 197.46501 542.3844Q196.40251 541.4469 196.26189 539.79065L197.79314 539.79065Q197.94939 540.8844 198.57439 541.4469Q199.21501 541.9938 200.24626 541.9938Q201.38689 541.9938 202.02751 541.22815Q202.66814 540.4469 202.66814 539.0875Q202.66814 537.8063 201.96501 537.025Q201.27751 536.2438 200.12126 536.2438Q199.05876 536.2438 198.44939 536.7125L198.01189 537.0719L196.71501 536.72815ZM213.99626 537.6969Q213.99626 540.54065 213.01189 541.9313Q212.04314 543.3219 209.96501 543.3219Q207.91814 543.3219 206.93376 541.9625Q205.94939 540.60315 205.91814 537.91565L205.91814 535.7438Q205.91814 532.91565 206.88689 531.5563Q207.87126 530.1813 209.94939 530.1813Q212.01189 530.1813 212.98064 531.5094Q213.96501 532.8219 213.99626 535.5875L213.99626 537.6969ZM212.37126 535.4625Q212.37126 533.4 211.77751 532.4625Q211.19939 531.5094 209.94939 531.5094Q208.69939 531.5094 208.12126 532.4625Q207.55876 533.4 207.54314 535.3375L207.54314 537.9469Q207.54314 540.025 208.13689 541.0094Q208.74626 541.9938 209.96501 541.9938Q211.16814 541.9938 211.74626 541.0719Q212.34001 540.1344 212.37126 538.1344L212.37126 535.4625Z" fill-rule="nonzero"/><path fill="#757575" d="M336.15826 543.15L334.51764 543.15L334.51764 532.3063L331.252 533.5094L331.252 532.04065L335.90826 530.29065L336.15826 530.29065L336.15826 543.15ZM348.84576 537.6969Q348.84576 540.54065 347.8614 541.9313Q346.89264 543.3219 344.8145 543.3219Q342.76764 543.3219 341.78326 541.9625Q340.7989 540.60315 340.76764 537.91565L340.76764 535.7438Q340.76764 532.91565 341.7364 531.5563Q342.72076 530.1813 344.7989 530.1813Q346.8614 530.1813 347.83014 531.5094Q348.8145 532.8219 348.84576 535.5875L348.84576 537.6969ZM347.22076 535.4625Q347.22076 533.4 346.627 532.4625Q346.0489 531.5094 344.7989 531.5094Q343.5489 531.5094 342.97076 532.4625Q342.40826 533.4 342.39264 535.3375L342.39264 537.9469Q342.39264 540.025 342.9864 541.0094Q343.59576 541.9938 344.8145 541.9938Q346.01764 541.9938 346.59576 541.0719Q347.1895 540.1344 347.22076 538.1344L347.22076 535.4625ZM358.84576 537.6969Q358.84576 540.54065 357.8614 541.9313Q356.89264 543.3219 354.8145 543.3219Q352.76764 543.3219 351.78326 541.9625Q350.7989 540.60315 350.76764 537.91565L350.76764 535.7438Q350.76764 532.91565 351.7364 531.5563Q352.72076 530.1813 354.7989 530.1813Q356.8614 530.1813 357.83014 531.5094Q358.8145 532.8219 358.84576 535.5875L358.84576 537.6969ZM357.22076 535.4625Q357.22076 533.4 356.627 532.4625Q356.0489 531.5094 354.7989 531.5094Q353.5489 531.5094 352.97076 532.4625Q352.40826 533.4 352.39264 535.3375L352.39264 537.9469Q352.39264 540.025 352.9864 541.0094Q353.59576 541.9938 354.8145 541.9938Q356.01764 541.9938 356.59576 541.0719Q357.1895 540.1344 357.22076 538.1344L357.22076 535.4625Z" fill-rule="nonzero"/><path fill="#757575" d="M476.00775 543.15L474.36713 543.15L474.36713 532.3063L471.1015 533.5094L471.1015 532.04065L475.75775 530.29065L476.00775 530.29065L476.00775 543.15ZM481.414 536.72815L482.07025 530.35315L488.61713 530.35315L488.61713 531.85315L483.44525 531.85315L483.05463 535.3375Q483.99213 534.79065 485.19525 534.79065Q486.94525 534.79065 487.96088 535.9469Q488.99213 537.10315 488.99213 539.0719Q488.99213 541.0563 487.92963 542.1969Q486.86713 543.3219 484.94525 543.3219Q483.24213 543.3219 482.164 542.3844Q481.1015 541.4469 480.96088 539.79065L482.49213 539.79065Q482.64838 540.8844 483.27338 541.4469Q483.914 541.9938 484.94525 541.9938Q486.08588 541.9938 486.7265 541.22815Q487.36713 540.4469 487.36713 539.0875Q487.36713 537.8063 486.664 537.025Q485.9765 536.2438 484.82025 536.2438Q483.75775 536.2438 483.14838 536.7125L482.71088 537.0719L481.414 536.72815ZM498.69525 537.6969Q498.69525 540.54065 497.71088 541.9313Q496.74213 543.3219 494.664 543.3219Q492.61713 543.3219 491.63275 541.9625Q490.64838 540.60315 490.61713 537.91565L490.61713 535.7438Q490.61713 532.91565 491.58588 531.5563Q492.57025 530.1813 494.64838 530.1813Q496.71088 530.1813 497.67963 531.5094Q498.664 532.8219 498.69525 535.5875L498.69525 537.6969ZM497.07025 535.4625Q497.07025 533.4 496.4765 532.4625Q495.89838 531.5094 494.64838 531.5094Q493.39838 531.5094 492.82025 532.4625Q492.25775 533.4 492.24213 535.3375L492.24213 537.9469Q492.24213 540.025 492.83588 541.0094Q493.44525 541.9938 494.664 541.9938Q495.86713 541.9938 496.44525 541.0719Q497.039 540.1344 497.07025 538.1344L497.07025 535.4625Z" fill-rule="nonzero"/><path fill="#757575" d="M618.9041 543.15L610.5135 543.15L610.5135 541.97815L614.951 537.0563Q615.93536 535.9469 616.29474 535.2438Q616.66974 534.54065 616.66974 533.79065Q616.66974 532.79065 616.06036 532.15Q615.4666 531.5094 614.451 531.5094Q613.23224 531.5094 612.56036 532.2125Q611.8885 532.9 611.8885 534.1188L610.2635 534.1188Q610.2635 532.35315 611.4041 531.275Q612.54474 530.1813 614.451 530.1813Q616.23224 530.1813 617.2635 531.1188Q618.31036 532.0563 618.31036 533.60315Q618.31036 535.4938 615.9041 538.10315L612.48224 541.8219L618.9041 541.8219L618.9041 543.15ZM628.54474 537.6969Q628.54474 540.54065 627.56036 541.9313Q626.5916 543.3219 624.5135 543.3219Q622.4666 543.3219 621.48224 541.9625Q620.49786 540.60315 620.4666 537.91565L620.4666 535.7438Q620.4666 532.91565 621.43536 531.5563Q622.41974 530.1813 624.49786 530.1813Q626.56036 530.1813 627.5291 531.5094Q628.5135 532.8219 628.54474 535.5875L628.54474 537.6969ZM626.91974 535.4625Q626.91974 533.4 626.326 532.4625Q625.74786 531.5094 624.49786 531.5094Q623.24786 531.5094 622.66974 532.4625Q622.10724 533.4 622.0916 535.3375L622.0916 537.9469Q622.0916 540.025 622.68536 541.0094Q623.29474 541.9938 624.5135 541.9938Q625.7166 541.9938 626.29474 541.0719Q626.8885 540.1344 626.91974 538.1344L626.91974 535.4625ZM638.54474 537.6969Q638.54474 540.54065 637.56036 541.9313Q636.5916 543.3219 634.5135 543.3219Q632.4666 543.3219 631.48224 541.9625Q630.49786 540.60315 630.4666 537.91565L630.4666 535.7438Q630.4666 532.91565 631.43536 531.5563Q632.41974 530.1813 634.49786 530.1813Q636.56036 530.1813 637.5291 531.5094Q638.5135 532.8219 638.54474 535.5875L638.54474 537.6969ZM636.91974 535.4625Q636.91974 533.4 636.326 532.4625Q635.74786 531.5094 634.49786 531.5094Q633.24786 531.5094 632.66974 532.4625Q632.10724 533.4 632.0916 535.3375L632.0916 537.9469Q632.0916 540.025 632.68536 541.0094Q633.29474 541.9938 634.5135 541.9938Q635.7166 541.9938 636.29474 541.0719Q636.8885 540.1344 636.91974 538.1344L636.91974 535.4625Z" fill-rule="nonzero"/><path fill="#757575" d="M758.7536 543.15L750.363 543.15L750.363 541.97815L754.8005 537.0563Q755.78485 535.9469 756.1442 535.2438Q756.5192 534.54065 756.5192 533.79065Q756.5192 532.79065 755.90985 532.15Q755.3161 531.5094 754.3005 531.5094Q753.0817 531.5094 752.40985 532.2125Q751.738 532.9 751.738 534.1188L750.113 534.1188Q750.113 532.35315 751.2536 531.275Q752.3942 530.1813 754.3005 530.1813Q756.0817 530.1813 757.113 531.1188Q758.15985 532.0563 758.15985 533.60315Q758.15985 535.4938 755.7536 538.10315L752.3317 541.8219L758.7536 541.8219L758.7536 543.15ZM761.113 536.72815L761.7692 530.35315L768.3161 530.35315L768.3161 531.85315L763.1442 531.85315L762.7536 535.3375Q763.6911 534.79065 764.8942 534.79065Q766.6442 534.79065 767.65985 535.9469Q768.6911 537.10315 768.6911 539.0719Q768.6911 541.0563 767.6286 542.1969Q766.5661 543.3219 764.6442 543.3219Q762.9411 543.3219 761.863 542.3844Q760.8005 541.4469 760.65985 539.79065L762.1911 539.79065Q762.34735 540.8844 762.97235 541.4469Q763.613 541.9938 764.6442 541.9938Q765.78485 541.9938 766.4255 541.22815Q767.0661 540.4469 767.0661 539.0875Q767.0661 537.8063 766.363 537.025Q765.6755 536.2438 764.5192 536.2438Q763.4567 536.2438 762.84735 536.7125L762.40985 537.0719L761.113 536.72815ZM778.3942 537.6969Q778.3942 540.54065 777.40985 541.9313Q776.4411 543.3219 774.363 543.3219Q772.3161 543.3219 771.3317 541.9625Q770.34735 540.60315 770.3161 537.91565L770.3161 535.7438Q770.3161 532.91565 771.28485 531.5563Q772.2692 530.1813 774.34735 530.1813Q776.40985 530.1813 777.3786 531.5094Q778.363 532.8219 778.3942 535.5875L778.3942 537.6969ZM776.7692 535.4625Q776.7692 533.4 776.1755 532.4625Q775.59735 531.5094 774.34735 531.5094Q773.09735 531.5094 772.5192 532.4625Q771.9567 533.4 771.9411 535.3375L771.9411 537.9469Q771.9411 540.025 772.53485 541.0094Q773.1442 541.9938 774.363 541.9938Q775.5661 541.9938 776.1442 541.0719Q776.738 540.1344 776.7692 538.1344L776.7692 535.4625Z" fill-rule="nonzero"/><path fill="#757575" d="M892.5719 535.9625L893.8063 535.9625Q894.9469 535.9469 895.60315 535.35315Q896.275 534.7594 896.275 533.7594Q896.275 531.5094 894.025 531.5094Q892.97815 531.5094 892.3375 532.1188Q891.7125 532.7125 891.7125 533.7125L890.0875 533.7125Q890.0875 532.1969 891.1969 531.1969Q892.3219 530.1813 894.025 530.1813Q895.8375 530.1813 896.8688 531.1344Q897.9 532.0875 897.9 533.79065Q897.9 534.6344 897.35315 535.41565Q896.8219 536.1969 895.8844 536.5875Q896.9313 536.91565 897.5094 537.6969Q898.0875 538.4625 898.0875 539.5875Q898.0875 541.3063 896.9625 542.3219Q895.8375 543.3219 894.025 543.3219Q892.22815 543.3219 891.10315 542.35315Q889.97815 541.3688 889.97815 539.775L891.6188 539.775Q891.6188 540.79065 892.275 541.4Q892.9313 541.9938 894.04065 541.9938Q895.2125 541.9938 895.8375 541.3844Q896.4625 540.775 896.4625 539.6188Q896.4625 538.4938 895.775 537.9Q895.0875 537.3063 893.8063 537.29065L892.5719 537.29065L892.5719 535.9625ZM908.2438 537.6969Q908.2438 540.54065 907.2594 541.9313Q906.29065 543.3219 904.2125 543.3219Q902.16565 543.3219 901.1813 541.9625Q900.1969 540.60315 900.16565 537.91565L900.16565 535.7438Q900.16565 532.91565 901.1344 531.5563Q902.1188 530.1813 904.1969 530.1813Q906.2594 530.1813 907.22815 531.5094Q908.2125 532.8219 908.2438 535.5875L908.2438 537.6969ZM906.6188 535.4625Q906.6188 533.4 906.025 532.4625Q905.4469 531.5094 904.1969 531.5094Q902.9469 531.5094 902.3688 532.4625Q901.8063 533.4 901.79065 535.3375L901.79065 537.9469Q901.79065 540.025 902.3844 541.0094Q902.9938 541.9938 904.2125 541.9938Q905.41565 541.9938 905.9938 541.0719Q906.5875 540.1344 906.6188 538.1344L906.6188 535.4625ZM918.2438 537.6969Q918.2438 540.54065 917.2594 541.9313Q916.29065 543.3219 914.2125 543.3219Q912.16565 543.3219 911.1813 541.9625Q910.1969 540.60315 910.16565 537.91565L910.16565 535.7438Q910.16565 532.91565 911.1344 531.5563Q912.1188 530.1813 914.1969 530.1813Q916.2594 530.1813 917.22815 531.5094Q918.2125 532.8219 918.2438 535.5875L918.2438 537.6969ZM916.6188 535.4625Q916.6188 533.4 916.025 532.4625Q915.4469 531.5094 914.1969 531.5094Q912.9469 531.5094 912.3688 532.4625Q911.8063 533.4 911.79065 535.3375L911.79065 537.9469Q911.79065 540.025 912.3844 541.0094Q912.9938 541.9938 914.2125 541.9938Q915.41565 541.9938 915.9938 541.0719Q916.5875 540.1344 916.6188 538.1344L916.6188 535.4625Z" fill-rule="nonzero"/><path stroke="#4285f4" stroke-width="4.0" stroke-linecap="butt" d="M315.0 40.85L327.0 40.85" fill-rule="nonzero"/><path fill="#757575" d="M338.0625 37.2875L338.10938 38.459373Q339.28125 37.084373 341.25 37.084373Q343.46875 37.084373 344.26562 38.7875Q344.79688 38.021873 345.64062 37.553123Q346.48438 37.084373 347.64062 37.084373Q351.10938 37.084373 351.17188 40.771873L351.17188 47.85L349.35938 47.85L349.35938 40.88125Q349.35938 39.740623 348.84375 39.178123Q348.32812 38.615623 347.10938 38.615623Q346.10938 38.615623 345.4375 39.225Q344.78125 39.81875 344.67188 40.834373L344.67188 47.85L342.85938 47.85L342.85938 40.928123Q342.85938 38.615623 340.59375 38.615623Q338.8125 38.615623 338.17188 40.13125L338.17188 47.85L336.35938 47.85L336.35938 37.2875L338.0625 37.2875ZM358.75 48.053123Q356.60938 48.053123 355.25 46.646873Q353.90625 45.225 353.90625 42.865623L353.90625 42.521873Q353.90625 40.959373 354.5 39.725Q355.10938 38.490623 356.1875 37.7875Q357.26562 37.084373 358.53125 37.084373Q360.59375 37.084373 361.73438 38.44375Q362.875 39.803123 362.875 42.334373L362.875 43.084373L355.71875 43.084373Q355.75 44.646873 356.625 45.615623Q357.5 46.56875 358.84375 46.56875Q359.8125 46.56875 360.46875 46.178123Q361.14062 45.7875 361.64062 45.146873L362.73438 46.00625Q361.40625 48.053123 358.75 48.053123ZM358.53125 38.56875Q357.4375 38.56875 356.6875 39.365623Q355.95312 40.1625 355.78125 41.6L361.0625 41.6L361.0625 41.459373Q360.98438 40.084373 360.3125 39.334373Q359.65625 38.56875 358.53125 38.56875ZM371.89062 47.85Q371.73438 47.5375 371.64062 46.740623Q370.375 48.053123 368.625 48.053123Q367.0625 48.053123 366.0625 47.1625Q365.0625 46.271873 365.0625 44.9125Q365.0625 43.271873 366.3125 42.365623Q367.57812 41.44375 369.84375 41.44375L371.60938 41.44375L371.60938 40.615623Q371.60938 39.6625 371.03125 39.1Q370.46875 38.5375 369.375 38.5375Q368.40625 38.5375 367.75 39.0375Q367.09375 39.521873 367.09375 40.209373L365.28125 40.209373Q365.28125 39.428123 365.84375 38.69375Q366.40625 37.94375 367.35938 37.521873Q368.32812 37.084373 369.48438 37.084373Q371.3125 37.084373 372.34375 38.00625Q373.375 38.9125 373.42188 40.521873L373.42188 45.38125Q373.42188 46.834373 373.78125 47.69375L373.78125 47.85L371.89062 47.85ZM368.89062 46.475Q369.75 46.475 370.5 46.0375Q371.26562 45.6 371.60938 44.896873L371.60938 42.725L370.1875 42.725Q366.875 42.725 366.875 44.6625Q366.875 45.521873 367.4375 46.00625Q368.0 46.475 368.89062 46.475ZM378.07812 37.2875L378.14062 38.615623Q379.34375 37.084373 381.29688 37.084373Q384.65625 37.084373 384.67188 40.865623L384.67188 47.85L382.875 47.85L382.875 40.85Q382.85938 39.709373 382.34375 39.1625Q381.84375 38.615623 380.75 38.615623Q379.875 38.615623 379.20312 39.084373Q378.54688 39.553123 378.17188 40.31875L378.17188 47.85L376.375 47.85L376.375 37.2875L378.07812 37.2875ZM391.92188 42.475Q391.92188 40.053123 393.07812 38.56875Q394.23438 37.084373 396.09375 37.084373Q397.95312 37.084373 399.03125 38.35L399.03125 32.85L400.84375 32.85L400.84375 47.85L399.1875 47.85L399.09375 46.709373Q398.01562 48.053123 396.07812 48.053123Q394.25 48.053123 393.07812 46.553123Q391.92188 45.0375 391.92188 42.615623L391.92188 42.475ZM393.73438 42.678123Q393.73438 44.475 394.46875 45.490623Q395.21875 46.50625 396.53125 46.50625Q398.25 46.50625 399.03125 44.975L399.03125 40.115623Q398.23438 38.615623 396.54688 38.615623Q395.21875 38.615623 394.46875 39.646873Q393.73438 40.678123 393.73438 42.678123ZM405.32812 47.85L403.53125 47.85L403.53125 37.2875L405.32812 37.2875L405.32812 47.85ZM403.375 34.475Q403.375 34.0375 403.64062 33.740623Q403.92188 33.428123 404.4375 33.428123Q404.96875 33.428123 405.23438 33.740623Q405.51562 34.0375 405.51562 34.475Q405.51562 34.9125 405.23438 35.209373Q404.96875 35.50625 404.4375 35.50625Q403.92188 35.50625 403.64062 35.209373Q403.375 34.9125 403.375 34.475ZM414.51562 45.053123Q414.51562 44.31875 413.96875 43.9125Q413.42188 43.50625 412.04688 43.209373Q410.67188 42.9125 409.85938 42.50625Q409.0625 42.1 408.67188 41.5375Q408.29688 40.959373 408.29688 40.178123Q408.29688 38.88125 409.39062 37.990623Q410.48438 37.084373 412.20312 37.084373Q414.0 37.084373 415.10938 38.021873Q416.23438 38.94375 416.23438 40.38125L414.40625 40.38125Q414.40625 39.646873 413.78125 39.115623Q413.15625 38.56875 412.20312 38.56875Q411.20312 38.56875 410.64062 39.00625Q410.09375 39.428123 410.09375 40.13125Q410.09375 40.771873 410.60938 41.115623Q411.125 41.44375 412.48438 41.75625Q413.84375 42.053123 414.67188 42.475Q415.51562 42.88125 415.92188 43.475Q416.32812 44.06875 416.32812 44.9125Q416.32812 46.334373 415.1875 47.19375Q414.0625 48.053123 412.25 48.053123Q410.98438 48.053123 410.0 47.6Q409.03125 47.146873 408.46875 46.35Q407.92188 45.5375 407.92188 44.6L409.73438 44.6Q409.78125 45.50625 410.45312 46.0375Q411.14062 46.56875 412.25 46.56875Q413.28125 46.56875 413.89062 46.1625Q414.51562 45.740623 414.51562 45.053123ZM420.8125 34.725L420.8125 37.2875L422.79688 37.2875L422.79688 38.678123L420.8125 38.678123L420.8125 45.225Q420.8125 45.865623 421.07812 46.19375Q421.34375 46.50625 421.98438 46.50625Q422.29688 46.50625 422.84375 46.38125L422.84375 47.85Q422.125 48.053123 421.45312 48.053123Q420.25 48.053123 419.625 47.31875Q419.01562 46.584373 419.01562 45.225L419.01562 38.678123L417.09375 38.678123L417.09375 37.2875L419.01562 37.2875L419.01562 34.725L420.8125 34.725ZM431.89062 47.85Q431.73438 47.5375 431.64062 46.740623Q430.375 48.053123 428.625 48.053123Q427.0625 48.053123 426.0625 47.1625Q425.0625 46.271873 425.0625 44.9125Q425.0625 43.271873 426.3125 42.365623Q427.57812 41.44375 429.84375 41.44375L431.60938 41.44375L431.60938 40.615623Q431.60938 39.6625 431.03125 39.1Q430.46875 38.5375 429.375 38.5375Q428.40625 38.5375 427.75 39.0375Q427.09375 39.521873 427.09375 40.209373L425.28125 40.209373Q425.28125 39.428123 425.84375 38.69375Q426.40625 37.94375 427.35938 37.521873Q428.32812 37.084373 429.48438 37.084373Q431.3125 37.084373 432.34375 38.00625Q433.375 38.9125 433.42188 40.521873L433.42188 45.38125Q433.42188 46.834373 433.78125 47.69375L433.78125 47.85L431.89062 47.85ZM428.89062 46.475Q429.75 46.475 430.5 46.0375Q431.26562 45.6 431.60938 44.896873L431.60938 42.725L430.1875 42.725Q426.875 42.725 426.875 44.6625Q426.875 45.521873 427.4375 46.00625Q428.0 46.475 428.89062 46.475ZM438.07812 37.2875L438.14062 38.615623Q439.34375 37.084373 441.29688 37.084373Q444.65625 37.084373 444.67188 40.865623L444.67188 47.85L442.875 47.85L442.875 40.85Q442.85938 39.709373 442.34375 39.1625Q441.84375 38.615623 440.75 38.615623Q439.875 38.615623 439.20312 39.084373Q438.54688 39.553123 438.17188 40.31875L438.17188 47.85L436.375 47.85L436.375 37.2875L438.07812 37.2875ZM451.60938 46.56875Q452.57812 46.56875 453.29688 45.990623Q454.01562 45.396873 454.09375 44.521873L455.8125 44.521873Q455.75 45.428123 455.17188 46.25625Q454.60938 47.06875 453.64062 47.56875Q452.6875 48.053123 451.60938 48.053123Q449.45312 48.053123 448.17188 46.615623Q446.90625 45.1625 446.90625 42.6625L446.90625 42.365623Q446.90625 40.81875 447.46875 39.615623Q448.03125 38.4125 449.09375 37.75625Q450.15625 37.084373 451.59375 37.084373Q453.375 37.084373 454.54688 38.146873Q455.73438 39.209373 455.8125 40.9125L454.09375 40.9125Q454.01562 39.896873 453.3125 39.240623Q452.625 38.56875 451.59375 38.56875Q450.21875 38.56875 449.45312 39.56875Q448.70312 40.553123 448.70312 42.428123L448.70312 42.771873Q448.70312 44.6 449.45312 45.584373Q450.20312 46.56875 451.60938 46.56875ZM461.75 48.053123Q459.60938 48.053123 458.25 46.646873Q456.90625 45.225 456.90625 42.865623L456.90625 42.521873Q456.90625 40.959373 457.5 39.725Q458.10938 38.490623 459.1875 37.7875Q460.26562 37.084373 461.53125 37.084373Q463.59375 37.084373 464.73438 38.44375Q465.875 39.803123 465.875 42.334373L465.875 43.084373L458.71875 43.084373Q458.75 44.646873 459.625 45.615623Q460.5 46.56875 461.84375 46.56875Q462.8125 46.56875 463.46875 46.178123Q464.14062 45.7875 464.64062 45.146873L465.73438 46.00625Q464.40625 48.053123 461.75 48.053123ZM461.53125 38.56875Q460.4375 38.56875 459.6875 39.365623Q458.95312 40.1625 458.78125 41.6L464.0625 41.6L464.0625 41.459373Q463.98438 40.084373 463.3125 39.334373Q462.65625 38.56875 461.53125 38.56875Z" fill-rule="nonzero"/><path stroke="#db4437" stroke-width="4.0" stroke-linecap="butt" d="M483.0 40.85L495.0 40.85" fill-rule="nonzero"/><path fill="#757575" d="M506.0625 37.2875L506.10938 38.459373Q507.28125 37.084373 509.25 37.084373Q511.46875 37.084373 512.2656 38.7875Q512.7969 38.021873 513.6406 37.553123Q514.4844 37.084373 515.6406 37.084373Q519.1094 37.084373 519.1719 40.771873L519.1719 47.85L517.3594 47.85L517.3594 40.88125Q517.3594 39.740623 516.84375 39.178123Q516.3281 38.615623 515.1094 38.615623Q514.1094 38.615623 513.4375 39.225Q512.78125 39.81875 512.6719 40.834373L512.6719 47.85L510.85938 47.85L510.85938 40.928123Q510.85938 38.615623 508.59375 38.615623Q506.8125 38.615623 506.17188 40.13125L506.17188 47.85L504.35938 47.85L504.35938 37.2875L506.0625 37.2875ZM524.3281 47.85L522.53125 47.85L522.53125 37.2875L524.3281 37.2875L524.3281 47.85ZM522.375 34.475Q522.375 34.0375 522.6406 33.740623Q522.9219 33.428123 523.4375 33.428123Q523.96875 33.428123 524.2344 33.740623Q524.5156 34.0375 524.5156 34.475Q524.5156 34.9125 524.2344 35.209373Q523.96875 35.50625 523.4375 35.50625Q522.9219 35.50625 522.6406 35.209373Q522.375 34.9125 522.375 34.475ZM529.0781 37.2875L529.1406 38.615623Q530.34375 37.084373 532.2969 37.084373Q535.65625 37.084373 535.6719 40.865623L535.6719 47.85L533.875 47.85L533.875 40.85Q533.8594 39.709373 533.34375 39.1625Q532.84375 38.615623 531.75 38.615623Q530.875 38.615623 530.2031 39.084373Q529.5469 39.553123 529.1719 40.31875L529.1719 47.85L527.375 47.85L527.375 37.2875L529.0781 37.2875ZM542.9219 42.475Q542.9219 40.053123 544.0781 38.56875Q545.2344 37.084373 547.09375 37.084373Q548.9531 37.084373 550.03125 38.35L550.03125 32.85L551.84375 32.85L551.84375 47.85L550.1875 47.85L550.09375 46.709373Q549.0156 48.053123 547.0781 48.053123Q545.25 48.053123 544.0781 46.553123Q542.9219 45.0375 542.9219 42.615623L542.9219 42.475ZM544.7344 42.678123Q544.7344 44.475 545.46875 45.490623Q546.21875 46.50625 547.53125 46.50625Q549.25 46.50625 550.03125 44.975L550.03125 40.115623Q549.2344 38.615623 547.5469 38.615623Q546.21875 38.615623 545.46875 39.646873Q544.7344 40.678123 544.7344 42.678123ZM556.3281 47.85L554.53125 47.85L554.53125 37.2875L556.3281 37.2875L556.3281 47.85ZM554.375 34.475Q554.375 34.0375 554.6406 33.740623Q554.9219 33.428123 555.4375 33.428123Q555.96875 33.428123 556.2344 33.740623Q556.5156 34.0375 556.5156 34.475Q556.5156 34.9125 556.2344 35.209373Q555.96875 35.50625 555.4375 35.50625Q554.9219 35.50625 554.6406 35.209373Q554.375 34.9125 554.375 34.475ZM565.5156 45.053123Q565.5156 44.31875 564.96875 43.9125Q564.4219 43.50625 563.0469 43.209373Q561.6719 42.9125 560.8594 42.50625Q560.0625 42.1 559.6719 41.5375Q559.2969 40.959373 559.2969 40.178123Q559.2969 38.88125 560.3906 37.990623Q561.4844 37.084373 563.2031 37.084373Q565.0 37.084373 566.1094 38.021873Q567.2344 38.94375 567.2344 40.38125L565.40625 40.38125Q565.40625 39.646873 564.78125 39.115623Q564.15625 38.56875 563.2031 38.56875Q562.2031 38.56875 561.6406 39.00625Q561.09375 39.428123 561.09375 40.13125Q561.09375 40.771873 561.6094 41.115623Q562.125 41.44375 563.4844 41.75625Q564.84375 42.053123 565.6719 42.475Q566.5156 42.88125 566.9219 43.475Q567.3281 44.06875 567.3281 44.9125Q567.3281 46.334373 566.1875 47.19375Q565.0625 48.053123 563.25 48.053123Q561.9844 48.053123 561.0 47.6Q560.03125 47.146873 559.46875 46.35Q558.9219 45.5375 558.9219 44.6L560.7344 44.6Q560.78125 45.50625 561.4531 46.0375Q562.1406 46.56875 563.25 46.56875Q564.28125 46.56875 564.8906 46.1625Q565.5156 45.740623 565.5156 45.053123ZM571.8125 34.725L571.8125 37.2875L573.7969 37.2875L573.7969 38.678123L571.8125 38.678123L571.8125 45.225Q571.8125 45.865623 572.0781 46.19375Q572.34375 46.50625 572.9844 46.50625Q573.2969 46.50625 573.84375 46.38125L573.84375 47.85Q573.125 48.053123 572.4531 48.053123Q571.25 48.053123 570.625 47.31875Q570.0156 46.584373 570.0156 45.225L570.0156 38.678123L568.09375 38.678123L568.09375 37.2875L570.0156 37.2875L570.0156 34.725L571.8125 34.725ZM582.8906 47.85Q582.7344 47.5375 582.6406 46.740623Q581.375 48.053123 579.625 48.053123Q578.0625 48.053123 577.0625 47.1625Q576.0625 46.271873 576.0625 44.9125Q576.0625 43.271873 577.3125 42.365623Q578.5781 41.44375 580.84375 41.44375L582.6094 41.44375L582.6094 40.615623Q582.6094 39.6625 582.03125 39.1Q581.46875 38.5375 580.375 38.5375Q579.40625 38.5375 578.75 39.0375Q578.09375 39.521873 578.09375 40.209373L576.28125 40.209373Q576.28125 39.428123 576.84375 38.69375Q577.40625 37.94375 578.3594 37.521873Q579.3281 37.084373 580.4844 37.084373Q582.3125 37.084373 583.34375 38.00625Q584.375 38.9125 584.4219 40.521873L584.4219 45.38125Q584.4219 46.834373 584.78125 47.69375L584.78125 47.85L582.8906 47.85ZM579.8906 46.475Q580.75 46.475 581.5 46.0375Q582.2656 45.6 582.6094 44.896873L582.6094 42.725L581.1875 42.725Q577.875 42.725 577.875 44.6625Q577.875 45.521873 578.4375 46.00625Q579.0 46.475 579.8906 46.475ZM589.0781 37.2875L589.1406 38.615623Q590.34375 37.084373 592.2969 37.084373Q595.65625 37.084373 595.6719 40.865623L595.6719 47.85L593.875 47.85L593.875 40.85Q593.8594 39.709373 593.34375 39.1625Q592.84375 38.615623 591.75 38.615623Q590.875 38.615623 590.2031 39.084373Q589.5469 39.553123 589.1719 40.31875L589.1719 47.85L587.375 47.85L587.375 37.2875L589.0781 37.2875ZM602.6094 46.56875Q603.5781 46.56875 604.2969 45.990623Q605.0156 45.396873 605.09375 44.521873L606.8125 44.521873Q606.75 45.428123 606.1719 46.25625Q605.6094 47.06875 604.6406 47.56875Q603.6875 48.053123 602.6094 48.053123Q600.4531 48.053123 599.1719 46.615623Q597.90625 45.1625 597.90625 42.6625L597.90625 42.365623Q597.90625 40.81875 598.46875 39.615623Q599.03125 38.4125 600.09375 37.75625Q601.15625 37.084373 602.59375 37.084373Q604.375 37.084373 605.5469 38.146873Q606.7344 39.209373 606.8125 40.9125L605.09375 40.9125Q605.0156 39.896873 604.3125 39.240623Q603.625 38.56875 602.59375 38.56875Q601.21875 38.56875 600.4531 39.56875Q599.7031 40.553123 599.7031 42.428123L599.7031 42.771873Q599.7031 44.6 600.4531 45.584373Q601.2031 46.56875 602.6094 46.56875ZM612.75 48.053123Q610.6094 48.053123 609.25 46.646873Q607.90625 45.225 607.90625 42.865623L607.90625 42.521873Q607.90625 40.959373 608.5 39.725Q609.1094 38.490623 610.1875 37.7875Q611.2656 37.084373 612.53125 37.084373Q614.59375 37.084373 615.7344 38.44375Q616.875 39.803123 616.875 42.334373L616.875 43.084373L609.71875 43.084373Q609.75 44.646873 610.625 45.615623Q611.5 46.56875 612.84375 46.56875Q613.8125 46.56875 614.46875 46.178123Q615.1406 45.7875 615.6406 45.146873L616.7344 46.00625Q615.40625 48.053123 612.75 48.053123ZM612.53125 38.56875Q611.4375 38.56875 610.6875 39.365623Q609.9531 40.1625 609.78125 41.6L615.0625 41.6L615.0625 41.459373Q614.9844 40.084373 614.3125 39.334373Q613.65625 38.56875 612.53125 38.56875Z" fill-rule="nonzero"/></svg>