<svg version="1.1" viewBox="0.0 0.0 1180.0 566.0" fill="none" stroke="none" stroke-linecap="square" stroke-miterlimit="10" width="1180" height="566" xmlns:xlink="http://www.w3.org/1999/xlink" xmlns="http://www.w3.org/2000/svg"><path fill="#ffffff" d="M0 0L1180.0 0L1180.0 566.0L0 566.0L0 0Z" fill-rule="nonzero"/><path fill="#ffffff" d="M0 0L1180.0 0L1180.0 566.0L0 566.0L0 0Z" fill-rule="nonzero"/><path stroke="#333333" stroke-width="1.0" stroke-linecap="butt" d="M120.5 497.5L953.5 497.5" fill-rule="nonzero"/><path fill="#eeeeee" d="M114.5 503.5L120.5 498.5L953.5 498.5L947.5 503.5Z" fill-rule="nonzero"/><path stroke="#cccccc" stroke-width="1.0" stroke-linecap="butt" d="M120.5 383.5L953.5 383.5" fill-rule="nonzero"/><path stroke="#cccccc" stroke-width="1.0" stroke-linecap="butt" d="M120.5 269.5L953.5 269.5" fill-rule="nonzero"/><path stroke="#cccccc" stroke-width="1.0" stroke-linecap="butt" d="M120.5 154.5L953.5 154.5" fill-rule="nonzero"/><path stroke="#cccccc" stroke-width="1.0" stroke-linecap="butt" d="M120.5 40.5L953.5 40.5" fill-rule="nonzero"/><clipPath id="id_0"><path d="M114.3 40.3L953.74 40.3L953.74 503.7L114.3 503.7L114.3 40.3Z" clip-rule="nonzero"/></clipPath><path fill="#2b569f" clip-path="url(#id_0)" d="M187.0 498.0L187.0 498.0L183.0 502.0L183.0 502.0Z" fill-rule="nonzero"/><path fill="#689df6" clip-path="url(#id_0)" d="M183.0 502.0L167.0 502.0L171.0 498.0L187.0 498.0Z" fill-rule="nonzero"/><path stroke="#000000" stroke-width="0.0" stroke-linecap="butt" stroke-opacity="0.0" clip-path="url(#id_0)" d="M183.0 502.0L167.0 502.0L167.0 502.0L183.0 502.0Z" fill-rule="nonzero"/><path fill="#4285f4" clip-path="url(#id_0)" d="M183.0 502.0L167.0 502.0L167.0 502.0L183.0 502.0Z" fill-rule="nonzero"/><path fill="#2b569f" clip-path="url(#id_0)" d="M344.0 498.0L344.0 498.0L340.0 502.0L340.0 502.0Z" fill-rule="nonzero"/><path fill="#689df6" clip-path="url(#id_0)" d="M340.0 502.0L324.0 502.0L328.0 498.0L344.0 498.0Z" fill-rule="nonzero"/><path stroke="#000000" stroke-width="0.0" stroke-linecap="butt" stroke-opacity="0.0" clip-path="url(#id_0)" d="M340.0 502.0L324.0 502.0L324.0 502.0L340.0 502.0Z" fill-rule="nonzero"/><path fill="#4285f4" clip-path="url(#id_0)" d="M340.0 502.0L324.0 502.0L324.0 502.0L340.0 502.0Z" fill-rule="nonzero"/><path fill="#2b569f" clip-path="url(#id_0)" d="M501.0 498.0L501.0 498.0L497.0 502.0L497.0 502.0Z" fill-rule="nonzero"/><path fill="#689df6" clip-path="url(#id_0)" d="M497.0 502.0L481.0 502.0L485.0 498.0L501.0 498.0Z" fill-rule="nonzero"/><path stroke="#000000" stroke-width="0.0" stroke-linecap="butt" stroke-opacity="0.0" clip-path="url(#id_0)" d="M497.0 502.0L481.0 502.0L481.0 502.0L497.0 502.0Z" fill-rule="nonzero"/><path fill="#4285f4" clip-path="url(#id_0)" d="M497.0 502.0L481.0 502.0L481.0 502.0L497.0 502.0Z" fill-rule="nonzero"/><path fill="#2b569f" clip-path="url(#id_0)" d="M658.0 498.0L658.0 498.0L654.0 502.0L654.0 502.0Z" fill-rule="nonzero"/><path fill="#689df6" clip-path="url(#id_0)" d="M654.0 502.0L638.0 502.0L642.0 498.0L658.0 498.0Z" fill-rule="nonzero"/><path stroke="#000000" stroke-width="0.0" stroke-linecap="butt" stroke-opacity="0.0" clip-path="url(#id_0)" d="M654.0 502.0L638.0 502.0L638.0 502.0L654.0 502.0Z" fill-rule="nonzero"/><path fill="#4285f4" clip-path="url(#id_0)" d="M654.0 502.0L638.0 502.0L638.0 502.0L654.0 502.0Z" fill-rule="nonzero"/><path fill="#2b569f" clip-path="url(#id_0)" d="M815.0 498.0L815.0 498.0L811.0 502.0L811.0 502.0Z" fill-rule="nonzero"/><path fill="#689df6" clip-path="url(#id_0)" d="M811.0 502.0L795.0 502.0L799.0 498.0L815.0 498.0Z" fill-rule="nonzero"/><path stroke="#000000" stroke-width="0.0" stroke-linecap="butt" stroke-opacity="0.0" clip-path="url(#id_0)" d="M811.0 502.0L795.0 502.0L795.0 502.0L811.0 502.0Z" fill-rule="nonzero"/><path fill="#4285f4" clip-path="url(#id_0)" d="M811.0 502.0L795.0 502.0L795.0 502.0L811.0 502.0Z" fill-rule="nonzero"/><path fill="#8e2c24" clip-path="url(#id_0)" d="M204.0 498.0L204.0 498.0L200.0 502.0L200.0 502.0Z" fill-rule="nonzero"/><path fill="#e2695f" clip-path="url(#id_0)" d="M200.0 502.0L184.0 502.0L188.0 498.0L204.0 498.0Z" fill-rule="nonzero"/><path stroke="#000000" stroke-width="0.0" stroke-linecap="butt" stroke-opacity="0.0" clip-path="url(#id_0)" d="M200.0 502.0L184.0 502.0L184.0 502.0L200.0 502.0Z" fill-rule="nonzero"/><path fill="#db4437" clip-path="url(#id_0)" d="M200.0 502.0L184.0 502.0L184.0 502.0L200.0 502.0Z" fill-rule="nonzero"/><path fill="#8e2c24" clip-path="url(#id_0)" d="M361.0 498.0L361.0 498.0L357.0 502.0L357.0 502.0Z" fill-rule="nonzero"/><path fill="#e2695f" clip-path="url(#id_0)" d="M357.0 502.0L341.0 502.0L345.0 498.0L361.0 498.0Z" fill-rule="nonzero"/><path stroke="#000000" stroke-width="0.0" stroke-linecap="butt" stroke-opacity="0.0" clip-path="url(#id_0)" d="M357.0 502.0L341.0 502.0L341.0 502.0L357.0 502.0Z" fill-rule="nonzero"/><path fill="#db4437" clip-path="url(#id_0)" d="M357.0 502.0L341.0 502.0L341.0 502.0L357.0 502.0Z" fill-rule="nonzero"/><path fill="#8e2c24" clip-path="url(#id_0)" d="M518.0 498.0L518.0 498.0L514.0 502.0L514.0 502.0Z" fill-rule="nonzero"/><path fill="#e2695f" clip-path="url(#id_0)" d="M514.0 502.0L498.0 502.0L502.0 498.0L518.0 498.0Z" fill-rule="nonzero"/><path stroke="#000000" stroke-width="0.0" stroke-linecap="butt" stroke-opacity="0.0" clip-path="url(#id_0)" d="M514.0 502.0L498.0 502.0L498.0 502.0L514.0 502.0Z" fill-rule="nonzero"/><path fill="#db4437" clip-path="url(#id_0)" d="M514.0 502.0L498.0 502.0L498.0 502.0L514.0 502.0Z" fill-rule="nonzero"/><path fill="#8e2c24" clip-path="url(#id_0)" d="M675.0 498.0L675.0 498.0L671.0 502.0L671.0 502.0Z" fill-rule="nonzero"/><path fill="#e2695f" clip-path="url(#id_0)" d="M671.0 502.0L655.0 502.0L659.0 498.0L675.0 498.0Z" fill-rule="nonzero"/><path stroke="#000000" stroke-width="0.0" stroke-linecap="butt" stroke-opacity="0.0" clip-path="url(#id_0)" d="M671.0 502.0L655.0 502.0L655.0 502.0L671.0 502.0Z" fill-rule="nonzero"/><path fill="#db4437" clip-path="url(#id_0)" d="M671.0 502.0L655.0 502.0L655.0 502.0L671.0 502.0Z" fill-rule="nonzero"/><path fill="#8e2c24" clip-path="url(#id_0)" d="M832.0 498.0L832.0 498.0L828.0 502.0L828.0 502.0Z" fill-rule="nonzero"/><path fill="#e2695f" clip-path="url(#id_0)" d="M828.0 502.0L812.0 502.0L816.0 498.0L832.0 498.0Z" fill-rule="nonzero"/><path stroke="#000000" stroke-width="0.0" stroke-linecap="butt" stroke-opacity="0.0" clip-path="url(#id_0)" d="M828.0 502.0L812.0 502.0L812.0 502.0L828.0 502.0Z" fill-rule="nonzero"/><path fill="#db4437" clip-path="url(#id_0)" d="M828.0 502.0L812.0 502.0L812.0 502.0L828.0 502.0Z" fill-rule="nonzero"/><path fill="#9f7500" clip-path="url(#id_0)" d="M221.0 498.0L221.0 498.0L217.0 502.0L217.0 502.0Z" fill-rule="nonzero"/><path fill="#f6c333" clip-path="url(#id_0)" d="M217.0 502.0L201.0 502.0L205.0 498.0L221.0 498.0Z" fill-rule="nonzero"/><path stroke="#000000" stroke-width="0.0" stroke-linecap="butt" stroke-opacity="0.0" clip-path="url(#id_0)" d="M217.0 502.0L201.0 502.0L201.0 502.0L217.0 502.0Z" fill-rule="nonzero"/><path fill="#f4b400" clip-path="url(#id_0)" d="M217.0 502.0L201.0 502.0L201.0 502.0L217.0 502.0Z" fill-rule="nonzero"/><path fill="#9f7500" clip-path="url(#id_0)" d="M378.0 498.0L378.0 498.0L374.0 502.0L374.0 502.0Z" fill-rule="nonzero"/><path fill="#f6c333" clip-path="url(#id_0)" d="M374.0 502.0L358.0 502.0L362.0 498.0L378.0 498.0Z" fill-rule="nonzero"/><path stroke="#000000" stroke-width="0.0" stroke-linecap="butt" stroke-opacity="0.0" clip-path="url(#id_0)" d="M374.0 502.0L358.0 502.0L358.0 502.0L374.0 502.0Z" fill-rule="nonzero"/><path fill="#f4b400" clip-path="url(#id_0)" d="M374.0 502.0L358.0 502.0L358.0 502.0L374.0 502.0Z" fill-rule="nonzero"/><path fill="#9f7500" clip-path="url(#id_0)" d="M535.0 498.0L535.0 498.0L531.0 502.0L531.0 502.0Z" fill-rule="nonzero"/><path fill="#f6c333" clip-path="url(#id_0)" d="M531.0 502.0L515.0 502.0L519.0 498.0L535.0 498.0Z" fill-rule="nonzero"/><path stroke="#000000" stroke-width="0.0" stroke-linecap="butt" stroke-opacity="0.0" clip-path="url(#id_0)" d="M531.0 502.0L515.0 502.0L515.0 502.0L531.0 502.0Z" fill-rule="nonzero"/><path fill="#f4b400" clip-path="url(#id_0)" d="M531.0 502.0L515.0 502.0L515.0 502.0L531.0 502.0Z" fill-rule="nonzero"/><path fill="#9f7500" clip-path="url(#id_0)" d="M692.0 498.0L692.0 498.0L688.0 502.0L688.0 502.0Z" fill-rule="nonzero"/><path fill="#f6c333" clip-path="url(#id_0)" d="M688.0 502.0L672.0 502.0L676.0 498.0L692.0 498.0Z" fill-rule="nonzero"/><path stroke="#000000" stroke-width="0.0" stroke-linecap="butt" stroke-opacity="0.0" clip-path="url(#id_0)" d="M688.0 502.0L672.0 502.0L672.0 502.0L688.0 502.0Z" fill-rule="nonzero"/><path fill="#f4b400" clip-path="url(#id_0)" d="M688.0 502.0L672.0 502.0L672.0 502.0L688.0 502.0Z" fill-rule="nonzero"/><path fill="#9f7500" clip-path="url(#id_0)" d="M849.0 498.0L849.0 498.0L845.0 502.0L845.0 502.0Z" fill-rule="nonzero"/><path fill="#f6c333" clip-path="url(#id_0)" d="M845.0 502.0L829.0 502.0L833.0 498.0L849.0 498.0Z" fill-rule="nonzero"/><path stroke="#000000" stroke-width="0.0" stroke-linecap="butt" stroke-opacity="0.0" clip-path="url(#id_0)" d="M845.0 502.0L829.0 502.0L829.0 502.0L845.0 502.0Z" fill-rule="nonzero"/><path fill="#f4b400" clip-path="url(#id_0)" d="M845.0 502.0L829.0 502.0L829.0 502.0L845.0 502.0Z" fill-rule="nonzero"/><path fill="#0a6639" clip-path="url(#id_0)" d="M238.0 498.0L238.0 498.0L234.0 502.0L234.0 502.0Z" fill-rule="nonzero"/><path fill="#3fb179" clip-path="url(#id_0)" d="M234.0 502.0L218.0 502.0L222.0 498.0L238.0 498.0Z" fill-rule="nonzero"/><path stroke="#000000" stroke-width="0.0" stroke-linecap="butt" stroke-opacity="0.0" clip-path="url(#id_0)" d="M234.0 502.0L218.0 502.0L218.0 502.0L234.0 502.0Z" fill-rule="nonzero"/><path fill="#0f9d58" clip-path="url(#id_0)" d="M234.0 502.0L218.0 502.0L218.0 502.0L234.0 502.0Z" fill-rule="nonzero"/><path fill="#0a6639" clip-path="url(#id_0)" d="M395.0 497.0L395.0 498.0L391.0 502.0L391.0 501.0Z" fill-rule="nonzero"/><path fill="#3fb179" clip-path="url(#id_0)" d="M391.0 501.0L375.0 501.0L379.0 497.0L395.0 497.0Z" fill-rule="nonzero"/><path stroke="#000000" stroke-width="0.0" stroke-linecap="butt" stroke-opacity="0.0" clip-path="url(#id_0)" d="M391.0 502.0L375.0 502.0L375.0 501.0L391.0 501.0Z" fill-rule="nonzero"/><path fill="#0f9d58" clip-path="url(#id_0)" d="M391.0 502.0L375.0 502.0L375.0 501.0L391.0 501.0Z" fill-rule="nonzero"/><path fill="#0a6639" clip-path="url(#id_0)" d="M552.0 497.0L552.0 498.0L548.0 502.0L548.0 501.0Z" fill-rule="nonzero"/><path fill="#3fb179" clip-path="url(#id_0)" d="M548.0 501.0L532.0 501.0L536.0 497.0L552.0 497.0Z" fill-rule="nonzero"/><path stroke="#000000" stroke-width="0.0" stroke-linecap="butt" stroke-opacity="0.0" clip-path="url(#id_0)" d="M548.0 502.0L532.0 502.0L532.0 501.0L548.0 501.0Z" fill-rule="nonzero"/><path fill="#0f9d58" clip-path="url(#id_0)" d="M548.0 502.0L532.0 502.0L532.0 501.0L548.0 501.0Z" fill-rule="nonzero"/><path fill="#0a6639" clip-path="url(#id_0)" d="M709.0 494.0L709.0 498.0L705.0 502.0L705.0 498.0Z" fill-rule="nonzero"/><path fill="#3fb179" clip-path="url(#id_0)" d="M705.0 498.0L689.0 498.0L693.0 494.0L709.0 494.0Z" fill-rule="nonzero"/><path stroke="#000000" stroke-width="0.0" stroke-linecap="butt" stroke-opacity="0.0" clip-path="url(#id_0)" d="M705.0 502.0L689.0 502.0L689.0 498.0L705.0 498.0Z" fill-rule="nonzero"/><path fill="#0f9d58" clip-path="url(#id_0)" d="M705.0 502.0L689.0 502.0L689.0 498.0L705.0 498.0Z" fill-rule="nonzero"/><path fill="#0a6639" clip-path="url(#id_0)" d="M866.0 464.0L866.0 498.0L862.0 502.0L862.0 468.0Z" fill-rule="nonzero"/><path fill="#3fb179" clip-path="url(#id_0)" d="M862.0 468.0L846.0 468.0L850.0 464.0L866.0 464.0Z" fill-rule="nonzero"/><path stroke="#000000" stroke-width="0.0" stroke-linecap="butt" stroke-opacity="0.0" clip-path="url(#id_0)" d="M862.0 502.0L846.0 502.0L846.0 468.0L862.0 468.0Z" fill-rule="nonzero"/><path fill="#0f9d58" clip-path="url(#id_0)" d="M862.0 502.0L846.0 502.0L846.0 468.0L862.0 468.0Z" fill-rule="nonzero"/><path fill="#a64700" clip-path="url(#id_0)" d="M255.0 497.0L255.0 498.0L251.0 502.0L251.0 501.0Z" fill-rule="nonzero"/><path fill="#ff8a33" clip-path="url(#id_0)" d="M251.0 501.0L235.0 501.0L239.0 497.0L255.0 497.0Z" fill-rule="nonzero"/><path stroke="#000000" stroke-width="0.0" stroke-linecap="butt" stroke-opacity="0.0" clip-path="url(#id_0)" d="M251.0 502.0L235.0 502.0L235.0 501.0L251.0 501.0Z" fill-rule="nonzero"/><path fill="#ff6d00" clip-path="url(#id_0)" d="M251.0 502.0L235.0 502.0L235.0 501.0L251.0 501.0Z" fill-rule="nonzero"/><path fill="#a64700" clip-path="url(#id_0)" d="M412.0 497.0L412.0 498.0L408.0 502.0L408.0 501.0Z" fill-rule="nonzero"/><path fill="#ff8a33" clip-path="url(#id_0)" d="M408.0 501.0L392.0 501.0L396.0 497.0L412.0 497.0Z" fill-rule="nonzero"/><path stroke="#000000" stroke-width="0.0" stroke-linecap="butt" stroke-opacity="0.0" clip-path="url(#id_0)" d="M408.0 502.0L392.0 502.0L392.0 501.0L408.0 501.0Z" fill-rule="nonzero"/><path fill="#ff6d00" clip-path="url(#id_0)" d="M408.0 502.0L392.0 502.0L392.0 501.0L408.0 501.0Z" fill-rule="nonzero"/><path fill="#a64700" clip-path="url(#id_0)" d="M569.0 497.0L569.0 498.0L565.0 502.0L565.0 501.0Z" fill-rule="nonzero"/><path fill="#ff8a33" clip-path="url(#id_0)" d="M565.0 501.0L549.0 501.0L553.0 497.0L569.0 497.0Z" fill-rule="nonzero"/><path stroke="#000000" stroke-width="0.0" stroke-linecap="butt" stroke-opacity="0.0" clip-path="url(#id_0)" d="M565.0 502.0L549.0 502.0L549.0 501.0L565.0 501.0Z" fill-rule="nonzero"/><path fill="#ff6d00" clip-path="url(#id_0)" d="M565.0 502.0L549.0 502.0L549.0 501.0L565.0 501.0Z" fill-rule="nonzero"/><path fill="#a64700" clip-path="url(#id_0)" d="M726.0 494.0L726.0 498.0L722.0 502.0L722.0 498.0Z" fill-rule="nonzero"/><path fill="#ff8a33" clip-path="url(#id_0)" d="M722.0 498.0L706.0 498.0L710.0 494.0L726.0 494.0Z" fill-rule="nonzero"/><path stroke="#000000" stroke-width="0.0" stroke-linecap="butt" stroke-opacity="0.0" clip-path="url(#id_0)" d="M722.0 502.0L706.0 502.0L706.0 498.0L722.0 498.0Z" fill-rule="nonzero"/><path fill="#ff6d00" clip-path="url(#id_0)" d="M722.0 502.0L706.0 502.0L706.0 498.0L722.0 498.0Z" fill-rule="nonzero"/><path fill="#a64700" clip-path="url(#id_0)" d="M883.0 460.0L883.0 498.0L879.0 502.0L879.0 464.0Z" fill-rule="nonzero"/><path fill="#ff8a33" clip-path="url(#id_0)" d="M879.0 464.0L863.0 464.0L867.0 460.0L883.0 460.0Z" fill-rule="nonzero"/><path stroke="#000000" stroke-width="0.0" stroke-linecap="butt" stroke-opacity="0.0" clip-path="url(#id_0)" d="M879.0 502.0L863.0 502.0L863.0 464.0L879.0 464.0Z" fill-rule="nonzero"/><path fill="#ff6d00" clip-path="url(#id_0)" d="M879.0 502.0L863.0 502.0L863.0 464.0L879.0 464.0Z" fill-rule="nonzero"/><path fill="#2e7b81" clip-path="url(#id_0)" d="M272.0 496.0L272.0 498.0L268.0 502.0L268.0 500.0Z" fill-rule="nonzero"/><path fill="#6bcad1" clip-path="url(#id_0)" d="M268.0 500.0L252.0 500.0L256.0 496.0L272.0 496.0Z" fill-rule="nonzero"/><path stroke="#000000" stroke-width="0.0" stroke-linecap="butt" stroke-opacity="0.0" clip-path="url(#id_0)" d="M268.0 502.0L252.0 502.0L252.0 500.0L268.0 500.0Z" fill-rule="nonzero"/><path fill="#46bdc6" clip-path="url(#id_0)" d="M268.0 502.0L252.0 502.0L252.0 500.0L268.0 500.0Z" fill-rule="nonzero"/><path fill="#2e7b81" clip-path="url(#id_0)" d="M429.0 496.0L429.0 498.0L425.0 502.0L425.0 500.0Z" fill-rule="nonzero"/><path fill="#6bcad1" clip-path="url(#id_0)" d="M425.0 500.0L409.0 500.0L413.0 496.0L429.0 496.0Z" fill-rule="nonzero"/><path stroke="#000000" stroke-width="0.0" stroke-linecap="butt" stroke-opacity="0.0" clip-path="url(#id_0)" d="M425.0 502.0L409.0 502.0L409.0 500.0L425.0 500.0Z" fill-rule="nonzero"/><path fill="#46bdc6" clip-path="url(#id_0)" d="M425.0 502.0L409.0 502.0L409.0 500.0L425.0 500.0Z" fill-rule="nonzero"/><path fill="#2e7b81" clip-path="url(#id_0)" d="M586.0 493.0L586.0 498.0L582.0 502.0L582.0 497.0Z" fill-rule="nonzero"/><path fill="#6bcad1" clip-path="url(#id_0)" d="M582.0 497.0L566.0 497.0L570.0 493.0L586.0 493.0Z" fill-rule="nonzero"/><path stroke="#000000" stroke-width="0.0" stroke-linecap="butt" stroke-opacity="0.0" clip-path="url(#id_0)" d="M582.0 502.0L566.0 502.0L566.0 497.0L582.0 497.0Z" fill-rule="nonzero"/><path fill="#46bdc6" clip-path="url(#id_0)" d="M582.0 502.0L566.0 502.0L566.0 497.0L582.0 497.0Z" fill-rule="nonzero"/><path fill="#2e7b81" clip-path="url(#id_0)" d="M743.0 455.0L743.0 498.0L739.0 502.0L739.0 459.0Z" fill-rule="nonzero"/><path fill="#6bcad1" clip-path="url(#id_0)" d="M739.0 459.0L723.0 459.0L727.0 455.0L743.0 455.0Z" fill-rule="nonzero"/><path stroke="#000000" stroke-width="0.0" stroke-linecap="butt" stroke-opacity="0.0" clip-path="url(#id_0)" d="M739.0 502.0L723.0 502.0L723.0 459.0L739.0 459.0Z" fill-rule="nonzero"/><path fill="#46bdc6" clip-path="url(#id_0)" d="M739.0 502.0L723.0 502.0L723.0 459.0L739.0 459.0Z" fill-rule="nonzero"/><path fill="#2e7b81" clip-path="url(#id_0)" d="M900.0 45.0L900.0 498.0L896.0 502.0L896.0 49.0Z" fill-rule="nonzero"/><path fill="#6bcad1" clip-path="url(#id_0)" d="M896.0 49.0L880.0 49.0L884.0 45.0L900.0 45.0Z" fill-rule="nonzero"/><path stroke="#000000" stroke-width="0.0" stroke-linecap="butt" stroke-opacity="0.0" clip-path="url(#id_0)" d="M896.0 502.0L880.0 502.0L880.0 49.0L896.0 49.0Z" fill-rule="nonzero"/><path fill="#46bdc6" clip-path="url(#id_0)" d="M896.0 502.0L880.0 502.0L880.0 49.0L896.0 49.0Z" fill-rule="nonzero"/><path fill="#757575" d="M82.39375 498.6375Q82.39375 501.8094 81.31563 503.35626Q80.2375 504.90314 77.925 504.90314Q75.64375 504.90314 74.55 503.3875Q73.45625 501.8719 73.425 498.8719L73.425 496.46564Q73.425 493.325 74.50313 491.8094Q75.59688 490.27814 77.90938 490.27814Q80.20625 490.27814 81.28438 491.7625Q82.3625 493.23126 82.39375 496.29376L82.39375 498.6375ZM80.59688 496.16876Q80.59688 493.8719 79.94063 492.825Q79.3 491.7625 77.90938 491.7625Q76.51875 491.7625 75.87813 492.8094Q75.25313 493.85626 75.2375 496.02814L75.2375 498.91876Q75.2375 501.21564 75.89375 502.325Q76.56563 503.41876 77.925 503.41876Q79.26875 503.41876 79.90938 502.3875Q80.56563 501.35626 80.59688 499.1219L80.59688 496.16876ZM86.6125 494.1375L86.6125 500.3094Q86.62813 501.90314 87.12813 502.66876Q87.62813 503.4344 88.75313 503.4344Q90.70625 503.4344 91.31563 501.95L91.31563 494.1375L93.12813 494.1375L93.12813 504.7L91.4875 504.7L91.40938 503.575Q90.50313 504.90314 88.83125 504.90314Q87.40938 504.90314 86.6125 504.1844L86.6125 508.7625L84.8 508.7625L84.8 494.1375L86.6125 494.1375ZM101.81563 501.90314Q101.81563 501.16876 101.26875 500.7625Q100.72188 500.35626 99.34688 500.0594Q97.97188 499.7625 97.15938 499.35626Q96.3625 498.95 95.97188 498.3875Q95.59688 497.8094 95.59688 497.02814Q95.59688 495.73126 96.69063 494.84064Q97.78438 493.9344 99.50313 493.9344Q101.3 493.9344 102.40938 494.8719Q103.53438 495.79376 103.53438 497.23126L101.70625 497.23126Q101.70625 496.4969 101.08125 495.96564Q100.45625 495.41876 99.50313 495.41876Q98.50313 495.41876 97.94063 495.85626Q97.39375 496.27814 97.39375 496.98126Q97.39375 497.6219 97.90938 497.96564Q98.425 498.29376 99.78438 498.60626Q101.14375 498.90314 101.97188 499.325Q102.81563 499.73126 103.22188 500.325Q103.62813 500.91876 103.62813 501.7625Q103.62813 503.1844 102.4875 504.04376Q101.3625 504.90314 99.55 504.90314Q98.28438 504.90314 97.3 504.45Q96.33125 503.9969 95.76875 503.2Q95.22188 502.3875 95.22188 501.45L97.03438 501.45Q97.08125 502.35626 97.75313 502.8875Q98.44063 503.41876 99.55 503.41876Q100.58125 503.41876 101.19063 503.0125Q101.81563 502.59064 101.81563 501.90314Z" fill-rule="nonzero"/><path fill="#757575" d="M49.8 390.35L40.4875 390.35L40.4875 389.05313L45.409374 383.58438Q46.503124 382.33438 46.909374 381.56876Q47.33125 380.7875 47.33125 379.95938Q47.33125 378.85 46.659374 378.13126Q45.9875 377.4125 44.8625 377.4125Q43.503124 377.4125 42.753124 378.19376Q42.01875 378.95938 42.01875 380.31876L40.20625 380.31876Q40.20625 378.35 41.471874 377.14688Q42.7375 375.92813 44.8625 375.92813Q46.846874 375.92813 47.9875 376.975Q49.14375 378.02188 49.14375 379.74063Q49.14375 381.85 46.471874 384.74063L42.659374 388.88126L49.8 388.88126L49.8 390.35ZM52.315624 383.225L53.034374 376.13126L60.315624 376.13126L60.315624 377.80313L54.565624 377.80313L54.14375 381.67813Q55.190624 381.06876 56.51875 381.06876Q58.45625 381.06876 59.596874 382.35Q60.7375 383.63126 60.7375 385.81876Q60.7375 388.02188 59.55 389.2875Q58.3625 390.55313 56.2375 390.55313Q54.346874 390.55313 53.159374 389.50626Q51.971874 388.45938 51.8 386.61563L53.51875 386.61563Q53.675 387.83438 54.378124 388.45938Q55.08125 389.06876 56.2375 389.06876Q57.503124 389.06876 58.221874 388.20938Q58.940624 387.35 58.940624 385.83438Q58.940624 384.4125 58.159374 383.55313Q57.378124 382.67813 56.096874 382.67813Q54.909374 382.67813 54.2375 383.19376L53.753124 383.58438L52.315624 383.225ZM71.39375 384.2875Q71.39375 387.45938 70.31563 389.00626Q69.2375 390.55313 66.925 390.55313Q64.64375 390.55313 63.55 389.0375Q62.45625 387.52188 62.425 384.52188L62.425 382.11563Q62.425 378.975 63.503124 377.45938Q64.59688 375.92813 66.90938 375.92813Q69.20625 375.92813 70.28438 377.4125Q71.3625 378.88126 71.39375 381.94376L71.39375 384.2875ZM69.59688 381.81876Q69.59688 379.52188 68.94063 378.475Q68.3 377.4125 66.90938 377.4125Q65.51875 377.4125 64.87813 378.45938Q64.25313 379.50626 64.2375 381.67813L64.2375 384.56876Q64.2375 386.86563 64.89375 387.975Q65.56563 389.06876 66.925 389.06876Q68.26875 389.06876 68.90938 388.0375Q69.56563 387.00626 69.59688 384.77188L69.59688 381.81876ZM82.39375 384.2875Q82.39375 387.45938 81.31563 389.00626Q80.2375 390.55313 77.925 390.55313Q75.64375 390.55313 74.55 389.0375Q73.45625 387.52188 73.425 384.52188L73.425 382.11563Q73.425 378.975 74.50313 377.45938Q75.59688 375.92813 77.90938 375.92813Q80.20625 375.92813 81.28438 377.4125Q82.3625 378.88126 82.39375 381.94376L82.39375 384.2875ZM80.59688 381.81876Q80.59688 379.52188 79.94063 378.475Q79.3 377.4125 77.90938 377.4125Q76.51875 377.4125 75.87813 378.45938Q75.25313 379.50626 75.2375 381.67813L75.2375 384.56876Q75.2375 386.86563 75.89375 387.975Q76.56563 389.06876 77.925 389.06876Q79.26875 389.06876 79.90938 388.0375Q80.56563 387.00626 80.59688 384.77188L80.59688 381.81876ZM86.6125 379.7875L86.6125 385.95938Q86.62813 387.55313 87.12813 388.31876Q87.62813 389.08438 88.75313 389.08438Q90.70625 389.08438 91.31563 387.6L91.31563 379.7875L93.12813 379.7875L93.12813 390.35L91.4875 390.35L91.40938 389.225Q90.50313 390.55313 88.83125 390.55313Q87.40938 390.55313 86.6125 389.83438L86.6125 394.4125L84.8 394.4125L84.8 379.7875L86.6125 379.7875ZM101.81563 387.55313Q101.81563 386.81876 101.26875 386.4125Q100.72188 386.00626 99.34688 385.70938Q97.97188 385.4125 97.15938 385.00626Q96.3625 384.6 95.97188 384.0375Q95.59688 383.45938 95.59688 382.67813Q95.59688 381.38126 96.69063 380.49063Q97.78438 379.58438 99.50313 379.58438Q101.3 379.58438 102.40938 380.52188Q103.53438 381.44376 103.53438 382.88126L101.70625 382.88126Q101.70625 382.14688 101.08125 381.61563Q100.45625 381.06876 99.50313 381.06876Q98.50313 381.06876 97.94063 381.50626Q97.39375 381.92813 97.39375 382.63126Q97.39375 383.27188 97.90938 383.61563Q98.425 383.94376 99.78438 384.25626Q101.14375 384.55313 101.97188 384.975Q102.81563 385.38126 103.22188 385.975Q103.62813 386.56876 103.62813 387.4125Q103.62813 388.83438 102.4875 389.69376Q101.3625 390.55313 99.55 390.55313Q98.28438 390.55313 97.3 390.1Q96.33125 389.64688 95.76875 388.85Q95.22188 388.0375 95.22188 387.1L97.03438 387.1Q97.08125 388.00626 97.75313 388.5375Q98.44063 389.06876 99.55 389.06876Q100.58125 389.06876 101.19063 388.6625Q101.81563 388.24063 101.81563 387.55313Z" fill-rule="nonzero"/><path fill="#757575" d="M41.315624 268.875L42.034374 261.78125L49.315624 261.78125L49.315624 263.45312L43.565624 263.45312L43.14375 267.32812Q44.190624 266.71875 45.51875 266.71875Q47.45625 266.71875 48.596874 268.0Q49.7375 269.28125 49.7375 271.46875Q49.7375 273.67188 48.55 274.9375Q47.3625 276.20312 45.2375 276.20312Q43.346874 276.20312 42.159374 275.15625Q40.971874 274.10938 40.8 272.26562L42.51875 272.26562Q42.675 273.48438 43.378124 274.10938Q44.08125 274.71875 45.2375 274.71875Q46.503124 274.71875 47.221874 273.85938Q47.940624 273.0 47.940624 271.48438Q47.940624 270.0625 47.159374 269.20312Q46.378124 268.32812 45.096874 268.32812Q43.909374 268.32812 43.2375 268.84375L42.753124 269.23438L41.315624 268.875ZM60.39375 269.9375Q60.39375 273.10938 59.315624 274.65625Q58.2375 276.20312 55.925 276.20312Q53.64375 276.20312 52.55 274.6875Q51.45625 273.17188 51.425 270.17188L51.425 267.76562Q51.425 264.625 52.503124 263.10938Q53.596874 261.57812 55.909374 261.57812Q58.20625 261.57812 59.284374 263.0625Q60.3625 264.53125 60.39375 267.59375L60.39375 269.9375ZM58.596874 267.46875Q58.596874 265.17188 57.940624 264.125Q57.3 263.0625 55.909374 263.0625Q54.51875 263.0625 53.878124 264.10938Q53.253124 265.15625 53.2375 267.32812L53.2375 270.21875Q53.2375 272.51562 53.89375 273.625Q54.565624 274.71875 55.925 274.71875Q57.26875 274.71875 57.909374 273.6875Q58.565624 272.65625 58.596874 270.42188L58.596874 267.46875ZM71.39375 269.9375Q71.39375 273.10938 70.31563 274.65625Q69.2375 276.20312 66.925 276.20312Q64.64375 276.20312 63.55 274.6875Q62.45625 273.17188 62.425 270.17188L62.425 267.76562Q62.425 264.625 63.503124 263.10938Q64.59688 261.57812 66.90938 261.57812Q69.20625 261.57812 70.28438 263.0625Q71.3625 264.53125 71.39375 267.59375L71.39375 269.9375ZM69.59688 267.46875Q69.59688 265.17188 68.94063 264.125Q68.3 263.0625 66.90938 263.0625Q65.51875 263.0625 64.87813 264.10938Q64.25313 265.15625 64.2375 267.32812L64.2375 270.21875Q64.2375 272.51562 64.89375 273.625Q65.56563 274.71875 66.925 274.71875Q68.26875 274.71875 68.90938 273.6875Q69.56563 272.65625 69.59688 270.42188L69.59688 267.46875ZM82.39375 269.9375Q82.39375 273.10938 81.31563 274.65625Q80.2375 276.20312 77.925 276.20312Q75.64375 276.20312 74.55 274.6875Q73.45625 273.17188 73.425 270.17188L73.425 267.76562Q73.425 264.625 74.50313 263.10938Q75.59688 261.57812 77.90938 261.57812Q80.20625 261.57812 81.28438 263.0625Q82.3625 264.53125 82.39375 267.59375L82.39375 269.9375ZM80.59688 267.46875Q80.59688 265.17188 79.94063 264.125Q79.3 263.0625 77.90938 263.0625Q76.51875 263.0625 75.87813 264.10938Q75.25313 265.15625 75.2375 267.32812L75.2375 270.21875Q75.2375 272.51562 75.89375 273.625Q76.56563 274.71875 77.925 274.71875Q79.26875 274.71875 79.90938 273.6875Q80.56563 272.65625 80.59688 270.42188L80.59688 267.46875ZM86.6125 265.4375L86.6125 271.60938Q86.62813 273.20312 87.12813 273.96875Q87.62813 274.73438 88.75313 274.73438Q90.70625 274.73438 91.31563 273.25L91.31563 265.4375L93.12813 265.4375L93.12813 276.0L91.4875 276.0L91.40938 274.875Q90.50313 276.20312 88.83125 276.20312Q87.40938 276.20312 86.6125 275.48438L86.6125 280.0625L84.8 280.0625L84.8 265.4375L86.6125 265.4375ZM101.81563 273.20312Q101.81563 272.46875 101.26875 272.0625Q100.72188 271.65625 99.34688 271.35938Q97.97188 271.0625 97.15938 270.65625Q96.3625 270.25 95.97188 269.6875Q95.59688 269.10938 95.59688 268.32812Q95.59688 267.03125 96.69063 266.14062Q97.78438 265.23438 99.50313 265.23438Q101.3 265.23438 102.40938 266.17188Q103.53438 267.09375 103.53438 268.53125L101.70625 268.53125Q101.70625 267.79688 101.08125 267.26562Q100.45625 266.71875 99.50313 266.71875Q98.50313 266.71875 97.94063 267.15625Q97.39375 267.57812 97.39375 268.28125Q97.39375 268.92188 97.90938 269.26562Q98.425 269.59375 99.78438 269.90625Q101.14375 270.20312 101.97188 270.625Q102.81563 271.03125 103.22188 271.625Q103.62813 272.21875 103.62813 273.0625Q103.62813 274.48438 102.4875 275.34375Q101.3625 276.20312 99.55 276.20312Q98.28438 276.20312 97.3 275.75Q96.33125 275.29688 95.76875 274.5Q95.22188 273.6875 95.22188 272.75L97.03438 272.75Q97.08125 273.65625 97.75313 274.1875Q98.44063 274.71875 99.55 274.71875Q100.58125 274.71875 101.19063 274.3125Q101.81563 273.89062 101.81563 273.20312Z" fill-rule="nonzero"/><path fill="#757575" d="M49.659374 148.44687L43.76875 161.65L41.878124 161.65L47.753124 148.91562L40.05 148.91562L40.05 147.43124L49.659374 147.43124L49.659374 148.44687ZM52.315624 154.525L53.034374 147.43124L60.315624 147.43124L60.315624 149.10312L54.565624 149.10312L54.14375 152.97812Q55.190624 152.36874 56.51875 152.36874Q58.45625 152.36874 59.596874 153.65Q60.7375 154.93124 60.7375 157.11874Q60.7375 159.32187 59.55 160.5875Q58.3625 161.85312 56.2375 161.85312Q54.346874 161.85312 53.159374 160.80624Q51.971874 159.75937 51.8 157.91562L53.51875 157.91562Q53.675 159.13437 54.378124 159.75937Q55.08125 160.36874 56.2375 160.36874Q57.503124 160.36874 58.221874 159.50937Q58.940624 158.65 58.940624 157.13437Q58.940624 155.7125 58.159374 154.85312Q57.378124 153.97812 56.096874 153.97812Q54.909374 153.97812 54.2375 154.49374L53.753124 154.88437L52.315624 154.525ZM71.39375 155.5875Q71.39375 158.75937 70.31563 160.30624Q69.2375 161.85312 66.925 161.85312Q64.64375 161.85312 63.55 160.3375Q62.45625 158.82187 62.425 155.82187L62.425 153.41562Q62.425 150.275 63.503124 148.75937Q64.59688 147.22812 66.90938 147.22812Q69.20625 147.22812 70.28438 148.7125Q71.3625 150.18124 71.39375 153.24374L71.39375 155.5875ZM69.59688 153.11874Q69.59688 150.82187 68.94063 149.775Q68.3 148.7125 66.90938 148.7125Q65.51875 148.7125 64.87813 149.75937Q64.25313 150.80624 64.2375 152.97812L64.2375 155.86874Q64.2375 158.16562 64.89375 159.275Q65.56563 160.36874 66.925 160.36874Q68.26875 160.36874 68.90938 159.3375Q69.56563 158.30624 69.59688 156.07187L69.59688 153.11874ZM82.39375 155.5875Q82.39375 158.75937 81.31563 160.30624Q80.2375 161.85312 77.925 161.85312Q75.64375 161.85312 74.55 160.3375Q73.45625 158.82187 73.425 155.82187L73.425 153.41562Q73.425 150.275 74.50313 148.75937Q75.59688 147.22812 77.90938 147.22812Q80.20625 147.22812 81.28438 148.7125Q82.3625 150.18124 82.39375 153.24374L82.39375 155.5875ZM80.59688 153.11874Q80.59688 150.82187 79.94063 149.775Q79.3 148.7125 77.90938 148.7125Q76.51875 148.7125 75.87813 149.75937Q75.25313 150.80624 75.2375 152.97812L75.2375 155.86874Q75.2375 158.16562 75.89375 159.275Q76.56563 160.36874 77.925 160.36874Q79.26875 160.36874 79.90938 159.3375Q80.56563 158.30624 80.59688 156.07187L80.59688 153.11874ZM86.6125 151.0875L86.6125 157.25937Q86.62813 158.85312 87.12813 159.61874Q87.62813 160.38437 88.75313 160.38437Q90.70625 160.38437 91.31563 158.9L91.31563 151.0875L93.12813 151.0875L93.12813 161.65L91.4875 161.65L91.40938 160.525Q90.50313 161.85312 88.83125 161.85312Q87.40938 161.85312 86.6125 161.13437L86.6125 165.7125L84.8 165.7125L84.8 151.0875L86.6125 151.0875ZM101.81563 158.85312Q101.81563 158.11874 101.26875 157.7125Q100.72188 157.30624 99.34688 157.00937Q97.97188 156.7125 97.15938 156.30624Q96.3625 155.9 95.97188 155.3375Q95.59688 154.75937 95.59688 153.97812Q95.59688 152.68124 96.69063 151.79062Q97.78438 150.88437 99.50313 150.88437Q101.3 150.88437 102.40938 151.82187Q103.53438 152.74374 103.53438 154.18124L101.70625 154.18124Q101.70625 153.44687 101.08125 152.91562Q100.45625 152.36874 99.50313 152.36874Q98.50313 152.36874 97.94063 152.80624Q97.39375 153.22812 97.39375 153.93124Q97.39375 154.57187 97.90938 154.91562Q98.425 155.24374 99.78438 155.55624Q101.14375 155.85312 101.97188 156.275Q102.81563 156.68124 103.22188 157.275Q103.62813 157.86874 103.62813 158.7125Q103.62813 160.13437 102.4875 160.99374Q101.3625 161.85312 99.55 161.85312Q98.28438 161.85312 97.3 161.4Q96.33125 160.94687 95.76875 160.15Q95.22188 159.3375 95.22188 158.4L97.03438 158.4Q97.08125 159.30624 97.75313 159.8375Q98.44063 160.36874 99.55 160.36874Q100.58125 160.36874 101.19063 159.9625Q101.81563 159.54062 101.81563 158.85312Z" fill-rule="nonzero"/><path fill="#757575" d="M35.425 47.3L33.596874 47.3L33.596874 35.253124L29.95625 36.596874L29.95625 34.95625L35.14375 33.01875L35.425 33.01875L35.425 47.3ZM49.39375 41.2375Q49.39375 44.409374 48.315624 45.95625Q47.2375 47.503124 44.925 47.503124Q42.64375 47.503124 41.55 45.9875Q40.45625 44.471874 40.425 41.471874L40.425 39.065624Q40.425 35.925 41.503124 34.409374Q42.596874 32.878124 44.909374 32.878124Q47.20625 32.878124 48.284374 34.3625Q49.3625 35.83125 49.39375 38.89375L49.39375 41.2375ZM47.596874 38.76875Q47.596874 36.471874 46.940624 35.425Q46.3 34.3625 44.909374 34.3625Q43.51875 34.3625 42.878124 35.409374Q42.253124 36.45625 42.2375 38.628124L42.2375 41.51875Q42.2375 43.815624 42.89375 44.925Q43.565624 46.01875 44.925 46.01875Q46.26875 46.01875 46.909374 44.9875Q47.565624 43.95625 47.596874 41.721874L47.596874 38.76875ZM60.39375 41.2375Q60.39375 44.409374 59.315624 45.95625Q58.2375 47.503124 55.925 47.503124Q53.64375 47.503124 52.55 45.9875Q51.45625 44.471874 51.425 41.471874L51.425 39.065624Q51.425 35.925 52.503124 34.409374Q53.596874 32.878124 55.909374 32.878124Q58.20625 32.878124 59.284374 34.3625Q60.3625 35.83125 60.39375 38.89375L60.39375 41.2375ZM58.596874 38.76875Q58.596874 36.471874 57.940624 35.425Q57.3 34.3625 55.909374 34.3625Q54.51875 34.3625 53.878124 35.409374Q53.253124 36.45625 53.2375 38.628124L53.2375 41.51875Q53.2375 43.815624 53.89375 44.925Q54.565624 46.01875 55.925 46.01875Q57.26875 46.01875 57.909374 44.9875Q58.565624 43.95625 58.596874 41.721874L58.596874 38.76875ZM71.39375 41.2375Q71.39375 44.409374 70.31563 45.95625Q69.2375 47.503124 66.925 47.503124Q64.64375 47.503124 63.55 45.9875Q62.45625 44.471874 62.425 41.471874L62.425 39.065624Q62.425 35.925 63.503124 34.409374Q64.59688 32.878124 66.90938 32.878124Q69.20625 32.878124 70.28438 34.3625Q71.3625 35.83125 71.39375 38.89375L71.39375 41.2375ZM69.59688 38.76875Q69.59688 36.471874 68.94063 35.425Q68.3 34.3625 66.90938 34.3625Q65.51875 34.3625 64.87813 35.409374Q64.25313 36.45625 64.2375 38.628124L64.2375 41.51875Q64.2375 43.815624 64.89375 44.925Q65.56563 46.01875 66.925 46.01875Q68.26875 46.01875 68.90938 44.9875Q69.56563 43.95625 69.59688 41.721874L69.59688 38.76875ZM82.39375 41.2375Q82.39375 44.409374 81.31563 45.95625Q80.2375 47.503124 77.925 47.503124Q75.64375 47.503124 74.55 45.9875Q73.45625 44.471874 73.425 41.471874L73.425 39.065624Q73.425 35.925 74.50313 34.409374Q75.59688 32.878124 77.90938 32.878124Q80.20625 32.878124 81.28438 34.3625Q82.3625 35.83125 82.39375 38.89375L82.39375 41.2375ZM80.59688 38.76875Q80.59688 36.471874 79.94063 35.425Q79.3 34.3625 77.90938 34.3625Q76.51875 34.3625 75.87813 35.409374Q75.25313 36.45625 75.2375 38.628124L75.2375 41.51875Q75.2375 43.815624 75.89375 44.925Q76.56563 46.01875 77.925 46.01875Q79.26875 46.01875 79.90938 44.9875Q80.56563 43.95625 80.59688 41.721874L80.59688 38.76875ZM86.6125 36.7375L86.6125 42.909374Q86.62813 44.503124 87.12813 45.26875Q87.62813 46.034374 88.75313 46.034374Q90.70625 46.034374 91.31563 44.55L91.31563 36.7375L93.12813 36.7375L93.12813 47.3L91.4875 47.3L91.40938 46.175Q90.50313 47.503124 88.83125 47.503124Q87.40938 47.503124 86.6125 46.784374L86.6125 51.3625L84.8 51.3625L84.8 36.7375L86.6125 36.7375ZM101.81563 44.503124Q101.81563 43.76875 101.26875 43.3625Q100.72188 42.95625 99.34688 42.659374Q97.97188 42.3625 97.15938 41.95625Q96.3625 41.55 95.97188 40.9875Q95.59688 40.409374 95.59688 39.628124Q95.59688 38.33125 96.69063 37.440624Q97.78438 36.534374 99.50313 36.534374Q101.3 36.534374 102.40938 37.471874Q103.53438 38.39375 103.53438 39.83125L101.70625 39.83125Q101.70625 39.096874 101.08125 38.565624Q100.45625 38.01875 99.50313 38.01875Q98.50313 38.01875 97.94063 38.45625Q97.39375 38.878124 97.39375 39.58125Q97.39375 40.221874 97.90938 40.565624Q98.425 40.89375 99.78438 41.20625Q101.14375 41.503124 101.97188 41.925Q102.81563 42.33125 103.22188 42.925Q103.62813 43.51875 103.62813 44.3625Q103.62813 45.784374 102.4875 46.64375Q101.3625 47.503124 99.55 47.503124Q98.28438 47.503124 97.3 47.05Q96.33125 46.596874 95.76875 45.8Q95.22188 44.9875 95.22188 44.05L97.03438 44.05Q97.08125 44.95625 97.75313 45.4875Q98.44063 46.01875 99.55 46.01875Q100.58125 46.01875 101.19063 45.6125Q101.81563 45.190624 101.81563 44.503124Z" fill-rule="nonzero"/><path fill="#757575" d="M209.33565 532.7L207.50752 532.7L207.50752 520.65314L203.8669 521.9969L203.8669 520.35626L209.0544 518.41876L209.33565 518.41876L209.33565 532.7ZM223.3044 526.6375Q223.3044 529.8094 222.22627 531.35626Q221.14815 532.90314 218.83565 532.90314Q216.5544 532.90314 215.46065 531.3875Q214.3669 529.8719 214.33565 526.8719L214.33565 524.46564Q214.33565 521.325 215.41377 519.8094Q216.50752 518.27814 218.82002 518.27814Q221.1169 518.27814 222.19502 519.7625Q223.27315 521.23126 223.3044 524.29376L223.3044 526.6375ZM221.50752 524.16876Q221.50752 521.8719 220.85127 520.825Q220.21065 519.7625 218.82002 519.7625Q217.4294 519.7625 216.78877 520.8094Q216.16377 521.85626 216.14815 524.02814L216.14815 526.91876Q216.14815 529.21564 216.8044 530.325Q217.47627 531.41876 218.83565 531.41876Q220.1794 531.41876 220.82002 530.3875Q221.47627 529.35626 221.50752 527.1219L221.50752 524.16876ZM229.1169 525.9969L231.46065 522.1375L233.57002 522.1375L230.1169 527.35626L233.6794 532.7L231.60127 532.7L229.14815 528.7469L226.71065 532.7L224.6169 532.7L228.1794 527.35626L224.72627 522.1375L226.8044 522.1375L229.1169 525.9969Z" fill-rule="nonzero"/><path fill="#757575" d="M360.74033 532.7L358.9122 532.7L358.9122 520.65314L355.27158 521.9969L355.27158 520.35626L360.45908 518.41876L360.74033 518.41876L360.74033 532.7ZM374.70908 526.6375Q374.70908 529.8094 373.63095 531.35626Q372.55283 532.90314 370.24033 532.90314Q367.95908 532.90314 366.86533 531.3875Q365.77158 529.8719 365.74033 526.8719L365.74033 524.46564Q365.74033 521.325 366.81845 519.8094Q367.9122 518.27814 370.2247 518.27814Q372.52158 518.27814 373.5997 519.7625Q374.67783 521.23126 374.70908 524.29376L374.70908 526.6375ZM372.9122 524.16876Q372.9122 521.8719 372.25595 520.825Q371.61533 519.7625 370.2247 519.7625Q368.83408 519.7625 368.19345 520.8094Q367.56845 521.85626 367.55283 524.02814L367.55283 526.91876Q367.55283 529.21564 368.20908 530.325Q368.88095 531.41876 370.24033 531.41876Q371.58408 531.41876 372.2247 530.3875Q372.88095 529.35626 372.9122 527.1219L372.9122 524.16876ZM385.70908 526.6375Q385.70908 529.8094 384.63095 531.35626Q383.55283 532.90314 381.24033 532.90314Q378.95908 532.90314 377.86533 531.3875Q376.77158 529.8719 376.74033 526.8719L376.74033 524.46564Q376.74033 521.325 377.81845 519.8094Q378.9122 518.27814 381.2247 518.27814Q383.52158 518.27814 384.5997 519.7625Q385.67783 521.23126 385.70908 524.29376L385.70908 526.6375ZM383.9122 524.16876Q383.9122 521.8719 383.25595 520.825Q382.61533 519.7625 381.2247 519.7625Q379.83408 519.7625 379.19345 520.8094Q378.56845 521.85626 378.55283 524.02814L378.55283 526.91876Q378.55283 529.21564 379.20908 530.325Q379.88095 531.41876 381.24033 531.41876Q382.58408 531.41876 383.2247 530.3875Q383.88095 529.35626 383.9122 527.1219L383.9122 524.16876ZM391.52158 525.9969L393.86533 522.1375L395.9747 522.1375L392.52158 527.35626L396.08408 532.7L394.00595 532.7L391.55283 528.7469L389.11533 532.7L387.02158 532.7L390.58408 527.35626L387.13095 522.1375L389.20908 522.1375L391.52158 525.9969Z" fill-rule="nonzero"/><path fill="#757575" d="M512.145 532.7L510.31686 532.7L510.31686 520.65314L506.67624 521.9969L506.67624 520.35626L511.86374 518.41876L512.145 518.41876L512.145 532.7ZM526.1138 526.6375Q526.1138 529.8094 525.03564 531.35626Q523.9575 532.90314 521.645 532.90314Q519.3638 532.90314 518.27 531.3875Q517.1763 529.8719 517.145 526.8719L517.145 524.46564Q517.145 521.325 518.22314 519.8094Q519.3169 518.27814 521.6294 518.27814Q523.9263 518.27814 525.0044 519.7625Q526.0825 521.23126 526.1138 524.29376L526.1138 526.6375ZM524.3169 524.16876Q524.3169 521.8719 523.66064 520.825Q523.02 519.7625 521.6294 519.7625Q520.2388 519.7625 519.59814 520.8094Q518.97314 521.85626 518.9575 524.02814L518.9575 526.91876Q518.9575 529.21564 519.6138 530.325Q520.28564 531.41876 521.645 531.41876Q522.9888 531.41876 523.6294 530.3875Q524.28564 529.35626 524.3169 527.1219L524.3169 524.16876ZM537.1138 526.6375Q537.1138 529.8094 536.03564 531.35626Q534.9575 532.90314 532.645 532.90314Q530.3638 532.90314 529.27 531.3875Q528.1763 529.8719 528.145 526.8719L528.145 524.46564Q528.145 521.325 529.22314 519.8094Q530.3169 518.27814 532.6294 518.27814Q534.9263 518.27814 536.0044 519.7625Q537.0825 521.23126 537.1138 524.29376L537.1138 526.6375ZM535.3169 524.16876Q535.3169 521.8719 534.66064 520.825Q534.02 519.7625 532.6294 519.7625Q531.2388 519.7625 530.59814 520.8094Q529.97314 521.85626 529.9575 524.02814L529.9575 526.91876Q529.9575 529.21564 530.6138 530.325Q531.28564 531.41876 532.645 531.41876Q533.9888 531.41876 534.6294 530.3875Q535.28564 529.35626 535.3169 527.1219L535.3169 524.16876ZM548.1138 526.6375Q548.1138 529.8094 547.03564 531.35626Q545.9575 532.90314 543.645 532.90314Q541.3638 532.90314 540.27 531.3875Q539.1763 529.8719 539.145 526.8719L539.145 524.46564Q539.145 521.325 540.22314 519.8094Q541.3169 518.27814 543.6294 518.27814Q545.9263 518.27814 547.0044 519.7625Q548.0825 521.23126 548.1138 524.29376L548.1138 526.6375ZM546.3169 524.16876Q546.3169 521.8719 545.66064 520.825Q545.02 519.7625 543.6294 519.7625Q542.2388 519.7625 541.59814 520.8094Q540.97314 521.85626 540.9575 524.02814L540.9575 526.91876Q540.9575 529.21564 541.6138 530.325Q542.28564 531.41876 543.645 531.41876Q544.9888 531.41876 545.6294 530.3875Q546.28564 529.35626 546.3169 527.1219L546.3169 524.16876ZM553.9263 525.9969L556.27 522.1375L558.3794 522.1375L554.9263 527.35626L558.4888 532.7L556.41064 532.7L553.9575 528.7469L551.52 532.7L549.4263 532.7L552.9888 527.35626L549.53564 522.1375L551.6138 522.1375L553.9263 525.9969Z" fill-rule="nonzero"/><path fill="#757575" d="M663.5497 532.7L661.72156 532.7L661.72156 520.65314L658.08093 521.9969L658.08093 520.35626L663.26843 518.41876L663.5497 518.41876L663.5497 532.7ZM677.51843 526.6375Q677.51843 529.8094 676.4403 531.35626Q675.3622 532.90314 673.0497 532.90314Q670.76843 532.90314 669.6747 531.3875Q668.58093 529.8719 668.5497 526.8719L668.5497 524.46564Q668.5497 521.325 669.6278 519.8094Q670.72156 518.27814 673.03406 518.27814Q675.33093 518.27814 676.40906 519.7625Q677.4872 521.23126 677.51843 524.29376L677.51843 526.6375ZM675.72156 524.16876Q675.72156 521.8719 675.0653 520.825Q674.4247 519.7625 673.03406 519.7625Q671.64343 519.7625 671.0028 520.8094Q670.3778 521.85626 670.3622 524.02814L670.3622 526.91876Q670.3622 529.21564 671.01843 530.325Q671.6903 531.41876 673.0497 531.41876Q674.39343 531.41876 675.03406 530.3875Q675.6903 529.35626 675.72156 527.1219L675.72156 524.16876ZM688.51843 526.6375Q688.51843 529.8094 687.4403 531.35626Q686.3622 532.90314 684.0497 532.90314Q681.76843 532.90314 680.6747 531.3875Q679.58093 529.8719 679.5497 526.8719L679.5497 524.46564Q679.5497 521.325 680.6278 519.8094Q681.72156 518.27814 684.03406 518.27814Q686.33093 518.27814 687.40906 519.7625Q688.4872 521.23126 688.51843 524.29376L688.51843 526.6375ZM686.72156 524.16876Q686.72156 521.8719 686.0653 520.825Q685.4247 519.7625 684.03406 519.7625Q682.64343 519.7625 682.0028 520.8094Q681.3778 521.85626 681.3622 524.02814L681.3622 526.91876Q681.3622 529.21564 682.01843 530.325Q682.6903 531.41876 684.0497 531.41876Q685.39343 531.41876 686.03406 530.3875Q686.6903 529.35626 686.72156 527.1219L686.72156 524.16876ZM699.51843 526.6375Q699.51843 529.8094 698.4403 531.35626Q697.3622 532.90314 695.0497 532.90314Q692.76843 532.90314 691.6747 531.3875Q690.58093 529.8719 690.5497 526.8719L690.5497 524.46564Q690.5497 521.325 691.6278 519.8094Q692.72156 518.27814 695.03406 518.27814Q697.33093 518.27814 698.40906 519.7625Q699.4872 521.23126 699.51843 524.29376L699.51843 526.6375ZM697.72156 524.16876Q697.72156 521.8719 697.0653 520.825Q696.4247 519.7625 695.03406 519.7625Q693.64343 519.7625 693.0028 520.8094Q692.3778 521.85626 692.3622 524.02814L692.3622 526.91876Q692.3622 529.21564 693.01843 530.325Q693.6903 531.41876 695.0497 531.41876Q696.39343 531.41876 697.03406 530.3875Q697.6903 529.35626 697.72156 527.1219L697.72156 524.16876ZM710.51843 526.6375Q710.51843 529.8094 709.4403 531.35626Q708.3622 532.90314 706.0497 532.90314Q703.76843 532.90314 702.6747 531.3875Q701.58093 529.8719 701.5497 526.8719L701.5497 524.46564Q701.5497 521.325 702.6278 519.8094Q703.72156 518.27814 706.03406 518.27814Q708.33093 518.27814 709.40906 519.7625Q710.4872 521.23126 710.51843 524.29376L710.51843 526.6375ZM708.72156 524.16876Q708.72156 521.8719 708.0653 520.825Q707.4247 519.7625 706.03406 519.7625Q704.64343 519.7625 704.0028 520.8094Q703.3778 521.85626 703.3622 524.02814L703.3622 526.91876Q703.3622 529.21564 704.01843 530.325Q704.6903 531.41876 706.0497 531.41876Q707.39343 531.41876 708.03406 530.3875Q708.6903 529.35626 708.72156 527.1219L708.72156 524.16876ZM716.33093 525.9969L718.6747 522.1375L720.78406 522.1375L717.33093 527.35626L720.89343 532.7L718.8153 532.7L716.3622 528.7469L713.9247 532.7L711.83093 532.7L715.39343 527.35626L711.9403 522.1375L714.01843 522.1375L716.33093 525.9969Z" fill-rule="nonzero"/><path fill="#757575" d="M814.95435 532.7L813.1262 532.7L813.1262 520.65314L809.4856 521.9969L809.4856 520.35626L814.6731 518.41876L814.95435 518.41876L814.95435 532.7ZM828.9231 526.6375Q828.9231 529.8094 827.845 531.35626Q826.76685 532.90314 824.45435 532.90314Q822.1731 532.90314 821.07935 531.3875Q819.9856 529.8719 819.95435 526.8719L819.95435 524.46564Q819.95435 521.325 821.0325 519.8094Q822.1262 518.27814 824.4387 518.27814Q826.7356 518.27814 827.8137 519.7625Q828.89185 521.23126 828.9231 524.29376L828.9231 526.6375ZM827.1262 524.16876Q827.1262 521.8719 826.47 520.825Q825.82935 519.7625 824.4387 519.7625Q823.0481 519.7625 822.4075 520.8094Q821.7825 521.85626 821.76685 524.02814L821.76685 526.91876Q821.76685 529.21564 822.4231 530.325Q823.095 531.41876 824.45435 531.41876Q825.7981 531.41876 826.4387 530.3875Q827.095 529.35626 827.1262 527.1219L827.1262 524.16876ZM839.9231 526.6375Q839.9231 529.8094 838.845 531.35626Q837.76685 532.90314 835.45435 532.90314Q833.1731 532.90314 832.07935 531.3875Q830.9856 529.8719 830.95435 526.8719L830.95435 524.46564Q830.95435 521.325 832.0325 519.8094Q833.1262 518.27814 835.4387 518.27814Q837.7356 518.27814 838.8137 519.7625Q839.89185 521.23126 839.9231 524.29376L839.9231 526.6375ZM838.1262 524.16876Q838.1262 521.8719 837.47 520.825Q836.82935 519.7625 835.4387 519.7625Q834.0481 519.7625 833.4075 520.8094Q832.7825 521.85626 832.76685 524.02814L832.76685 526.91876Q832.76685 529.21564 833.4231 530.325Q834.095 531.41876 835.45435 531.41876Q836.7981 531.41876 837.4387 530.3875Q838.095 529.35626 838.1262 527.1219L838.1262 524.16876ZM850.9231 526.6375Q850.9231 529.8094 849.845 531.35626Q848.76685 532.90314 846.45435 532.90314Q844.1731 532.90314 843.07935 531.3875Q841.9856 529.8719 841.95435 526.8719L841.95435 524.46564Q841.95435 521.325 843.0325 519.8094Q844.1262 518.27814 846.4387 518.27814Q848.7356 518.27814 849.8137 519.7625Q850.89185 521.23126 850.9231 524.29376L850.9231 526.6375ZM849.1262 524.16876Q849.1262 521.8719 848.47 520.825Q847.82935 519.7625 846.4387 519.7625Q845.0481 519.7625 844.4075 520.8094Q843.7825 521.85626 843.76685 524.02814L843.76685 526.91876Q843.76685 529.21564 844.4231 530.325Q845.095 531.41876 846.45435 531.41876Q847.7981 531.41876 848.4387 530.3875Q849.095 529.35626 849.1262 527.1219L849.1262 524.16876ZM861.9231 526.6375Q861.9231 529.8094 860.845 531.35626Q859.76685 532.90314 857.45435 532.90314Q855.1731 532.90314 854.07935 531.3875Q852.9856 529.8719 852.95435 526.8719L852.95435 524.46564Q852.95435 521.325 854.0325 519.8094Q855.1262 518.27814 857.4387 518.27814Q859.7356 518.27814 860.8137 519.7625Q861.89185 521.23126 861.9231 524.29376L861.9231 526.6375ZM860.1262 524.16876Q860.1262 521.8719 859.47 520.825Q858.82935 519.7625 857.4387 519.7625Q856.0481 519.7625 855.4075 520.8094Q854.7825 521.85626 854.76685 524.02814L854.76685 526.91876Q854.76685 529.21564 855.4231 530.325Q856.095 531.41876 857.45435 531.41876Q858.7981 531.41876 859.4387 530.3875Q860.095 529.35626 860.1262 527.1219L860.1262 524.16876ZM872.9231 526.6375Q872.9231 529.8094 871.845 531.35626Q870.76685 532.90314 868.45435 532.90314Q866.1731 532.90314 865.07935 531.3875Q863.9856 529.8719 863.95435 526.8719L863.95435 524.46564Q863.95435 521.325 865.0325 519.8094Q866.1262 518.27814 868.4387 518.27814Q870.7356 518.27814 871.8137 519.7625Q872.89185 521.23126 872.9231 524.29376L872.9231 526.6375ZM871.1262 524.16876Q871.1262 521.8719 870.47 520.825Q869.82935 519.7625 868.4387 519.7625Q867.0481 519.7625 866.4075 520.8094Q865.7825 521.85626 865.76685 524.02814L865.76685 526.91876Q865.76685 529.21564 866.4231 530.325Q867.095 531.41876 868.45435 531.41876Q869.7981 531.41876 870.4387 530.3875Q871.095 529.35626 871.1262 527.1219L871.1262 524.16876ZM878.7356 525.9969L881.07935 522.1375L883.1887 522.1375L879.7356 527.35626L883.2981 532.7L881.22 532.7L878.76685 528.7469L876.32935 532.7L874.2356 532.7L877.7981 527.35626L874.345 522.1375L876.4231 522.1375L878.7356 525.9969Z" fill-rule="nonzero"/><path fill="#4285f4" d="M987.7 35.3C987.7 34.747715 988.1477 34.3 988.7 34.3L998.7 34.3C999.25226 34.3 999.7 34.747715 999.7 35.3L999.7 45.3C999.7 45.852283 999.25226 46.3 998.7 46.3L988.7 46.3C988.1477 46.3 987.7 45.852283 987.7 45.3Z" fill-rule="nonzero"/><path fill="#757575" d="M1013.54376 40.95625Q1011.1219 40.26875 1010.02814 39.26875Q1008.9344 38.253124 1008.9344 36.76875Q1008.9344 35.08125 1010.27814 33.9875Q1011.6219 32.878124 1013.7625 32.878124Q1015.23126 32.878124 1016.3719 33.45625Q1017.52814 34.01875 1018.15314 35.01875Q1018.77814 36.003124 1018.77814 37.190624L1016.90314 37.190624Q1016.90314 35.909374 1016.075 35.175Q1015.2625 34.425 1013.7625 34.425Q1012.3719 34.425 1011.59064 35.034374Q1010.825 35.64375 1010.825 36.7375Q1010.825 37.596874 1011.5594 38.20625Q1012.29376 38.8 1014.0594 39.3Q1015.84064 39.8 1016.84064 40.409374Q1017.84064 41.003124 1018.325 41.8Q1018.8094 42.596874 1018.8094 43.690624Q1018.8094 45.409374 1017.46564 46.45625Q1016.1219 47.503124 1013.85626 47.503124Q1012.40314 47.503124 1011.1219 46.940624Q1009.85626 46.378124 1009.16876 45.409374Q1008.48126 44.425 1008.48126 43.175L1010.3719 43.175Q1010.3719 44.471874 1011.325 45.221874Q1012.27814 45.95625 1013.85626 45.95625Q1015.34064 45.95625 1016.1375 45.3625Q1016.9344 44.753124 1016.9344 43.70625Q1016.9344 42.659374 1016.2 42.096874Q1015.46564 41.51875 1013.54376 40.95625ZM1029.9968 42.128124Q1029.9968 44.55 1028.8875 46.034374Q1027.7937 47.503124 1025.9031 47.503124Q1023.98126 47.503124 1022.8719 46.26875L1022.8719 51.3625L1021.075 51.3625L1021.075 36.7375L1022.71564 36.7375L1022.8094 37.909374Q1023.90314 36.534374 1025.8718 36.534374Q1027.7781 36.534374 1028.8875 37.971874Q1029.9968 39.409374 1029.9968 41.971874L1029.9968 42.128124ZM1028.1843 41.925Q1028.1843 40.14375 1027.4187 39.1125Q1026.6687 38.065624 1025.3406 38.065624Q1023.7 38.065624 1022.8719 39.51875L1022.8719 44.58125Q1023.6844 46.01875 1025.3562 46.01875Q1026.6531 46.01875 1027.4187 44.9875Q1028.1843 43.95625 1028.1843 41.925ZM1034.0281 47.3L1032.2312 47.3L1032.2312 32.3L1034.0281 32.3L1034.0281 47.3ZM1039.7781 33.08125L1044.4187 44.675L1049.075 33.08125L1051.4968 33.08125L1051.4968 47.3L1049.6218 47.3L1049.6218 41.76875L1049.8093 35.784374L1045.1375 47.3L1043.7 47.3L1039.0437 35.815624L1039.2312 41.76875L1039.2312 47.3L1037.3562 47.3L1037.3562 33.08125L1039.7781 33.08125ZM1056.0281 47.3L1054.2312 47.3L1054.2312 36.7375L1056.0281 36.7375L1056.0281 47.3ZM1054.075 33.925Q1054.075 33.4875 1054.3406 33.190624Q1054.6218 32.878124 1055.1375 32.878124Q1055.6687 32.878124 1055.9343 33.190624Q1056.2156 33.4875 1056.2156 33.925Q1056.2156 34.3625 1055.9343 34.659374Q1055.6687 34.95625 1055.1375 34.95625Q1054.6218 34.95625 1054.3406 34.659374Q1054.075 34.3625 1054.075 33.925ZM1060.7781 36.7375L1060.8406 38.065624Q1062.0437 36.534374 1063.9968 36.534374Q1067.3562 36.534374 1067.3718 40.315624L1067.3718 47.3L1065.575 47.3L1065.575 40.3Q1065.5593 39.159374 1065.0437 38.6125Q1064.5437 38.065624 1063.45 38.065624Q1062.575 38.065624 1061.9031 38.534374Q1061.2468 39.003124 1060.8718 39.76875L1060.8718 47.3L1059.075 47.3L1059.075 36.7375L1060.7781 36.7375ZM1081.2781 47.3L1079.3875 47.3L1079.3875 40.721874L1072.2312 40.721874L1072.2312 47.3L1070.3562 47.3L1070.3562 33.08125L1072.2312 33.08125L1072.2312 39.190624L1079.3875 39.190624L1079.3875 33.08125L1081.2781 33.08125L1081.2781 47.3ZM1088.45 47.503124Q1086.3093 47.503124 1084.95 46.096874Q1083.6062 44.675 1083.6062 42.315624L1083.6062 41.971874Q1083.6062 40.409374 1084.2 39.175Q1084.8093 37.940624 1085.8875 37.2375Q1086.9656 36.534374 1088.2312 36.534374Q1090.2937 36.534374 1091.4343 37.89375Q1092.575 39.253124 1092.575 41.784374L1092.575 42.534374L1085.4187 42.534374Q1085.45 44.096874 1086.325 45.065624Q1087.2 46.01875 1088.5437 46.01875Q1089.5125 46.01875 1090.1687 45.628124Q1090.8406 45.2375 1091.3406 44.596874L1092.4343 45.45625Q1091.1062 47.503124 1088.45 47.503124ZM1088.2312 38.01875Q1087.1375 38.01875 1086.3875 38.815624Q1085.6531 39.6125 1085.4812 41.05L1090.7625 41.05L1090.7625 40.909374Q1090.6843 39.534374 1090.0125 38.784374Q1089.3562 38.01875 1088.2312 38.01875ZM1101.5906 47.3Q1101.4343 46.9875 1101.3406 46.190624Q1100.075 47.503124 1098.325 47.503124Q1096.7625 47.503124 1095.7625 46.6125Q1094.7625 45.721874 1094.7625 44.3625Q1094.7625 42.721874 1096.0125 41.815624Q1097.2781 40.89375 1099.5437 40.89375L1101.3093 40.89375L1101.3093 40.065624Q1101.3093 39.1125 1100.7312 38.55Q1100.1687 37.9875 1099.075 37.9875Q1098.1062 37.9875 1097.45 38.4875Q1096.7937 38.971874 1096.7937 39.659374L1094.9812 39.659374Q1094.9812 38.878124 1095.5437 38.14375Q1096.1062 37.39375 1097.0593 36.971874Q1098.0281 36.534374 1099.1843 36.534374Q1101.0125 36.534374 1102.0437 37.45625Q1103.075 38.3625 1103.1218 39.971874L1103.1218 44.83125Q1103.1218 46.284374 1103.4812 47.14375L1103.4812 47.3L1101.5906 47.3ZM1098.5906 45.925Q1099.45 45.925 1100.2 45.4875Q1100.9656 45.05 1101.3093 44.346874L1101.3093 42.175L1099.8875 42.175Q1096.575 42.175 1096.575 44.1125Q1096.575 44.971874 1097.1375 45.45625Q1097.7 45.925 1098.5906 45.925ZM1114.9968 42.128124Q1114.9968 44.55 1113.8875 46.034374Q1112.7937 47.503124 1110.9031 47.503124Q1108.9812 47.503124 1107.8718 46.26875L1107.8718 51.3625L1106.075 51.3625L1106.075 36.7375L1107.7156 36.7375L1107.8093 37.909374Q1108.9031 36.534374 1110.8718 36.534374Q1112.7781 36.534374 1113.8875 37.971874Q1114.9968 39.409374 1114.9968 41.971874L1114.9968 42.128124ZM1113.1843 41.925Q1113.1843 40.14375 1112.4187 39.1125Q1111.6687 38.065624 1110.3406 38.065624Q1108.7 38.065624 1107.8718 39.51875L1107.8718 44.58125Q1108.6843 46.01875 1110.3562 46.01875Q1111.6531 46.01875 1112.4187 44.9875Q1113.1843 43.95625 1113.1843 41.925Z" fill-rule="nonzero"/><path fill="#db4437" d="M987.7 69.3C987.7 68.74772 988.1477 68.3 988.7 68.3L998.7 68.3C999.25226 68.3 999.7 68.74772 999.7 69.3L999.7 79.3C999.7 79.85229 999.25226 80.3 998.7 80.3L988.7 80.3C988.1477 80.3 987.7 79.85229 987.7 79.3Z" fill-rule="nonzero"/><path fill="#757575" d="M1019.85626 79.44063Q1019.1219 80.47188 1017.825 80.9875Q1016.54376 81.50313 1014.825 81.50313Q1013.075 81.50313 1011.73126 80.69063Q1010.3875 79.8625 1009.65314 78.3625Q1008.91876 76.8625 1008.8875 74.87813L1008.8875 73.62813Q1008.8875 70.425 1010.3875 68.65938Q1011.8875 66.87813 1014.60626 66.87813Q1016.825 66.87813 1018.1844 68.01875Q1019.54376 69.15938 1019.85626 71.25313L1017.98126 71.25313Q1017.45 68.425 1014.6219 68.425Q1012.73126 68.425 1011.7625 69.75313Q1010.79376 71.08125 1010.77814 73.58125L1010.77814 74.75313Q1010.77814 77.14375 1011.8719 78.55Q1012.96564 79.95625 1014.825 79.95625Q1015.8875 79.95625 1016.66876 79.72188Q1017.46564 79.4875 1017.98126 78.94063L1017.98126 75.7375L1014.7 75.7375L1014.7 74.22188L1019.85626 74.22188L1019.85626 79.44063ZM1027.45 81.50313Q1025.3093 81.50313 1023.95 80.09688Q1022.60626 78.675 1022.60626 76.31563L1022.60626 75.97188Q1022.60626 74.40938 1023.2 73.175Q1023.8094 71.94063 1024.8875 71.2375Q1025.9656 70.53438 1027.2312 70.53438Q1029.2937 70.53438 1030.4343 71.89375Q1031.575 73.25313 1031.575 75.78438L1031.575 76.53438L1024.4187 76.53438Q1024.45 78.09688 1025.325 79.06563Q1026.2 80.01875 1027.5437 80.01875Q1028.5125 80.01875 1029.1687 79.62813Q1029.8406 79.2375 1030.3406 78.59688L1031.4343 79.45625Q1030.1062 81.50313 1027.45 81.50313ZM1027.2312 72.01875Q1026.1375 72.01875 1025.3875 72.81563Q1024.6531 73.6125 1024.4812 75.05L1029.7625 75.05L1029.7625 74.90938Q1029.6843 73.53438 1029.0125 72.78438Q1028.3562 72.01875 1027.2312 72.01875ZM1035.7781 70.7375L1035.8406 72.06563Q1037.0437 70.53438 1038.9968 70.53438Q1042.3562 70.53438 1042.3718 74.31563L1042.3718 81.3L1040.575 81.3L1040.575 74.3Q1040.5593 73.15938 1040.0437 72.6125Q1039.5437 72.06563 1038.45 72.06563Q1037.575 72.06563 1036.9031 72.53438Q1036.2468 73.00313 1035.8718 73.76875L1035.8718 81.3L1034.075 81.3L1034.075 70.7375L1035.7781 70.7375ZM1049.45 81.50313Q1047.3093 81.50313 1045.95 80.09688Q1044.6062 78.675 1044.6062 76.31563L1044.6062 75.97188Q1044.6062 74.40938 1045.2 73.175Q1045.8093 71.94063 1046.8875 71.2375Q1047.9656 70.53438 1049.2312 70.53438Q1051.2937 70.53438 1052.4343 71.89375Q1053.575 73.25313 1053.575 75.78438L1053.575 76.53438L1046.4187 76.53438Q1046.45 78.09688 1047.325 79.06563Q1048.2 80.01875 1049.5437 80.01875Q1050.5125 80.01875 1051.1687 79.62813Q1051.8406 79.2375 1052.3406 78.59688L1053.4343 79.45625Q1052.1062 81.50313 1049.45 81.50313ZM1049.2312 72.01875Q1048.1375 72.01875 1047.3875 72.81563Q1046.6531 73.6125 1046.4812 75.05L1051.7625 75.05L1051.7625 74.90938Q1051.6843 73.53438 1051.0125 72.78438Q1050.3562 72.01875 1049.2312 72.01875ZM1061.1687 72.34688Q1060.7625 72.28438 1060.2937 72.28438Q1058.5125 72.28438 1057.8718 73.8L1057.8718 81.3L1056.075 81.3L1056.075 70.7375L1057.825 70.7375L1057.8562 71.95625Q1058.7468 70.53438 1060.3718 70.53438Q1060.9031 70.53438 1061.1687 70.675L1061.1687 72.34688ZM1065.0281 81.3L1063.2312 81.3L1063.2312 70.7375L1065.0281 70.7375L1065.0281 81.3ZM1063.075 67.925Q1063.075 67.4875 1063.3406 67.19063Q1063.6218 66.87813 1064.1375 66.87813Q1064.6687 66.87813 1064.9343 67.19063Q1065.2156 67.4875 1065.2156 67.925Q1065.2156 68.3625 1064.9343 68.65938Q1064.6687 68.95625 1064.1375 68.95625Q1063.6218 68.95625 1063.3406 68.65938Q1063.075 68.3625 1063.075 67.925ZM1072.3093 80.01875Q1073.2781 80.01875 1073.9968 79.44063Q1074.7156 78.84688 1074.7937 77.97188L1076.5125 77.97188Q1076.45 78.87813 1075.8718 79.70625Q1075.3093 80.51875 1074.3406 81.01875Q1073.3875 81.50313 1072.3093 81.50313Q1070.1531 81.50313 1068.8718 80.06563Q1067.6062 78.6125 1067.6062 76.1125L1067.6062 75.81563Q1067.6062 74.26875 1068.1687 73.06563Q1068.7312 71.8625 1069.7937 71.20625Q1070.8562 70.53438 1072.2937 70.53438Q1074.075 70.53438 1075.2468 71.59688Q1076.4343 72.65938 1076.5125 74.3625L1074.7937 74.3625Q1074.7156 73.34688 1074.0125 72.69063Q1073.325 72.01875 1072.2937 72.01875Q1070.9187 72.01875 1070.1531 73.01875Q1069.4031 74.00313 1069.4031 75.87813L1069.4031 76.22188Q1069.4031 78.05 1070.1531 79.03438Q1070.9031 80.01875 1072.3093 80.01875ZM1082.5437 74.95625Q1080.1218 74.26875 1079.0281 73.26875Q1077.9343 72.25313 1077.9343 70.76875Q1077.9343 69.08125 1079.2781 67.9875Q1080.6218 66.87813 1082.7625 66.87813Q1084.2312 66.87813 1085.3718 67.45625Q1086.5281 68.01875 1087.1531 69.01875Q1087.7781 70.00313 1087.7781 71.19063L1085.9031 71.19063Q1085.9031 69.90938 1085.075 69.175Q1084.2625 68.425 1082.7625 68.425Q1081.3718 68.425 1080.5906 69.03438Q1079.825 69.64375 1079.825 70.7375Q1079.825 71.59688 1080.5593 72.20625Q1081.2937 72.8 1083.0593 73.3Q1084.8406 73.8 1085.8406 74.40938Q1086.8406 75.00313 1087.325 75.8Q1087.8093 76.59688 1087.8093 77.69063Q1087.8093 79.40938 1086.4656 80.45625Q1085.1218 81.50313 1082.8562 81.50313Q1081.4031 81.50313 1080.1218 80.94063Q1078.8562 80.37813 1078.1687 79.40938Q1077.4812 78.425 1077.4812 77.175L1079.3718 77.175Q1079.3718 78.47188 1080.325 79.22188Q1081.2781 79.95625 1082.8562 79.95625Q1084.3406 79.95625 1085.1375 79.3625Q1085.9343 78.75313 1085.9343 77.70625Q1085.9343 76.65938 1085.2 76.09688Q1084.4656 75.51875 1082.5437 74.95625ZM1098.9968 76.12813Q1098.9968 78.55 1097.8875 80.03438Q1096.7937 81.50313 1094.9031 81.50313Q1092.9812 81.50313 1091.8718 80.26875L1091.8718 85.3625L1090.075 85.3625L1090.075 70.7375L1091.7156 70.7375L1091.8093 71.90938Q1092.9031 70.53438 1094.8718 70.53438Q1096.7781 70.53438 1097.8875 71.97188Q1098.9968 73.40938 1098.9968 75.97188L1098.9968 76.12813ZM1097.1843 75.925Q1097.1843 74.14375 1096.4187 73.1125Q1095.6687 72.06563 1094.3406 72.06563Q1092.7 72.06563 1091.8718 73.51875L1091.8718 78.58125Q1092.6843 80.01875 1094.3562 80.01875Q1095.6531 80.01875 1096.4187 78.9875Q1097.1843 77.95625 1097.1843 75.925ZM1103.0281 81.3L1101.2312 81.3L1101.2312 66.3L1103.0281 66.3L1103.0281 81.3ZM1117.2781 81.3L1115.3875 81.3L1115.3875 74.72188L1108.2312 74.72188L1108.2312 81.3L1106.3562 81.3L1106.3562 67.08125L1108.2312 67.08125L1108.2312 73.19063L1115.3875 73.19063L1115.3875 67.08125L1117.2781 67.08125L1117.2781 81.3ZM1124.45 81.50313Q1122.3093 81.50313 1120.95 80.09688Q1119.6062 78.675 1119.6062 76.31563L1119.6062 75.97188Q1119.6062 74.40938 1120.2 73.175Q1120.8093 71.94063 1121.8875 71.2375Q1122.9656 70.53438 1124.2312 70.53438Q1126.2937 70.53438 1127.4343 71.89375Q1128.575 73.25313 1128.575 75.78438L1128.575 76.53438L1121.4187 76.53438Q1121.45 78.09688 1122.325 79.06563Q1123.2 80.01875 1124.5437 80.01875Q1125.5125 80.01875 1126.1687 79.62813Q1126.8406 79.2375 1127.3406 78.59688L1128.4343 79.45625Q1127.1062 81.50313 1124.45 81.50313ZM1124.2312 72.01875Q1123.1375 72.01875 1122.3875 72.81563Q1121.6531 73.6125 1121.4812 75.05L1126.7625 75.05L1126.7625 74.90938Q1126.6843 73.53438 1126.0125 72.78438Q1125.3562 72.01875 1124.2312 72.01875ZM1137.5906 81.3Q1137.4343 80.9875 1137.3406 80.19063Q1136.075 81.50313 1134.325 81.50313Q1132.7625 81.50313 1131.7625 80.6125Q1130.7625 79.72188 1130.7625 78.3625Q1130.7625 76.72188 1132.0125 75.81563Q1133.2781 74.89375 1135.5437 74.89375L1137.3093 74.89375L1137.3093 74.06563Q1137.3093 73.1125 1136.7312 72.55Q1136.1687 71.9875 1135.075 71.9875Q1134.1062 71.9875 1133.45 72.4875Q1132.7937 72.97188 1132.7937 73.65938L1130.9812 73.65938Q1130.9812 72.87813 1131.5437 72.14375Q1132.1062 71.39375 1133.0593 70.97188Q1134.0281 70.53438 1135.1843 70.53438Q1137.0125 70.53438 1138.0437 71.45625Q1139.075 72.3625 1139.1218 73.97188L1139.1218 78.83125Q1139.1218 80.28438 1139.4812 81.14375L1139.4812 81.3L1137.5906 81.3ZM1134.5906 79.925Q1135.45 79.925 1136.2 79.4875Q1136.9656 79.05 1137.3093 78.34688L1137.3093 76.175L1135.8875 76.175Q1132.575 76.175 1132.575 78.1125Q1132.575 78.97188 1133.1375 79.45625Q1133.7 79.925 1134.5906 79.925ZM1150.9968 76.12813Q1150.9968 78.55 1149.8875 80.03438Q1148.7937 81.50313 1146.9031 81.50313Q1144.9812 81.50313 1143.8718 80.26875L1143.8718 85.3625L1142.075 85.3625L1142.075 70.7375L1143.7156 70.7375L1143.8093 71.90938Q1144.9031 70.53438 1146.8718 70.53438Q1148.7781 70.53438 1149.8875 71.97188Q1150.9968 73.40938 1150.9968 75.97188L1150.9968 76.12813ZM1149.1843 75.925Q1149.1843 74.14375 1148.4187 73.1125Q1147.6687 72.06563 1146.3406 72.06563Q1144.7 72.06563 1143.8718 73.51875L1143.8718 78.58125Q1144.6843 80.01875 1146.3562 80.01875Q1147.6531 80.01875 1148.4187 78.9875Q1149.1843 77.95625 1149.1843 75.925Z" fill-rule="nonzero"/><path fill="#f4b400" d="M987.7 103.3C987.7 102.74772 988.1477 102.3 988.7 102.3L998.7 102.3C999.25226 102.3 999.7 102.74772 999.7 103.3L999.7 113.3C999.7 113.85229 999.25226 114.3 998.7 114.3L988.7 114.3C988.1477 114.3 987.7 113.85229 987.7 113.3Z" fill-rule="nonzero"/><path fill="#757575" d="M1009.35626 115.3L1009.35626 101.08125L1013.9969 101.08125Q1016.3094 101.08125 1017.48126 102.03438Q1018.65314 102.9875 1018.65314 104.8625Q1018.65314 105.8625 1018.075 106.62813Q1017.5125 107.39375 1016.54376 107.81563Q1017.6844 108.14375 1018.35626 109.05Q1019.02814 109.94063 1019.02814 111.19063Q1019.02814 113.1125 1017.77814 114.20625Q1016.54376 115.3 1014.27814 115.3L1009.35626 115.3ZM1011.23126 108.64375L1011.23126 113.76875L1014.325 113.76875Q1015.6375 113.76875 1016.3875 113.09688Q1017.1375 112.40938 1017.1375 111.22188Q1017.1375 108.64375 1014.35626 108.64375L1011.23126 108.64375ZM1011.23126 107.14375L1014.0594 107.14375Q1015.29376 107.14375 1016.02814 106.53438Q1016.7625 105.90938 1016.7625 104.8625Q1016.7625 103.69063 1016.075 103.15938Q1015.40314 102.62813 1013.9969 102.62813L1011.23126 102.62813L1011.23126 107.14375ZM1023.02814 115.3L1021.23126 115.3L1021.23126 104.7375L1023.02814 104.7375L1023.02814 115.3ZM1021.075 101.925Q1021.075 101.4875 1021.34064 101.19063Q1021.6219 100.87813 1022.1375 100.87813Q1022.66876 100.87813 1022.9344 101.19063Q1023.21564 101.4875 1023.21564 101.925Q1023.21564 102.3625 1022.9344 102.65938Q1022.66876 102.95625 1022.1375 102.95625Q1021.6219 102.95625 1021.34064 102.65938Q1021.075 102.3625 1021.075 101.925ZM1027.7781 104.7375L1027.8406 106.06563Q1029.0437 104.53438 1030.9968 104.53438Q1034.3562 104.53438 1034.3718 108.31563L1034.3718 115.3L1032.575 115.3L1032.575 108.3Q1032.5593 107.15938 1032.0437 106.6125Q1031.5437 106.06563 1030.45 106.06563Q1029.575 106.06563 1028.9031 106.53438Q1028.2468 107.00313 1027.8718 107.76875L1027.8718 115.3L1026.075 115.3L1026.075 104.7375L1027.7781 104.7375ZM1043.5906 115.3Q1043.4343 114.9875 1043.3406 114.19063Q1042.075 115.50313 1040.325 115.50313Q1038.7625 115.50313 1037.7625 114.6125Q1036.7625 113.72188 1036.7625 112.3625Q1036.7625 110.72188 1038.0125 109.81563Q1039.2781 108.89375 1041.5437 108.89375L1043.3093 108.89375L1043.3093 108.06563Q1043.3093 107.1125 1042.7312 106.55Q1042.1687 105.9875 1041.075 105.9875Q1040.1062 105.9875 1039.45 106.4875Q1038.7937 106.97188 1038.7937 107.65938L1036.9812 107.65938Q1036.9812 106.87813 1037.5437 106.14375Q1038.1062 105.39375 1039.0593 104.97188Q1040.0281 104.53438 1041.1843 104.53438Q1043.0125 104.53438 1044.0437 105.45625Q1045.075 106.3625 1045.1218 107.97188L1045.1218 112.83125Q1045.1218 114.28438 1045.4812 115.14375L1045.4812 115.3L1043.5906 115.3ZM1040.5906 113.925Q1041.45 113.925 1042.2 113.4875Q1042.9656 113.05 1043.3093 112.34688L1043.3093 110.175L1041.8875 110.175Q1038.575 110.175 1038.575 112.1125Q1038.575 112.97188 1039.1375 113.45625Q1039.7 113.925 1040.5906 113.925ZM1053.1687 106.34688Q1052.7625 106.28438 1052.2937 106.28438Q1050.5125 106.28438 1049.8718 107.8L1049.8718 115.3L1048.075 115.3L1048.075 104.7375L1049.825 104.7375L1049.8562 105.95625Q1050.7468 104.53438 1052.3718 104.53438Q1052.9031 104.53438 1053.1687 104.675L1053.1687 106.34688ZM1058.5281 112.65938L1060.9812 104.7375L1062.9187 104.7375L1058.6687 116.925Q1057.6843 119.56563 1055.5437 119.56563L1055.2 119.53438L1054.5281 119.40938L1054.5281 117.94063L1055.0125 117.9875Q1055.9343 117.9875 1056.4343 117.6125Q1056.95 117.2375 1057.2781 116.25313L1057.6843 115.175L1053.9187 104.7375L1055.8875 104.7375L1058.5281 112.65938ZM1075.2781 115.3L1073.3875 115.3L1073.3875 108.72188L1066.2312 108.72188L1066.2312 115.3L1064.3562 115.3L1064.3562 101.08125L1066.2312 101.08125L1066.2312 107.19063L1073.3875 107.19063L1073.3875 101.08125L1075.2781 101.08125L1075.2781 115.3ZM1082.45 115.50313Q1080.3093 115.50313 1078.95 114.09688Q1077.6062 112.675 1077.6062 110.31563L1077.6062 109.97188Q1077.6062 108.40938 1078.2 107.175Q1078.8093 105.94063 1079.8875 105.2375Q1080.9656 104.53438 1082.2312 104.53438Q1084.2937 104.53438 1085.4343 105.89375Q1086.575 107.25313 1086.575 109.78438L1086.575 110.53438L1079.4187 110.53438Q1079.45 112.09688 1080.325 113.06563Q1081.2 114.01875 1082.5437 114.01875Q1083.5125 114.01875 1084.1687 113.62813Q1084.8406 113.2375 1085.3406 112.59688L1086.4343 113.45625Q1085.1062 115.50313 1082.45 115.50313ZM1082.2312 106.01875Q1081.1375 106.01875 1080.3875 106.81563Q1079.6531 107.6125 1079.4812 109.05L1084.7625 109.05L1084.7625 108.90938Q1084.6843 107.53438 1084.0125 106.78438Q1083.3562 106.01875 1082.2312 106.01875ZM1095.5906 115.3Q1095.4343 114.9875 1095.3406 114.19063Q1094.075 115.50313 1092.325 115.50313Q1090.7625 115.50313 1089.7625 114.6125Q1088.7625 113.72188 1088.7625 112.3625Q1088.7625 110.72188 1090.0125 109.81563Q1091.2781 108.89375 1093.5437 108.89375L1095.3093 108.89375L1095.3093 108.06563Q1095.3093 107.1125 1094.7312 106.55Q1094.1687 105.9875 1093.075 105.9875Q1092.1062 105.9875 1091.45 106.4875Q1090.7937 106.97188 1090.7937 107.65938L1088.9812 107.65938Q1088.9812 106.87813 1089.5437 106.14375Q1090.1062 105.39375 1091.0593 104.97188Q1092.0281 104.53438 1093.1843 104.53438Q1095.0125 104.53438 1096.0437 105.45625Q1097.075 106.3625 1097.1218 107.97188L1097.1218 112.83125Q1097.1218 114.28438 1097.4812 115.14375L1097.4812 115.3L1095.5906 115.3ZM1092.5906 113.925Q1093.45 113.925 1094.2 113.4875Q1094.9656 113.05 1095.3093 112.34688L1095.3093 110.175L1093.8875 110.175Q1090.575 110.175 1090.575 112.1125Q1090.575 112.97188 1091.1375 113.45625Q1091.7 113.925 1092.5906 113.925ZM1108.9968 110.12813Q1108.9968 112.55 1107.8875 114.03438Q1106.7937 115.50313 1104.9031 115.50313Q1102.9812 115.50313 1101.8718 114.26875L1101.8718 119.3625L1100.075 119.3625L1100.075 104.7375L1101.7156 104.7375L1101.8093 105.90938Q1102.9031 104.53438 1104.8718 104.53438Q1106.7781 104.53438 1107.8875 105.97188Q1108.9968 107.40938 1108.9968 109.97188L1108.9968 110.12813ZM1107.1843 109.925Q1107.1843 108.14375 1106.4187 107.1125Q1105.6687 106.06563 1104.3406 106.06563Q1102.7 106.06563 1101.8718 107.51875L1101.8718 112.58125Q1102.6843 114.01875 1104.3562 114.01875Q1105.6531 114.01875 1106.4187 112.9875Q1107.1843 111.95625 1107.1843 109.925Z" fill-rule="nonzero"/><path fill="#0f9d58" d="M987.7 137.3C987.7 136.74771 988.1477 136.3 988.7 136.3L998.7 136.3C999.25226 136.3 999.7 136.74771 999.7 137.3L999.7 147.3C999.7 147.85228 999.25226 148.3 998.7 148.3L988.7 148.3C988.1477 148.3 987.7 147.85228 987.7 147.3Z" fill-rule="nonzero"/><path fill="#757575" d="M1011.77814 135.08125L1016.41876 146.675L1021.075 135.08125L1023.4969 135.08125L1023.4969 149.3L1021.6219 149.3L1021.6219 143.76875L1021.8094 137.78438L1017.1375 149.3L1015.7 149.3L1011.04376 137.81563L1011.23126 143.76875L1011.23126 149.3L1009.35626 149.3L1009.35626 135.08125L1011.77814 135.08125ZM1028.0281 149.3L1026.2312 149.3L1026.2312 138.7375L1028.0281 138.7375L1028.0281 149.3ZM1026.075 135.925Q1026.075 135.4875 1026.3406 135.19063Q1026.6218 134.87813 1027.1375 134.87813Q1027.6687 134.87813 1027.9343 135.19063Q1028.2156 135.4875 1028.2156 135.925Q1028.2156 136.3625 1027.9343 136.65938Q1027.6687 136.95625 1027.1375 136.95625Q1026.6218 136.95625 1026.3406 136.65938Q1026.075 136.3625 1026.075 135.925ZM1032.7781 138.7375L1032.8406 140.06563Q1034.0437 138.53438 1035.9968 138.53438Q1039.3562 138.53438 1039.3718 142.31563L1039.3718 149.3L1037.575 149.3L1037.575 142.3Q1037.5593 141.15938 1037.0437 140.6125Q1036.5437 140.06563 1035.45 140.06563Q1034.575 140.06563 1033.9031 140.53438Q1033.2468 141.00313 1032.8718 141.76875L1032.8718 149.3L1031.075 149.3L1031.075 138.7375L1032.7781 138.7375ZM1050.2 143.01875L1044.2312 143.01875L1044.2312 149.3L1042.3562 149.3L1042.3562 135.08125L1051.1531 135.08125L1051.1531 136.62813L1044.2312 136.62813L1044.2312 141.4875L1050.2 141.4875L1050.2 143.01875ZM1059.5906 148.25313Q1058.5437 149.50313 1056.4968 149.50313Q1054.8093 149.50313 1053.9187 148.51875Q1053.0437 147.53438 1053.0281 145.6125L1053.0281 138.7375L1054.8406 138.7375L1054.8406 145.56563Q1054.8406 147.95625 1056.7937 147.95625Q1058.8562 147.95625 1059.5437 146.425L1059.5437 138.7375L1061.3562 138.7375L1061.3562 149.3L1059.6375 149.3L1059.5906 148.25313ZM1065.7781 138.7375L1065.8406 140.06563Q1067.0437 138.53438 1068.9968 138.53438Q1072.3562 138.53438 1072.3718 142.31563L1072.3718 149.3L1070.575 149.3L1070.575 142.3Q1070.5593 141.15938 1070.0437 140.6125Q1069.5437 140.06563 1068.45 140.06563Q1067.575 140.06563 1066.9031 140.53438Q1066.2468 141.00313 1065.8718 141.76875L1065.8718 149.3L1064.075 149.3L1064.075 138.7375L1065.7781 138.7375ZM1079.3093 148.01875Q1080.2781 148.01875 1080.9968 147.44063Q1081.7156 146.84688 1081.7937 145.97188L1083.5125 145.97188Q1083.45 146.87813 1082.8718 147.70625Q1082.3093 148.51875 1081.3406 149.01875Q1080.3875 149.50313 1079.3093 149.50313Q1077.1531 149.50313 1075.8718 148.06563Q1074.6062 146.6125 1074.6062 144.1125L1074.6062 143.81563Q1074.6062 142.26875 1075.1687 141.06563Q1075.7312 139.8625 1076.7937 139.20625Q1077.8562 138.53438 1079.2937 138.53438Q1081.075 138.53438 1082.2468 139.59688Q1083.4343 140.65938 1083.5125 142.3625L1081.7937 142.3625Q1081.7156 141.34688 1081.0125 140.69063Q1080.325 140.01875 1079.2937 140.01875Q1077.9187 140.01875 1077.1531 141.01875Q1076.4031 142.00313 1076.4031 143.87813L1076.4031 144.22188Q1076.4031 146.05 1077.1531 147.03438Q1077.9031 148.01875 1079.3093 148.01875ZM1087.5125 136.175L1087.5125 138.7375L1089.4968 138.7375L1089.4968 140.12813L1087.5125 140.12813L1087.5125 146.675Q1087.5125 147.31563 1087.7781 147.64375Q1088.0437 147.95625 1088.6843 147.95625Q1088.9968 147.95625 1089.5437 147.83125L1089.5437 149.3Q1088.825 149.50313 1088.1531 149.50313Q1086.95 149.50313 1086.325 148.76875Q1085.7156 148.03438 1085.7156 146.675L1085.7156 140.12813L1083.7937 140.12813L1083.7937 138.7375L1085.7156 138.7375L1085.7156 136.175L1087.5125 136.175ZM1094.0281 149.3L1092.2312 149.3L1092.2312 138.7375L1094.0281 138.7375L1094.0281 149.3ZM1092.075 135.925Q1092.075 135.4875 1092.3406 135.19063Q1092.6218 134.87813 1093.1375 134.87813Q1093.6687 134.87813 1093.9343 135.19063Q1094.2156 135.4875 1094.2156 135.925Q1094.2156 136.3625 1093.9343 136.65938Q1093.6687 136.95625 1093.1375 136.95625Q1092.6218 136.95625 1092.3406 136.65938Q1092.075 136.3625 1092.075 135.925ZM1096.5906 143.925Q1096.5906 142.3625 1097.2 141.12813Q1097.8093 139.87813 1098.8875 139.20625Q1099.9812 138.53438 1101.3875 138.53438Q1103.5437 138.53438 1104.8718 140.03438Q1106.2156 141.51875 1106.2156 144.00313L1106.2156 144.12813Q1106.2156 145.675 1105.6218 146.90938Q1105.0281 148.12813 1103.9187 148.81563Q1102.825 149.50313 1101.4031 149.50313Q1099.2625 149.50313 1097.9187 148.00313Q1096.5906 146.50313 1096.5906 144.05L1096.5906 143.925ZM1098.4031 144.12813Q1098.4031 145.89375 1099.2156 146.95625Q1100.0437 148.01875 1101.4031 148.01875Q1102.7781 148.01875 1103.5906 146.94063Q1104.4031 145.8625 1104.4031 143.925Q1104.4031 142.175 1103.575 141.09688Q1102.7468 140.01875 1101.3875 140.01875Q1100.0437 140.01875 1099.2156 141.08125Q1098.4031 142.14375 1098.4031 144.12813ZM1109.7781 138.7375L1109.8406 140.06563Q1111.0437 138.53438 1112.9968 138.53438Q1116.3562 138.53438 1116.3718 142.31563L1116.3718 149.3L1114.575 149.3L1114.575 142.3Q1114.5593 141.15938 1114.0437 140.6125Q1113.5437 140.06563 1112.45 140.06563Q1111.575 140.06563 1110.9031 140.53438Q1110.2468 141.00313 1109.8718 141.76875L1109.8718 149.3L1108.075 149.3L1108.075 138.7375L1109.7781 138.7375Z" fill-rule="nonzero"/><path fill="#ff6d00" d="M987.7 171.3C987.7 170.74771 988.1477 170.3 988.7 170.3L998.7 170.3C999.25226 170.3 999.7 170.74771 999.7 171.3L999.7 181.3C999.7 181.85228 999.25226 182.3 998.7 182.3L988.7 182.3C988.1477 182.3 987.7 181.85228 987.7 181.3Z" fill-rule="nonzero"/><path fill="#757575" d="M1017.2 177.01875L1011.23126 177.01875L1011.23126 183.3L1009.35626 183.3L1009.35626 169.08125L1018.15314 169.08125L1018.15314 170.62813L1011.23126 170.62813L1011.23126 175.4875L1017.2 175.4875L1017.2 177.01875ZM1019.59064 177.925Q1019.59064 176.3625 1020.2 175.12813Q1020.8094 173.87813 1021.8875 173.20625Q1022.98126 172.53438 1024.3875 172.53438Q1026.5437 172.53438 1027.8718 174.03438Q1029.2156 175.51875 1029.2156 178.00313L1029.2156 178.12813Q1029.2156 179.675 1028.6218 180.90938Q1028.0281 182.12813 1026.9187 182.81563Q1025.825 183.50313 1024.4031 183.50313Q1022.2625 183.50313 1020.91876 182.00313Q1019.59064 180.50313 1019.59064 178.05L1019.59064 177.925ZM1021.40314 178.12813Q1021.40314 179.89375 1022.21564 180.95625Q1023.04376 182.01875 1024.4031 182.01875Q1025.7781 182.01875 1026.5906 180.94063Q1027.4031 179.8625 1027.4031 177.925Q1027.4031 176.175 1026.575 175.09688Q1025.7468 174.01875 1024.3875 174.01875Q1023.04376 174.01875 1022.21564 175.08125Q1021.40314 176.14375 1021.40314 178.12813ZM1036.1687 174.34688Q1035.7625 174.28438 1035.2937 174.28438Q1033.5125 174.28438 1032.8718 175.8L1032.8718 183.3L1031.075 183.3L1031.075 172.7375L1032.825 172.7375L1032.8562 173.95625Q1033.7468 172.53438 1035.3718 172.53438Q1035.9031 172.53438 1036.1687 172.675L1036.1687 174.34688ZM1042.45 183.50313Q1040.3093 183.50313 1038.95 182.09688Q1037.6062 180.675 1037.6062 178.31563L1037.6062 177.97188Q1037.6062 176.40938 1038.2 175.175Q1038.8093 173.94063 1039.8875 173.2375Q1040.9656 172.53438 1042.2312 172.53438Q1044.2937 172.53438 1045.4343 173.89375Q1046.575 175.25313 1046.575 177.78438L1046.575 178.53438L1039.4187 178.53438Q1039.45 180.09688 1040.325 181.06563Q1041.2 182.01875 1042.5437 182.01875Q1043.5125 182.01875 1044.1687 181.62813Q1044.8406 181.2375 1045.3406 180.59688L1046.4343 181.45625Q1045.1062 183.50313 1042.45 183.50313ZM1042.2312 174.01875Q1041.1375 174.01875 1040.3875 174.81563Q1039.6531 175.6125 1039.4812 177.05L1044.7625 177.05L1044.7625 176.90938Q1044.6843 175.53438 1044.0125 174.78438Q1043.3562 174.01875 1042.2312 174.01875ZM1055.5906 183.3Q1055.4343 182.9875 1055.3406 182.19063Q1054.075 183.50313 1052.325 183.50313Q1050.7625 183.50313 1049.7625 182.6125Q1048.7625 181.72188 1048.7625 180.3625Q1048.7625 178.72188 1050.0125 177.81563Q1051.2781 176.89375 1053.5437 176.89375L1055.3093 176.89375L1055.3093 176.06563Q1055.3093 175.1125 1054.7312 174.55Q1054.1687 173.9875 1053.075 173.9875Q1052.1062 173.9875 1051.45 174.4875Q1050.7937 174.97188 1050.7937 175.65938L1048.9812 175.65938Q1048.9812 174.87813 1049.5437 174.14375Q1050.1062 173.39375 1051.0593 172.97188Q1052.0281 172.53438 1053.1843 172.53438Q1055.0125 172.53438 1056.0437 173.45625Q1057.075 174.3625 1057.1218 175.97188L1057.1218 180.83125Q1057.1218 182.28438 1057.4812 183.14375L1057.4812 183.3L1055.5906 183.3ZM1052.5906 181.925Q1053.45 181.925 1054.2 181.4875Q1054.9656 181.05 1055.3093 180.34688L1055.3093 178.175L1053.8875 178.175Q1050.575 178.175 1050.575 180.1125Q1050.575 180.97188 1051.1375 181.45625Q1051.7 181.925 1052.5906 181.925ZM1064.3093 182.01875Q1065.2781 182.01875 1065.9968 181.44063Q1066.7156 180.84688 1066.7937 179.97188L1068.5125 179.97188Q1068.45 180.87813 1067.8718 181.70625Q1067.3093 182.51875 1066.3406 183.01875Q1065.3875 183.50313 1064.3093 183.50313Q1062.1531 183.50313 1060.8718 182.06563Q1059.6062 180.6125 1059.6062 178.1125L1059.6062 177.81563Q1059.6062 176.26875 1060.1687 175.06563Q1060.7312 173.8625 1061.7937 173.20625Q1062.8562 172.53438 1064.2937 172.53438Q1066.075 172.53438 1067.2468 173.59688Q1068.4343 174.65938 1068.5125 176.3625L1066.7937 176.3625Q1066.7156 175.34688 1066.0125 174.69063Q1065.325 174.01875 1064.2937 174.01875Q1062.9187 174.01875 1062.1531 175.01875Q1061.4031 176.00313 1061.4031 177.87813L1061.4031 178.22188Q1061.4031 180.05 1062.1531 181.03438Q1062.9031 182.01875 1064.3093 182.01875ZM1071.8718 174.01875Q1073.075 172.53438 1074.9968 172.53438Q1078.3562 172.53438 1078.3718 176.31563L1078.3718 183.3L1076.575 183.3L1076.575 176.3Q1076.5593 175.15938 1076.0437 174.6125Q1075.5437 174.06563 1074.45 174.06563Q1073.575 174.06563 1072.9031 174.53438Q1072.2468 175.00313 1071.8718 175.76875L1071.8718 183.3L1070.075 183.3L1070.075 168.3L1071.8718 168.3L1071.8718 174.01875ZM1083.2312 181.76875L1089.9812 181.76875L1089.9812 183.3L1081.3562 183.3L1081.3562 169.08125L1083.2312 169.08125L1083.2312 181.76875ZM1091.5906 177.925Q1091.5906 176.3625 1092.2 175.12813Q1092.8093 173.87813 1093.8875 173.20625Q1094.9812 172.53438 1096.3875 172.53438Q1098.5437 172.53438 1099.8718 174.03438Q1101.2156 175.51875 1101.2156 178.00313L1101.2156 178.12813Q1101.2156 179.675 1100.6218 180.90938Q1100.0281 182.12813 1098.9187 182.81563Q1097.825 183.50313 1096.4031 183.50313Q1094.2625 183.50313 1092.9187 182.00313Q1091.5906 180.50313 1091.5906 178.05L1091.5906 177.925ZM1093.4031 178.12813Q1093.4031 179.89375 1094.2156 180.95625Q1095.0437 182.01875 1096.4031 182.01875Q1097.7781 182.01875 1098.5906 180.94063Q1099.4031 179.8625 1099.4031 177.925Q1099.4031 176.175 1098.575 175.09688Q1097.7468 174.01875 1096.3875 174.01875Q1095.0437 174.01875 1094.2156 175.08125Q1093.4031 176.14375 1093.4031 178.12813ZM1102.5906 177.925Q1102.5906 176.3625 1103.2 175.12813Q1103.8093 173.87813 1104.8875 173.20625Q1105.9812 172.53438 1107.3875 172.53438Q1109.5437 172.53438 1110.8718 174.03438Q1112.2156 175.51875 1112.2156 178.00313L1112.2156 178.12813Q1112.2156 179.675 1111.6218 180.90938Q1111.0281 182.12813 1109.9187 182.81563Q1108.825 183.50313 1107.4031 183.50313Q1105.2625 183.50313 1103.9187 182.00313Q1102.5906 180.50313 1102.5906 178.05L1102.5906 177.925ZM1104.4031 178.12813Q1104.4031 179.89375 1105.2156 180.95625Q1106.0437 182.01875 1107.4031 182.01875Q1108.7781 182.01875 1109.5906 180.94063Q1110.4031 179.8625 1110.4031 177.925Q1110.4031 176.175 1109.575 175.09688Q1108.7468 174.01875 1107.3875 174.01875Q1106.0437 174.01875 1105.2156 175.08125Q1104.4031 176.14375 1104.4031 178.12813ZM1122.9968 178.12813Q1122.9968 180.55 1121.8875 182.03438Q1120.7937 183.50313 1118.9031 183.50313Q1116.9812 183.50313 1115.8718 182.26875L1115.8718 187.3625L1114.075 187.3625L1114.075 172.7375L1115.7156 172.7375L1115.8093 173.90938Q1116.9031 172.53438 1118.8718 172.53438Q1120.7781 172.53438 1121.8875 173.97188Q1122.9968 175.40938 1122.9968 177.97188L1122.9968 178.12813ZM1121.1843 177.925Q1121.1843 176.14375 1120.4187 175.1125Q1119.6687 174.06563 1118.3406 174.06563Q1116.7 174.06563 1115.8718 175.51875L1115.8718 180.58125Q1116.6843 182.01875 1118.3562 182.01875Q1119.6531 182.01875 1120.4187 180.9875Q1121.1843 179.95625 1121.1843 177.925Z" fill-rule="nonzero"/><path fill="#46bdc6" d="M987.7 205.3C987.7 204.74771 988.1477 204.3 988.7 204.3L998.7 204.3C999.25226 204.3 999.7 204.74771 999.7 205.3L999.7 215.3C999.7 215.85228 999.25226 216.3 998.7 216.3L988.7 216.3C988.1477 216.3 987.7 215.85228 987.7 215.3Z" fill-rule="nonzero"/><path fill="#757575" d="M1013.54376 210.95625Q1011.1219 210.26875 1010.02814 209.26875Q1008.9344 208.25313 1008.9344 206.76875Q1008.9344 205.08125 1010.27814 203.9875Q1011.6219 202.87813 1013.7625 202.87813Q1015.23126 202.87813 1016.3719 203.45625Q1017.52814 204.01875 1018.15314 205.01875Q1018.77814 206.00313 1018.77814 207.19063L1016.90314 207.19063Q1016.90314 205.90938 1016.075 205.175Q1015.2625 204.425 1013.7625 204.425Q1012.3719 204.425 1011.59064 205.03438Q1010.825 205.64375 1010.825 206.7375Q1010.825 207.59688 1011.5594 208.20625Q1012.29376 208.8 1014.0594 209.3Q1015.84064 209.8 1016.84064 210.40938Q1017.84064 211.00313 1018.325 211.8Q1018.8094 212.59688 1018.8094 213.69063Q1018.8094 215.40938 1017.46564 216.45625Q1016.1219 217.50313 1013.85626 217.50313Q1012.40314 217.50313 1011.1219 216.94063Q1009.85626 216.37813 1009.16876 215.40938Q1008.48126 214.425 1008.48126 213.175L1010.3719 213.175Q1010.3719 214.47188 1011.325 215.22188Q1012.27814 215.95625 1013.85626 215.95625Q1015.34064 215.95625 1016.1375 215.3625Q1016.9344 214.75313 1016.9344 213.70625Q1016.9344 212.65938 1016.2 212.09688Q1015.46564 211.51875 1013.54376 210.95625ZM1020.59064 211.925Q1020.59064 210.3625 1021.2 209.12813Q1021.8094 207.87813 1022.8875 207.20625Q1023.98126 206.53438 1025.3875 206.53438Q1027.5437 206.53438 1028.8718 208.03438Q1030.2156 209.51875 1030.2156 212.00313L1030.2156 212.12813Q1030.2156 213.675 1029.6218 214.90938Q1029.0281 216.12813 1027.9187 216.81563Q1026.825 217.50313 1025.4031 217.50313Q1023.2625 217.50313 1021.91876 216.00313Q1020.59064 214.50313 1020.59064 212.05L1020.59064 211.925ZM1022.40314 212.12813Q1022.40314 213.89375 1023.21564 214.95625Q1024.0437 216.01875 1025.4031 216.01875Q1026.7781 216.01875 1027.5906 214.94063Q1028.4031 213.8625 1028.4031 211.925Q1028.4031 210.175 1027.575 209.09688Q1026.7468 208.01875 1025.3875 208.01875Q1024.0437 208.01875 1023.21564 209.08125Q1022.40314 210.14375 1022.40314 212.12813ZM1037.1687 208.34688Q1036.7625 208.28438 1036.2937 208.28438Q1034.5125 208.28438 1033.8718 209.8L1033.8718 217.3L1032.075 217.3L1032.075 206.7375L1033.825 206.7375L1033.8562 207.95625Q1034.7468 206.53438 1036.3718 206.53438Q1036.9031 206.53438 1037.1687 206.675L1037.1687 208.34688ZM1041.5125 204.175L1041.5125 206.7375L1043.4968 206.7375L1043.4968 208.12813L1041.5125 208.12813L1041.5125 214.675Q1041.5125 215.31563 1041.7781 215.64375Q1042.0437 215.95625 1042.6843 215.95625Q1042.9968 215.95625 1043.5437 215.83125L1043.5437 217.3Q1042.825 217.50313 1042.1531 217.50313Q1040.95 217.50313 1040.325 216.76875Q1039.7156 216.03438 1039.7156 214.675L1039.7156 208.12813L1037.7937 208.12813L1037.7937 206.7375L1039.7156 206.7375L1039.7156 204.175L1041.5125 204.175ZM1054.2 211.01875L1048.2312 211.01875L1048.2312 217.3L1046.3562 217.3L1046.3562 203.08125L1055.1531 203.08125L1055.1531 204.62813L1048.2312 204.62813L1048.2312 209.4875L1054.2 209.4875L1054.2 211.01875ZM1063.5906 216.25313Q1062.5437 217.50313 1060.4968 217.50313Q1058.8093 217.50313 1057.9187 216.51875Q1057.0437 215.53438 1057.0281 213.6125L1057.0281 206.7375L1058.8406 206.7375L1058.8406 213.56563Q1058.8406 215.95625 1060.7937 215.95625Q1062.8562 215.95625 1063.5437 214.425L1063.5437 206.7375L1065.3562 206.7375L1065.3562 217.3L1063.6375 217.3L1063.5906 216.25313ZM1069.7781 206.7375L1069.8406 208.06563Q1071.0437 206.53438 1072.9968 206.53438Q1076.3562 206.53438 1076.3718 210.31563L1076.3718 217.3L1074.575 217.3L1074.575 210.3Q1074.5593 209.15938 1074.0437 208.6125Q1073.5437 208.06563 1072.45 208.06563Q1071.575 208.06563 1070.9031 208.53438Q1070.2468 209.00313 1069.8718 209.76875L1069.8718 217.3L1068.075 217.3L1068.075 206.7375L1069.7781 206.7375ZM1083.3093 216.01875Q1084.2781 216.01875 1084.9968 215.44063Q1085.7156 214.84688 1085.7937 213.97188L1087.5125 213.97188Q1087.45 214.87813 1086.8718 215.70625Q1086.3093 216.51875 1085.3406 217.01875Q1084.3875 217.50313 1083.3093 217.50313Q1081.1531 217.50313 1079.8718 216.06563Q1078.6062 214.6125 1078.6062 212.1125L1078.6062 211.81563Q1078.6062 210.26875 1079.1687 209.06563Q1079.7312 207.8625 1080.7937 207.20625Q1081.8562 206.53438 1083.2937 206.53438Q1085.075 206.53438 1086.2468 207.59688Q1087.4343 208.65938 1087.5125 210.3625L1085.7937 210.3625Q1085.7156 209.34688 1085.0125 208.69063Q1084.325 208.01875 1083.2937 208.01875Q1081.9187 208.01875 1081.1531 209.01875Q1080.4031 210.00313 1080.4031 211.87813L1080.4031 212.22188Q1080.4031 214.05 1081.1531 215.03438Q1081.9031 216.01875 1083.3093 216.01875ZM1091.5125 204.175L1091.5125 206.7375L1093.4968 206.7375L1093.4968 208.12813L1091.5125 208.12813L1091.5125 214.675Q1091.5125 215.31563 1091.7781 215.64375Q1092.0437 215.95625 1092.6843 215.95625Q1092.9968 215.95625 1093.5437 215.83125L1093.5437 217.3Q1092.825 217.50313 1092.1531 217.50313Q1090.95 217.50313 1090.325 216.76875Q1089.7156 216.03438 1089.7156 214.675L1089.7156 208.12813L1087.7937 208.12813L1087.7937 206.7375L1089.7156 206.7375L1089.7156 204.175L1091.5125 204.175ZM1098.0281 217.3L1096.2312 217.3L1096.2312 206.7375L1098.0281 206.7375L1098.0281 217.3ZM1096.075 203.925Q1096.075 203.4875 1096.3406 203.19063Q1096.6218 202.87813 1097.1375 202.87813Q1097.6687 202.87813 1097.9343 203.19063Q1098.2156 203.4875 1098.2156 203.925Q1098.2156 204.3625 1097.9343 204.65938Q1097.6687 204.95625 1097.1375 204.95625Q1096.6218 204.95625 1096.3406 204.65938Q1096.075 204.3625 1096.075 203.925ZM1100.5906 211.925Q1100.5906 210.3625 1101.2 209.12813Q1101.8093 207.87813 1102.8875 207.20625Q1103.9812 206.53438 1105.3875 206.53438Q1107.5437 206.53438 1108.8718 208.03438Q1110.2156 209.51875 1110.2156 212.00313L1110.2156 212.12813Q1110.2156 213.675 1109.6218 214.90938Q1109.0281 216.12813 1107.9187 216.81563Q1106.825 217.50313 1105.4031 217.50313Q1103.2625 217.50313 1101.9187 216.00313Q1100.5906 214.50313 1100.5906 212.05L1100.5906 211.925ZM1102.4031 212.12813Q1102.4031 213.89375 1103.2156 214.95625Q1104.0437 216.01875 1105.4031 216.01875Q1106.7781 216.01875 1107.5906 214.94063Q1108.4031 213.8625 1108.4031 211.925Q1108.4031 210.175 1107.575 209.09688Q1106.7468 208.01875 1105.3875 208.01875Q1104.0437 208.01875 1103.2156 209.08125Q1102.4031 210.14375 1102.4031 212.12813ZM1113.7781 206.7375L1113.8406 208.06563Q1115.0437 206.53438 1116.9968 206.53438Q1120.3562 206.53438 1120.3718 210.31563L1120.3718 217.3L1118.575 217.3L1118.575 210.3Q1118.5593 209.15938 1118.0437 208.6125Q1117.5437 208.06563 1116.45 208.06563Q1115.575 208.06563 1114.9031 208.53438Q1114.2468 209.00313 1113.8718 209.76875L1113.8718 217.3L1112.075 217.3L1112.075 206.7375L1113.7781 206.7375Z" fill-rule="nonzero"/></svg>