<svg version="1.1" viewBox="0.0 0.0 434.2283464566929 424.68766404199476" fill="none" stroke="none" stroke-linecap="square" stroke-miterlimit="10" xmlns:xlink="http://www.w3.org/1999/xlink" xmlns="http://www.w3.org/2000/svg"><clipPath id="p.0"><path d="m0 0l434.22833 0l0 424.68765l-434.22833 0l0 -424.68765z" clip-rule="nonzero"/></clipPath><g clip-path="url(#p.0)"><path fill="#000000" fill-opacity="0.0" d="m0 0l434.22833 0l0 424.68765l-434.22833 0z" fill-rule="evenodd"/><path fill="#a1c3fa" d="m166.53123 260.1189l0 0c-27.074997 -27.074997 -27.02565 -71.02159 0.11022949 -98.15747l0 0c13.031113 -13.031113 30.693481 -20.363525 49.101578 -20.384201c18.408096 -0.02067566 36.05403 7.2720795 49.05591 20.273956l0 0c27.075012 27.074997 27.025635 71.02161 -0.11022949 98.157486l0 0c-27.135895 27.135864 -71.08249 27.185242 -98.157486 0.11022949z" fill-rule="evenodd"/><path fill="#ffd966" d="m90.31018 336.14838c-62.06492 -62.06491 -68.29695 -159.75552 -18.712029 -228.58539c-7.2180405 -2.4044266 -14.9174385 -4.3274918 -22.617077 -5.2880783c-50.068184 77.01109 -41.912838 181.43861 25.925556 249.277c7.697975 7.697998 15.396179 14.433472 23.575752 20.687622c1.4457474 -8.181488 3.3726196 -15.881836 5.780609 -23.101074c-4.3301086 -4.3301086 -9.141579 -8.178833 -13.952812 -12.990082z" fill-rule="evenodd"/><path stroke="#ffffff" stroke-width="1.0" stroke-miterlimit="8.0" stroke-linecap="butt" d="m90.31018 336.14838c-62.06492 -62.06491 -68.29695 -159.75552 -18.712029 -228.58539c-7.2180405 -2.4044266 -14.9174385 -4.3274918 -22.617077 -5.2880783c-50.068184 77.01109 -41.912838 181.43861 25.925556 249.277c7.697975 7.697998 15.396179 14.433472 23.575752 20.687622c1.4457474 -8.181488 3.3726196 -15.881836 5.780609 -23.101074c-4.3301086 -4.3301086 -9.141579 -8.178833 -13.952812 -12.990082z" fill-rule="evenodd"/><path fill="#ffd966" d="m139.48201 191.07863c3.2190552 -12.438461 9.203033 -23.954071 17.031326 -32.704315c-23.048035 -22.126999 -50.23934 -37.344917 -79.27044 -46.113342c-47.423973 65.86276 -41.38818 159.39644 18.076927 218.86156c4.6096954 4.6097107 9.218941 8.297913 13.367668 12.446655c9.200302 -29.483002 25.31289 -56.658844 47.877678 -80.14557c-17.056793 -18.898865 -23.981339 -46.086075 -17.08316 -72.344986z" fill-rule="evenodd"/><path stroke="#ffffff" stroke-width="1.0" stroke-miterlimit="8.0" stroke-linecap="butt" d="m139.48201 191.07863c3.2190552 -12.438461 9.203033 -23.954071 17.031326 -32.704315c-23.048035 -22.126999 -50.23934 -37.344917 -79.27044 -46.113342c-47.423973 65.86276 -41.38818 159.39644 18.076927 218.86156c4.6096954 4.6097107 9.218941 8.297913 13.367668 12.446655c9.200302 -29.483002 25.31289 -56.658844 47.877678 -80.14557c-17.056793 -18.898865 -23.981339 -46.086075 -17.08316 -72.344986z" fill-rule="evenodd"/><path fill="#ffd966" d="m67.066475 289.5264l0 -157.07086l59.11811 0l0 157.07086z" fill-rule="evenodd"/><path fill="#ffffff" d="m97.48615 249.8113q3.359375 0 5.890625 1.1875q2.53125 1.1875 3.90625 3.40625q1.375 2.2031097 1.375 5.0624847q0 2.828125 -1.359375 5.046875q-1.359375 2.21875 -3.875 3.4375q-2.53125 1.21875 -5.8125 1.234375l-1.125 0q-3.359375 0 -5.90625 -1.203125q-2.5625 -1.21875 -3.921875 -3.421875q-1.375 -2.21875 -1.375 -5.0625q0 -2.84375 1.375 -5.0468597q1.359375 -2.21875 3.921875 -3.421875q2.546875 -1.21875 5.890625 -1.21875l1.015625 0zm-1.03125 4.75q-3.578125 0 -5.4375 1.28125q-1.859375 1.2812347 -1.859375 3.6562347q0 2.359375 1.84375 3.640625q1.828125 1.28125 5.375 1.296875l1.109375 0q3.484375 0 5.40625 -1.28125q1.921875 -1.28125 1.921875 -3.6875q0 -2.359375 -1.84375 -3.6249847q-1.859375 -1.265625 -5.40625 -1.28125l-1.109375 0zm3.59375 -23.09375q4.0625 0 6.34375 1.734375q2.265625 1.734375 2.265625 4.84375q0 2.75 -2.109375 4.390625l1.796875 0.203125l0 4.0625l-24.0 0l0 -4.515625l8.609375 0q-1.828125 -1.5625 -1.828125 -4.109375q0 -3.09375 2.28125 -4.84375q2.265625 -1.765625 6.390625 -1.765625l0.25 0zm-0.328125 4.515625q-2.5625 0 -3.734375 0.8125q-1.1875 0.8125 -1.1875 2.421875q0 2.15625 1.765625 2.96875l6.671875 0q1.78125 -0.828125 1.78125 -3.0q0 -2.1875 -2.15625 -2.875q-1.03125 -0.328125 -3.140625 -0.328125zm3.953125 -16.453125q-0.828125 0 -1.296875 0.828125q-0.484375 0.8125 -0.859375 2.625q-1.265625 6.03125 -5.125 6.03125q-2.25 0 -3.75 -1.859375q-1.515625 -1.875 -1.515625 -4.890625q0 -3.21875 1.515625 -5.140625q1.515625 -1.9375 3.9375 -1.9375l0 4.515625q-0.96875 0 -1.59375 0.625q-0.640625 0.625 -0.640625 1.953125q0 1.140625 0.515625 1.765625q0.515625 0.625 1.3125 0.625q0.75 0 1.21875 -0.703125q0.453125 -0.71875 0.796875 -2.40625q0.328125 -1.6875 0.75 -2.84375q1.3125 -3.578125 4.546875 -3.578125q2.3125 0 3.75 1.984375q1.421875 1.984375 1.421875 5.125q0 2.125 -0.75 3.78125q-0.765625 1.640625 -2.078125 2.578125q-1.328125 0.9375 -2.859375 0.9375l0 -4.28125q1.203125 -0.0625 1.84375 -0.890625q0.640625 -0.828125 0.640625 -2.21875q0 -1.296875 -0.484375 -1.953125q-0.5 -0.671875 -1.296875 -0.671875zm4.984375 -15.078125q0 3.71875 -2.28125 6.0625q-2.28125 2.328125 -6.078125 2.328125l-0.4375 0q-2.546875 0 -4.546875 -0.984375q-2.015625 -0.984375 -3.09375 -2.78125q-1.09375 -1.8125 -1.09375 -4.125q0 -3.46875 2.1875 -5.453125q2.1875 -2.0 6.203125 -2.0l1.84375 0l0 10.765625q1.65625 -0.21875 2.65625 -1.3125q1.0 -1.109375 1.0 -2.796875q0 -2.609375 -1.890625 -4.078125l2.484375 -2.21875q1.4375 1.015625 2.25 2.75q0.796875 1.734375 0.796875 3.84375zm-13.875 0.515625q0 1.34375 0.90625 2.1875q0.90625 0.828125 2.59375 1.0625l0 -6.28125l-0.359375 0q-1.5 0.03125 -2.3125 0.8125q-0.828125 0.78125 -0.828125 2.21875zm0.890625 -19.53125q-0.125 0.921875 -0.125 1.625q0 2.5625 1.734375 3.359375l11.0625 0l0 4.515625l-16.90625 0l0 -4.265625l2.015625 -0.125q-2.328125 -1.359375 -2.328125 -3.765625q0 -0.75 0.203125 -1.40625l4.34375 0.0625zm7.15625 -8.78125l-11.390625 -3.140625l0 -4.71875l16.90625 5.703125l0 4.3125l-16.90625 5.703125l0 -4.71875l11.390625 -3.140625zm5.828125 -17.421875q0 3.71875 -2.28125 6.0625q-2.28125 2.328125 -6.078125 2.328125l-0.4375 0q-2.546875 0 -4.546875 -0.984375q-2.015625 -0.984375 -3.09375 -2.78125q-1.09375 -1.8125 -1.09375 -4.125q0 -3.46875 2.1875 -5.453125q2.1875 -2.0 6.203125 -2.0l1.84375 0l0 10.765625q1.65625 -0.21875 2.65625 -1.3125q1.0 -1.109375 1.0 -2.796875q0 -2.609375 -1.890625 -4.078125l2.484375 -2.21875q1.4375 1.015625 2.25 2.75q0.796875 1.734375 0.796875 3.84375zm-13.875 0.515625q0 1.34375 0.90625 2.1875q0.90625 0.828125 2.59375 1.0625l0 -6.28125l-0.359375 0q-1.5 0.03125 -2.3125 0.8125q-0.828125 0.78125 -0.828125 2.21875z" fill-rule="nonzero"/><path fill="#a1c3fa" d="m341.08633 336.41156c-62.41577 62.41574 -159.03752 68.53995 -228.32983 18.452484c-2.8744812 7.6881714 -4.30735 14.897491 -5.7389755 23.068298c77.46562 50.578827 181.77557 41.58014 249.47266 -26.116943c7.2018127 -7.2018433 14.402405 -15.365143 20.64148 -23.529694c-8.174561 -1.4528503 -15.868988 -3.3858337 -23.083282 -5.7989197c-3.8397217 4.8024597 -8.64093 9.603668 -12.962036 13.924774z" fill-rule="evenodd"/><path stroke="#ffffff" stroke-width="1.0" stroke-miterlimit="8.0" stroke-linecap="butt" d="m341.08633 336.41156c-62.41577 62.41574 -159.03752 68.53995 -228.32983 18.452484c-2.8744812 7.6881714 -4.30735 14.897491 -5.7389755 23.068298c77.46562 50.578827 181.77557 41.58014 249.47266 -26.116943c7.2018127 -7.2018433 14.402405 -15.365143 20.64148 -23.529694c-8.174561 -1.4528503 -15.868988 -3.3858337 -23.083282 -5.7989197c-3.8397217 4.8024597 -8.64093 9.603668 -12.962036 13.924774z" fill-rule="evenodd"/><path fill="#0d5ddf" d="m195.5992 287.30267c-12.413712 -3.2225037 -22.989517 -9.202728 -32.186966 -17.48108c-22.518066 23.437836 -37.679222 50.55612 -45.944016 79.05606c66.21748 47.835114 158.61992 41.891907 218.3626 -17.850769c4.136017 -4.136017 8.731628 -8.731628 12.407745 -13.327545c-29.42566 -9.205048 -56.555145 -25.305145 -79.54932 -47.380188c-19.762024 17.002686 -46.423386 24.348694 -73.09004 16.98352z" fill-rule="evenodd"/><path stroke="#ffffff" stroke-width="1.0" stroke-miterlimit="8.0" stroke-linecap="butt" d="m195.5992 287.30267c-12.413712 -3.2225037 -22.989517 -9.202728 -32.186966 -17.48108c-22.518066 23.437836 -37.679222 50.55612 -45.944016 79.05606c66.21748 47.835114 158.61992 41.891907 218.3626 -17.850769c4.136017 -4.136017 8.731628 -8.731628 12.407745 -13.327545c-29.42566 -9.205048 -56.555145 -25.305145 -79.54932 -47.380188c-19.762024 17.002686 -46.423386 24.348694 -73.09004 16.98352z" fill-rule="evenodd"/><path fill="#000000" fill-opacity="0.0" d="m137.46313 300.80508l157.07086 0l0 59.118103l-157.07086 0z" fill-rule="evenodd"/><path fill="#ffffff" d="m206.35794 337.39664l-8.21875 0l-1.5625 4.6875l-4.984375 0l8.46875 -22.75l4.34375 0l8.515625 22.75l-4.984375 0l-1.578125 -4.6875zm-6.953125 -3.796875l5.6875 0l-2.859375 -8.515625l-2.828125 8.515625zm22.375 5.15625q1.25 0 2.03125 -0.6875q0.78125 -0.6875 0.8125 -1.828125l4.234375 0q-0.015625 1.71875 -0.9375 3.15625q-0.921875 1.421875 -2.53125 2.21875q-1.59375 0.78125 -3.53125 0.78125q-3.625 0 -5.71875 -2.296875q-2.09375 -2.3125 -2.09375 -6.375l0 -0.296875q0 -3.90625 2.078125 -6.234375q2.078125 -2.328125 5.703125 -2.328125q3.171875 0 5.078125 1.8125q1.921875 1.796875 1.953125 4.796875l-4.234375 0q-0.03125 -1.3125 -0.8125 -2.125q-0.78125 -0.828125 -2.0625 -0.828125q-1.578125 0 -2.390625 1.15625q-0.796875 1.140625 -0.796875 3.71875l0 0.46875q0 2.609375 0.796875 3.75q0.796875 1.140625 2.421875 1.140625zm15.0625 -17.734375l0 4.15625l2.890625 0l0 3.3125l-2.890625 0l0 8.4375q0 0.9375 0.359375 1.34375q0.359375 0.40625 1.375 0.40625q0.75 0 1.328125 -0.109375l0 3.421875q-1.328125 0.40625 -2.734375 0.40625q-4.75 0 -4.84375 -4.796875l0 -9.109375l-2.46875 0l0 -3.3125l2.46875 0l0 -4.15625l4.515625 0z" fill-rule="nonzero"/><path fill="#cc0000" d="m341.2423 85.31544c62.54605 62.54603 68.40604 159.64645 19.44342 228.81622c7.212311 2.4101868 14.904816 4.340149 22.596436 5.3087463c49.916626 -76.85954 41.165344 -181.65338 -26.673035 -249.49178c-7.216858 -7.2168503 -15.3941345 -13.473274 -23.571411 -19.729698c-1.4351807 7.2086525 -3.83078 15.377739 -5.746155 23.066605c4.8103333 3.8498993 9.620636 7.699791 13.950745 12.029907z" fill-rule="evenodd"/><path stroke="#ffffff" stroke-width="1.0" stroke-miterlimit="8.0" stroke-linecap="butt" d="m341.2423 85.31544c62.54605 62.54603 68.40604 159.64645 19.44342 228.81622c7.212311 2.4101868 14.904816 4.340149 22.596436 5.3087463c49.916626 -76.85954 41.165344 -181.65338 -26.673035 -249.49178c-7.216858 -7.2168503 -15.3941345 -13.473274 -23.571411 -19.729698c-1.4351807 7.2086525 -3.83078 15.377739 -5.746155 23.066605c4.8103333 3.8498993 9.620636 7.699791 13.950745 12.029907z" fill-rule="evenodd"/><path fill="#cc0000" d="m292.1575 231.90964c-3.2461853 11.524857 -9.256958 23.054733 -17.105743 31.823395c22.998016 22.074799 50.155365 37.230682 79.16745 45.932556c47.117798 -66.43471 41.757233 -159.49843 -18.033203 -219.28888c-4.1393433 -4.1393356 -8.740265 -7.8170776 -13.341217 -11.49482c-9.266968 28.58387 -24.98291 56.257904 -48.062683 79.33768c17.473877 19.320251 24.33606 46.492645 17.375397 73.69006z" fill-rule="evenodd"/><path stroke="#ffffff" stroke-width="1.0" stroke-miterlimit="8.0" stroke-linecap="butt" d="m292.1575 231.90964c-3.2461853 11.524857 -9.256958 23.054733 -17.105743 31.823395c22.998016 22.074799 50.155365 37.230682 79.16745 45.932556c47.117798 -66.43471 41.757233 -159.49843 -18.033203 -219.28888c-4.1393433 -4.1393356 -8.740265 -7.8170776 -13.341217 -11.49482c-9.266968 28.58387 -24.98291 56.257904 -48.062683 79.33768c17.473877 19.320251 24.33606 46.492645 17.375397 73.69006z" fill-rule="evenodd"/><path fill="#cc0000" d="m364.9308 132.45567l0 157.07085l-59.118134 0l0 -157.07085z" fill-rule="evenodd"/><path fill="#ffffff" d="m323.65173 163.72548l22.75 0l0 7.0q0 3.0 -1.359375 5.359375q-1.34375 2.375 -3.84375 3.703125q-2.484375 1.328125 -5.65625 1.328125l-1.046875 0q-3.171875 0 -5.640625 -1.3125q-2.46875 -1.296875 -3.828125 -3.671875q-1.359375 -2.375 -1.375 -5.359375l0 -7.046875zm18.953125 4.6875l-15.1875 0l0 2.265625q0 2.75 1.796875 4.203125q1.796875 1.453125 5.140625 1.484375l1.203125 0q3.46875 0 5.25 -1.4375q1.796875 -1.4375 1.796875 -4.203125l0 -2.3125zm-19.265625 23.59375q0 -3.71875 2.28125 -6.0625q2.28125 -2.328125 6.078125 -2.328125l0.4375 0q2.546875 0 4.546875 0.984375q2.015625 0.984375 3.09375 2.78125q1.09375 1.8125 1.09375 4.125q0 3.46875 -2.1875 5.453125q-2.1875 2.0 -6.203125 2.0l-1.84375 0l0 -10.765625q-1.65625 0.21875 -2.65625 1.3125q-1.0 1.109375 -1.0 2.796875q0 2.609375 1.890625 4.078125l-2.484375 2.21875q-1.4375 -1.015625 -2.25 -2.75q-0.796875 -1.734375 -0.796875 -3.84375zm13.875 -0.515625q0 -1.34375 -0.90625 -2.1875q-0.90625 -0.828125 -2.59375 -1.0625l0 6.28125l0.359375 0q1.5 -0.03125 2.3125 -0.8125q0.828125 -0.78125 0.828125 -2.21875zm-10.234375 17.0625q0 1.25 0.6875 2.03125q0.6875 0.78125 1.828125 0.8125l0 4.234375q-1.71875 -0.015625 -3.15625 -0.9375q-1.421875 -0.921875 -2.21875 -2.53125q-0.78125 -1.59375 -0.78125 -3.53125q0 -3.625 2.296875 -5.71875q2.3125 -2.09375 6.375 -2.09375l0.296875 0q3.90625 0 6.234375 2.078125q2.328125 2.078125 2.328125 5.703125q0 3.171875 -1.8125 5.078125q-1.796875 1.921875 -4.796875 1.953125l0 -4.234375q1.3125 -0.03125 2.125 -0.8125q0.828125 -0.78125 0.828125 -2.0625q0 -1.578125 -1.15625 -2.390625q-1.140625 -0.796875 -3.71875 -0.796875l-0.46875 0q-2.609375 0 -3.75 0.796875q-1.140625 0.796875 -1.140625 2.421875zm-3.328125 14.421875l0 -4.53125l16.90625 0l0 4.53125l-16.90625 0zm21.28125 -4.796875q1.015625 0 1.671875 0.671875q0.65625 0.6875 0.65625 1.859375q0 1.15625 -0.65625 1.84375q-0.65625 0.6875 -1.671875 0.6875q-1.03125 0 -1.6875 -0.703125q-0.65625 -0.6875 -0.65625 -1.828125q0 -1.140625 0.65625 -1.84375q0.65625 -0.6875 1.6875 -0.6875zm-12.703125 7.8125q3.953125 0 6.296875 1.765625q2.34375 1.78125 2.34375 4.859375q0 2.46875 -1.84375 4.078125l8.625 0l0 4.53125l-24.0 0l0 -4.078125l1.796875 -0.21875q-2.109375 -1.6875 -2.109375 -4.34375q0 -2.984375 2.34375 -4.796875q2.359375 -1.796875 6.546875 -1.796875zm-0.328125 4.515625q-2.375 0 -3.640625 0.828125q-1.265625 0.828125 -1.265625 2.40625q0 2.09375 1.765625 2.953125l6.671875 0q1.765625 -0.84375 1.765625 -2.921875q0 -3.265625 -5.296875 -3.265625zm-8.5625 22.0q0 -3.71875 2.28125 -6.0625q2.28125 -2.328125 6.078125 -2.328125l0.4375 0q2.546875 0 4.546875 0.984375q2.015625 0.984375 3.09375 2.78125q1.09375 1.8125 1.09375 4.125q0 3.46875 -2.1875 5.4531097q-2.1875 2.0 -6.203125 2.0l-1.84375 0l0 -10.76561q-1.65625 0.21875 -2.65625 1.3125q-1.0 1.109375 -1.0 2.796875q0 2.609375 1.890625 4.0781097l-2.484375 2.21875q-1.4375 -1.015625 -2.25 -2.75q-0.796875 -1.7343597 -0.796875 -3.8437347zm13.875 -0.515625q0 -1.34375 -0.90625 -2.1875q-0.90625 -0.828125 -2.59375 -1.0625l0 6.28125l0.359375 0q1.5 -0.03125 2.3125 -0.8125q0.828125 -0.78125 0.828125 -2.21875z" fill-rule="nonzero"/><path fill="#6aa84f" d="m90.7134 85.732285c61.974785 -61.974777 158.57657 -68.18386 227.80542 -19.132858c2.400177 -7.208309 4.3195496 -14.89743 5.2776794 -22.58694c-76.91911 -50.015335 -180.72922 -41.40607 -248.4691 26.333805c-7.686798 7.686798 -14.4123535 15.373978 -20.176674 23.061546c7.69067 1.9255753 15.38134 3.8511505 22.59159 6.2571564c3.84301 -4.804634 8.647255 -9.608887 12.971077 -13.932709z" fill-rule="evenodd"/><path stroke="#ffffff" stroke-width="1.0" stroke-miterlimit="8.0" stroke-linecap="butt" d="m90.7134 85.732285c61.974785 -61.974777 158.57657 -68.18386 227.80542 -19.132858c2.400177 -7.208309 4.3195496 -14.89743 5.2776794 -22.58694c-76.91911 -50.015335 -180.72922 -41.40607 -248.4691 26.333805c-7.686798 7.686798 -14.4123535 15.373978 -20.176674 23.061546c7.69067 1.9255753 15.38134 3.8511505 22.59159 6.2571564c3.84301 -4.804634 8.647255 -9.608887 12.971077 -13.932709z" fill-rule="evenodd"/><path fill="#6aa84f" d="m95.61958 90.911385c-4.1447067 4.1447067 -8.749939 8.749931 -12.432938 13.356346c29.523132 9.260124 56.749573 25.434006 80.295364 48.05876c18.883804 -17.036972 46.079483 -24.841026 72.83357 -17.42891c12.454224 3.2437744 23.067535 9.251862 31.838745 17.102036c22.103912 -23.027328 37.285797 -50.213547 46.009705 -79.25251c-66.46074 -47.118797 -159.13701 -41.24317 -218.54445 18.164276z" fill-rule="evenodd"/><path stroke="#ffffff" stroke-width="1.0" stroke-miterlimit="8.0" stroke-linecap="butt" d="m95.61958 90.911385c-4.1447067 4.1447067 -8.749939 8.749931 -12.432938 13.356346c29.523132 9.260124 56.749573 25.434006 80.295364 48.05876c18.883804 -17.036972 46.079483 -24.841026 72.83357 -17.42891c12.454224 3.2437744 23.067535 9.251862 31.838745 17.102036c22.103912 -23.027328 37.285797 -50.213547 46.009705 -79.25251c-66.46074 -47.118797 -159.13701 -41.24317 -218.54445 18.164276z" fill-rule="evenodd"/><path fill="#6aa84f" d="m137.46063 62.058887l157.07086 0l0 59.118107l-157.07086 0z" fill-rule="evenodd"/><path fill="#ffffff" d="m192.57419 92.47856q0 3.359375 -1.1875 5.890625q-1.1875 2.53125 -3.40625 3.90625q-2.203125 1.375 -5.0625 1.375q-2.828125 0 -5.046875 -1.359375q-2.21875 -1.359375 -3.4375 -3.875q-1.21875 -2.53125 -1.234375 -5.8125l0 -1.125q0 -3.359375 1.203125 -5.90625q1.21875 -2.5625 3.421875 -3.921875q2.21875 -1.375 5.0625 -1.375q2.84375 0 5.046875 1.375q2.21875 1.359375 3.421875 3.921875q1.21875 2.546875 1.21875 5.890625l0 1.015625zm-4.75 -1.03125q0 -3.578125 -1.28125 -5.4375q-1.28125 -1.859375 -3.65625 -1.859375q-2.359375 0 -3.640625 1.84375q-1.28125 1.828125 -1.296875 5.375l0 1.109375q0 3.484375 1.28125 5.40625q1.28125 1.921875 3.6875 1.921875q2.359375 0 3.625 -1.84375q1.265625 -1.859375 1.28125 -5.40625l0 -1.109375zm17.359375 -0.78125q-0.921875 -0.125 -1.625 -0.125q-2.5625 0 -3.359375 1.734375l0 11.0625l-4.515625 0l0 -16.90625l4.265625 0l0.125 2.015625q1.359375 -2.328125 3.765625 -2.328125q0.75 0 1.40625 0.203125l-0.0625 4.34375zm6.9375 12.671875l-4.53125 0l0 -16.90625l4.53125 0l0 16.90625zm-4.796875 -21.28125q0 -1.015625 0.671875 -1.671875q0.6875 -0.65625 1.859375 -0.65625q1.15625 0 1.84375 0.65625q0.6875 0.65625 0.6875 1.671875q0 1.03125 -0.703125 1.6875q-0.6875 0.65625 -1.828125 0.65625q-1.140625 0 -1.84375 -0.65625q-0.6875 -0.65625 -0.6875 -1.6875zm16.296875 21.59375q-3.71875 0 -6.0625 -2.28125q-2.328125 -2.28125 -2.328125 -6.078125l0 -0.4375q0 -2.546875 0.984375 -4.546875q0.984375 -2.015625 2.78125 -3.09375q1.8125 -1.09375 4.125 -1.09375q3.46875 0 5.453125 2.1875q2.0 2.1875 2.0 6.203125l0 1.84375l-10.765625 0q0.21875 1.65625 1.3125 2.65625q1.109375 1.0 2.796875 1.0q2.609375 0 4.078125 -1.890625l2.21875 2.484375q-1.015625 1.4375 -2.75 2.25q-1.734375 0.796875 -3.84375 0.796875zm-0.515625 -13.875q-1.34375 0 -2.1875 0.90625q-0.828125 0.90625 -1.0625 2.59375l6.28125 0l0 -0.359375q-0.03125 -1.5 -0.8125 -2.3125q-0.78125 -0.828125 -2.21875 -0.828125zm14.1875 -3.34375l0.140625 1.953125q1.8125 -2.265625 4.859375 -2.265625q2.6875 0 4.0 1.578125q1.3125 1.578125 1.34375 4.71875l0 10.921875l-4.515625 0l0 -10.8125q0 -1.4375 -0.625 -2.078125q-0.625 -0.65625 -2.078125 -0.65625q-1.90625 0 -2.859375 1.625l0 11.921875l-4.515625 0l0 -16.90625l4.25 0zm19.171875 -4.15625l0 4.15625l2.890625 0l0 3.3125l-2.890625 0l0 8.4375q0 0.9375 0.359375 1.34375q0.359375 0.40625 1.375 0.40625q0.75 0 1.328125 -0.109375l0 3.421875q-1.328125 0.40625 -2.734375 0.40625q-4.75 0 -4.84375 -4.796875l0 -9.109375l-2.46875 0l0 -3.3125l2.46875 0l0 -4.15625l4.515625 0z" fill-rule="nonzero"/></g></svg>