<svg version="1.1" viewBox="0.0 0.0 747.0 462.0" fill="none" stroke="none" stroke-linecap="square" stroke-miterlimit="10" width="747" height="462" xmlns:xlink="http://www.w3.org/1999/xlink" xmlns="http://www.w3.org/2000/svg"><path fill="#ffffff" d="M0 0L747.0 0L747.0 462.0L0 462.0L0 0Z" fill-rule="nonzero"/><path fill="#ffffff" d="M0 0L747.0 0L747.0 462.0L0 462.0L0 0Z" fill-rule="nonzero"/><path stroke="#333333" stroke-width="1.0" stroke-linecap="butt" d="M91.5 378.5L723.5 378.5" fill-rule="nonzero"/><path stroke="#cccccc" stroke-width="1.0" stroke-linecap="butt" d="M91.5 263.5L723.5 263.5" fill-rule="nonzero"/><path stroke="#cccccc" stroke-width="1.0" stroke-linecap="butt" d="M91.5 148.5L723.5 148.5" fill-rule="nonzero"/><path stroke="#cccccc" stroke-width="1.0" stroke-linecap="butt" d="M91.5 32.5L723.5 32.5" fill-rule="nonzero"/><clipPath id="id_0"><path d="M91.1 32.6L723.9 32.6L723.9 378.9L91.1 378.9L91.1 32.6Z" clip-rule="nonzero"/></clipPath><path stroke="#ff0000" stroke-width="2.0" stroke-linecap="butt" clip-path="url(#id_0)" d="M106.92 57.45883L138.56 265.73248L170.2 289.86832L201.84 313.70065L233.48 326.3274L265.12 336.32312L296.76 342.56198L328.4 348.8129L360.04 351.36804L391.68 354.32578L423.32 355.74307L454.96 358.98257L486.6 360.4613L518.24 361.9275L549.88 362.0L581.52 363.69162L613.16 364.9689L644.8 365.69528L676.44 366.21838L708.08 367.0447" fill-rule="nonzero"/><path fill="#424242" d="M407.09375 432.9625L406.40625 433.66562L406.40625 435.9L405.32812 435.9L405.32812 426.9L406.40625 426.9L406.40625 432.3375L406.98438 431.65L408.96875 429.55624L410.28125 429.55624L407.8125 432.2125L410.57812 435.9L409.29688 435.9L407.09375 432.9625Z" fill-rule="nonzero"/><path fill="#424242" d="M33.412495 218.98438Q32.974995 218.98438 32.74062 219.32812Q32.49062 219.65625 32.318745 220.48438Q32.14687 221.29688 31.89687 221.78125Q31.64687 222.26562 31.318745 222.5Q30.974995 222.71875 30.506245 222.71875Q29.724995 222.71875 29.193745 222.0625Q28.64687 221.40625 28.64687 220.375Q28.64687 219.29688 29.20937 218.64062Q29.756245 217.96875 30.61562 217.96875L30.61562 219.04688Q30.17812 219.04688 29.86562 219.4375Q29.537495 219.8125 29.537495 220.375Q29.537495 220.96875 29.80312 221.3125Q30.05312 221.64062 30.45937 221.64062Q30.849995 221.64062 31.05312 221.32812Q31.256245 221.01562 31.443745 220.20312Q31.61562 219.39062 31.86562 218.89062Q32.11562 218.39062 32.474995 218.15625Q32.83437 217.90625 33.33437 217.90625Q34.193745 217.90625 34.70937 218.59375Q35.224995 219.26562 35.224995 220.34375Q35.224995 221.10938 34.95937 221.70312Q34.67812 222.28125 34.193745 222.60938Q33.70937 222.9375 33.14687 222.9375L33.14687 221.85938Q33.693745 221.82812 34.02187 221.42188Q34.33437 221.01562 34.33437 220.34375Q34.33437 219.73438 34.08437 219.35938Q33.83437 218.98438 33.412495 218.98438ZM33.412495 212.98438Q32.974995 212.98438 32.74062 213.32812Q32.49062 213.65625 32.318745 214.48438Q32.14687 215.29688 31.89687 215.78125Q31.64687 216.26562 31.318745 216.5Q30.974995 216.71875 30.506245 216.71875Q29.724995 216.71875 29.193745 216.0625Q28.64687 215.40625 28.64687 214.375Q28.64687 213.29688 29.20937 212.64062Q29.756245 211.96875 30.61562 211.96875L30.61562 213.04688Q30.17812 213.04688 29.86562 213.4375Q29.537495 213.8125 29.537495 214.375Q29.537495 214.96875 29.80312 215.3125Q30.05312 215.64062 30.45937 215.64062Q30.849995 215.64062 31.05312 215.32812Q31.256245 215.01562 31.443745 214.20312Q31.61562 213.39062 31.86562 212.89062Q32.11562 212.39062 32.474995 212.15625Q32.83437 211.90625 33.33437 211.90625Q34.193745 211.90625 34.70937 212.59375Q35.224995 213.26562 35.224995 214.34375Q35.224995 215.10938 34.95937 215.70312Q34.67812 216.28125 34.193745 216.60938Q33.70937 216.9375 33.14687 216.9375L33.14687 215.85938Q33.693745 215.82812 34.02187 215.42188Q34.33437 215.01562 34.33437 214.34375Q34.33437 213.73438 34.08437 213.35938Q33.83437 212.98438 33.412495 212.98438ZM35.224995 208.04688Q35.224995 209.34375 34.381245 210.15625Q33.52187 210.95312 32.099995 210.95312L31.912495 210.95312Q30.95937 210.95312 30.224995 210.59375Q29.474995 210.23438 29.068745 209.59375Q28.64687 208.9375 28.64687 208.1875Q28.64687 206.95312 29.45937 206.26562Q30.27187 205.57812 31.787495 205.57812L32.24062 205.57812L32.24062 209.875Q33.17812 209.84375 33.756245 209.32812Q34.33437 208.79688 34.33437 207.98438Q34.33437 207.42188 34.099995 207.03125Q33.86562 206.625 33.474995 206.3125L33.99062 205.65625Q35.224995 206.45312 35.224995 208.04688ZM29.537495 208.1875Q29.537495 208.84375 30.02187 209.29688Q30.49062 209.73438 31.349995 209.82812L31.349995 206.65625L31.27187 206.65625Q30.443745 206.70312 29.99062 207.10938Q29.537495 207.5 29.537495 208.1875Z" fill-rule="nonzero"/><path fill="#757575" d="M82.17812 379.54062Q82.17812 382.0875 81.30312 383.32187Q80.44375 384.55624 78.6 384.55624Q76.7875 384.55624 75.9125 383.35312Q75.0375 382.13437 75.00625 379.74374L75.00625 377.80624Q75.00625 375.30624 75.86562 374.0875Q76.74062 372.86874 78.58437 372.86874Q80.42812 372.86874 81.2875 374.04062Q82.1625 375.2125 82.17812 377.66562L82.17812 379.54062ZM80.74062 377.57187Q80.74062 375.72812 80.225 374.9Q79.70937 374.05624 78.58437 374.05624Q77.475 374.05624 76.95937 374.9Q76.45937 375.72812 76.44375 377.4625L76.44375 379.775Q76.44375 381.61874 76.975 382.49374Q77.52187 383.36874 78.6 383.36874Q79.67812 383.36874 80.19375 382.54062Q80.70937 381.7125 80.74062 379.93124L80.74062 377.57187Z" fill-rule="nonzero"/><path fill="#757575" d="M64.50625 268.96667L57.053123 268.96667L57.053123 267.9198L60.990623 263.5448Q61.865623 262.56042 62.19375 261.93542Q62.521873 261.31042 62.521873 260.65417Q62.521873 259.76355 61.975 259.20105Q61.44375 258.62292 60.553123 258.62292Q59.475 258.62292 58.865623 259.2323Q58.271873 259.84167 58.271873 260.93542L56.834373 260.93542Q56.834373 259.37292 57.834373 258.40417Q58.85 257.43542 60.553123 257.43542Q62.13125 257.43542 63.053123 258.26355Q63.975 259.09167 63.975 260.4823Q63.975 262.15417 61.834373 264.4823L58.7875 267.77917L64.50625 267.77917L64.50625 268.96667ZM73.17812 264.1073Q73.17812 266.65417 72.30312 267.88855Q71.44375 269.12292 69.6 269.12292Q67.7875 269.12292 66.9125 267.9198Q66.0375 266.70105 66.00625 264.31042L66.00625 262.37292Q66.00625 259.87292 66.86562 258.65417Q67.74062 257.43542 69.58437 257.43542Q71.42812 257.43542 72.2875 258.6073Q73.1625 259.77917 73.17812 262.2323L73.17812 264.1073ZM71.74062 262.13855Q71.74062 260.2948 71.225 259.46667Q70.70937 258.62292 69.58437 258.62292Q68.475 258.62292 67.95937 259.46667Q67.45937 260.2948 67.44375 262.02917L67.44375 264.34167Q67.44375 266.18542 67.975 267.06042Q68.52187 267.93542 69.6 267.93542Q70.67812 267.93542 71.19375 267.1073Q71.70937 266.27917 71.74062 264.49792L71.74062 262.13855ZM82.17812 264.1073Q82.17812 266.65417 81.30312 267.88855Q80.44375 269.12292 78.6 269.12292Q76.7875 269.12292 75.9125 267.9198Q75.0375 266.70105 75.00625 264.31042L75.00625 262.37292Q75.00625 259.87292 75.86562 258.65417Q76.74062 257.43542 78.58437 257.43542Q80.42812 257.43542 81.2875 258.6073Q82.1625 259.77917 82.17812 262.2323L82.17812 264.1073ZM80.74062 262.13855Q80.74062 260.2948 80.225 259.46667Q79.70937 258.62292 78.58437 258.62292Q77.475 258.62292 76.95937 259.46667Q76.45937 260.2948 76.44375 262.02917L76.44375 264.34167Q76.44375 266.18542 76.975 267.06042Q77.52187 267.93542 78.6 267.93542Q79.67812 267.93542 80.19375 267.1073Q80.70937 266.27917 80.74062 264.49792L80.74062 262.13855Z" fill-rule="nonzero"/><path fill="#757575" d="M63.146873 149.70522L64.725 149.70522L64.725 150.89272L63.146873 150.89272L63.146873 153.53334L61.69375 153.53334L61.69375 150.89272L56.521873 150.89272L56.521873 150.03334L61.615623 142.15834L63.146873 142.15834L63.146873 149.70522ZM58.1625 149.70522L61.69375 149.70522L61.69375 144.12709L61.521873 144.43959L58.1625 149.70522ZM73.17812 148.67397Q73.17812 151.22084 72.30312 152.45522Q71.44375 153.68959 69.6 153.68959Q67.7875 153.68959 66.9125 152.48647Q66.0375 151.26772 66.00625 148.87709L66.00625 146.93959Q66.00625 144.43959 66.86562 143.22084Q67.74062 142.00209 69.58437 142.00209Q71.42812 142.00209 72.2875 143.17397Q73.1625 144.34584 73.17812 146.79897L73.17812 148.67397ZM71.74062 146.70522Q71.74062 144.86147 71.225 144.03334Q70.70937 143.18959 69.58437 143.18959Q68.475 143.18959 67.95937 144.03334Q67.45937 144.86147 67.44375 146.59584L67.44375 148.90834Q67.44375 150.75209 67.975 151.62709Q68.52187 152.50209 69.6 152.50209Q70.67812 152.50209 71.19375 151.67397Q71.70937 150.84584 71.74062 149.06459L71.74062 146.70522ZM82.17812 148.67397Q82.17812 151.22084 81.30312 152.45522Q80.44375 153.68959 78.6 153.68959Q76.7875 153.68959 75.9125 152.48647Q75.0375 151.26772 75.00625 148.87709L75.00625 146.93959Q75.00625 144.43959 75.86562 143.22084Q76.74062 142.00209 78.58437 142.00209Q80.42812 142.00209 81.2875 143.17397Q82.1625 144.34584 82.17812 146.79897L82.17812 148.67397ZM80.74062 146.70522Q80.74062 144.86147 80.225 144.03334Q79.70937 143.18959 78.58437 143.18959Q77.475 143.18959 76.95937 144.03334Q76.45937 144.86147 76.44375 146.59584L76.44375 148.90834Q76.44375 150.75209 76.975 151.62709Q77.52187 152.50209 78.6 152.50209Q79.67812 152.50209 80.19375 151.67397Q80.70937 150.84584 80.74062 149.06459L80.74062 146.70522Z" fill-rule="nonzero"/><path fill="#757575" d="M62.725 26.709373L62.725 27.943748L62.459373 27.943748Q60.771873 27.974998 59.771873 28.943748Q58.771873 29.912498 58.615623 31.662498Q59.50625 30.631248 61.06875 30.631248Q62.553123 30.631248 63.428123 31.678123Q64.31875 32.725 64.31875 34.38125Q64.31875 36.146873 63.365623 37.209373Q62.4125 38.25625 60.803123 38.25625Q59.1625 38.25625 58.146873 37.00625Q57.13125 35.740623 57.13125 33.771873L57.13125 33.209373Q57.13125 30.068748 58.475 28.412498Q59.81875 26.756248 62.459373 26.709373L62.725 26.709373ZM60.81875 31.834373Q60.084373 31.834373 59.459373 32.2875Q58.834373 32.725 58.584373 33.396873L58.584373 33.928123Q58.584373 35.334373 59.209373 36.19375Q59.85 37.053123 60.803123 37.053123Q61.771873 37.053123 62.334373 36.334373Q62.896873 35.615623 62.896873 34.459373Q62.896873 33.2875 62.31875 32.56875Q61.75625 31.834373 60.81875 31.834373ZM73.17812 33.240623Q73.17812 35.7875 72.30312 37.021873Q71.44375 38.25625 69.6 38.25625Q67.7875 38.25625 66.9125 37.053123Q66.0375 35.834373 66.00625 33.44375L66.00625 31.506248Q66.00625 29.006248 66.86562 27.787498Q67.74062 26.568748 69.58437 26.568748Q71.42812 26.568748 72.2875 27.740623Q73.1625 28.912498 73.17812 31.365623L73.17812 33.240623ZM71.74062 31.271873Q71.74062 29.428123 71.225 28.599998Q70.70937 27.756248 69.58437 27.756248Q68.475 27.756248 67.95937 28.599998Q67.45937 29.428123 67.44375 31.162498L67.44375 33.475Q67.44375 35.31875 67.975 36.19375Q68.52187 37.06875 69.6 37.06875Q70.67812 37.06875 71.19375 36.240623Q71.70937 35.4125 71.74062 33.63125L71.74062 31.271873ZM82.17812 33.240623Q82.17812 35.7875 81.30312 37.021873Q80.44375 38.25625 78.6 38.25625Q76.7875 38.25625 75.9125 37.053123Q75.0375 35.834373 75.00625 33.44375L75.00625 31.506248Q75.00625 29.006248 75.86562 27.787498Q76.74062 26.568748 78.58437 26.568748Q80.42812 26.568748 81.2875 27.740623Q82.1625 28.912498 82.17812 31.365623L82.17812 33.240623ZM80.74062 31.271873Q80.74062 29.428123 80.225 28.599998Q79.70937 27.756248 78.58437 27.756248Q77.475 27.756248 76.95937 28.599998Q76.45937 29.428123 76.44375 31.162498L76.44375 33.475Q76.44375 35.31875 76.975 36.19375Q77.52187 37.06875 78.6 37.06875Q79.67812 37.06875 80.19375 36.240623Q80.70937 35.4125 80.74062 33.63125L80.74062 31.271873Z" fill-rule="nonzero"/><path fill="#757575" d="M108.12312 401.9L106.67 401.9L106.67 392.25937L103.74812 393.3375L103.74812 392.025L107.88875 390.4625L108.12312 390.4625L108.12312 401.9Z" fill-rule="nonzero"/><path fill="#757575" d="M142.46625 401.9L135.01312 401.9L135.01312 400.85312L138.95062 396.47812Q139.82562 395.49374 140.15375 394.86874Q140.48187 394.24374 140.48187 393.5875Q140.48187 392.69687 139.935 392.13437Q139.40375 391.55624 138.51312 391.55624Q137.435 391.55624 136.82562 392.16562Q136.23187 392.775 136.23187 393.86874L134.79437 393.86874Q134.79437 392.30624 135.79437 391.3375Q136.81 390.36874 138.51312 390.36874Q140.09125 390.36874 141.01312 391.19687Q141.935 392.025 141.935 393.41562Q141.935 395.0875 139.79437 397.41562L136.7475 400.7125L142.46625 400.7125L142.46625 401.9Z" fill-rule="nonzero"/><path fill="#757575" d="M168.74687 395.50937L169.84062 395.50937Q170.85625 395.49374 171.43437 394.97812Q172.02812 394.44687 172.02812 393.55624Q172.02812 391.55624 170.04375 391.55624Q169.10625 391.55624 168.54375 392.0875Q167.98125 392.61874 167.98125 393.50937L166.54375 393.50937Q166.54375 392.15 167.52812 391.25937Q168.5125 390.36874 170.04375 390.36874Q171.65312 390.36874 172.55937 391.22812Q173.48125 392.07187 173.48125 393.5875Q173.48125 394.32187 172.99687 395.025Q172.5125 395.7125 171.68437 396.05624Q172.62187 396.35312 173.1375 397.04062Q173.65312 397.72812 173.65312 398.72812Q173.65312 400.25937 172.65312 401.16562Q171.65312 402.05624 170.04375 402.05624Q168.45 402.05624 167.43437 401.19687Q166.43437 400.32187 166.43437 398.9L167.8875 398.9Q167.8875 399.79062 168.46562 400.3375Q169.05937 400.86874 170.04375 400.86874Q171.09062 400.86874 171.6375 400.32187Q172.2 399.775 172.2 398.75937Q172.2 397.75937 171.59062 397.22812Q170.98125 396.69687 169.84062 396.68124L168.74687 396.68124L168.74687 395.50937Z" fill-rule="nonzero"/><path fill="#757575" d="M204.38687 398.07187L205.965 398.07187L205.965 399.25937L204.38687 399.25937L204.38687 401.9L202.93375 401.9L202.93375 399.25937L197.76187 399.25937L197.76187 398.4L202.85562 390.525L204.38687 390.525L204.38687 398.07187ZM199.4025 398.07187L202.93375 398.07187L202.93375 392.49374L202.76187 392.80624L199.4025 398.07187Z" fill-rule="nonzero"/><path fill="#757575" d="M230.58937 396.19687L231.1675 390.525L236.99562 390.525L236.99562 391.85312L232.40187 391.85312L232.05812 394.9625Q232.88625 394.4625 233.94875 394.4625Q235.51125 394.4625 236.4175 395.49374Q237.33937 396.525 237.33937 398.275Q237.33937 400.025 236.38625 401.04062Q235.43312 402.05624 233.73 402.05624Q232.23 402.05624 231.27687 401.22812Q230.32375 400.38437 230.18312 398.9L231.55812 398.9Q231.68312 399.88437 232.24562 400.38437Q232.80812 400.86874 233.73 400.86874Q234.74562 400.86874 235.30812 400.18124Q235.88625 399.49374 235.88625 398.29062Q235.88625 397.15 235.26125 396.4625Q234.65187 395.75937 233.62062 395.75937Q232.6675 395.75937 232.13625 396.18124L231.74562 396.49374L230.58937 396.19687Z" fill-rule="nonzero"/><path fill="#757575" d="M267.245 390.50937L267.245 391.74374L266.97937 391.74374Q265.29187 391.775 264.29187 392.74374Q263.29187 393.7125 263.13562 395.4625Q264.02625 394.43124 265.58875 394.43124Q267.07312 394.43124 267.94812 395.47812Q268.83875 396.525 268.83875 398.18124Q268.83875 399.94687 267.88562 401.00937Q266.9325 402.05624 265.32312 402.05624Q263.6825 402.05624 262.66687 400.80624Q261.65125 399.54062 261.65125 397.57187L261.65125 397.00937Q261.65125 393.86874 262.995 392.2125Q264.33875 390.55624 266.97937 390.50937L267.245 390.50937ZM265.33875 395.63437Q264.60437 395.63437 263.97937 396.0875Q263.35437 396.525 263.10437 397.19687L263.10437 397.72812Q263.10437 399.13437 263.72937 399.99374Q264.37 400.85312 265.32312 400.85312Q266.29187 400.85312 266.85437 400.13437Q267.41687 399.41562 267.41687 398.25937Q267.41687 397.0875 266.83875 396.36874Q266.27625 395.63437 265.33875 395.63437Z" fill-rule="nonzero"/><path fill="#757575" d="M300.5569 391.3375L295.83813 401.9L294.3225 401.9L299.02563 391.7125L292.8694 391.7125L292.8694 390.525L300.5569 390.525L300.5569 391.3375Z" fill-rule="nonzero"/><path fill="#757575" d="M331.74374 393.49374Q331.74374 394.3375 331.29062 395.00937Q330.85312 395.66562 330.0875 396.04062Q330.97812 396.43124 331.49374 397.16562Q332.00937 397.9 332.00937 398.82187Q332.00937 400.30624 331.00937 401.18124Q330.025 402.05624 328.4 402.05624Q326.75937 402.05624 325.75937 401.18124Q324.775 400.29062 324.775 398.82187Q324.775 397.9 325.275 397.16562Q325.79062 396.41562 326.68124 396.04062Q325.91562 395.66562 325.47812 395.00937Q325.04062 394.3375 325.04062 393.49374Q325.04062 392.05624 325.9625 391.2125Q326.88437 390.36874 328.4 390.36874Q329.9 390.36874 330.82187 391.2125Q331.74374 392.05624 331.74374 393.49374ZM330.57187 398.79062Q330.57187 397.8375 329.9625 397.24374Q329.35312 396.63437 328.36874 396.63437Q327.4 396.63437 326.80624 397.22812Q326.22812 397.82187 326.22812 398.79062Q326.22812 399.75937 326.79062 400.32187Q327.36874 400.86874 328.4 400.86874Q329.41562 400.86874 329.99374 400.32187Q330.57187 399.75937 330.57187 398.79062ZM328.4 391.55624Q327.54062 391.55624 327.00937 392.0875Q326.49374 392.60312 326.49374 393.50937Q326.49374 394.38437 327.00937 394.91562Q327.525 395.44687 328.38437 395.44687Q329.25937 395.44687 329.775 394.91562Q330.30624 394.38437 330.30624 393.525Q330.30624 392.65 329.75937 392.10312Q329.22812 391.55624 328.4 391.55624Z" fill-rule="nonzero"/><path fill="#757575" d="M362.02438 396.9Q361.57126 397.43124 360.94626 397.75937Q360.32126 398.0875 359.57126 398.0875Q358.58688 398.0875 357.8525 397.60312Q357.11813 397.11874 356.71188 396.24374Q356.32126 395.36874 356.32126 394.30624Q356.32126 393.16562 356.75876 392.25937Q357.19626 391.3375 357.99313 390.85312Q358.79 390.36874 359.8525 390.36874Q361.54 390.36874 362.50876 391.63437Q363.4775 392.88437 363.4775 395.07187L363.4775 395.49374Q363.4775 398.80624 362.165 400.3375Q360.8525 401.86874 358.21188 401.91562L357.93063 401.91562L357.93063 400.68124L358.2275 400.68124Q360.02438 400.65 360.9775 399.75937Q361.94626 398.85312 362.02438 396.9ZM359.80563 396.9Q360.52438 396.9 361.13376 396.4625Q361.75876 396.00937 362.04 395.35312L362.04 394.775Q362.04 393.35312 361.415 392.4625Q360.80563 391.57187 359.8525 391.57187Q358.89938 391.57187 358.32126 392.30624Q357.74313 393.025 357.74313 394.22812Q357.74313 395.38437 358.30563 396.15Q358.86813 396.9 359.80563 396.9Z" fill-rule="nonzero"/><path fill="#757575" d="M388.38312 401.9L386.93 401.9L386.93 392.25937L384.00812 393.3375L384.00812 392.025L388.14874 390.4625L388.38312 390.4625L388.38312 401.9ZM399.75812 397.04062Q399.75812 399.5875 398.88312 400.82187Q398.02374 402.05624 396.18 402.05624Q394.3675 402.05624 393.4925 400.85312Q392.6175 399.63437 392.58624 397.24374L392.58624 395.30624Q392.58624 392.80624 393.44562 391.5875Q394.32062 390.36874 396.16437 390.36874Q398.00812 390.36874 398.8675 391.54062Q399.7425 392.7125 399.75812 395.16562L399.75812 397.04062ZM398.32062 395.07187Q398.32062 393.22812 397.805 392.4Q397.28937 391.55624 396.16437 391.55624Q395.055 391.55624 394.53937 392.4Q394.03937 393.22812 394.02374 394.9625L394.02374 397.275Q394.02374 399.11874 394.555 399.99374Q395.10187 400.86874 396.18 400.86874Q397.25812 400.86874 397.77374 400.04062Q398.28937 399.2125 398.32062 397.43124L398.32062 395.07187Z" fill-rule="nonzero"/><path fill="#757575" d="M420.02313 401.9L418.57 401.9L418.57 392.25937L415.64813 393.3375L415.64813 392.025L419.78876 390.4625L420.02313 390.4625L420.02313 401.9ZM429.02313 401.9L427.57 401.9L427.57 392.25937L424.64813 393.3375L424.64813 392.025L428.78876 390.4625L429.02313 390.4625L429.02313 401.9Z" fill-rule="nonzero"/><path fill="#757575" d="M451.66312 401.9L450.21 401.9L450.21 392.25937L447.28812 393.3375L447.28812 392.025L451.42874 390.4625L451.66312 390.4625L451.66312 401.9ZM463.36624 401.9L455.91312 401.9L455.91312 400.85312L459.85062 396.47812Q460.72562 395.49374 461.05374 394.86874Q461.38187 394.24374 461.38187 393.5875Q461.38187 392.69687 460.835 392.13437Q460.30374 391.55624 459.41312 391.55624Q458.335 391.55624 457.72562 392.16562Q457.13187 392.775 457.13187 393.86874L455.69437 393.86874Q455.69437 392.30624 456.69437 391.3375Q457.71 390.36874 459.41312 390.36874Q460.99124 390.36874 461.91312 391.19687Q462.835 392.025 462.835 393.41562Q462.835 395.0875 460.69437 397.41562L457.6475 400.7125L463.36624 400.7125L463.36624 401.9Z" fill-rule="nonzero"/><path fill="#757575" d="M483.30313 401.9L481.85 401.9L481.85 392.25937L478.92813 393.3375L478.92813 392.025L483.06876 390.4625L483.30313 390.4625L483.30313 401.9ZM489.64688 395.50937L490.74063 395.50937Q491.75626 395.49374 492.33438 394.97812Q492.92813 394.44687 492.92813 393.55624Q492.92813 391.55624 490.94376 391.55624Q490.00626 391.55624 489.44376 392.0875Q488.88126 392.61874 488.88126 393.50937L487.44376 393.50937Q487.44376 392.15 488.42813 391.25937Q489.4125 390.36874 490.94376 390.36874Q492.55313 390.36874 493.45938 391.22812Q494.38126 392.07187 494.38126 393.5875Q494.38126 394.32187 493.89688 395.025Q493.4125 395.7125 492.58438 396.05624Q493.52188 396.35312 494.0375 397.04062Q494.55313 397.72812 494.55313 398.72812Q494.55313 400.25937 493.55313 401.16562Q492.55313 402.05624 490.94376 402.05624Q489.35 402.05624 488.33438 401.19687Q487.33438 400.32187 487.33438 398.9L488.7875 398.9Q488.7875 399.79062 489.36563 400.3375Q489.95938 400.86874 490.94376 400.86874Q491.99063 400.86874 492.5375 400.32187Q493.1 399.775 493.1 398.75937Q493.1 397.75937 492.49063 397.22812Q491.88126 396.69687 490.74063 396.68124L489.64688 396.68124L489.64688 395.50937Z" fill-rule="nonzero"/><path fill="#757575" d="M514.9431 401.9L513.49 401.9L513.49 392.25937L510.5681 393.3375L510.5681 392.025L514.70874 390.4625L514.9431 390.4625L514.9431 401.9ZM525.28687 398.07187L526.865 398.07187L526.865 399.25937L525.28687 399.25937L525.28687 401.9L523.83374 401.9L523.83374 399.25937L518.66187 399.25937L518.66187 398.4L523.7556 390.525L525.28687 390.525L525.28687 398.07187ZM520.3025 398.07187L523.83374 398.07187L523.83374 392.49374L523.66187 392.80624L520.3025 398.07187Z" fill-rule="nonzero"/><path fill="#757575" d="M546.5831 401.9L545.13 401.9L545.13 392.25937L542.2081 393.3375L542.2081 392.025L546.34875 390.4625L546.5831 390.4625L546.5831 401.9ZM551.4894 396.19687L552.0675 390.525L557.8956 390.525L557.8956 391.85312L553.3019 391.85312L552.9581 394.9625Q553.78625 394.4625 554.84875 394.4625Q556.41125 394.4625 557.3175 395.49374Q558.2394 396.525 558.2394 398.275Q558.2394 400.025 557.28625 401.04062Q556.3331 402.05624 554.63 402.05624Q553.13 402.05624 552.1769 401.22812Q551.22375 400.38437 551.0831 398.9L552.4581 398.9Q552.5831 399.88437 553.1456 400.38437Q553.7081 400.86874 554.63 400.86874Q555.6456 400.86874 556.2081 400.18124Q556.78625 399.49374 556.78625 398.29062Q556.78625 397.15 556.16125 396.4625Q555.5519 395.75937 554.5206 395.75937Q553.5675 395.75937 553.03625 396.18124L552.6456 396.49374L551.4894 396.19687Z" fill-rule="nonzero"/><path fill="#757575" d="M578.22314 401.9L576.77 401.9L576.77 392.25937L573.84814 393.3375L573.84814 392.025L577.9888 390.4625L578.22314 390.4625L578.22314 401.9ZM588.145 390.50937L588.145 391.74374L587.8794 391.74374Q586.1919 391.775 585.1919 392.74374Q584.1919 393.7125 584.03564 395.4625Q584.9263 394.43124 586.4888 394.43124Q587.97314 394.43124 588.84814 395.47812Q589.7388 396.525 589.7388 398.18124Q589.7388 399.94687 588.78564 401.00937Q587.8325 402.05624 586.22314 402.05624Q584.5825 402.05624 583.5669 400.80624Q582.5513 399.54062 582.5513 397.57187L582.5513 397.00937Q582.5513 393.86874 583.895 392.2125Q585.2388 390.55624 587.8794 390.50937L588.145 390.50937ZM586.2388 395.63437Q585.5044 395.63437 584.8794 396.0875Q584.2544 396.525 584.0044 397.19687L584.0044 397.72812Q584.0044 399.13437 584.6294 399.99374Q585.27 400.85312 586.22314 400.85312Q587.1919 400.85312 587.7544 400.13437Q588.3169 399.41562 588.3169 398.25937Q588.3169 397.0875 587.7388 396.36874Q587.1763 395.63437 586.2388 395.63437Z" fill-rule="nonzero"/><path fill="#757575" d="M609.8631 401.9L608.41 401.9L608.41 392.25937L605.4881 393.3375L605.4881 392.025L609.6287 390.4625L609.8631 390.4625L609.8631 401.9ZM621.45685 391.3375L616.7381 401.9L615.2225 401.9L619.9256 391.7125L613.76935 391.7125L613.76935 390.525L621.45685 390.525L621.45685 391.3375Z" fill-rule="nonzero"/><path fill="#757575" d="M641.5031 401.9L640.05 401.9L640.05 392.25937L637.1281 393.3375L637.1281 392.025L641.26874 390.4625L641.5031 390.4625L641.5031 401.9ZM652.64374 393.49374Q652.64374 394.3375 652.1906 395.00937Q651.7531 395.66562 650.9875 396.04062Q651.8781 396.43124 652.39374 397.16562Q652.90936 397.9 652.90936 398.82187Q652.90936 400.30624 651.90936 401.18124Q650.925 402.05624 649.3 402.05624Q647.65936 402.05624 646.65936 401.18124Q645.675 400.29062 645.675 398.82187Q645.675 397.9 646.175 397.16562Q646.6906 396.41562 647.58124 396.04062Q646.8156 395.66562 646.3781 395.00937Q645.9406 394.3375 645.9406 393.49374Q645.9406 392.05624 646.8625 391.2125Q647.78436 390.36874 649.3 390.36874Q650.8 390.36874 651.72186 391.2125Q652.64374 392.05624 652.64374 393.49374ZM651.47186 398.79062Q651.47186 397.8375 650.8625 397.24374Q650.2531 396.63437 649.26874 396.63437Q648.3 396.63437 647.70624 397.22812Q647.1281 397.82187 647.1281 398.79062Q647.1281 399.75937 647.6906 400.32187Q648.26874 400.86874 649.3 400.86874Q650.3156 400.86874 650.89374 400.32187Q651.47186 399.75937 651.47186 398.79062ZM649.3 391.55624Q648.4406 391.55624 647.90936 392.0875Q647.39374 392.60312 647.39374 393.50937Q647.39374 394.38437 647.90936 394.91562Q648.425 395.44687 649.28436 395.44687Q650.15936 395.44687 650.675 394.91562Q651.20624 394.38437 651.20624 393.525Q651.20624 392.65 650.65936 392.10312Q650.1281 391.55624 649.3 391.55624Z" fill-rule="nonzero"/><path fill="#757575" d="M673.1431 401.9L671.69 401.9L671.69 392.25937L668.7681 393.3375L668.7681 392.025L672.90875 390.4625L673.1431 390.4625L673.1431 401.9ZM682.9244 396.9Q682.47125 397.43124 681.84625 397.75937Q681.22125 398.0875 680.47125 398.0875Q679.4869 398.0875 678.7525 397.60312Q678.0181 397.11874 677.6119 396.24374Q677.22125 395.36874 677.22125 394.30624Q677.22125 393.16562 677.65875 392.25937Q678.09625 391.3375 678.8931 390.85312Q679.69 390.36874 680.7525 390.36874Q682.44 390.36874 683.40875 391.63437Q684.3775 392.88437 684.3775 395.07187L684.3775 395.49374Q684.3775 398.80624 683.065 400.3375Q681.7525 401.86874 679.1119 401.91562L678.8306 401.91562L678.8306 400.68124L679.1275 400.68124Q680.9244 400.65 681.8775 399.75937Q682.84625 398.85312 682.9244 396.9ZM680.7056 396.9Q681.4244 396.9 682.03375 396.4625Q682.65875 396.00937 682.94 395.35312L682.94 394.775Q682.94 393.35312 682.315 392.4625Q681.7056 391.57187 680.7525 391.57187Q679.7994 391.57187 679.22125 392.30624Q678.6431 393.025 678.6431 394.22812Q678.6431 395.38437 679.2056 396.15Q679.7681 396.9 680.7056 396.9Z" fill-rule="nonzero"/><path fill="#757575" d="M707.48627 401.9L700.03314 401.9L700.03314 400.85312L703.97064 396.47812Q704.84564 395.49374 705.17377 394.86874Q705.5019 394.24374 705.5019 393.5875Q705.5019 392.69687 704.955 392.13437Q704.42377 391.55624 703.53314 391.55624Q702.455 391.55624 701.84564 392.16562Q701.2519 392.775 701.2519 393.86874L699.8144 393.86874Q699.8144 392.30624 700.8144 391.3375Q701.83 390.36874 703.53314 390.36874Q705.11127 390.36874 706.03314 391.19687Q706.955 392.025 706.955 393.41562Q706.955 395.0875 704.8144 397.41562L701.7675 400.7125L707.48627 400.7125L707.48627 401.9ZM716.15814 397.04062Q716.15814 399.5875 715.28314 400.82187Q714.42377 402.05624 712.58 402.05624Q710.7675 402.05624 709.8925 400.85312Q709.0175 399.63437 708.98627 397.24374L708.98627 395.30624Q708.98627 392.80624 709.84564 391.5875Q710.72064 390.36874 712.5644 390.36874Q714.40814 390.36874 715.2675 391.54062Q716.1425 392.7125 716.15814 395.16562L716.15814 397.04062ZM714.72064 395.07187Q714.72064 393.22812 714.205 392.4Q713.6894 391.55624 712.5644 391.55624Q711.455 391.55624 710.9394 392.4Q710.4394 393.22812 710.42377 394.9625L710.42377 397.275Q710.42377 399.11874 710.955 399.99374Q711.5019 400.86874 712.58 400.86874Q713.65814 400.86874 714.17377 400.04062Q714.6894 399.2125 714.72064 397.43124L714.72064 395.07187Z" fill-rule="nonzero"/></svg>