<svg version="1.1" viewBox="0.0 0.0 982.0 607.0" fill="none" stroke="none" stroke-linecap="square" stroke-miterlimit="10" width="982" height="607" xmlns:xlink="http://www.w3.org/1999/xlink" xmlns="http://www.w3.org/2000/svg"><path fill="#ffffff" d="M0 0L982.0 0L982.0 607.0L0 607.0L0 0Z" fill-rule="nonzero"/><path fill="#ffffff" d="M0 0L982.0 0L982.0 607.0L0 607.0L0 0Z" fill-rule="nonzero"/><path stroke="#333333" stroke-width="1.0" stroke-linecap="butt" d="M143.5 516.5L951.5 516.5" fill-rule="nonzero"/><path stroke="#cccccc" stroke-width="1.0" stroke-linecap="butt" d="M143.5 421.5L951.5 421.5" fill-rule="nonzero"/><path stroke="#cccccc" stroke-width="1.0" stroke-linecap="butt" d="M143.5 325.5L951.5 325.5" fill-rule="nonzero"/><path stroke="#cccccc" stroke-width="1.0" stroke-linecap="butt" d="M143.5 230.5L951.5 230.5" fill-rule="nonzero"/><path stroke="#cccccc" stroke-width="1.0" stroke-linecap="butt" d="M143.5 135.5L951.5 135.5" fill-rule="nonzero"/><path stroke="#cccccc" stroke-width="1.0" stroke-linecap="butt" d="M143.5 39.5L951.5 39.5" fill-rule="nonzero"/><clipPath id="id_0"><path d="M143.35 39.85L951.65 39.85L951.65 516.65L143.35 516.65L143.35 39.85Z" clip-rule="nonzero"/></clipPath><path stroke="#ff0000" stroke-width="2.0" stroke-linecap="butt" clip-path="url(#id_0)" d="M163.5575 107.961334L203.9725 500.67517L244.3875 503.35526L284.8025 505.98322L325.2175 507.86163L365.6325 509.48117L406.0475 510.01596L446.4625 510.93213L486.8775 511.3652L527.2925 511.25903L567.7075 512.3022L608.1225 512.1893L648.5375 512.6451L688.9525 513.1531L729.3675 513.36395L769.7825 513.4593L810.1975 513.52325L850.6125 513.8248L891.0275 513.9218L931.4425 514.00995" fill-rule="nonzero"/><path fill="#424242" d="M547.09375 570.7125L546.40625 571.41565L546.40625 573.65L545.3281 573.65L545.3281 564.65L546.40625 564.65L546.40625 570.0875L546.9844 569.4L548.96875 567.3063L550.28125 567.3063L547.8125 569.9625L550.5781 573.65L549.2969 573.65L547.09375 570.7125Z" fill-rule="nonzero"/><path fill="#424242" d="M40.662525 291.48438Q40.225025 291.48438 39.99065 291.82812Q39.74065 292.15625 39.568775 292.98438Q39.3969 293.79688 39.1469 294.28125Q38.8969 294.76562 38.568775 295.0Q38.225025 295.21875 37.756275 295.21875Q36.975025 295.21875 36.443775 294.5625Q35.8969 293.90625 35.8969 292.875Q35.8969 291.79688 36.4594 291.14062Q37.006275 290.46875 37.86565 290.46875L37.86565 291.54688Q37.42815 291.54688 37.11565 291.9375Q36.787525 292.3125 36.787525 292.875Q36.787525 293.46875 37.05315 293.8125Q37.30315 294.14062 37.7094 294.14062Q38.100025 294.14062 38.30315 293.82812Q38.506275 293.51562 38.693775 292.70312Q38.86565 291.89062 39.11565 291.39062Q39.36565 290.89062 39.725025 290.65625Q40.0844 290.40625 40.5844 290.40625Q41.443775 290.40625 41.9594 291.09375Q42.475025 291.76562 42.475025 292.84375Q42.475025 293.60938 42.2094 294.20312Q41.92815 294.78125 41.443775 295.10938Q40.9594 295.4375 40.3969 295.4375L40.3969 294.35938Q40.943775 294.32812 41.2719 293.92188Q41.5844 293.51562 41.5844 292.84375Q41.5844 292.23438 41.3344 291.85938Q41.0844 291.48438 40.662525 291.48438ZM40.662525 285.48438Q40.225025 285.48438 39.99065 285.82812Q39.74065 286.15625 39.568775 286.98438Q39.3969 287.79688 39.1469 288.28125Q38.8969 288.76562 38.568775 289.0Q38.225025 289.21875 37.756275 289.21875Q36.975025 289.21875 36.443775 288.5625Q35.8969 287.90625 35.8969 286.875Q35.8969 285.79688 36.4594 285.14062Q37.006275 284.46875 37.86565 284.46875L37.86565 285.54688Q37.42815 285.54688 37.11565 285.9375Q36.787525 286.3125 36.787525 286.875Q36.787525 287.46875 37.05315 287.8125Q37.30315 288.14062 37.7094 288.14062Q38.100025 288.14062 38.30315 287.82812Q38.506275 287.51562 38.693775 286.70312Q38.86565 285.89062 39.11565 285.39062Q39.36565 284.89062 39.725025 284.65625Q40.0844 284.40625 40.5844 284.40625Q41.443775 284.40625 41.9594 285.09375Q42.475025 285.76562 42.475025 286.84375Q42.475025 287.60938 42.2094 288.20312Q41.92815 288.78125 41.443775 289.10938Q40.9594 289.4375 40.3969 289.4375L40.3969 288.35938Q40.943775 288.32812 41.2719 287.92188Q41.5844 287.51562 41.5844 286.84375Q41.5844 286.23438 41.3344 285.85938Q41.0844 285.48438 40.662525 285.48438ZM42.475025 280.54688Q42.475025 281.84375 41.631275 282.65625Q40.7719 283.45312 39.350025 283.45312L39.162525 283.45312Q38.2094 283.45312 37.475025 283.09375Q36.725025 282.73438 36.318775 282.09375Q35.8969 281.4375 35.8969 280.6875Q35.8969 279.45312 36.7094 278.76562Q37.5219 278.07812 39.037525 278.07812L39.49065 278.07812L39.49065 282.375Q40.42815 282.34375 41.006275 281.82812Q41.5844 281.29688 41.5844 280.48438Q41.5844 279.92188 41.350025 279.53125Q41.11565 279.125 40.725025 278.8125L41.24065 278.15625Q42.475025 278.95312 42.475025 280.54688ZM36.787525 280.6875Q36.787525 281.34375 37.2719 281.79688Q37.74065 282.23438 38.600025 282.32812L38.600025 279.15625L38.5219 279.15625Q37.693775 279.20312 37.24065 279.60938Q36.787525 280.0 36.787525 280.6875Z" fill-rule="nonzero"/><path fill="#757575" d="M134.42813 517.29065Q134.42813 519.8375 133.55313 521.0719Q132.69376 522.3063 130.85 522.3063Q129.0375 522.3063 128.1625 521.10315Q127.2875 519.8844 127.25625 517.4938L127.25625 515.5563Q127.25625 513.0563 128.11563 511.83752Q128.99063 510.61877 130.83438 510.61877Q132.67813 510.61877 133.5375 511.79065Q134.4125 512.9625 134.42813 515.41565L134.42813 517.29065ZM132.99063 515.3219Q132.99063 513.47815 132.475 512.65Q131.95938 511.80627 130.83438 511.80627Q129.725 511.80627 129.20938 512.65Q128.70938 513.47815 128.69376 515.2125L128.69376 517.525Q128.69376 519.3688 129.225 520.2438Q129.77188 521.1188 130.85 521.1188Q131.92813 521.1188 132.44376 520.29065Q132.95938 519.4625 132.99063 517.6813L132.99063 515.3219Z" fill-rule="nonzero"/><path fill="#757575" d="M80.75625 426.79L73.30312 426.79L73.30312 425.74313L77.24062 421.36813Q78.11562 420.38376 78.44375 419.75876Q78.77187 419.13376 78.77187 418.4775Q78.77187 417.58688 78.225 417.02438Q77.69375 416.44626 76.80312 416.44626Q75.725 416.44626 75.11562 417.05563Q74.52187 417.665 74.52187 418.75876L73.08437 418.75876Q73.08437 417.19626 74.08437 416.2275Q75.1 415.25876 76.80312 415.25876Q78.38125 415.25876 79.30312 416.08688Q80.225 416.915 80.225 418.30563Q80.225 419.9775 78.08437 422.30563L75.0375 425.6025L80.75625 425.6025L80.75625 426.79ZM82.95937 421.08688L83.5375 415.415L89.36562 415.415L89.36562 416.74313L84.77187 416.74313L84.42812 419.8525Q85.25625 419.3525 86.31875 419.3525Q87.88125 419.3525 88.7875 420.38376Q89.70937 421.415 89.70937 423.165Q89.70937 424.915 88.75625 425.93063Q87.80312 426.94626 86.1 426.94626Q84.6 426.94626 83.64687 426.11813Q82.69375 425.27438 82.55312 423.79L83.92812 423.79Q84.05312 424.77438 84.61562 425.27438Q85.17812 425.75876 86.1 425.75876Q87.11562 425.75876 87.67812 425.07126Q88.25625 424.38376 88.25625 423.18063Q88.25625 422.04 87.63125 421.3525Q87.02187 420.64938 85.99062 420.64938Q85.0375 420.64938 84.50625 421.07126L84.11562 421.38376L82.95937 421.08688ZM98.42812 421.93063Q98.42812 424.4775 97.55312 425.71188Q96.69375 426.94626 94.85 426.94626Q93.0375 426.94626 92.1625 425.74313Q91.2875 424.52438 91.25625 422.13376L91.25625 420.19626Q91.25625 417.69626 92.11562 416.4775Q92.99062 415.25876 94.83437 415.25876Q96.67812 415.25876 97.5375 416.43063Q98.4125 417.6025 98.42812 420.05563L98.42812 421.93063ZM96.99062 419.96188Q96.99062 418.11813 96.475 417.29Q95.95937 416.44626 94.83437 416.44626Q93.725 416.44626 93.20937 417.29Q92.70937 418.11813 92.69375 419.8525L92.69375 422.165Q92.69375 424.00876 93.225 424.88376Q93.77187 425.75876 94.85 425.75876Q95.92812 425.75876 96.44375 424.93063Q96.95937 424.1025 96.99062 422.32126L96.99062 419.96188ZM107.42812 421.93063Q107.42812 424.4775 106.55312 425.71188Q105.69375 426.94626 103.85 426.94626Q102.0375 426.94626 101.1625 425.74313Q100.2875 424.52438 100.25625 422.13376L100.25625 420.19626Q100.25625 417.69626 101.11562 416.4775Q101.99062 415.25876 103.83437 415.25876Q105.67812 415.25876 106.5375 416.43063Q107.4125 417.6025 107.42812 420.05563L107.42812 421.93063ZM105.99062 419.96188Q105.99062 418.11813 105.475 417.29Q104.95937 416.44626 103.83437 416.44626Q102.725 416.44626 102.20937 417.29Q101.70937 418.11813 101.69375 419.8525L101.69375 422.165Q101.69375 424.00876 102.225 424.88376Q102.77187 425.75876 103.85 425.75876Q104.92812 425.75876 105.44375 424.93063Q105.95937 424.1025 105.99062 422.32126L105.99062 419.96188ZM116.42812 421.93063Q116.42812 424.4775 115.55312 425.71188Q114.69375 426.94626 112.85 426.94626Q111.0375 426.94626 110.1625 425.74313Q109.2875 424.52438 109.25625 422.13376L109.25625 420.19626Q109.25625 417.69626 110.11562 416.4775Q110.99062 415.25876 112.83437 415.25876Q114.67812 415.25876 115.5375 416.43063Q116.4125 417.6025 116.42812 420.05563L116.42812 421.93063ZM114.99062 419.96188Q114.99062 418.11813 114.475 417.29Q113.95937 416.44626 112.83437 416.44626Q111.725 416.44626 111.20937 417.29Q110.70937 418.11813 110.69375 419.8525L110.69375 422.165Q110.69375 424.00876 111.225 424.88376Q111.77187 425.75876 112.85 425.75876Q113.92812 425.75876 114.44375 424.93063Q114.95937 424.1025 114.99062 422.32126L114.99062 419.96188ZM125.42812 421.93063Q125.42812 424.4775 124.55312 425.71188Q123.69375 426.94626 121.85 426.94626Q120.0375 426.94626 119.1625 425.74313Q118.2875 424.52438 118.25625 422.13376L118.25625 420.19626Q118.25625 417.69626 119.11562 416.4775Q119.99062 415.25876 121.83437 415.25876Q123.67812 415.25876 124.5375 416.43063Q125.4125 417.6025 125.42812 420.05563L125.42812 421.93063ZM123.99062 419.96188Q123.99062 418.11813 123.475 417.29Q122.95937 416.44626 121.83437 416.44626Q120.725 416.44626 120.20937 417.29Q119.70937 418.11813 119.69375 419.8525L119.69375 422.165Q119.69375 424.00876 120.225 424.88376Q120.77187 425.75876 121.85 425.75876Q122.92812 425.75876 123.44375 424.93063Q123.95937 424.1025 123.99062 422.32126L123.99062 419.96188ZM134.42813 421.93063Q134.42813 424.4775 133.55313 425.71188Q132.69376 426.94626 130.85 426.94626Q129.0375 426.94626 128.1625 425.74313Q127.2875 424.52438 127.25625 422.13376L127.25625 420.19626Q127.25625 417.69626 128.11563 416.4775Q128.99063 415.25876 130.83438 415.25876Q132.67813 415.25876 133.5375 416.43063Q134.4125 417.6025 134.42813 420.05563L134.42813 421.93063ZM132.99063 419.96188Q132.99063 418.11813 132.475 417.29Q131.95938 416.44626 130.83438 416.44626Q129.725 416.44626 129.20938 417.29Q128.70938 418.11813 128.69376 419.8525L128.69376 422.165Q128.69376 424.00876 129.225 424.88376Q129.77188 425.75876 130.85 425.75876Q131.92813 425.75876 132.44376 424.93063Q132.95938 424.1025 132.99063 422.32126L132.99063 419.96188Z" fill-rule="nonzero"/><path fill="#757575" d="M73.95937 325.72687L74.5375 320.055L80.36562 320.055L80.36562 321.38312L75.77187 321.38312L75.42812 324.4925Q76.25625 323.9925 77.31875 323.9925Q78.88125 323.9925 79.7875 325.02374Q80.70937 326.055 80.70937 327.805Q80.70937 329.555 79.75625 330.57062Q78.80312 331.58624 77.1 331.58624Q75.6 331.58624 74.64687 330.75812Q73.69375 329.91437 73.55312 328.43L74.92812 328.43Q75.05312 329.41437 75.61562 329.91437Q76.17812 330.39874 77.1 330.39874Q78.11562 330.39874 78.67812 329.71124Q79.25625 329.02374 79.25625 327.82062Q79.25625 326.68 78.63125 325.9925Q78.02187 325.28937 76.99062 325.28937Q76.0375 325.28937 75.50625 325.71124L75.11562 326.02374L73.95937 325.72687ZM89.42812 326.57062Q89.42812 329.1175 88.55312 330.35187Q87.69375 331.58624 85.85 331.58624Q84.0375 331.58624 83.1625 330.38312Q82.2875 329.16437 82.25625 326.77374L82.25625 324.83624Q82.25625 322.33624 83.11562 321.1175Q83.99062 319.89874 85.83437 319.89874Q87.67812 319.89874 88.5375 321.07062Q89.4125 322.2425 89.42812 324.69562L89.42812 326.57062ZM87.99062 324.60187Q87.99062 322.75812 87.475 321.93Q86.95937 321.08624 85.83437 321.08624Q84.725 321.08624 84.20937 321.93Q83.70937 322.75812 83.69375 324.4925L83.69375 326.805Q83.69375 328.64874 84.225 329.52374Q84.77187 330.39874 85.85 330.39874Q86.92812 330.39874 87.44375 329.57062Q87.95937 328.7425 87.99062 326.96124L87.99062 324.60187ZM98.42812 326.57062Q98.42812 329.1175 97.55312 330.35187Q96.69375 331.58624 94.85 331.58624Q93.0375 331.58624 92.1625 330.38312Q91.2875 329.16437 91.25625 326.77374L91.25625 324.83624Q91.25625 322.33624 92.11562 321.1175Q92.99062 319.89874 94.83437 319.89874Q96.67812 319.89874 97.5375 321.07062Q98.4125 322.2425 98.42812 324.69562L98.42812 326.57062ZM96.99062 324.60187Q96.99062 322.75812 96.475 321.93Q95.95937 321.08624 94.83437 321.08624Q93.725 321.08624 93.20937 321.93Q92.70937 322.75812 92.69375 324.4925L92.69375 326.805Q92.69375 328.64874 93.225 329.52374Q93.77187 330.39874 94.85 330.39874Q95.92812 330.39874 96.44375 329.57062Q96.95937 328.7425 96.99062 326.96124L96.99062 324.60187ZM107.42812 326.57062Q107.42812 329.1175 106.55312 330.35187Q105.69375 331.58624 103.85 331.58624Q102.0375 331.58624 101.1625 330.38312Q100.2875 329.16437 100.25625 326.77374L100.25625 324.83624Q100.25625 322.33624 101.11562 321.1175Q101.99062 319.89874 103.83437 319.89874Q105.67812 319.89874 106.5375 321.07062Q107.4125 322.2425 107.42812 324.69562L107.42812 326.57062ZM105.99062 324.60187Q105.99062 322.75812 105.475 321.93Q104.95937 321.08624 103.83437 321.08624Q102.725 321.08624 102.20937 321.93Q101.70937 322.75812 101.69375 324.4925L101.69375 326.805Q101.69375 328.64874 102.225 329.52374Q102.77187 330.39874 103.85 330.39874Q104.92812 330.39874 105.44375 329.57062Q105.95937 328.7425 105.99062 326.96124L105.99062 324.60187ZM116.42812 326.57062Q116.42812 329.1175 115.55312 330.35187Q114.69375 331.58624 112.85 331.58624Q111.0375 331.58624 110.1625 330.38312Q109.2875 329.16437 109.25625 326.77374L109.25625 324.83624Q109.25625 322.33624 110.11562 321.1175Q110.99062 319.89874 112.83437 319.89874Q114.67812 319.89874 115.5375 321.07062Q116.4125 322.2425 116.42812 324.69562L116.42812 326.57062ZM114.99062 324.60187Q114.99062 322.75812 114.475 321.93Q113.95937 321.08624 112.83437 321.08624Q111.725 321.08624 111.20937 321.93Q110.70937 322.75812 110.69375 324.4925L110.69375 326.805Q110.69375 328.64874 111.225 329.52374Q111.77187 330.39874 112.85 330.39874Q113.92812 330.39874 114.44375 329.57062Q114.95937 328.7425 114.99062 326.96124L114.99062 324.60187ZM125.42812 326.57062Q125.42812 329.1175 124.55312 330.35187Q123.69375 331.58624 121.85 331.58624Q120.0375 331.58624 119.1625 330.38312Q118.2875 329.16437 118.25625 326.77374L118.25625 324.83624Q118.25625 322.33624 119.11562 321.1175Q119.99062 319.89874 121.83437 319.89874Q123.67812 319.89874 124.5375 321.07062Q125.4125 322.2425 125.42812 324.69562L125.42812 326.57062ZM123.99062 324.60187Q123.99062 322.75812 123.475 321.93Q122.95937 321.08624 121.83437 321.08624Q120.725 321.08624 120.20937 321.93Q119.70937 322.75812 119.69375 324.4925L119.69375 326.805Q119.69375 328.64874 120.225 329.52374Q120.77187 330.39874 121.85 330.39874Q122.92812 330.39874 123.44375 329.57062Q123.95937 328.7425 123.99062 326.96124L123.99062 324.60187ZM134.42813 326.57062Q134.42813 329.1175 133.55313 330.35187Q132.69376 331.58624 130.85 331.58624Q129.0375 331.58624 128.1625 330.38312Q127.2875 329.16437 127.25625 326.77374L127.25625 324.83624Q127.25625 322.33624 128.11563 321.1175Q128.99063 319.89874 130.83438 319.89874Q132.67813 319.89874 133.5375 321.07062Q134.4125 322.2425 134.42813 324.69562L134.42813 326.57062ZM132.99063 324.60187Q132.99063 322.75812 132.475 321.93Q131.95938 321.08624 130.83438 321.08624Q129.725 321.08624 129.20938 321.93Q128.70938 322.75812 128.69376 324.4925L128.69376 326.805Q128.69376 328.64874 129.225 329.52374Q129.77188 330.39874 130.85 330.39874Q131.92813 330.39874 132.44376 329.57062Q132.95938 328.7425 132.99063 326.96124L132.99063 324.60187Z" fill-rule="nonzero"/><path fill="#757575" d="M80.64687 225.5075L75.92812 236.07L74.4125 236.07L79.11562 225.8825L72.95937 225.8825L72.95937 224.695L80.64687 224.695L80.64687 225.5075ZM82.95937 230.36688L83.5375 224.695L89.36562 224.695L89.36562 226.02313L84.77187 226.02313L84.42812 229.1325Q85.25625 228.6325 86.31875 228.6325Q87.88125 228.6325 88.7875 229.66376Q89.70937 230.695 89.70937 232.445Q89.70937 234.195 88.75625 235.21063Q87.80312 236.22626 86.1 236.22626Q84.6 236.22626 83.64687 235.39813Q82.69375 234.55438 82.55312 233.07L83.92812 233.07Q84.05312 234.05438 84.61562 234.55438Q85.17812 235.03876 86.1 235.03876Q87.11562 235.03876 87.67812 234.35126Q88.25625 233.66376 88.25625 232.46063Q88.25625 231.32 87.63125 230.6325Q87.02187 229.92938 85.99062 229.92938Q85.0375 229.92938 84.50625 230.35126L84.11562 230.66376L82.95937 230.36688ZM98.42812 231.21063Q98.42812 233.7575 97.55312 234.99188Q96.69375 236.22626 94.85 236.22626Q93.0375 236.22626 92.1625 235.02313Q91.2875 233.80438 91.25625 231.41376L91.25625 229.47626Q91.25625 226.97626 92.11562 225.7575Q92.99062 224.53876 94.83437 224.53876Q96.67812 224.53876 97.5375 225.71063Q98.4125 226.8825 98.42812 229.33563L98.42812 231.21063ZM96.99062 229.24188Q96.99062 227.39813 96.475 226.57Q95.95937 225.72626 94.83437 225.72626Q93.725 225.72626 93.20937 226.57Q92.70937 227.39813 92.69375 229.1325L92.69375 231.445Q92.69375 233.28876 93.225 234.16376Q93.77187 235.03876 94.85 235.03876Q95.92812 235.03876 96.44375 234.21063Q96.95937 233.3825 96.99062 231.60126L96.99062 229.24188ZM107.42812 231.21063Q107.42812 233.7575 106.55312 234.99188Q105.69375 236.22626 103.85 236.22626Q102.0375 236.22626 101.1625 235.02313Q100.2875 233.80438 100.25625 231.41376L100.25625 229.47626Q100.25625 226.97626 101.11562 225.7575Q101.99062 224.53876 103.83437 224.53876Q105.67812 224.53876 106.5375 225.71063Q107.4125 226.8825 107.42812 229.33563L107.42812 231.21063ZM105.99062 229.24188Q105.99062 227.39813 105.475 226.57Q104.95937 225.72626 103.83437 225.72626Q102.725 225.72626 102.20937 226.57Q101.70937 227.39813 101.69375 229.1325L101.69375 231.445Q101.69375 233.28876 102.225 234.16376Q102.77187 235.03876 103.85 235.03876Q104.92812 235.03876 105.44375 234.21063Q105.95937 233.3825 105.99062 231.60126L105.99062 229.24188ZM116.42812 231.21063Q116.42812 233.7575 115.55312 234.99188Q114.69375 236.22626 112.85 236.22626Q111.0375 236.22626 110.1625 235.02313Q109.2875 233.80438 109.25625 231.41376L109.25625 229.47626Q109.25625 226.97626 110.11562 225.7575Q110.99062 224.53876 112.83437 224.53876Q114.67812 224.53876 115.5375 225.71063Q116.4125 226.8825 116.42812 229.33563L116.42812 231.21063ZM114.99062 229.24188Q114.99062 227.39813 114.475 226.57Q113.95937 225.72626 112.83437 225.72626Q111.725 225.72626 111.20937 226.57Q110.70937 227.39813 110.69375 229.1325L110.69375 231.445Q110.69375 233.28876 111.225 234.16376Q111.77187 235.03876 112.85 235.03876Q113.92812 235.03876 114.44375 234.21063Q114.95937 233.3825 114.99062 231.60126L114.99062 229.24188ZM125.42812 231.21063Q125.42812 233.7575 124.55312 234.99188Q123.69375 236.22626 121.85 236.22626Q120.0375 236.22626 119.1625 235.02313Q118.2875 233.80438 118.25625 231.41376L118.25625 229.47626Q118.25625 226.97626 119.11562 225.7575Q119.99062 224.53876 121.83437 224.53876Q123.67812 224.53876 124.5375 225.71063Q125.4125 226.8825 125.42812 229.33563L125.42812 231.21063ZM123.99062 229.24188Q123.99062 227.39813 123.475 226.57Q122.95937 225.72626 121.83437 225.72626Q120.725 225.72626 120.20937 226.57Q119.70937 227.39813 119.69375 229.1325L119.69375 231.445Q119.69375 233.28876 120.225 234.16376Q120.77187 235.03876 121.85 235.03876Q122.92812 235.03876 123.44375 234.21063Q123.95937 233.3825 123.99062 231.60126L123.99062 229.24188ZM134.42813 231.21063Q134.42813 233.7575 133.55313 234.99188Q132.69376 236.22626 130.85 236.22626Q129.0375 236.22626 128.1625 235.02313Q127.2875 233.80438 127.25625 231.41376L127.25625 229.47626Q127.25625 226.97626 128.11563 225.7575Q128.99063 224.53876 130.83438 224.53876Q132.67813 224.53876 133.5375 225.71063Q134.4125 226.8825 134.42813 229.33563L134.42813 231.21063ZM132.99063 229.24188Q132.99063 227.39813 132.475 226.57Q131.95938 225.72626 130.83438 225.72626Q129.725 225.72626 129.20938 226.57Q128.70938 227.39813 128.69376 229.1325L128.69376 231.445Q128.69376 233.28876 129.225 234.16376Q129.77188 235.03876 130.85 235.03876Q131.92813 235.03876 132.44376 234.21063Q132.95938 233.3825 132.99063 231.60126L132.99063 229.24188Z" fill-rule="nonzero"/><path fill="#757575" d="M69.05312 140.71L67.6 140.71L67.6 131.06938L64.67812 132.1475L64.67812 130.835L68.81875 129.2725L69.05312 129.2725L69.05312 140.71ZM80.42812 135.85063Q80.42812 138.3975 79.55312 139.63188Q78.69375 140.86626 76.85 140.86626Q75.0375 140.86626 74.1625 139.66313Q73.2875 138.44438 73.25625 136.05376L73.25625 134.11626Q73.25625 131.61626 74.11562 130.3975Q74.99062 129.17876 76.83437 129.17876Q78.67812 129.17876 79.5375 130.35063Q80.4125 131.5225 80.42812 133.97563L80.42812 135.85063ZM78.99062 133.88188Q78.99062 132.03813 78.475 131.21Q77.95937 130.36626 76.83437 130.36626Q75.725 130.36626 75.20937 131.21Q74.70937 132.03813 74.69375 133.7725L74.69375 136.085Q74.69375 137.92876 75.225 138.80376Q75.77187 139.67876 76.85 139.67876Q77.92812 139.67876 78.44375 138.85063Q78.95937 138.0225 78.99062 136.24126L78.99062 133.88188ZM89.42812 135.85063Q89.42812 138.3975 88.55312 139.63188Q87.69375 140.86626 85.85 140.86626Q84.0375 140.86626 83.1625 139.66313Q82.2875 138.44438 82.25625 136.05376L82.25625 134.11626Q82.25625 131.61626 83.11562 130.3975Q83.99062 129.17876 85.83437 129.17876Q87.67812 129.17876 88.5375 130.35063Q89.4125 131.5225 89.42812 133.97563L89.42812 135.85063ZM87.99062 133.88188Q87.99062 132.03813 87.475 131.21Q86.95937 130.36626 85.83437 130.36626Q84.725 130.36626 84.20937 131.21Q83.70937 132.03813 83.69375 133.7725L83.69375 136.085Q83.69375 137.92876 84.225 138.80376Q84.77187 139.67876 85.85 139.67876Q86.92812 139.67876 87.44375 138.85063Q87.95937 138.0225 87.99062 136.24126L87.99062 133.88188ZM98.42812 135.85063Q98.42812 138.3975 97.55312 139.63188Q96.69375 140.86626 94.85 140.86626Q93.0375 140.86626 92.1625 139.66313Q91.2875 138.44438 91.25625 136.05376L91.25625 134.11626Q91.25625 131.61626 92.11562 130.3975Q92.99062 129.17876 94.83437 129.17876Q96.67812 129.17876 97.5375 130.35063Q98.4125 131.5225 98.42812 133.97563L98.42812 135.85063ZM96.99062 133.88188Q96.99062 132.03813 96.475 131.21Q95.95937 130.36626 94.83437 130.36626Q93.725 130.36626 93.20937 131.21Q92.70937 132.03813 92.69375 133.7725L92.69375 136.085Q92.69375 137.92876 93.225 138.80376Q93.77187 139.67876 94.85 139.67876Q95.92812 139.67876 96.44375 138.85063Q96.95937 138.0225 96.99062 136.24126L96.99062 133.88188ZM107.42812 135.85063Q107.42812 138.3975 106.55312 139.63188Q105.69375 140.86626 103.85 140.86626Q102.0375 140.86626 101.1625 139.66313Q100.2875 138.44438 100.25625 136.05376L100.25625 134.11626Q100.25625 131.61626 101.11562 130.3975Q101.99062 129.17876 103.83437 129.17876Q105.67812 129.17876 106.5375 130.35063Q107.4125 131.5225 107.42812 133.97563L107.42812 135.85063ZM105.99062 133.88188Q105.99062 132.03813 105.475 131.21Q104.95937 130.36626 103.83437 130.36626Q102.725 130.36626 102.20937 131.21Q101.70937 132.03813 101.69375 133.7725L101.69375 136.085Q101.69375 137.92876 102.225 138.80376Q102.77187 139.67876 103.85 139.67876Q104.92812 139.67876 105.44375 138.85063Q105.95937 138.0225 105.99062 136.24126L105.99062 133.88188ZM116.42812 135.85063Q116.42812 138.3975 115.55312 139.63188Q114.69375 140.86626 112.85 140.86626Q111.0375 140.86626 110.1625 139.66313Q109.2875 138.44438 109.25625 136.05376L109.25625 134.11626Q109.25625 131.61626 110.11562 130.3975Q110.99062 129.17876 112.83437 129.17876Q114.67812 129.17876 115.5375 130.35063Q116.4125 131.5225 116.42812 133.97563L116.42812 135.85063ZM114.99062 133.88188Q114.99062 132.03813 114.475 131.21Q113.95937 130.36626 112.83437 130.36626Q111.725 130.36626 111.20937 131.21Q110.70937 132.03813 110.69375 133.7725L110.69375 136.085Q110.69375 137.92876 111.225 138.80376Q111.77187 139.67876 112.85 139.67876Q113.92812 139.67876 114.44375 138.85063Q114.95937 138.0225 114.99062 136.24126L114.99062 133.88188ZM125.42812 135.85063Q125.42812 138.3975 124.55312 139.63188Q123.69375 140.86626 121.85 140.86626Q120.0375 140.86626 119.1625 139.66313Q118.2875 138.44438 118.25625 136.05376L118.25625 134.11626Q118.25625 131.61626 119.11562 130.3975Q119.99062 129.17876 121.83437 129.17876Q123.67812 129.17876 124.5375 130.35063Q125.4125 131.5225 125.42812 133.97563L125.42812 135.85063ZM123.99062 133.88188Q123.99062 132.03813 123.475 131.21Q122.95937 130.36626 121.83437 130.36626Q120.725 130.36626 120.20937 131.21Q119.70937 132.03813 119.69375 133.7725L119.69375 136.085Q119.69375 137.92876 120.225 138.80376Q120.77187 139.67876 121.85 139.67876Q122.92812 139.67876 123.44375 138.85063Q123.95937 138.0225 123.99062 136.24126L123.99062 133.88188ZM134.42813 135.85063Q134.42813 138.3975 133.55313 139.63188Q132.69376 140.86626 130.85 140.86626Q129.0375 140.86626 128.1625 139.66313Q127.2875 138.44438 127.25625 136.05376L127.25625 134.11626Q127.25625 131.61626 128.11563 130.3975Q128.99063 129.17876 130.83438 129.17876Q132.67813 129.17876 133.5375 130.35063Q134.4125 131.5225 134.42813 133.97563L134.42813 135.85063ZM132.99063 133.88188Q132.99063 132.03813 132.475 131.21Q131.95938 130.36626 130.83438 130.36626Q129.725 130.36626 129.20938 131.21Q128.70938 132.03813 128.69376 133.7725L128.69376 136.085Q128.69376 137.92876 129.225 138.80376Q129.77188 139.67876 130.85 139.67876Q131.92813 139.67876 132.44376 138.85063Q132.95938 138.0225 132.99063 136.24126L132.99063 133.88188Z" fill-rule="nonzero"/><path fill="#757575" d="M69.05312 45.35L67.6 45.35L67.6 35.709373L64.67812 36.7875L64.67812 35.475L68.81875 33.9125L69.05312 33.9125L69.05312 45.35ZM80.75625 45.35L73.30312 45.35L73.30312 44.303123L77.24062 39.928123Q78.11562 38.94375 78.44375 38.31875Q78.77187 37.69375 78.77187 37.0375Q78.77187 36.146873 78.225 35.584373Q77.69375 35.00625 76.80312 35.00625Q75.725 35.00625 75.11562 35.615623Q74.52187 36.225 74.52187 37.31875L73.08437 37.31875Q73.08437 35.75625 74.08437 34.7875Q75.1 33.81875 76.80312 33.81875Q78.38125 33.81875 79.30312 34.646873Q80.225 35.475 80.225 36.865623Q80.225 38.5375 78.08437 40.865623L75.0375 44.1625L80.75625 44.1625L80.75625 45.35ZM82.95937 39.646873L83.5375 33.975L89.36562 33.975L89.36562 35.303123L84.77187 35.303123L84.42812 38.4125Q85.25625 37.9125 86.31875 37.9125Q87.88125 37.9125 88.7875 38.94375Q89.70937 39.975 89.70937 41.725Q89.70937 43.475 88.75625 44.490623Q87.80312 45.50625 86.1 45.50625Q84.6 45.50625 83.64687 44.678123Q82.69375 43.834373 82.55312 42.35L83.92812 42.35Q84.05312 43.334373 84.61562 43.834373Q85.17812 44.31875 86.1 44.31875Q87.11562 44.31875 87.67812 43.63125Q88.25625 42.94375 88.25625 41.740623Q88.25625 40.6 87.63125 39.9125Q87.02187 39.209373 85.99062 39.209373Q85.0375 39.209373 84.50625 39.63125L84.11562 39.94375L82.95937 39.646873ZM98.42812 40.490623Q98.42812 43.0375 97.55312 44.271873Q96.69375 45.50625 94.85 45.50625Q93.0375 45.50625 92.1625 44.303123Q91.2875 43.084373 91.25625 40.69375L91.25625 38.75625Q91.25625 36.25625 92.11562 35.0375Q92.99062 33.81875 94.83437 33.81875Q96.67812 33.81875 97.5375 34.990623Q98.4125 36.1625 98.42812 38.615623L98.42812 40.490623ZM96.99062 38.521873Q96.99062 36.678123 96.475 35.85Q95.95937 35.00625 94.83437 35.00625Q93.725 35.00625 93.20937 35.85Q92.70937 36.678123 92.69375 38.4125L92.69375 40.725Q92.69375 42.56875 93.225 43.44375Q93.77187 44.31875 94.85 44.31875Q95.92812 44.31875 96.44375 43.490623Q96.95937 42.6625 96.99062 40.88125L96.99062 38.521873ZM107.42812 40.490623Q107.42812 43.0375 106.55312 44.271873Q105.69375 45.50625 103.85 45.50625Q102.0375 45.50625 101.1625 44.303123Q100.2875 43.084373 100.25625 40.69375L100.25625 38.75625Q100.25625 36.25625 101.11562 35.0375Q101.99062 33.81875 103.83437 33.81875Q105.67812 33.81875 106.5375 34.990623Q107.4125 36.1625 107.42812 38.615623L107.42812 40.490623ZM105.99062 38.521873Q105.99062 36.678123 105.475 35.85Q104.95937 35.00625 103.83437 35.00625Q102.725 35.00625 102.20937 35.85Q101.70937 36.678123 101.69375 38.4125L101.69375 40.725Q101.69375 42.56875 102.225 43.44375Q102.77187 44.31875 103.85 44.31875Q104.92812 44.31875 105.44375 43.490623Q105.95937 42.6625 105.99062 40.88125L105.99062 38.521873ZM116.42812 40.490623Q116.42812 43.0375 115.55312 44.271873Q114.69375 45.50625 112.85 45.50625Q111.0375 45.50625 110.1625 44.303123Q109.2875 43.084373 109.25625 40.69375L109.25625 38.75625Q109.25625 36.25625 110.11562 35.0375Q110.99062 33.81875 112.83437 33.81875Q114.67812 33.81875 115.5375 34.990623Q116.4125 36.1625 116.42812 38.615623L116.42812 40.490623ZM114.99062 38.521873Q114.99062 36.678123 114.475 35.85Q113.95937 35.00625 112.83437 35.00625Q111.725 35.00625 111.20937 35.85Q110.70937 36.678123 110.69375 38.4125L110.69375 40.725Q110.69375 42.56875 111.225 43.44375Q111.77187 44.31875 112.85 44.31875Q113.92812 44.31875 114.44375 43.490623Q114.95937 42.6625 114.99062 40.88125L114.99062 38.521873ZM125.42812 40.490623Q125.42812 43.0375 124.55312 44.271873Q123.69375 45.50625 121.85 45.50625Q120.0375 45.50625 119.1625 44.303123Q118.2875 43.084373 118.25625 40.69375L118.25625 38.75625Q118.25625 36.25625 119.11562 35.0375Q119.99062 33.81875 121.83437 33.81875Q123.67812 33.81875 124.5375 34.990623Q125.4125 36.1625 125.42812 38.615623L125.42812 40.490623ZM123.99062 38.521873Q123.99062 36.678123 123.475 35.85Q122.95937 35.00625 121.83437 35.00625Q120.725 35.00625 120.20937 35.85Q119.70937 36.678123 119.69375 38.4125L119.69375 40.725Q119.69375 42.56875 120.225 43.44375Q120.77187 44.31875 121.85 44.31875Q122.92812 44.31875 123.44375 43.490623Q123.95937 42.6625 123.99062 40.88125L123.99062 38.521873ZM134.42813 40.490623Q134.42813 43.0375 133.55313 44.271873Q132.69376 45.50625 130.85 45.50625Q129.0375 45.50625 128.1625 44.303123Q127.2875 43.084373 127.25625 40.69375L127.25625 38.75625Q127.25625 36.25625 128.11563 35.0375Q128.99063 33.81875 130.83438 33.81875Q132.67813 33.81875 133.5375 34.990623Q134.4125 36.1625 134.42813 38.615623L134.42813 40.490623ZM132.99063 38.521873Q132.99063 36.678123 132.475 35.85Q131.95938 35.00625 130.83438 35.00625Q129.725 35.00625 129.20938 35.85Q128.70938 36.678123 128.69376 38.4125L128.69376 40.725Q128.69376 42.56875 129.225 43.44375Q129.77188 44.31875 130.85 44.31875Q131.92813 44.31875 132.44376 43.490623Q132.95938 42.6625 132.99063 40.88125L132.99063 38.521873Z" fill-rule="nonzero"/><path fill="#757575" d="M164.76062 539.65L163.3075 539.65L163.3075 530.0094L160.38562 531.0875L160.38562 529.775L164.52625 528.2125L164.76062 528.2125L164.76062 539.65Z" fill-rule="nonzero"/><path fill="#757575" d="M207.87875 539.65L200.42563 539.65L200.42563 538.60315L204.36313 534.22815Q205.23813 533.2438 205.56625 532.6188Q205.89438 531.9938 205.89438 531.3375Q205.89438 530.4469 205.3475 529.8844Q204.81625 529.3063 203.92563 529.3063Q202.8475 529.3063 202.23813 529.91565Q201.64438 530.525 201.64438 531.6188L200.20688 531.6188Q200.20688 530.0563 201.20688 529.0875Q202.2225 528.1188 203.92563 528.1188Q205.50375 528.1188 206.42563 528.9469Q207.3475 529.775 207.3475 531.16565Q207.3475 532.8375 205.20688 535.16565L202.16 538.4625L207.87875 538.4625L207.87875 539.65Z" fill-rule="nonzero"/><path fill="#757575" d="M242.93437 533.2594L244.02812 533.2594Q245.04375 533.2438 245.62187 532.72815Q246.21562 532.1969 246.21562 531.3063Q246.21562 529.3063 244.23125 529.3063Q243.29375 529.3063 242.73125 529.8375Q242.16875 530.3688 242.16875 531.2594L240.73125 531.2594Q240.73125 529.9 241.71562 529.0094Q242.7 528.1188 244.23125 528.1188Q245.84062 528.1188 246.74687 528.97815Q247.66875 529.8219 247.66875 531.3375Q247.66875 532.0719 247.18437 532.775Q246.7 533.4625 245.87187 533.8063Q246.80937 534.10315 247.325 534.79065Q247.84062 535.47815 247.84062 536.47815Q247.84062 538.0094 246.84062 538.91565Q245.84062 539.8063 244.23125 539.8063Q242.6375 539.8063 241.62187 538.9469Q240.62187 538.0719 240.62187 536.65L242.075 536.65Q242.075 537.54065 242.65312 538.0875Q243.24687 538.6188 244.23125 538.6188Q245.27812 538.6188 245.825 538.0719Q246.3875 537.525 246.3875 536.5094Q246.3875 535.5094 245.77812 534.97815Q245.16875 534.4469 244.02812 534.4313L242.93437 534.4313L242.93437 533.2594Z" fill-rule="nonzero"/><path fill="#757575" d="M287.34937 535.8219L288.9275 535.8219L288.9275 537.0094L287.34937 537.0094L287.34937 539.65L285.89624 539.65L285.89624 537.0094L280.72437 537.0094L280.72437 536.15L285.8181 528.275L287.34937 528.275L287.34937 535.8219ZM282.365 535.8219L285.89624 535.8219L285.89624 530.2438L285.72437 530.5563L282.365 535.8219Z" fill-rule="nonzero"/><path fill="#757575" d="M322.32687 533.9469L322.905 528.275L328.73312 528.275L328.73312 529.60315L324.13937 529.60315L323.79562 532.7125Q324.62375 532.2125 325.68625 532.2125Q327.24875 532.2125 328.155 533.2438Q329.07687 534.275 329.07687 536.025Q329.07687 537.775 328.12375 538.79065Q327.17062 539.8063 325.4675 539.8063Q323.9675 539.8063 323.01437 538.97815Q322.06125 538.1344 321.92062 536.65L323.29562 536.65Q323.42062 537.6344 323.98312 538.1344Q324.54562 538.6188 325.4675 538.6188Q326.48312 538.6188 327.04562 537.9313Q327.62375 537.2438 327.62375 536.04065Q327.62375 534.9 326.99875 534.2125Q326.38937 533.5094 325.35812 533.5094Q324.405 533.5094 323.87375 533.9313L323.48312 534.2438L322.32687 533.9469Z" fill-rule="nonzero"/><path fill="#757575" d="M367.7575 528.2594L367.7575 529.4938L367.49188 529.4938Q365.80438 529.525 364.80438 530.4938Q363.80438 531.4625 363.64813 533.2125Q364.53876 532.1813 366.10126 532.1813Q367.58563 532.1813 368.46063 533.22815Q369.35126 534.275 369.35126 535.9313Q369.35126 537.6969 368.39813 538.7594Q367.445 539.8063 365.83563 539.8063Q364.195 539.8063 363.17938 538.5563Q362.16376 537.29065 362.16376 535.3219L362.16376 534.7594Q362.16376 531.6188 363.5075 529.9625Q364.85126 528.3063 367.49188 528.2594L367.7575 528.2594ZM365.85126 533.3844Q365.11688 533.3844 364.49188 533.8375Q363.86688 534.275 363.61688 534.9469L363.61688 535.47815Q363.61688 536.8844 364.24188 537.7438Q364.8825 538.60315 365.83563 538.60315Q366.80438 538.60315 367.36688 537.8844Q367.92938 537.16565 367.92938 536.0094Q367.92938 534.8375 367.35126 534.1188Q366.78876 533.3844 365.85126 533.3844Z" fill-rule="nonzero"/><path fill="#757575" d="M409.84436 529.0875L405.1256 539.65L403.61 539.65L408.3131 529.4625L402.15686 529.4625L402.15686 528.275L409.84436 528.275L409.84436 529.0875Z" fill-rule="nonzero"/><path fill="#757575" d="M449.80624 531.2438Q449.80624 532.0875 449.35312 532.7594Q448.91562 533.41565 448.15 533.79065Q449.04062 534.1813 449.55624 534.91565Q450.07187 535.65 450.07187 536.5719Q450.07187 538.0563 449.07187 538.9313Q448.0875 539.8063 446.4625 539.8063Q444.82187 539.8063 443.82187 538.9313Q442.8375 538.04065 442.8375 536.5719Q442.8375 535.65 443.3375 534.91565Q443.85312 534.16565 444.74374 533.79065Q443.97812 533.41565 443.54062 532.7594Q443.10312 532.0875 443.10312 531.2438Q443.10312 529.8063 444.025 528.9625Q444.94687 528.1188 446.4625 528.1188Q447.9625 528.1188 448.88437 528.9625Q449.80624 529.8063 449.80624 531.2438ZM448.63437 536.54065Q448.63437 535.5875 448.025 534.9938Q447.41562 534.3844 446.43124 534.3844Q445.4625 534.3844 444.86874 534.97815Q444.29062 535.5719 444.29062 536.54065Q444.29062 537.5094 444.85312 538.0719Q445.43124 538.6188 446.4625 538.6188Q447.47812 538.6188 448.05624 538.0719Q448.63437 537.5094 448.63437 536.54065ZM446.4625 529.3063Q445.60312 529.3063 445.07187 529.8375Q444.55624 530.35315 444.55624 531.2594Q444.55624 532.1344 445.07187 532.66565Q445.5875 533.1969 446.44687 533.1969Q447.32187 533.1969 447.8375 532.66565Q448.36874 532.1344 448.36874 531.275Q448.36874 530.4 447.82187 529.85315Q447.29062 529.3063 446.4625 529.3063Z" fill-rule="nonzero"/><path fill="#757575" d="M488.86188 534.65Q488.40875 535.1813 487.78375 535.5094Q487.15875 535.8375 486.40875 535.8375Q485.42438 535.8375 484.69 535.35315Q483.95563 534.8688 483.54938 533.9938Q483.15875 533.1188 483.15875 532.0563Q483.15875 530.91565 483.59625 530.0094Q484.03375 529.0875 484.83063 528.60315Q485.6275 528.1188 486.69 528.1188Q488.3775 528.1188 489.34625 529.3844Q490.315 530.6344 490.315 532.8219L490.315 533.2438Q490.315 536.5563 489.0025 538.0875Q487.69 539.6188 485.04938 539.66565L484.76813 539.66565L484.76813 538.4313L485.065 538.4313Q486.86188 538.4 487.815 537.5094Q488.78375 536.60315 488.86188 534.65ZM486.64313 534.65Q487.36188 534.65 487.97125 534.2125Q488.59625 533.7594 488.8775 533.10315L488.8775 532.525Q488.8775 531.10315 488.2525 530.2125Q487.64313 529.3219 486.69 529.3219Q485.73688 529.3219 485.15875 530.0563Q484.58063 530.775 484.58063 531.97815Q484.58063 533.1344 485.14313 533.9Q485.70563 534.65 486.64313 534.65Z" fill-rule="nonzero"/><path fill="#757575" d="M523.9956 539.65L522.5425 539.65L522.5425 530.0094L519.6206 531.0875L519.6206 529.775L523.7612 528.2125L523.9956 528.2125L523.9956 539.65ZM535.3706 534.79065Q535.3706 537.3375 534.4956 538.5719Q533.6362 539.8063 531.7925 539.8063Q529.98 539.8063 529.105 538.60315Q528.23 537.3844 528.1987 534.9938L528.1987 533.0563Q528.1987 530.5563 529.0581 529.3375Q529.9331 528.1188 531.77686 528.1188Q533.6206 528.1188 534.48 529.29065Q535.355 530.4625 535.3706 532.91565L535.3706 534.79065ZM533.9331 532.8219Q533.9331 530.97815 533.4175 530.15Q532.90186 529.3063 531.77686 529.3063Q530.6675 529.3063 530.15186 530.15Q529.65186 530.97815 529.6362 532.7125L529.6362 535.025Q529.6362 536.8688 530.1675 537.7438Q530.71436 538.6188 531.7925 538.6188Q532.8706 538.6188 533.3862 537.79065Q533.90186 536.9625 533.9331 535.1813L533.9331 532.8219Z" fill-rule="nonzero"/><path fill="#757575" d="M564.41064 539.65L562.9575 539.65L562.9575 530.0094L560.03564 531.0875L560.03564 529.775L564.1763 528.2125L564.41064 528.2125L564.41064 539.65ZM573.41064 539.65L571.9575 539.65L571.9575 530.0094L569.03564 531.0875L569.03564 529.775L573.1763 528.2125L573.41064 528.2125L573.41064 539.65Z" fill-rule="nonzero"/><path fill="#757575" d="M604.8256 539.65L603.3725 539.65L603.3725 530.0094L600.4506 531.0875L600.4506 529.775L604.59125 528.2125L604.8256 528.2125L604.8256 539.65ZM616.52875 539.65L609.0756 539.65L609.0756 538.60315L613.0131 534.22815Q613.8881 533.2438 614.21625 532.6188Q614.5444 531.9938 614.5444 531.3375Q614.5444 530.4469 613.9975 529.8844Q613.46625 529.3063 612.5756 529.3063Q611.4975 529.3063 610.8881 529.91565Q610.2944 530.525 610.2944 531.6188L608.8569 531.6188Q608.8569 530.0563 609.8569 529.0875Q610.8725 528.1188 612.5756 528.1188Q614.15375 528.1188 615.0756 528.9469Q615.9975 529.775 615.9975 531.16565Q615.9975 532.8375 613.8569 535.16565L610.81 538.4625L616.52875 538.4625L616.52875 539.65Z" fill-rule="nonzero"/><path fill="#757575" d="M645.2406 539.65L643.7875 539.65L643.7875 530.0094L640.8656 531.0875L640.8656 529.775L645.0062 528.2125L645.2406 528.2125L645.2406 539.65ZM651.58435 533.2594L652.6781 533.2594Q653.6937 533.2438 654.27185 532.72815Q654.8656 532.1969 654.8656 531.3063Q654.8656 529.3063 652.8812 529.3063Q651.9437 529.3063 651.3812 529.8375Q650.8187 530.3688 650.8187 531.2594L649.3812 531.2594Q649.3812 529.9 650.3656 529.0094Q651.35 528.1188 652.8812 528.1188Q654.4906 528.1188 655.39685 528.97815Q656.3187 529.8219 656.3187 531.3375Q656.3187 532.0719 655.83435 532.775Q655.35 533.4625 654.52185 533.8063Q655.45935 534.10315 655.975 534.79065Q656.4906 535.47815 656.4906 536.47815Q656.4906 538.0094 655.4906 538.91565Q654.4906 539.8063 652.8812 539.8063Q651.2875 539.8063 650.27185 538.9469Q649.27185 538.0719 649.27185 536.65L650.725 536.65Q650.725 537.54065 651.3031 538.0875Q651.89685 538.6188 652.8812 538.6188Q653.9281 538.6188 654.475 538.0719Q655.0375 537.525 655.0375 536.5094Q655.0375 535.5094 654.4281 534.97815Q653.8187 534.4469 652.6781 534.4313L651.58435 534.4313L651.58435 533.2594Z" fill-rule="nonzero"/><path fill="#757575" d="M685.65564 539.65L684.2025 539.65L684.2025 530.0094L681.28064 531.0875L681.28064 529.775L685.42126 528.2125L685.65564 528.2125L685.65564 539.65ZM695.9994 535.8219L697.5775 535.8219L697.5775 537.0094L695.9994 537.0094L695.9994 539.65L694.54626 539.65L694.54626 537.0094L689.3744 537.0094L689.3744 536.15L694.46814 528.275L695.9994 528.275L695.9994 535.8219ZM691.015 535.8219L694.54626 535.8219L694.54626 530.2438L694.3744 530.5563L691.015 535.8219Z" fill-rule="nonzero"/><path fill="#757575" d="M726.0706 539.65L724.6175 539.65L724.6175 530.0094L721.6956 531.0875L721.6956 529.775L725.83624 528.2125L726.0706 528.2125L726.0706 539.65ZM730.97687 533.9469L731.555 528.275L737.3831 528.275L737.3831 529.60315L732.78937 529.60315L732.4456 532.7125Q733.27374 532.2125 734.33624 532.2125Q735.89874 532.2125 736.805 533.2438Q737.72687 534.275 737.72687 536.025Q737.72687 537.775 736.77374 538.79065Q735.8206 539.8063 734.1175 539.8063Q732.6175 539.8063 731.66437 538.97815Q730.71124 538.1344 730.5706 536.65L731.9456 536.65Q732.0706 537.6344 732.6331 538.1344Q733.1956 538.6188 734.1175 538.6188Q735.1331 538.6188 735.6956 537.9313Q736.27374 537.2438 736.27374 536.04065Q736.27374 534.9 735.64874 534.2125Q735.03937 533.5094 734.0081 533.5094Q733.055 533.5094 732.52374 533.9313L732.1331 534.2438L730.97687 533.9469Z" fill-rule="nonzero"/><path fill="#757575" d="M766.4856 539.65L765.0325 539.65L765.0325 530.0094L762.1106 531.0875L762.1106 529.775L766.2512 528.2125L766.4856 528.2125L766.4856 539.65ZM776.4075 528.2594L776.4075 529.4938L776.14185 529.4938Q774.45435 529.525 773.45435 530.4938Q772.45435 531.4625 772.2981 533.2125Q773.1887 532.1813 774.7512 532.1813Q776.2356 532.1813 777.1106 533.22815Q778.0012 534.275 778.0012 535.9313Q778.0012 537.6969 777.0481 538.7594Q776.095 539.8063 774.4856 539.8063Q772.845 539.8063 771.82935 538.5563Q770.8137 537.29065 770.8137 535.3219L770.8137 534.7594Q770.8137 531.6188 772.1575 529.9625Q773.5012 528.3063 776.14185 528.2594L776.4075 528.2594ZM774.5012 533.3844Q773.76685 533.3844 773.14185 533.8375Q772.51685 534.275 772.26685 534.9469L772.26685 535.47815Q772.26685 536.8844 772.89185 537.7438Q773.5325 538.60315 774.4856 538.60315Q775.45435 538.60315 776.01685 537.8844Q776.57935 537.16565 776.57935 536.0094Q776.57935 534.8375 776.0012 534.1188Q775.4387 533.3844 774.5012 533.3844Z" fill-rule="nonzero"/><path fill="#757575" d="M806.90063 539.65L805.4475 539.65L805.4475 530.0094L802.52563 531.0875L802.52563 529.775L806.66626 528.2125L806.90063 528.2125L806.90063 539.65ZM818.4944 529.0875L813.77563 539.65L812.26 539.65L816.96313 529.4625L810.8069 529.4625L810.8069 528.275L818.4944 528.275L818.4944 529.0875Z" fill-rule="nonzero"/><path fill="#757575" d="M847.3156 539.65L845.8625 539.65L845.8625 530.0094L842.9406 531.0875L842.9406 529.775L847.08124 528.2125L847.3156 528.2125L847.3156 539.65ZM858.45624 531.2438Q858.45624 532.0875 858.0031 532.7594Q857.5656 533.41565 856.8 533.79065Q857.6906 534.1813 858.20624 534.91565Q858.72186 535.65 858.72186 536.5719Q858.72186 538.0563 857.72186 538.9313Q856.7375 539.8063 855.1125 539.8063Q853.47186 539.8063 852.47186 538.9313Q851.4875 538.04065 851.4875 536.5719Q851.4875 535.65 851.9875 534.91565Q852.5031 534.16565 853.39374 533.79065Q852.6281 533.41565 852.1906 532.7594Q851.7531 532.0875 851.7531 531.2438Q851.7531 529.8063 852.675 528.9625Q853.59686 528.1188 855.1125 528.1188Q856.6125 528.1188 857.53436 528.9625Q858.45624 529.8063 858.45624 531.2438ZM857.28436 536.54065Q857.28436 535.5875 856.675 534.9938Q856.0656 534.3844 855.08124 534.3844Q854.1125 534.3844 853.51874 534.97815Q852.9406 535.5719 852.9406 536.54065Q852.9406 537.5094 853.5031 538.0719Q854.08124 538.6188 855.1125 538.6188Q856.1281 538.6188 856.70624 538.0719Q857.28436 537.5094 857.28436 536.54065ZM855.1125 529.3063Q854.2531 529.3063 853.72186 529.8375Q853.20624 530.35315 853.20624 531.2594Q853.20624 532.1344 853.72186 532.66565Q854.2375 533.1969 855.09686 533.1969Q855.97186 533.1969 856.4875 532.66565Q857.01874 532.1344 857.01874 531.275Q857.01874 530.4 856.47186 529.85315Q855.9406 529.3063 855.1125 529.3063Z" fill-rule="nonzero"/><path fill="#757575" d="M887.73065 539.65L886.2775 539.65L886.2775 530.0094L883.35565 531.0875L883.35565 529.775L887.4963 528.2125L887.73065 528.2125L887.73065 539.65ZM897.5119 534.65Q897.0588 535.1813 896.4338 535.5094Q895.8088 535.8375 895.0588 535.8375Q894.0744 535.8375 893.34 535.35315Q892.60565 534.8688 892.1994 533.9938Q891.8088 533.1188 891.8088 532.0563Q891.8088 530.91565 892.2463 530.0094Q892.6838 529.0875 893.48065 528.60315Q894.2775 528.1188 895.34 528.1188Q897.0275 528.1188 897.9963 529.3844Q898.965 530.6344 898.965 532.8219L898.965 533.2438Q898.965 536.5563 897.6525 538.0875Q896.34 539.6188 893.6994 539.66565L893.41815 539.66565L893.41815 538.4313L893.715 538.4313Q895.5119 538.4 896.465 537.5094Q897.4338 536.60315 897.5119 534.65ZM895.29315 534.65Q896.0119 534.65 896.6213 534.2125Q897.2463 533.7594 897.5275 533.10315L897.5275 532.525Q897.5275 531.10315 896.9025 530.2125Q896.29315 529.3219 895.34 529.3219Q894.3869 529.3219 893.8088 530.0563Q893.23065 530.775 893.23065 531.97815Q893.23065 533.1344 893.79315 533.9Q894.35565 534.65 895.29315 534.65Z" fill-rule="nonzero"/><path fill="#757575" d="M930.84875 539.65L923.3956 539.65L923.3956 538.60315L927.3331 534.22815Q928.2081 533.2438 928.53625 532.6188Q928.8644 531.9938 928.8644 531.3375Q928.8644 530.4469 928.3175 529.8844Q927.78625 529.3063 926.8956 529.3063Q925.8175 529.3063 925.2081 529.91565Q924.6144 530.525 924.6144 531.6188L923.1769 531.6188Q923.1769 530.0563 924.1769 529.0875Q925.1925 528.1188 926.8956 528.1188Q928.47375 528.1188 929.3956 528.9469Q930.3175 529.775 930.3175 531.16565Q930.3175 532.8375 928.1769 535.16565L925.13 538.4625L930.84875 538.4625L930.84875 539.65ZM939.5206 534.79065Q939.5206 537.3375 938.6456 538.5719Q937.78625 539.8063 935.9425 539.8063Q934.13 539.8063 933.255 538.60315Q932.38 537.3844 932.34875 534.9938L932.34875 533.0563Q932.34875 530.5563 933.2081 529.3375Q934.0831 528.1188 935.9269 528.1188Q937.7706 528.1188 938.63 529.29065Q939.505 530.4625 939.5206 532.91565L939.5206 534.79065ZM938.0831 532.8219Q938.0831 530.97815 937.5675 530.15Q937.0519 529.3063 935.9269 529.3063Q934.8175 529.3063 934.3019 530.15Q933.8019 530.97815 933.78625 532.7125L933.78625 535.025Q933.78625 536.8688 934.3175 537.7438Q934.8644 538.6188 935.9425 538.6188Q937.0206 538.6188 937.53625 537.79065Q938.0519 536.9625 938.0831 535.1813L938.0831 532.8219Z" fill-rule="nonzero"/></svg>