<svg version="1.1" viewBox="0.0 0.0 738.0 607.0" fill="none" stroke="none" stroke-linecap="square" stroke-miterlimit="10" width="738" height="607" xmlns:xlink="http://www.w3.org/1999/xlink" xmlns="http://www.w3.org/2000/svg"><path fill="#ffffff" d="M0 0L738.0 0L738.0 607.0L0 607.0L0 0Z" fill-rule="nonzero"/><path fill="#ffffff" d="M0 0L738.0 0L738.0 607.0L0 607.0L0 0Z" fill-rule="nonzero"/><path stroke="#333333" stroke-width="1.0" stroke-linecap="butt" d="M98.5 522.5L707.5 522.5" fill-rule="nonzero"/><path stroke="#cccccc" stroke-width="1.0" stroke-linecap="butt" d="M98.5 360.5L707.5 360.5" fill-rule="nonzero"/><path stroke="#cccccc" stroke-width="1.0" stroke-linecap="butt" d="M98.5 198.5L707.5 198.5" fill-rule="nonzero"/><path stroke="#cccccc" stroke-width="1.0" stroke-linecap="butt" d="M98.5 36.5L707.5 36.5" fill-rule="nonzero"/><clipPath id="id_0"><path d="M98.35 36.85L707.65 36.85L707.65 522.65L98.35 522.65L98.35 36.85Z" clip-rule="nonzero"/></clipPath><path stroke="#00ffff" stroke-width="2.0" stroke-linecap="butt" clip-path="url(#id_0)" d="M113.5825 55.628567L144.0475 220.05646L174.5125 349.77887L204.9775 369.3081L235.4425 427.6093L265.9075 444.25513L296.3725 468.64243L326.8375 467.04166L357.3025 484.6663L387.7675 494.308L418.2325 499.0217L448.6975 498.37265L479.1625 502.58383L509.6275 502.59067L540.0925 511.19696L570.5575 515.59076L601.0225 515.75555L631.4875 515.89856L661.9525 511.78525L692.4175 516.19653" fill-rule="nonzero"/><path fill="#424242" d="M402.59375 570.7125L401.90625 571.41565L401.90625 573.65L400.82812 573.65L400.82812 564.65L401.90625 564.65L401.90625 570.0875L402.48438 569.4L404.46875 567.3063L405.78125 567.3063L403.3125 569.9625L406.07812 573.65L404.79688 573.65L402.59375 570.7125Z" fill-rule="nonzero"/><path fill="#424242" d="M40.662525 291.48438Q40.225025 291.48438 39.99065 291.82812Q39.74065 292.15625 39.568775 292.98438Q39.3969 293.79688 39.1469 294.28125Q38.8969 294.76562 38.568775 295.0Q38.225025 295.21875 37.756275 295.21875Q36.975025 295.21875 36.443775 294.5625Q35.8969 293.90625 35.8969 292.875Q35.8969 291.79688 36.4594 291.14062Q37.006275 290.46875 37.86565 290.46875L37.86565 291.54688Q37.42815 291.54688 37.11565 291.9375Q36.787525 292.3125 36.787525 292.875Q36.787525 293.46875 37.05315 293.8125Q37.30315 294.14062 37.7094 294.14062Q38.100025 294.14062 38.30315 293.82812Q38.506275 293.51562 38.693775 292.70312Q38.86565 291.89062 39.11565 291.39062Q39.36565 290.89062 39.725025 290.65625Q40.0844 290.40625 40.5844 290.40625Q41.443775 290.40625 41.9594 291.09375Q42.475025 291.76562 42.475025 292.84375Q42.475025 293.60938 42.2094 294.20312Q41.92815 294.78125 41.443775 295.10938Q40.9594 295.4375 40.3969 295.4375L40.3969 294.35938Q40.943775 294.32812 41.2719 293.92188Q41.5844 293.51562 41.5844 292.84375Q41.5844 292.23438 41.3344 291.85938Q41.0844 291.48438 40.662525 291.48438ZM40.662525 285.48438Q40.225025 285.48438 39.99065 285.82812Q39.74065 286.15625 39.568775 286.98438Q39.3969 287.79688 39.1469 288.28125Q38.8969 288.76562 38.568775 289.0Q38.225025 289.21875 37.756275 289.21875Q36.975025 289.21875 36.443775 288.5625Q35.8969 287.90625 35.8969 286.875Q35.8969 285.79688 36.4594 285.14062Q37.006275 284.46875 37.86565 284.46875L37.86565 285.54688Q37.42815 285.54688 37.11565 285.9375Q36.787525 286.3125 36.787525 286.875Q36.787525 287.46875 37.05315 287.8125Q37.30315 288.14062 37.7094 288.14062Q38.100025 288.14062 38.30315 287.82812Q38.506275 287.51562 38.693775 286.70312Q38.86565 285.89062 39.11565 285.39062Q39.36565 284.89062 39.725025 284.65625Q40.0844 284.40625 40.5844 284.40625Q41.443775 284.40625 41.9594 285.09375Q42.475025 285.76562 42.475025 286.84375Q42.475025 287.60938 42.2094 288.20312Q41.92815 288.78125 41.443775 289.10938Q40.9594 289.4375 40.3969 289.4375L40.3969 288.35938Q40.943775 288.32812 41.2719 287.92188Q41.5844 287.51562 41.5844 286.84375Q41.5844 286.23438 41.3344 285.85938Q41.0844 285.48438 40.662525 285.48438ZM42.475025 280.54688Q42.475025 281.84375 41.631275 282.65625Q40.7719 283.45312 39.350025 283.45312L39.162525 283.45312Q38.2094 283.45312 37.475025 283.09375Q36.725025 282.73438 36.318775 282.09375Q35.8969 281.4375 35.8969 280.6875Q35.8969 279.45312 36.7094 278.76562Q37.5219 278.07812 39.037525 278.07812L39.49065 278.07812L39.49065 282.375Q40.42815 282.34375 41.006275 281.82812Q41.5844 281.29688 41.5844 280.48438Q41.5844 279.92188 41.350025 279.53125Q41.11565 279.125 40.725025 278.8125L41.24065 278.15625Q42.475025 278.95312 42.475025 280.54688ZM36.787525 280.6875Q36.787525 281.34375 37.2719 281.79688Q37.74065 282.23438 38.600025 282.32812L38.600025 279.15625L38.5219 279.15625Q37.693775 279.20312 37.24065 279.60938Q36.787525 280.0 36.787525 280.6875Z" fill-rule="nonzero"/><path fill="#757575" d="M92.39687 523.1188Q92.39687 524.6969 91.85 525.47815Q91.31875 526.2438 90.1625 526.2438Q89.02187 526.2438 88.475 525.4938Q87.92812 524.7438 87.9125 523.2438L87.9125 522.04065Q87.9125 520.4625 88.44375 519.7125Q88.99062 518.9469 90.14687 518.9469Q91.30312 518.9469 91.83437 519.6813Q92.38125 520.41565 92.39687 521.9469L92.39687 523.1188ZM91.49062 521.8844Q91.49062 520.72815 91.1625 520.2125Q90.85 519.6813 90.14687 519.6813Q89.45937 519.6813 89.13125 520.2125Q88.81875 520.72815 88.81875 521.8063L88.81875 523.2594Q88.81875 524.41565 89.14687 524.9625Q89.49062 525.5094 90.1625 525.5094Q90.83437 525.5094 91.14687 524.9938Q91.475 524.47815 91.49062 523.3688L91.49062 521.8844Z" fill-rule="nonzero"/><path fill="#757575" d="M68.6 364.21667L63.94375 364.21667L63.94375 363.56042L66.39687 360.82605Q66.94375 360.21667 67.14687 359.82605Q67.36562 359.43542 67.36562 359.01355Q67.36562 358.46667 67.02187 358.1073Q66.69375 357.74792 66.13125 357.74792Q65.45937 357.74792 65.08437 358.13855Q64.70937 358.51355 64.70937 359.20105L63.803123 359.20105Q63.803123 358.21667 64.42812 357.62292Q65.06875 357.01355 66.13125 357.01355Q67.11562 357.01355 67.69375 357.52917Q68.27187 358.0448 68.27187 358.9198Q68.27187 359.96667 66.92812 361.4198L65.0375 363.4823L68.6 363.4823L68.6 364.21667ZM74.19375 360.93542L71.11562 360.93542L71.11562 363.45105L74.69375 363.45105L74.69375 364.21667L70.17812 364.21667L70.17812 357.1073L74.64687 357.1073L74.64687 357.87292L71.11562 357.87292L71.11562 360.1698L74.19375 360.1698L74.19375 360.93542ZM78.61562 360.40417L80.6 360.40417L80.6 361.26355L78.61562 361.26355L78.61562 363.49792L77.70937 363.49792L77.70937 361.26355L75.725 361.26355L75.725 360.40417L77.70937 360.40417L77.70937 358.32605L78.61562 358.32605L78.61562 360.40417ZM84.9125 364.21667L84.00625 364.21667L84.00625 358.20105L82.17812 358.8573L82.17812 358.0448L84.77187 357.07605L84.9125 357.07605L84.9125 364.21667ZM91.49062 357.1073L91.49062 357.87292L91.31875 357.87292Q90.27187 357.88855 89.64687 358.49792Q89.02187 359.09167 88.9125 360.20105Q89.475 359.56042 90.44375 359.56042Q91.38125 359.56042 91.92812 360.21667Q92.49062 360.8573 92.49062 361.90417Q92.49062 362.99792 91.88125 363.65417Q91.2875 364.31042 90.2875 364.31042Q89.27187 364.31042 88.63125 363.52917Q87.99062 362.74792 87.99062 361.51355L87.99062 361.1698Q87.99062 359.20105 88.81875 358.1698Q89.6625 357.12292 91.31875 357.1073L91.49062 357.1073ZM90.30312 360.31042Q89.83437 360.31042 89.44375 360.59167Q89.05312 360.8573 88.89687 361.27917L88.89687 361.6073Q88.89687 362.49792 89.2875 363.02917Q89.69375 363.56042 90.2875 363.56042Q90.89687 363.56042 91.24062 363.12292Q91.6 362.6698 91.6 361.93542Q91.6 361.20105 91.24062 360.76355Q90.88125 360.31042 90.30312 360.31042Z" fill-rule="nonzero"/><path fill="#757575" d="M67.75625 199.89272L68.74062 199.89272L68.74062 200.62709L67.75625 200.62709L67.75625 202.28334L66.85 202.28334L66.85 200.62709L63.615623 200.62709L63.615623 200.09584L66.7875 195.17397L67.75625 195.17397L67.75625 199.89272ZM64.63125 199.89272L66.85 199.89272L66.85 196.40834L66.74062 196.61147L64.63125 199.89272ZM74.19375 199.00209L71.11562 199.00209L71.11562 201.51772L74.69375 201.51772L74.69375 202.28334L70.17812 202.28334L70.17812 195.17397L74.64687 195.17397L74.64687 195.93959L71.11562 195.93959L71.11562 198.23647L74.19375 198.23647L74.19375 199.00209ZM78.61562 198.47084L80.6 198.47084L80.6 199.33022L78.61562 199.33022L78.61562 201.56459L77.70937 201.56459L77.70937 199.33022L75.725 199.33022L75.725 198.47084L77.70937 198.47084L77.70937 196.39272L78.61562 196.39272L78.61562 198.47084ZM84.9125 202.28334L84.00625 202.28334L84.00625 196.26772L82.17812 196.92397L82.17812 196.11147L84.77187 195.14272L84.9125 195.14272L84.9125 202.28334ZM91.49062 195.17397L91.49062 195.93959L91.31875 195.93959Q90.27187 195.95522 89.64687 196.56459Q89.02187 197.15834 88.9125 198.26772Q89.475 197.62709 90.44375 197.62709Q91.38125 197.62709 91.92812 198.28334Q92.49062 198.92397 92.49062 199.97084Q92.49062 201.06459 91.88125 201.72084Q91.2875 202.37709 90.2875 202.37709Q89.27187 202.37709 88.63125 201.59584Q87.99062 200.81459 87.99062 199.58022L87.99062 199.23647Q87.99062 197.26772 88.81875 196.23647Q89.6625 195.18959 91.31875 195.17397L91.49062 195.17397ZM90.30312 198.37709Q89.83437 198.37709 89.44375 198.65834Q89.05312 198.92397 88.89687 199.34584L88.89687 199.67397Q88.89687 200.56459 89.2875 201.09584Q89.69375 201.62709 90.2875 201.62709Q90.89687 201.62709 91.24062 201.18959Q91.6 200.73647 91.6 200.00209Q91.6 199.26772 91.24062 198.83022Q90.88125 198.37709 90.30312 198.37709Z" fill-rule="nonzero"/><path fill="#757575" d="M67.49062 33.240623L67.49062 34.00625L67.31875 34.00625Q66.27187 34.021873 65.64687 34.63125Q65.02187 35.225 64.9125 36.334373Q65.475 35.69375 66.44375 35.69375Q67.38125 35.69375 67.92812 36.35Q68.49062 36.990623 68.49062 38.0375Q68.49062 39.13125 67.88125 39.7875Q67.2875 40.44375 66.2875 40.44375Q65.27187 40.44375 64.63125 39.6625Q63.990623 38.88125 63.990623 37.646873L63.990623 37.303123Q63.990623 35.334373 64.81875 34.303123Q65.6625 33.25625 67.31875 33.240623L67.49062 33.240623ZM66.30312 36.44375Q65.83437 36.44375 65.44375 36.725Q65.05312 36.990623 64.89687 37.4125L64.89687 37.740623Q64.89687 38.63125 65.2875 39.1625Q65.69375 39.69375 66.2875 39.69375Q66.89687 39.69375 67.24062 39.25625Q67.6 38.803123 67.6 38.06875Q67.6 37.334373 67.24062 36.896873Q66.88125 36.44375 66.30312 36.44375ZM74.19375 37.06875L71.11562 37.06875L71.11562 39.584373L74.69375 39.584373L74.69375 40.35L70.17812 40.35L70.17812 33.240623L74.64687 33.240623L74.64687 34.00625L71.11562 34.00625L71.11562 36.303123L74.19375 36.303123L74.19375 37.06875ZM78.61562 36.5375L80.6 36.5375L80.6 37.396873L78.61562 37.396873L78.61562 39.63125L77.70937 39.63125L77.70937 37.396873L75.725 37.396873L75.725 36.5375L77.70937 36.5375L77.70937 34.459373L78.61562 34.459373L78.61562 36.5375ZM84.9125 40.35L84.00625 40.35L84.00625 34.334373L82.17812 34.990623L82.17812 34.178123L84.77187 33.209373L84.9125 33.209373L84.9125 40.35ZM91.49062 33.240623L91.49062 34.00625L91.31875 34.00625Q90.27187 34.021873 89.64687 34.63125Q89.02187 35.225 88.9125 36.334373Q89.475 35.69375 90.44375 35.69375Q91.38125 35.69375 91.92812 36.35Q92.49062 36.990623 92.49062 38.0375Q92.49062 39.13125 91.88125 39.7875Q91.2875 40.44375 90.2875 40.44375Q89.27187 40.44375 88.63125 39.6625Q87.99062 38.88125 87.99062 37.646873L87.99062 37.303123Q87.99062 35.334373 88.81875 34.303123Q89.6625 33.25625 91.31875 33.240623L91.49062 33.240623ZM90.30312 36.44375Q89.83437 36.44375 89.44375 36.725Q89.05312 36.990623 88.89687 37.4125L88.89687 37.740623Q88.89687 38.63125 89.2875 39.1625Q89.69375 39.69375 90.2875 39.69375Q90.89687 39.69375 91.24062 39.25625Q91.6 38.803123 91.6 38.06875Q91.6 37.334373 91.24062 36.896873Q90.88125 36.44375 90.30312 36.44375Z" fill-rule="nonzero"/><path fill="#757575" d="M114.34812 540.65L113.27 540.65L113.27 533.4313L111.0825 534.22815L111.0825 533.2438L114.19187 532.0719L114.34812 532.0719L114.34812 540.65Z" fill-rule="nonzero"/><path fill="#757575" d="M146.84438 540.65L141.25063 540.65L141.25063 539.8688L144.20375 536.5875Q144.86 535.8375 145.11 535.3844Q145.36 534.91565 145.36 534.41565Q145.36 533.7438 144.95375 533.3219Q144.56313 532.8844 143.87563 532.8844Q143.07875 532.8844 142.62563 533.35315Q142.1725 533.8063 142.1725 534.6344L141.09438 534.6344Q141.09438 533.4469 141.84438 532.72815Q142.61 531.9938 143.87563 531.9938Q145.07875 531.9938 145.76625 532.6188Q146.45375 533.2438 146.45375 534.29065Q146.45375 535.54065 144.84438 537.29065L142.56313 539.7594L146.84438 539.7594L146.84438 540.65Z" fill-rule="nonzero"/><path fill="#757575" d="M173.29375 535.85315L174.10625 535.85315Q174.8875 535.8375 175.325 535.4469Q175.7625 535.0563 175.7625 534.3844Q175.7625 532.8844 174.2625 532.8844Q173.55937 532.8844 173.1375 533.29065Q172.73125 533.6969 172.73125 534.35315L171.6375 534.35315Q171.6375 533.3375 172.37187 532.66565Q173.12187 531.9938 174.2625 531.9938Q175.46562 531.9938 176.15312 532.6344Q176.84062 533.275 176.84062 534.41565Q176.84062 534.97815 176.48125 535.4938Q176.12187 536.0094 175.49687 536.275Q176.2 536.4938 176.575 537.0094Q176.96562 537.525 176.96562 538.275Q176.96562 539.41565 176.21562 540.10315Q175.46562 540.775 174.2625 540.775Q173.075 540.775 172.30937 540.1188Q171.55937 539.4625 171.55937 538.4L172.65312 538.4Q172.65312 539.0719 173.09062 539.47815Q173.52812 539.8844 174.27812 539.8844Q175.05937 539.8844 175.46562 539.47815Q175.8875 539.0563 175.8875 538.29065Q175.8875 537.5563 175.43437 537.16565Q174.98125 536.7594 174.10625 536.7438L173.29375 536.7438L173.29375 535.85315Z" fill-rule="nonzero"/><path fill="#757575" d="M206.75874 537.79065L207.94624 537.79065L207.94624 538.66565L206.75874 538.66565L206.75874 540.65L205.68062 540.65L205.68062 538.66565L201.79 538.66565L201.79 538.025L205.6025 532.1188L206.75874 532.1188L206.75874 537.79065ZM203.02437 537.79065L205.68062 537.79065L205.68062 533.60315L205.54 533.8375L203.02437 537.79065Z" fill-rule="nonzero"/><path fill="#757575" d="M233.14563 536.3688L233.58313 532.1188L237.95813 532.1188L237.95813 533.1188L234.505 533.1188L234.23938 535.4469Q234.88 535.0719 235.67688 535.0719Q236.83313 535.0719 237.52063 535.85315Q238.20813 536.6188 238.20813 537.9313Q238.20813 539.2438 237.48938 540.0094Q236.78625 540.775 235.505 540.775Q234.38 540.775 233.66125 540.15Q232.9425 539.5094 232.84875 538.4L233.86438 538.4Q233.97375 539.1344 234.39563 539.5094Q234.8175 539.8844 235.505 539.8844Q236.255 539.8844 236.6925 539.3688Q237.13 538.85315 237.13 537.9469Q237.13 537.0875 236.66125 536.5719Q236.1925 536.0563 235.41125 536.0563Q234.70813 536.0563 234.30188 536.35315L234.02063 536.5875L233.14563 536.3688Z" fill-rule="nonzero"/><path fill="#757575" d="M267.37625 532.1188L267.37625 533.025L267.17313 533.025Q265.9075 533.0563 265.1575 533.79065Q264.4075 534.5094 264.2825 535.8219Q264.97 535.0563 266.12625 535.0563Q267.23563 535.0563 267.9075 535.8375Q268.57938 536.6188 268.57938 537.8688Q268.57938 539.1813 267.86063 539.97815Q267.14188 540.775 265.92313 540.775Q264.70438 540.775 263.93875 539.8375Q263.18875 538.8844 263.18875 537.4L263.18875 536.9938Q263.18875 534.6344 264.18875 533.3844Q265.18875 532.1344 267.17313 532.1188L267.37625 532.1188ZM265.95438 535.9625Q265.39188 535.9625 264.92313 536.29065Q264.45438 536.6188 264.26688 537.1344L264.26688 537.525Q264.26688 538.5875 264.73563 539.22815Q265.22 539.8688 265.92313 539.8688Q266.6575 539.8688 267.07938 539.3375Q267.50125 538.79065 267.50125 537.91565Q267.50125 537.04065 267.07938 536.5094Q266.6575 535.9625 265.95438 535.9625Z" fill-rule="nonzero"/><path fill="#757575" d="M299.09125 532.72815L295.56 540.65L294.41937 540.65L297.935 533.0094L293.32562 533.0094L293.32562 532.1188L299.09125 532.1188L299.09125 532.72815Z" fill-rule="nonzero"/><path fill="#757575" d="M329.22812 534.3375Q329.22812 534.97815 328.88437 535.47815Q328.54062 535.97815 327.97812 536.2594Q328.63437 536.54065 329.025 537.10315Q329.41562 537.65 329.41562 538.35315Q329.41562 539.4469 328.66562 540.1188Q327.93124 540.775 326.7125 540.775Q325.47812 540.775 324.72812 540.1188Q323.99374 539.4469 323.99374 538.35315Q323.99374 537.65 324.36874 537.10315Q324.74374 536.54065 325.41562 536.2594Q324.85312 535.97815 324.525 535.47815Q324.19687 534.97815 324.19687 534.3375Q324.19687 533.2594 324.88437 532.6344Q325.57187 531.9938 326.7125 531.9938Q327.8375 531.9938 328.525 532.6344Q329.22812 533.2594 329.22812 534.3375ZM328.3375 538.3219Q328.3375 537.60315 327.88437 537.16565Q327.43124 536.7125 326.69687 536.7125Q325.9625 536.7125 325.50937 537.16565Q325.07187 537.60315 325.07187 538.3375Q325.07187 539.0563 325.50937 539.47815Q325.94687 539.8844 326.7125 539.8844Q327.4625 539.8844 327.9 539.4625Q328.3375 539.04065 328.3375 538.3219ZM326.7125 532.8844Q326.07187 532.8844 325.66562 533.29065Q325.275 533.6813 325.275 534.3688Q325.275 535.0094 325.66562 535.41565Q326.05624 535.8219 326.69687 535.8219Q327.35312 535.8219 327.74374 535.41565Q328.13437 535.0094 328.13437 534.3688Q328.13437 533.7125 327.72812 533.3063Q327.32187 532.8844 326.7125 532.8844Z" fill-rule="nonzero"/><path fill="#757575" d="M358.66187 536.9Q358.33374 537.3063 357.84937 537.5563Q357.3806 537.79065 356.8181 537.79065Q356.08374 537.79065 355.53687 537.4313Q354.99 537.0719 354.6931 536.41565Q354.39624 535.7438 354.39624 534.9469Q354.39624 534.10315 354.70874 533.41565Q355.03687 532.72815 355.6306 532.3688Q356.24 531.9938 357.03687 531.9938Q358.3025 531.9938 359.02124 532.9469Q359.7556 533.9 359.7556 535.525L359.7556 535.8375Q359.7556 538.3375 358.77124 539.47815Q357.78687 540.6188 355.8025 540.65L355.58374 540.65L355.58374 539.7438L355.8181 539.7438Q357.16187 539.7125 357.8806 539.04065Q358.59937 538.3688 358.66187 536.9ZM356.99 536.9Q357.53687 536.9 357.99 536.5719Q358.45874 536.22815 358.6775 535.7438L358.6775 535.3063Q358.6775 534.2438 358.20874 533.5719Q357.74 532.9 357.03687 532.9Q356.3181 532.9 355.8806 533.4469Q355.45874 533.9938 355.45874 534.9Q355.45874 535.775 355.865 536.3375Q356.28687 536.9 356.99 536.9Z" fill-rule="nonzero"/><path fill="#757575" d="M385.0331 540.65L383.955 540.65L383.955 533.4313L381.7675 534.22815L381.7675 533.2438L384.87686 532.0719L385.0331 532.0719L385.0331 540.65ZM393.83 537.0094Q393.83 538.91565 393.17374 539.85315Q392.5331 540.775 391.1425 540.775Q389.7831 540.775 389.12686 539.8688Q388.4706 538.9625 388.43936 537.15L388.43936 535.7125Q388.43936 533.8219 389.08 532.91565Q389.73624 531.9938 391.12686 531.9938Q392.50186 531.9938 393.1581 532.8844Q393.81436 533.7594 393.83 535.60315L393.83 537.0094ZM392.73624 535.525Q392.73624 534.15 392.3456 533.525Q391.9706 532.8844 391.12686 532.8844Q390.29874 532.8844 389.9081 533.525Q389.5331 534.15 389.5331 535.4469L389.5331 537.1813Q389.5331 538.5563 389.92374 539.22815Q390.33 539.8844 391.1425 539.8844Q391.93936 539.8844 392.33 539.2594Q392.7206 538.6344 392.73624 537.3063L392.73624 535.525Z" fill-rule="nonzero"/><path fill="#757575" d="M415.49814 540.65L414.42 540.65L414.42 533.4313L412.2325 534.22815L412.2325 533.2438L415.3419 532.0719L415.49814 532.0719L415.49814 540.65ZM422.49814 540.65L421.42 540.65L421.42 533.4313L419.2325 534.22815L419.2325 533.2438L422.3419 532.0719L422.49814 532.0719L422.49814 540.65Z" fill-rule="nonzero"/><path fill="#757575" d="M445.96313 540.65L444.885 540.65L444.885 533.4313L442.6975 534.22815L442.6975 533.2438L445.8069 532.0719L445.96313 532.0719L445.96313 540.65ZM454.9944 540.65L449.40063 540.65L449.40063 539.8688L452.35376 536.5875Q453.01 535.8375 453.26 535.3844Q453.51 534.91565 453.51 534.41565Q453.51 533.7438 453.10376 533.3219Q452.71313 532.8844 452.02563 532.8844Q451.22876 532.8844 450.77563 533.35315Q450.3225 533.8063 450.3225 534.6344L449.2444 534.6344Q449.2444 533.4469 449.9944 532.72815Q450.76 531.9938 452.02563 531.9938Q453.22876 531.9938 453.91626 532.6188Q454.60376 533.2438 454.60376 534.29065Q454.60376 535.54065 452.9944 537.29065L450.71313 539.7594L454.9944 539.7594L454.9944 540.65Z" fill-rule="nonzero"/><path fill="#757575" d="M476.42813 540.65L475.35 540.65L475.35 533.4313L473.1625 534.22815L473.1625 533.2438L476.27188 532.0719L476.42813 532.0719L476.42813 540.65ZM481.44376 535.85315L482.25626 535.85315Q483.0375 535.8375 483.475 535.4469Q483.9125 535.0563 483.9125 534.3844Q483.9125 532.8844 482.4125 532.8844Q481.70938 532.8844 481.2875 533.29065Q480.88126 533.6969 480.88126 534.35315L479.7875 534.35315Q479.7875 533.3375 480.52188 532.66565Q481.27188 531.9938 482.4125 531.9938Q483.61563 531.9938 484.30313 532.6344Q484.99063 533.275 484.99063 534.41565Q484.99063 534.97815 484.63126 535.4938Q484.27188 536.0094 483.64688 536.275Q484.35 536.4938 484.725 537.0094Q485.11563 537.525 485.11563 538.275Q485.11563 539.41565 484.36563 540.10315Q483.61563 540.775 482.4125 540.775Q481.225 540.775 480.45938 540.1188Q479.70938 539.4625 479.70938 538.4L480.80313 538.4Q480.80313 539.0719 481.24063 539.47815Q481.67813 539.8844 482.42813 539.8844Q483.20938 539.8844 483.61563 539.47815Q484.0375 539.0563 484.0375 538.29065Q484.0375 537.5563 483.58438 537.16565Q483.13126 536.7594 482.25626 536.7438L481.44376 536.7438L481.44376 535.85315Z" fill-rule="nonzero"/><path fill="#757575" d="M506.89313 540.65L505.815 540.65L505.815 533.4313L503.6275 534.22815L503.6275 533.2438L506.73688 532.0719L506.89313 532.0719L506.89313 540.65ZM514.90875 537.79065L516.09625 537.79065L516.09625 538.66565L514.90875 538.66565L514.90875 540.65L513.8306 540.65L513.8306 538.66565L509.94 538.66565L509.94 538.025L513.7525 532.1188L514.90875 532.1188L514.90875 537.79065ZM511.17438 537.79065L513.8306 537.79065L513.8306 533.60315L513.69 533.8375L511.17438 537.79065Z" fill-rule="nonzero"/><path fill="#757575" d="M537.35815 540.65L536.28 540.65L536.28 533.4313L534.0925 534.22815L534.0925 533.2438L537.2019 532.0719L537.35815 532.0719L537.35815 540.65ZM541.29565 536.3688L541.73315 532.1188L546.10815 532.1188L546.10815 533.1188L542.655 533.1188L542.3894 535.4469Q543.03 535.0719 543.8269 535.0719Q544.98315 535.0719 545.67065 535.85315Q546.35815 536.6188 546.35815 537.9313Q546.35815 539.2438 545.6394 540.0094Q544.9363 540.775 543.655 540.775Q542.53 540.775 541.8113 540.15Q541.0925 539.5094 540.9988 538.4L542.0144 538.4Q542.1238 539.1344 542.54565 539.5094Q542.9675 539.8844 543.655 539.8844Q544.405 539.8844 544.8425 539.3688Q545.28 538.85315 545.28 537.9469Q545.28 537.0875 544.8113 536.5719Q544.3425 536.0563 543.5613 536.0563Q542.85815 536.0563 542.4519 536.35315L542.17065 536.5875L541.29565 536.3688Z" fill-rule="nonzero"/><path fill="#757575" d="M567.8231 540.65L566.745 540.65L566.745 533.4313L564.5575 534.22815L564.5575 533.2438L567.6669 532.0719L567.8231 532.0719L567.8231 540.65ZM575.52625 532.1188L575.52625 533.025L575.3231 533.025Q574.0575 533.0563 573.3075 533.79065Q572.5575 534.5094 572.4325 535.8219Q573.12 535.0563 574.27625 535.0563Q575.3856 535.0563 576.0575 535.8375Q576.7294 536.6188 576.7294 537.8688Q576.7294 539.1813 576.0106 539.97815Q575.2919 540.775 574.0731 540.775Q572.8544 540.775 572.08875 539.8375Q571.33875 538.8844 571.33875 537.4L571.33875 536.9938Q571.33875 534.6344 572.33875 533.3844Q573.33875 532.1344 575.3231 532.1188L575.52625 532.1188ZM574.1044 535.9625Q573.5419 535.9625 573.0731 536.29065Q572.6044 536.6188 572.4169 537.1344L572.4169 537.525Q572.4169 538.5875 572.8856 539.22815Q573.37 539.8688 574.0731 539.8688Q574.8075 539.8688 575.2294 539.3375Q575.65125 538.79065 575.65125 537.91565Q575.65125 537.04065 575.2294 536.5094Q574.8075 535.9625 574.1044 535.9625Z" fill-rule="nonzero"/><path fill="#757575" d="M598.28815 540.65L597.21 540.65L597.21 533.4313L595.0225 534.22815L595.0225 533.2438L598.1319 532.0719L598.28815 532.0719L598.28815 540.65ZM607.2413 532.72815L603.71 540.65L602.5694 540.65L606.085 533.0094L601.47565 533.0094L601.47565 532.1188L607.2413 532.1188L607.2413 532.72815Z" fill-rule="nonzero"/><path fill="#757575" d="M628.7531 540.65L627.675 540.65L627.675 533.4313L625.4875 534.22815L625.4875 533.2438L628.59686 532.0719L628.7531 532.0719L628.7531 540.65ZM637.3781 534.3375Q637.3781 534.97815 637.03436 535.47815Q636.6906 535.97815 636.1281 536.2594Q636.78436 536.54065 637.175 537.10315Q637.5656 537.65 637.5656 538.35315Q637.5656 539.4469 636.8156 540.1188Q636.08124 540.775 634.8625 540.775Q633.6281 540.775 632.8781 540.1188Q632.14374 539.4469 632.14374 538.35315Q632.14374 537.65 632.51874 537.10315Q632.89374 536.54065 633.5656 536.2594Q633.0031 535.97815 632.675 535.47815Q632.34686 534.97815 632.34686 534.3375Q632.34686 533.2594 633.03436 532.6344Q633.72186 531.9938 634.8625 531.9938Q635.9875 531.9938 636.675 532.6344Q637.3781 533.2594 637.3781 534.3375ZM636.4875 538.3219Q636.4875 537.60315 636.03436 537.16565Q635.58124 536.7125 634.84686 536.7125Q634.1125 536.7125 633.65936 537.16565Q633.22186 537.60315 633.22186 538.3375Q633.22186 539.0563 633.65936 539.47815Q634.09686 539.8844 634.8625 539.8844Q635.6125 539.8844 636.05 539.4625Q636.4875 539.04065 636.4875 538.3219ZM634.8625 532.8844Q634.22186 532.8844 633.8156 533.29065Q633.425 533.6813 633.425 534.3688Q633.425 535.0094 633.8156 535.41565Q634.20624 535.8219 634.84686 535.8219Q635.5031 535.8219 635.89374 535.41565Q636.28436 535.0094 636.28436 534.3688Q636.28436 533.7125 635.8781 533.3063Q635.47186 532.8844 634.8625 532.8844Z" fill-rule="nonzero"/><path fill="#757575" d="M659.21814 540.65L658.14 540.65L658.14 533.4313L655.9525 534.22815L655.9525 533.2438L659.0619 532.0719L659.21814 532.0719L659.21814 540.65ZM666.8119 536.9Q666.48376 537.3063 665.9994 537.5563Q665.53064 537.79065 664.96814 537.79065Q664.23376 537.79065 663.6869 537.4313Q663.14 537.0719 662.84314 536.41565Q662.54626 535.7438 662.54626 534.9469Q662.54626 534.10315 662.85876 533.41565Q663.1869 532.72815 663.78064 532.3688Q664.39 531.9938 665.1869 531.9938Q666.4525 531.9938 667.17126 532.9469Q667.90564 533.9 667.90564 535.525L667.90564 535.8375Q667.90564 538.3375 666.92126 539.47815Q665.9369 540.6188 663.9525 540.65L663.73376 540.65L663.73376 539.7438L663.96814 539.7438Q665.3119 539.7125 666.03064 539.04065Q666.7494 538.3688 666.8119 536.9ZM665.14 536.9Q665.6869 536.9 666.14 536.5719Q666.60876 536.22815 666.8275 535.7438L666.8275 535.3063Q666.8275 534.2438 666.35876 533.5719Q665.89 532.9 665.1869 532.9Q664.46814 532.9 664.03064 533.4469Q663.60876 533.9938 663.60876 534.9Q663.60876 535.775 664.015 536.3375Q664.4369 536.9 665.14 536.9Z" fill-rule="nonzero"/><path fill="#757575" d="M691.71436 540.65L686.1206 540.65L686.1206 539.8688L689.0737 536.5875Q689.73 535.8375 689.98 535.3844Q690.23 534.91565 690.23 534.41565Q690.23 533.7438 689.8237 533.3219Q689.4331 532.8844 688.7456 532.8844Q687.9487 532.8844 687.4956 533.35315Q687.0425 533.8063 687.0425 534.6344L685.96436 534.6344Q685.96436 533.4469 686.71436 532.72815Q687.48 531.9938 688.7456 531.9938Q689.9487 531.9938 690.6362 532.6188Q691.3237 533.2438 691.3237 534.29065Q691.3237 535.54065 689.71436 537.29065L687.4331 539.7594L691.71436 539.7594L691.71436 540.65ZM698.48 537.0094Q698.48 538.91565 697.8237 539.85315Q697.1831 540.775 695.7925 540.775Q694.4331 540.775 693.77686 539.8688Q693.1206 538.9625 693.08936 537.15L693.08936 535.7125Q693.08936 533.8219 693.73 532.91565Q694.3862 531.9938 695.77686 531.9938Q697.15186 531.9938 697.8081 532.8844Q698.46436 533.7594 698.48 535.60315L698.48 537.0094ZM697.3862 535.525Q697.3862 534.15 696.9956 533.525Q696.6206 532.8844 695.77686 532.8844Q694.9487 532.8844 694.5581 533.525Q694.1831 534.15 694.1831 535.4469L694.1831 537.1813Q694.1831 538.5563 694.5737 539.22815Q694.98 539.8844 695.7925 539.8844Q696.58936 539.8844 696.98 539.2594Q697.3706 538.6344 697.3862 537.3063L697.3862 535.525Z" fill-rule="nonzero"/></svg>