<svg version="1.1" viewBox="0.0 0.0 1183.0 613.0" fill="none" stroke="none" stroke-linecap="square" stroke-miterlimit="10" width="1183" height="613" xmlns:xlink="http://www.w3.org/1999/xlink" xmlns="http://www.w3.org/2000/svg"><path fill="#ffffff" d="M0 0L1183.0 0L1183.0 613.0L0 613.0L0 0Z" fill-rule="nonzero"/><path fill="#ffffff" d="M0 0L1183.0 0L1183.0 613.0L0 613.0L0 0Z" fill-rule="nonzero"/><path stroke="#333333" stroke-width="1.0" stroke-linecap="butt" d="M116.5 526.5L951.5 526.5" fill-rule="nonzero"/><path fill="#eeeeee" d="M94.5 548.5L116.5 527.5L951.5 527.5L929.5 548.5Z" fill-rule="nonzero"/><path stroke="#cccccc" stroke-width="1.0" stroke-linecap="butt" d="M116.5 405.5L951.5 405.5" fill-rule="nonzero"/><path stroke="#cccccc" stroke-width="1.0" stroke-linecap="butt" d="M116.5 284.5L951.5 284.5" fill-rule="nonzero"/><path stroke="#cccccc" stroke-width="1.0" stroke-linecap="butt" d="M116.5 163.5L951.5 163.5" fill-rule="nonzero"/><path stroke="#cccccc" stroke-width="1.0" stroke-linecap="butt" d="M116.5 42.5L951.5 42.5" fill-rule="nonzero"/><clipPath id="id_0"><path d="M94.65 42.65L951.57 42.65L951.57 548.35L94.65 548.35L94.65 42.65Z" clip-rule="nonzero"/></clipPath><path fill="#2b569f" clip-path="url(#id_0)" d="M393.0 523.0L393.0 526.0L376.0 543.0L376.0 540.0Z" fill-rule="nonzero"/><path fill="#689df6" clip-path="url(#id_0)" d="M376.0 540.0L308.0 540.0L325.0 523.0L393.0 523.0Z" fill-rule="nonzero"/><path stroke="#000000" stroke-width="0.0" stroke-linecap="butt" stroke-opacity="0.0" clip-path="url(#id_0)" d="M376.0 543.0L308.0 543.0L308.0 540.0L376.0 540.0Z" fill-rule="nonzero"/><path fill="#4285f4" clip-path="url(#id_0)" d="M376.0 543.0L308.0 543.0L308.0 540.0L376.0 540.0Z" fill-rule="nonzero"/><path fill="#8e2c24" clip-path="url(#id_0)" d="M462.0 522.0L462.0 526.0L445.0 543.0L445.0 539.0Z" fill-rule="nonzero"/><path fill="#e2695f" clip-path="url(#id_0)" d="M445.0 539.0L377.0 539.0L394.0 522.0L462.0 522.0Z" fill-rule="nonzero"/><path stroke="#000000" stroke-width="0.0" stroke-linecap="butt" stroke-opacity="0.0" clip-path="url(#id_0)" d="M445.0 543.0L377.0 543.0L377.0 539.0L445.0 539.0Z" fill-rule="nonzero"/><path fill="#db4437" clip-path="url(#id_0)" d="M445.0 543.0L377.0 543.0L377.0 539.0L445.0 539.0Z" fill-rule="nonzero"/><path fill="#9f7500" clip-path="url(#id_0)" d="M531.0 521.0L531.0 526.0L514.0 543.0L514.0 538.0Z" fill-rule="nonzero"/><path fill="#f6c333" clip-path="url(#id_0)" d="M514.0 538.0L446.0 538.0L463.0 521.0L531.0 521.0Z" fill-rule="nonzero"/><path stroke="#000000" stroke-width="0.0" stroke-linecap="butt" stroke-opacity="0.0" clip-path="url(#id_0)" d="M514.0 543.0L446.0 543.0L446.0 538.0L514.0 538.0Z" fill-rule="nonzero"/><path fill="#f4b400" clip-path="url(#id_0)" d="M514.0 543.0L446.0 543.0L446.0 538.0L514.0 538.0Z" fill-rule="nonzero"/><path fill="#0a6639" clip-path="url(#id_0)" d="M600.0 474.0L600.0 526.0L583.0 543.0L583.0 491.0Z" fill-rule="nonzero"/><path fill="#3fb179" clip-path="url(#id_0)" d="M583.0 491.0L515.0 491.0L532.0 474.0L600.0 474.0Z" fill-rule="nonzero"/><path stroke="#000000" stroke-width="0.0" stroke-linecap="butt" stroke-opacity="0.0" clip-path="url(#id_0)" d="M583.0 543.0L515.0 543.0L515.0 491.0L583.0 491.0Z" fill-rule="nonzero"/><path fill="#0f9d58" clip-path="url(#id_0)" d="M583.0 543.0L515.0 543.0L515.0 491.0L583.0 491.0Z" fill-rule="nonzero"/><path fill="#a64700" clip-path="url(#id_0)" d="M669.0 466.0L669.0 526.0L652.0 543.0L652.0 483.0Z" fill-rule="nonzero"/><path fill="#ff8a33" clip-path="url(#id_0)" d="M652.0 483.0L584.0 483.0L601.0 466.0L669.0 466.0Z" fill-rule="nonzero"/><path stroke="#000000" stroke-width="0.0" stroke-linecap="butt" stroke-opacity="0.0" clip-path="url(#id_0)" d="M652.0 543.0L584.0 543.0L584.0 483.0L652.0 483.0Z" fill-rule="nonzero"/><path fill="#ff6d00" clip-path="url(#id_0)" d="M652.0 543.0L584.0 543.0L584.0 483.0L652.0 483.0Z" fill-rule="nonzero"/><path fill="#2e7b81" clip-path="url(#id_0)" d="M738.0 60.0L738.0 526.0L721.0 543.0L721.0 77.0Z" fill-rule="nonzero"/><path fill="#6bcad1" clip-path="url(#id_0)" d="M721.0 77.0L653.0 77.0L670.0 60.0L738.0 60.0Z" fill-rule="nonzero"/><path stroke="#000000" stroke-width="0.0" stroke-linecap="butt" stroke-opacity="0.0" clip-path="url(#id_0)" d="M721.0 543.0L653.0 543.0L653.0 77.0L721.0 77.0Z" fill-rule="nonzero"/><path fill="#46bdc6" clip-path="url(#id_0)" d="M721.0 543.0L653.0 543.0L653.0 77.0L721.0 77.0Z" fill-rule="nonzero"/><path stroke="#ffffff" stroke-width="3.0" stroke-linejoin="round" stroke-linecap="round" d="M334.59375 511.2256Q334.59375 514.06934 333.60938 515.45996Q332.64062 516.8506 330.5625 516.8506Q328.51562 516.8506 327.53125 515.4912Q326.54688 514.13184 326.51562 511.44434L326.51562 509.27246Q326.51562 506.44434 327.48438 505.08496Q328.46875 503.70996 330.54688 503.70996Q332.60938 503.70996 333.57812 505.0381Q334.5625 506.3506 334.59375 509.1162L334.59375 511.2256ZM332.96875 508.9912Q332.96875 506.9287 332.375 505.9912Q331.79688 505.0381 330.54688 505.0381Q329.29688 505.0381 328.71875 505.9912Q328.15625 506.9287 328.14062 508.8662L328.14062 511.4756Q328.14062 513.5537 328.73438 514.5381Q329.34375 515.52246 330.5625 515.52246Q331.76562 515.52246 332.34375 514.6006Q332.9375 513.6631 332.96875 511.6631L332.96875 508.9912ZM336.67188 519.2256L335.75 518.6006Q336.57812 517.44434 336.60938 516.2256L336.60938 514.75684L338.20312 514.75684L338.20312 516.02246Q338.20312 516.9131 337.76562 517.8037Q337.34375 518.69434 336.67188 519.2256ZM348.82812 504.7881L343.53125 516.6787L341.82812 516.6787L347.10938 505.20996L340.17188 505.20996L340.17188 503.88184L348.82812 503.88184L348.82812 504.7881ZM356.9375 503.8662L356.9375 505.25684L356.64062 505.25684Q354.75 505.2881 353.625 506.38184Q352.5 507.45996 352.32812 509.44434Q353.32812 508.2881 355.07812 508.2881Q356.75 508.2881 357.75 509.4756Q358.75 510.64746 358.75 512.50684Q358.75 514.4756 357.67188 515.6631Q356.59375 516.8506 354.78125 516.8506Q352.95312 516.8506 351.79688 515.44434Q350.65625 514.0381 350.65625 511.8037L350.65625 511.1787Q350.65625 507.64746 352.15625 505.7881Q353.67188 503.9131 356.65625 503.8662L356.9375 503.8662ZM354.8125 509.63184Q353.96875 509.63184 353.26562 510.14746Q352.5625 510.64746 352.29688 511.39746L352.29688 511.9912Q352.29688 513.56934 353.0 514.5381Q353.71875 515.50684 354.78125 515.50684Q355.875 515.50684 356.5 514.70996Q357.14062 513.89746 357.14062 512.58496Q357.14062 511.25684 356.5 510.44434Q355.85938 509.63184 354.8125 509.63184Z" fill-rule="nonzero"/><path fill="#4285f4" d="M334.59375 511.2256Q334.59375 514.06934 333.60938 515.45996Q332.64062 516.8506 330.5625 516.8506Q328.51562 516.8506 327.53125 515.4912Q326.54688 514.13184 326.51562 511.44434L326.51562 509.27246Q326.51562 506.44434 327.48438 505.08496Q328.46875 503.70996 330.54688 503.70996Q332.60938 503.70996 333.57812 505.0381Q334.5625 506.3506 334.59375 509.1162L334.59375 511.2256ZM332.96875 508.9912Q332.96875 506.9287 332.375 505.9912Q331.79688 505.0381 330.54688 505.0381Q329.29688 505.0381 328.71875 505.9912Q328.15625 506.9287 328.14062 508.8662L328.14062 511.4756Q328.14062 513.5537 328.73438 514.5381Q329.34375 515.52246 330.5625 515.52246Q331.76562 515.52246 332.34375 514.6006Q332.9375 513.6631 332.96875 511.6631L332.96875 508.9912ZM336.67188 519.2256L335.75 518.6006Q336.57812 517.44434 336.60938 516.2256L336.60938 514.75684L338.20312 514.75684L338.20312 516.02246Q338.20312 516.9131 337.76562 517.8037Q337.34375 518.69434 336.67188 519.2256ZM348.82812 504.7881L343.53125 516.6787L341.82812 516.6787L347.10938 505.20996L340.17188 505.20996L340.17188 503.88184L348.82812 503.88184L348.82812 504.7881ZM356.9375 503.8662L356.9375 505.25684L356.64062 505.25684Q354.75 505.2881 353.625 506.38184Q352.5 507.45996 352.32812 509.44434Q353.32812 508.2881 355.07812 508.2881Q356.75 508.2881 357.75 509.4756Q358.75 510.64746 358.75 512.50684Q358.75 514.4756 357.67188 515.6631Q356.59375 516.8506 354.78125 516.8506Q352.95312 516.8506 351.79688 515.44434Q350.65625 514.0381 350.65625 511.8037L350.65625 511.1787Q350.65625 507.64746 352.15625 505.7881Q353.67188 503.9131 356.65625 503.8662L356.9375 503.8662ZM354.8125 509.63184Q353.96875 509.63184 353.26562 510.14746Q352.5625 510.64746 352.29688 511.39746L352.29688 511.9912Q352.29688 513.56934 353.0 514.5381Q353.71875 515.50684 354.78125 515.50684Q355.875 515.50684 356.5 514.70996Q357.14062 513.89746 357.14062 512.58496Q357.14062 511.25684 356.5 510.44434Q355.85938 509.63184 354.8125 509.63184Z" fill-rule="nonzero"/><path stroke="#ffffff" stroke-width="3.0" stroke-linejoin="round" stroke-linecap="round" d="M403.59375 510.66934Q403.59375 513.51306 402.60938 514.9037Q401.64062 516.2943 399.5625 516.2943Q397.51562 516.2943 396.53125 514.93494Q395.54688 513.57556 395.51562 510.8881L395.51562 508.71622Q395.51562 505.8881 396.48438 504.52872Q397.46875 503.15372 399.54688 503.15372Q401.60938 503.15372 402.57812 504.48184Q403.5625 505.79434 403.59375 508.55997L403.59375 510.66934ZM401.96875 508.43497Q401.96875 506.37247 401.375 505.43497Q400.79688 504.48184 399.54688 504.48184Q398.29688 504.48184 397.71875 505.43497Q397.15625 506.37247 397.14062 508.30997L397.14062 510.91934Q397.14062 512.99744 397.73438 513.9818Q398.34375 514.9662 399.5625 514.9662Q400.76562 514.9662 401.34375 514.0443Q401.9375 513.1068 401.96875 511.10684L401.96875 508.43497ZM405.67188 518.6693L404.75 518.0443Q405.57812 516.88806 405.60938 515.6693L405.60938 514.20056L407.20312 514.20056L407.20312 515.4662Q407.20312 516.3568 406.76562 517.24744Q406.34375 518.13806 405.67188 518.6693ZM417.32812 506.66934Q417.32812 507.62247 416.8125 508.37247Q416.3125 509.12247 415.45312 509.54434Q416.45312 509.96622 417.03125 510.79434Q417.625 511.62247 417.625 512.6693Q417.625 514.32556 416.5 515.30994Q415.375 516.2943 413.54688 516.2943Q411.70312 516.2943 410.59375 515.30994Q409.48438 514.32556 409.48438 512.6693Q409.48438 511.6381 410.04688 510.80997Q410.625 509.96622 411.625 509.52872Q410.76562 509.10684 410.26562 508.35684Q409.78125 507.60684 409.78125 506.66934Q409.78125 505.04434 410.8125 504.10684Q411.85938 503.15372 413.54688 503.15372Q415.23438 503.15372 416.28125 504.10684Q417.32812 505.04434 417.32812 506.66934ZM416.0 512.63806Q416.0 511.55997 415.3125 510.8881Q414.64062 510.2006 413.53125 510.2006Q412.4375 510.2006 411.76562 510.87247Q411.10938 511.54434 411.10938 512.63806Q411.10938 513.7162 411.75 514.3412Q412.40625 514.9662 413.54688 514.9662Q414.70312 514.9662 415.34375 514.3412Q416.0 513.7162 416.0 512.63806ZM413.54688 504.48184Q412.59375 504.48184 412.0 505.0756Q411.40625 505.66934 411.40625 506.68497Q411.40625 507.66934 411.98438 508.27872Q412.57812 508.87247 413.54688 508.87247Q414.53125 508.87247 415.10938 508.27872Q415.70312 507.66934 415.70312 506.7006Q415.70312 505.71622 415.09375 505.10684Q414.48438 504.48184 413.54688 504.48184ZM427.82812 504.23184L422.53125 516.12244L420.82812 516.12244L426.10938 504.65372L419.17188 504.65372L419.17188 503.3256L427.82812 503.3256L427.82812 504.23184Z" fill-rule="nonzero"/><path fill="#db4437" d="M403.59375 510.6693Q403.59375 513.51306 402.60938 514.9037Q401.64062 516.2943 399.5625 516.2943Q397.51562 516.2943 396.53125 514.93494Q395.54688 513.57556 395.51562 510.88806L395.51562 508.7162Q395.51562 505.88806 396.48438 504.5287Q397.46875 503.1537 399.54688 503.1537Q401.60938 503.1537 402.57812 504.4818Q403.5625 505.7943 403.59375 508.55994L403.59375 510.6693ZM401.96875 508.43494Q401.96875 506.37244 401.375 505.43494Q400.79688 504.4818 399.54688 504.4818Q398.29688 504.4818 397.71875 505.43494Q397.15625 506.37244 397.14062 508.30994L397.14062 510.9193Q397.14062 512.99744 397.73438 513.9818Q398.34375 514.9662 399.5625 514.9662Q400.76562 514.9662 401.34375 514.0443Q401.9375 513.1068 401.96875 511.1068L401.96875 508.43494ZM405.67188 518.6693L404.75 518.0443Q405.57812 516.88806 405.60938 515.6693L405.60938 514.20056L407.20312 514.20056L407.20312 515.4662Q407.20312 516.3568 406.76562 517.24744Q406.34375 518.13806 405.67188 518.6693ZM417.32812 506.6693Q417.32812 507.62244 416.8125 508.37244Q416.3125 509.12244 415.45312 509.5443Q416.45312 509.9662 417.03125 510.7943Q417.625 511.62244 417.625 512.6693Q417.625 514.32556 416.5 515.30994Q415.375 516.2943 413.54688 516.2943Q411.70312 516.2943 410.59375 515.30994Q409.48438 514.32556 409.48438 512.6693Q409.48438 511.63806 410.04688 510.80994Q410.625 509.9662 411.625 509.5287Q410.76562 509.1068 410.26562 508.3568Q409.78125 507.6068 409.78125 506.6693Q409.78125 505.0443 410.8125 504.1068Q411.85938 503.1537 413.54688 503.1537Q415.23438 503.1537 416.28125 504.1068Q417.32812 505.0443 417.32812 506.6693ZM416.0 512.63806Q416.0 511.55994 415.3125 510.88806Q414.64062 510.20056 413.53125 510.20056Q412.4375 510.20056 411.76562 510.87244Q411.10938 511.5443 411.10938 512.63806Q411.10938 513.7162 411.75 514.3412Q412.40625 514.9662 413.54688 514.9662Q414.70312 514.9662 415.34375 514.3412Q416.0 513.7162 416.0 512.63806ZM413.54688 504.4818Q412.59375 504.4818 412.0 505.07556Q411.40625 505.6693 411.40625 506.68494Q411.40625 507.6693 411.98438 508.2787Q412.57812 508.87244 413.54688 508.87244Q414.53125 508.87244 415.10938 508.2787Q415.70312 507.6693 415.70312 506.70056Q415.70312 505.7162 415.09375 505.1068Q414.48438 504.4818 413.54688 504.4818ZM427.82812 504.2318L422.53125 516.12244L420.82812 516.12244L426.10938 504.6537L419.17188 504.6537L419.17188 503.32556L427.82812 503.32556L427.82812 504.2318Z" fill-rule="nonzero"/><path stroke="#ffffff" stroke-width="3.0" stroke-linejoin="round" stroke-linecap="round" d="M469.90625 514.65686L468.26562 514.65686L468.26562 503.8131L465.0 505.01624L465.0 503.5475L469.65625 501.7975L469.90625 501.7975L469.90625 514.65686ZM474.67188 517.20374L473.75 516.57874Q474.57812 515.4225 474.60938 514.20374L474.60938 512.735L476.20312 512.735L476.20312 514.0006Q476.20312 514.89124 475.76562 515.78186Q475.34375 516.6725 474.67188 517.20374ZM483.90625 514.65686L482.26562 514.65686L482.26562 503.8131L479.0 505.01624L479.0 503.5475L483.65625 501.7975L483.90625 501.7975L483.90625 514.65686ZM496.32812 505.20374Q496.32812 506.15686 495.8125 506.90686Q495.3125 507.65686 494.45312 508.07874Q495.45312 508.5006 496.03125 509.32874Q496.625 510.15686 496.625 511.20374Q496.625 512.86 495.5 513.84436Q494.375 514.82874 492.54688 514.82874Q490.70312 514.82874 489.59375 513.84436Q488.48438 512.86 488.48438 511.20374Q488.48438 510.1725 489.04688 509.34436Q489.625 508.5006 490.625 508.0631Q489.76562 507.64124 489.26562 506.89124Q488.78125 506.14124 488.78125 505.20374Q488.78125 503.57874 489.8125 502.64124Q490.85938 501.6881 492.54688 501.6881Q494.23438 501.6881 495.28125 502.64124Q496.32812 503.57874 496.32812 505.20374ZM495.0 511.1725Q495.0 510.09436 494.3125 509.4225Q493.64062 508.735 492.53125 508.735Q491.4375 508.735 490.76562 509.40686Q490.10938 510.07874 490.10938 511.1725Q490.10938 512.2506 490.75 512.8756Q491.40625 513.5006 492.54688 513.5006Q493.70312 513.5006 494.34375 512.8756Q495.0 512.2506 495.0 511.1725ZM492.54688 503.01624Q491.59375 503.01624 491.0 503.61Q490.40625 504.20374 490.40625 505.21936Q490.40625 506.20374 490.98438 506.8131Q491.57812 507.40686 492.54688 507.40686Q493.53125 507.40686 494.10938 506.8131Q494.70312 506.20374 494.70312 505.235Q494.70312 504.2506 494.09375 503.64124Q493.48438 503.01624 492.54688 503.01624Z" fill-rule="nonzero"/><path fill="#f4b400" d="M469.90625 514.65686L468.26562 514.65686L468.26562 503.8131L465.0 505.01624L465.0 503.5475L469.65625 501.7975L469.90625 501.7975L469.90625 514.65686ZM474.67188 517.20374L473.75 516.57874Q474.57812 515.4225 474.60938 514.20374L474.60938 512.735L476.20312 512.735L476.20312 514.0006Q476.20312 514.89124 475.76562 515.78186Q475.34375 516.6725 474.67188 517.20374ZM483.90625 514.65686L482.26562 514.65686L482.26562 503.8131L479.0 505.01624L479.0 503.5475L483.65625 501.7975L483.90625 501.7975L483.90625 514.65686ZM496.32812 505.20374Q496.32812 506.15686 495.8125 506.90686Q495.3125 507.65686 494.45312 508.07874Q495.45312 508.5006 496.03125 509.32874Q496.625 510.15686 496.625 511.20374Q496.625 512.86 495.5 513.84436Q494.375 514.82874 492.54688 514.82874Q490.70312 514.82874 489.59375 513.84436Q488.48438 512.86 488.48438 511.20374Q488.48438 510.1725 489.04688 509.34436Q489.625 508.5006 490.625 508.0631Q489.76562 507.64124 489.26562 506.89124Q488.78125 506.14124 488.78125 505.20374Q488.78125 503.57874 489.8125 502.64124Q490.85938 501.6881 492.54688 501.6881Q494.23438 501.6881 495.28125 502.64124Q496.32812 503.57874 496.32812 505.20374ZM495.0 511.1725Q495.0 510.09436 494.3125 509.4225Q493.64062 508.735 492.53125 508.735Q491.4375 508.735 490.76562 509.40686Q490.10938 510.07874 490.10938 511.1725Q490.10938 512.2506 490.75 512.8756Q491.40625 513.5006 492.54688 513.5006Q493.70312 513.5006 494.34375 512.8756Q495.0 512.2506 495.0 511.1725ZM492.54688 503.01624Q491.59375 503.01624 491.0 503.61Q490.40625 504.20374 490.40625 505.21936Q490.40625 506.20374 490.98438 506.8131Q491.57812 507.40686 492.54688 507.40686Q493.53125 507.40686 494.10938 506.8131Q494.70312 506.20374 494.70312 505.235Q494.70312 504.2506 494.09375 503.64124Q493.48438 503.01624 492.54688 503.01624Z" fill-rule="nonzero"/><path stroke="#0f9d58" stroke-width="3.0" stroke-linejoin="round" stroke-linecap="round" d="M533.90625 514.9041L532.2656 514.9041L532.2656 504.06033L529.0 505.26346L529.0 503.7947L533.65625 502.0447L533.90625 502.0447L533.90625 514.9041ZM546.59375 509.45096Q546.59375 512.29474 545.6094 513.68536Q544.6406 515.076 542.5625 515.076Q540.5156 515.076 539.53125 513.7166Q538.5469 512.35724 538.5156 509.6697L538.5156 507.49783Q538.5156 504.6697 539.4844 503.31033Q540.46875 501.93533 542.5469 501.93533Q544.6094 501.93533 545.5781 503.26346Q546.5625 504.57596 546.59375 507.34158L546.59375 509.45096ZM544.96875 507.21658Q544.96875 505.15408 544.375 504.21658Q543.7969 503.26346 542.5469 503.26346Q541.2969 503.26346 540.71875 504.21658Q540.15625 505.15408 540.1406 507.09158L540.1406 509.70096Q540.1406 511.77908 540.7344 512.7635Q541.34375 513.74786 542.5625 513.74786Q543.7656 513.74786 544.34375 512.826Q544.9375 511.88846 544.96875 509.88846L544.96875 507.21658ZM548.6719 517.451L547.75 516.826Q548.5781 515.66974 548.6094 514.451L548.6094 512.98224L550.2031 512.98224L550.2031 514.24786Q550.2031 515.1385 549.7656 516.0291Q549.34375 516.91974 548.6719 517.451ZM560.3281 505.45096Q560.3281 506.40408 559.8125 507.15408Q559.3125 507.90408 558.4531 508.32596Q559.4531 508.74783 560.03125 509.57596Q560.625 510.40408 560.625 511.45096Q560.625 513.10724 559.5 514.0916Q558.375 515.076 556.5469 515.076Q554.7031 515.076 553.59375 514.0916Q552.4844 513.10724 552.4844 511.45096Q552.4844 510.4197 553.0469 509.59158Q553.625 508.74783 554.625 508.31033Q553.7656 507.88846 553.2656 507.13846Q552.78125 506.38846 552.78125 505.45096Q552.78125 503.82596 553.8125 502.88846Q554.8594 501.93533 556.5469 501.93533Q558.2344 501.93533 559.28125 502.88846Q560.3281 503.82596 560.3281 505.45096ZM559.0 511.4197Q559.0 510.34158 558.3125 509.6697Q557.6406 508.9822 556.53125 508.9822Q555.4375 508.9822 554.7656 509.65408Q554.1094 510.32596 554.1094 511.4197Q554.1094 512.49786 554.75 513.12286Q555.40625 513.74786 556.5469 513.74786Q557.7031 513.74786 558.34375 513.12286Q559.0 512.49786 559.0 511.4197ZM556.5469 503.26346Q555.59375 503.26346 555.0 503.8572Q554.40625 504.45096 554.40625 505.46658Q554.40625 506.45096 554.9844 507.06033Q555.5781 507.65408 556.5469 507.65408Q557.53125 507.65408 558.1094 507.06033Q558.7031 506.45096 558.7031 505.4822Q558.7031 504.49783 558.09375 503.88846Q557.4844 503.26346 556.5469 503.26346ZM570.3281 505.45096Q570.3281 506.40408 569.8125 507.15408Q569.3125 507.90408 568.4531 508.32596Q569.4531 508.74783 570.03125 509.57596Q570.625 510.40408 570.625 511.45096Q570.625 513.10724 569.5 514.0916Q568.375 515.076 566.5469 515.076Q564.7031 515.076 563.59375 514.0916Q562.4844 513.10724 562.4844 511.45096Q562.4844 510.4197 563.0469 509.59158Q563.625 508.74783 564.625 508.31033Q563.7656 507.88846 563.2656 507.13846Q562.78125 506.38846 562.78125 505.45096Q562.78125 503.82596 563.8125 502.88846Q564.8594 501.93533 566.5469 501.93533Q568.2344 501.93533 569.28125 502.88846Q570.3281 503.82596 570.3281 505.45096ZM569.0 511.4197Q569.0 510.34158 568.3125 509.6697Q567.6406 508.9822 566.53125 508.9822Q565.4375 508.9822 564.7656 509.65408Q564.1094 510.32596 564.1094 511.4197Q564.1094 512.49786 564.75 513.12286Q565.40625 513.74786 566.5469 513.74786Q567.7031 513.74786 568.34375 513.12286Q569.0 512.49786 569.0 511.4197ZM566.5469 503.26346Q565.59375 503.26346 565.0 503.8572Q564.40625 504.45096 564.40625 505.46658Q564.40625 506.45096 564.9844 507.06033Q565.5781 507.65408 566.5469 507.65408Q567.53125 507.65408 568.1094 507.06033Q568.7031 506.45096 568.7031 505.4822Q568.7031 504.49783 568.09375 503.88846Q567.4844 503.26346 566.5469 503.26346Z" fill-rule="nonzero"/><path fill="#ffffff" d="M533.90625 514.9041L532.2656 514.9041L532.2656 504.06036L529.0 505.2635L529.0 503.79474L533.65625 502.04474L533.90625 502.04474L533.90625 514.9041ZM546.59375 509.451Q546.59375 512.29474 545.6094 513.68536Q544.6406 515.076 542.5625 515.076Q540.5156 515.076 539.53125 513.7166Q538.5469 512.35724 538.5156 509.66974L538.5156 507.49786Q538.5156 504.66974 539.4844 503.31036Q540.46875 501.93536 542.5469 501.93536Q544.6094 501.93536 545.5781 503.2635Q546.5625 504.576 546.59375 507.3416L546.59375 509.451ZM544.96875 507.2166Q544.96875 505.1541 544.375 504.2166Q543.7969 503.2635 542.5469 503.2635Q541.2969 503.2635 540.71875 504.2166Q540.15625 505.1541 540.1406 507.0916L540.1406 509.701Q540.1406 511.7791 540.7344 512.7635Q541.34375 513.74786 542.5625 513.74786Q543.7656 513.74786 544.34375 512.826Q544.9375 511.8885 544.96875 509.8885L544.96875 507.2166ZM548.6719 517.451L547.75 516.826Q548.5781 515.66974 548.6094 514.451L548.6094 512.98224L550.2031 512.98224L550.2031 514.24786Q550.2031 515.1385 549.7656 516.0291Q549.34375 516.91974 548.6719 517.451ZM560.3281 505.451Q560.3281 506.4041 559.8125 507.1541Q559.3125 507.9041 558.4531 508.326Q559.4531 508.74786 560.03125 509.576Q560.625 510.4041 560.625 511.451Q560.625 513.10724 559.5 514.0916Q558.375 515.076 556.5469 515.076Q554.7031 515.076 553.59375 514.0916Q552.4844 513.10724 552.4844 511.451Q552.4844 510.41974 553.0469 509.5916Q553.625 508.74786 554.625 508.31036Q553.7656 507.8885 553.2656 507.1385Q552.78125 506.3885 552.78125 505.451Q552.78125 503.826 553.8125 502.8885Q554.8594 501.93536 556.5469 501.93536Q558.2344 501.93536 559.28125 502.8885Q560.3281 503.826 560.3281 505.451ZM559.0 511.41974Q559.0 510.3416 558.3125 509.66974Q557.6406 508.98224 556.53125 508.98224Q555.4375 508.98224 554.7656 509.6541Q554.1094 510.326 554.1094 511.41974Q554.1094 512.49786 554.75 513.12286Q555.40625 513.74786 556.5469 513.74786Q557.7031 513.74786 558.34375 513.12286Q559.0 512.49786 559.0 511.41974ZM556.5469 503.2635Q555.59375 503.2635 555.0 503.85724Q554.40625 504.451 554.40625 505.4666Q554.40625 506.451 554.9844 507.06036Q555.5781 507.6541 556.5469 507.6541Q557.53125 507.6541 558.1094 507.06036Q558.7031 506.451 558.7031 505.48224Q558.7031 504.49786 558.09375 503.8885Q557.4844 503.2635 556.5469 503.2635ZM570.3281 505.451Q570.3281 506.4041 569.8125 507.1541Q569.3125 507.9041 568.4531 508.326Q569.4531 508.74786 570.03125 509.576Q570.625 510.4041 570.625 511.451Q570.625 513.10724 569.5 514.0916Q568.375 515.076 566.5469 515.076Q564.7031 515.076 563.59375 514.0916Q562.4844 513.10724 562.4844 511.451Q562.4844 510.41974 563.0469 509.5916Q563.625 508.74786 564.625 508.31036Q563.7656 507.8885 563.2656 507.1385Q562.78125 506.3885 562.78125 505.451Q562.78125 503.826 563.8125 502.8885Q564.8594 501.93536 566.5469 501.93536Q568.2344 501.93536 569.28125 502.8885Q570.3281 503.826 570.3281 505.451ZM569.0 511.41974Q569.0 510.3416 568.3125 509.66974Q567.6406 508.98224 566.53125 508.98224Q565.4375 508.98224 564.7656 509.6541Q564.1094 510.326 564.1094 511.41974Q564.1094 512.49786 564.75 513.12286Q565.40625 513.74786 566.5469 513.74786Q567.7031 513.74786 568.34375 513.12286Q569.0 512.49786 569.0 511.41974ZM566.5469 503.2635Q565.59375 503.2635 565.0 503.85724Q564.40625 504.451 564.40625 505.4666Q564.40625 506.451 564.9844 507.06036Q565.5781 507.6541 566.5469 507.6541Q567.53125 507.6541 568.1094 507.06036Q568.7031 506.451 568.7031 505.48224Q568.7031 504.49786 568.09375 503.8885Q567.4844 503.2635 566.5469 503.2635Z" fill-rule="nonzero"/><path stroke="#ff6d00" stroke-width="3.0" stroke-linejoin="round" stroke-linecap="round" d="M602.90625 507.07782L601.2656 507.07782L601.2656 496.23407L598.0 497.4372L598.0 495.96844L602.65625 494.21844L602.90625 494.21844L602.90625 507.07782ZM615.9531 507.07782L607.5625 507.07782L607.5625 505.90594L612.0 500.98407Q612.9844 499.8747 613.34375 499.17157Q613.71875 498.46844 613.71875 497.71844Q613.71875 496.71844 613.1094 496.07782Q612.5156 495.4372 611.5 495.4372Q610.28125 495.4372 609.6094 496.14032Q608.9375 496.82782 608.9375 498.04657L607.3125 498.04657Q607.3125 496.28094 608.4531 495.20282Q609.59375 494.10907 611.5 494.10907Q613.28125 494.10907 614.3125 495.04657Q615.3594 495.98407 615.3594 497.53094Q615.3594 499.42157 612.9531 502.03094L609.53125 505.7497L615.9531 505.7497L615.9531 507.07782ZM617.6719 509.6247L616.75 508.9997Q617.5781 507.84344 617.6094 506.6247L617.6094 505.15594L619.2031 505.15594L619.2031 506.42157Q619.2031 507.3122 618.7656 508.20282Q618.34375 509.09344 617.6719 509.6247ZM622.3125 500.65594L622.96875 494.28094L629.5156 494.28094L629.5156 495.78094L624.34375 495.78094L623.9531 499.26532Q624.8906 498.71844 626.09375 498.71844Q627.84375 498.71844 628.8594 499.8747Q629.8906 501.03094 629.8906 502.9997Q629.8906 504.98407 628.8281 506.1247Q627.7656 507.2497 625.84375 507.2497Q624.1406 507.2497 623.0625 506.3122Q622.0 505.3747 621.8594 503.71844L623.3906 503.71844Q623.5469 504.8122 624.1719 505.3747Q624.8125 505.92157 625.84375 505.92157Q626.9844 505.92157 627.625 505.15594Q628.2656 504.3747 628.2656 503.01532Q628.2656 501.73407 627.5625 500.95282Q626.875 500.17157 625.71875 500.17157Q624.65625 500.17157 624.0469 500.64032L623.6094 500.9997L622.3125 500.65594ZM639.59375 501.6247Q639.59375 504.46844 638.6094 505.85907Q637.6406 507.2497 635.5625 507.2497Q633.5156 507.2497 632.53125 505.89032Q631.5469 504.53094 631.5156 501.84344L631.5156 499.67157Q631.5156 496.84344 632.4844 495.48407Q633.46875 494.10907 635.5469 494.10907Q637.6094 494.10907 638.5781 495.4372Q639.5625 496.7497 639.59375 499.51532L639.59375 501.6247ZM637.96875 499.39032Q637.96875 497.32782 637.375 496.39032Q636.7969 495.4372 635.5469 495.4372Q634.2969 495.4372 633.71875 496.39032Q633.15625 497.32782 633.1406 499.26532L633.1406 501.8747Q633.1406 503.95282 633.7344 504.9372Q634.34375 505.92157 635.5625 505.92157Q636.7656 505.92157 637.34375 504.9997Q637.9375 504.0622 637.96875 502.0622L637.96875 499.39032Z" fill-rule="nonzero"/><path fill="#000000" d="M602.90625 507.07782L601.2656 507.07782L601.2656 496.23407L598.0 497.4372L598.0 495.96844L602.65625 494.21844L602.90625 494.21844L602.90625 507.07782ZM615.9531 507.07782L607.5625 507.07782L607.5625 505.90594L612.0 500.98407Q612.9844 499.8747 613.34375 499.17157Q613.71875 498.46844 613.71875 497.71844Q613.71875 496.71844 613.1094 496.07782Q612.5156 495.4372 611.5 495.4372Q610.28125 495.4372 609.6094 496.14032Q608.9375 496.82782 608.9375 498.04657L607.3125 498.04657Q607.3125 496.28094 608.4531 495.20282Q609.59375 494.10907 611.5 494.10907Q613.28125 494.10907 614.3125 495.04657Q615.3594 495.98407 615.3594 497.53094Q615.3594 499.42157 612.9531 502.03094L609.53125 505.7497L615.9531 505.7497L615.9531 507.07782ZM617.6719 509.6247L616.75 508.9997Q617.5781 507.84344 617.6094 506.6247L617.6094 505.15594L619.2031 505.15594L619.2031 506.42157Q619.2031 507.3122 618.7656 508.20282Q618.34375 509.09344 617.6719 509.6247ZM622.3125 500.65594L622.96875 494.28094L629.5156 494.28094L629.5156 495.78094L624.34375 495.78094L623.9531 499.26532Q624.8906 498.71844 626.09375 498.71844Q627.84375 498.71844 628.8594 499.8747Q629.8906 501.03094 629.8906 502.9997Q629.8906 504.98407 628.8281 506.1247Q627.7656 507.2497 625.84375 507.2497Q624.1406 507.2497 623.0625 506.3122Q622.0 505.3747 621.8594 503.71844L623.3906 503.71844Q623.5469 504.8122 624.1719 505.3747Q624.8125 505.92157 625.84375 505.92157Q626.9844 505.92157 627.625 505.15594Q628.2656 504.3747 628.2656 503.01532Q628.2656 501.73407 627.5625 500.95282Q626.875 500.17157 625.71875 500.17157Q624.65625 500.17157 624.0469 500.64032L623.6094 500.9997L622.3125 500.65594ZM639.59375 501.6247Q639.59375 504.46844 638.6094 505.85907Q637.6406 507.2497 635.5625 507.2497Q633.5156 507.2497 632.53125 505.89032Q631.5469 504.53094 631.5156 501.84344L631.5156 499.67157Q631.5156 496.84344 632.4844 495.48407Q633.46875 494.10907 635.5469 494.10907Q637.6094 494.10907 638.5781 495.4372Q639.5625 496.7497 639.59375 499.51532L639.59375 501.6247ZM637.96875 499.39032Q637.96875 497.32782 637.375 496.39032Q636.7969 495.4372 635.5469 495.4372Q634.2969 495.4372 633.71875 496.39032Q633.15625 497.32782 633.1406 499.26532L633.1406 501.8747Q633.1406 503.95282 633.7344 504.9372Q634.34375 505.92157 635.5625 505.92157Q636.7656 505.92157 637.34375 504.9997Q637.9375 504.0622 637.96875 502.0622L637.96875 499.39032Z" fill-rule="nonzero"/><path stroke="#46bdc6" stroke-width="3.0" stroke-linejoin="round" stroke-linecap="round" d="M672.7969 95.580154Q672.28125 96.18953 671.5781 96.56453Q670.875 96.923904 670.03125 96.923904Q668.9219 96.923904 668.09375 96.37703Q667.28125 95.830154 666.8281 94.84578Q666.375 93.861404 666.375 92.65828Q666.375 91.37703 666.8594 90.34578Q667.3594 89.31453 668.25 88.78328Q669.1406 88.236404 670.34375 88.236404Q672.2344 88.236404 673.3281 89.65828Q674.4375 91.06453 674.4375 93.517654L674.4375 94.00203Q674.4375 97.736404 672.9531 99.455154Q671.4844 101.173904 668.5 101.22078L668.1875 101.22078L668.1875 99.84578L668.53125 99.84578Q670.53125 99.81453 671.6094 98.798904Q672.7031 97.78328 672.7969 95.580154ZM670.2969 95.580154Q671.1094 95.580154 671.7969 95.080154Q672.4844 94.580154 672.7969 93.84578L672.7969 93.18953Q672.7969 91.59578 672.1094 90.59578Q671.4219 89.580154 670.3594 89.580154Q669.28125 89.580154 668.625 90.40828Q667.9844 91.236404 667.9844 92.580154Q667.9844 93.87703 668.6094 94.736404Q669.2344 95.580154 670.2969 95.580154ZM682.9375 88.392654L682.9375 89.78328L682.6406 89.78328Q680.75 89.81453 679.625 90.90828Q678.5 91.986404 678.3281 93.97078Q679.3281 92.81453 681.0781 92.81453Q682.75 92.81453 683.75 94.00203Q684.75 95.173904 684.75 97.03328Q684.75 99.00203 683.6719 100.18953Q682.59375 101.37703 680.78125 101.37703Q678.9531 101.37703 677.7969 99.97078Q676.65625 98.56453 676.65625 96.330154L676.65625 95.705154Q676.65625 92.173904 678.15625 90.31453Q679.6719 88.43953 682.65625 88.392654L682.9375 88.392654ZM680.8125 94.15828Q679.96875 94.15828 679.2656 94.673904Q678.5625 95.173904 678.2969 95.923904L678.2969 96.517654Q678.2969 98.09578 679.0 99.06453Q679.71875 100.03328 680.78125 100.03328Q681.875 100.03328 682.5 99.236404Q683.1406 98.423904 683.1406 97.111404Q683.1406 95.78328 682.5 94.97078Q681.8594 94.15828 680.8125 94.15828ZM686.6719 103.75203L685.75 103.12703Q686.5781 101.97078 686.6094 100.75203L686.6094 99.28328L688.2031 99.28328L688.2031 100.548904Q688.2031 101.43953 687.7656 102.330154Q687.34375 103.22078 686.6719 103.75203ZM697.4219 96.90828L699.2031 96.90828L699.2031 98.236404L697.4219 98.236404L697.4219 101.205154L695.7969 101.205154L695.7969 98.236404L689.96875 98.236404L689.96875 97.28328L695.7031 88.40828L697.4219 88.40828L697.4219 96.90828ZM691.8125 96.90828L695.7969 96.90828L695.7969 90.62703L695.59375 90.986404L691.8125 96.90828ZM705.90625 101.205154L704.2656 101.205154L704.2656 90.361404L701.0 91.56453L701.0 90.09578L705.65625 88.34578L705.90625 88.34578L705.90625 101.205154Z" fill-rule="nonzero"/><path fill="#000000" d="M672.7969 95.580154Q672.28125 96.18953 671.5781 96.56453Q670.875 96.923904 670.03125 96.923904Q668.9219 96.923904 668.09375 96.37703Q667.28125 95.830154 666.8281 94.84578Q666.375 93.861404 666.375 92.65828Q666.375 91.37703 666.8594 90.34578Q667.3594 89.31453 668.25 88.78328Q669.1406 88.236404 670.34375 88.236404Q672.2344 88.236404 673.3281 89.65828Q674.4375 91.06453 674.4375 93.517654L674.4375 94.00203Q674.4375 97.736404 672.9531 99.455154Q671.4844 101.173904 668.5 101.22078L668.1875 101.22078L668.1875 99.84578L668.53125 99.84578Q670.53125 99.81453 671.6094 98.798904Q672.7031 97.78328 672.7969 95.580154ZM670.2969 95.580154Q671.1094 95.580154 671.7969 95.080154Q672.4844 94.580154 672.7969 93.84578L672.7969 93.18953Q672.7969 91.59578 672.1094 90.59578Q671.4219 89.580154 670.3594 89.580154Q669.28125 89.580154 668.625 90.40828Q667.9844 91.236404 667.9844 92.580154Q667.9844 93.87703 668.6094 94.736404Q669.2344 95.580154 670.2969 95.580154ZM682.9375 88.392654L682.9375 89.78328L682.6406 89.78328Q680.75 89.81453 679.625 90.90828Q678.5 91.986404 678.3281 93.97078Q679.3281 92.81453 681.0781 92.81453Q682.75 92.81453 683.75 94.00203Q684.75 95.173904 684.75 97.03328Q684.75 99.00203 683.6719 100.18953Q682.59375 101.37703 680.78125 101.37703Q678.9531 101.37703 677.7969 99.97078Q676.65625 98.56453 676.65625 96.330154L676.65625 95.705154Q676.65625 92.173904 678.15625 90.31453Q679.6719 88.43953 682.65625 88.392654L682.9375 88.392654ZM680.8125 94.15828Q679.96875 94.15828 679.2656 94.673904Q678.5625 95.173904 678.2969 95.923904L678.2969 96.517654Q678.2969 98.09578 679.0 99.06453Q679.71875 100.03328 680.78125 100.03328Q681.875 100.03328 682.5 99.236404Q683.1406 98.423904 683.1406 97.111404Q683.1406 95.78328 682.5 94.97078Q681.8594 94.15828 680.8125 94.15828ZM686.6719 103.75203L685.75 103.12703Q686.5781 101.97078 686.6094 100.75203L686.6094 99.28328L688.2031 99.28328L688.2031 100.548904Q688.2031 101.43953 687.7656 102.330154Q687.34375 103.22078 686.6719 103.75203ZM697.4219 96.90828L699.2031 96.90828L699.2031 98.236404L697.4219 98.236404L697.4219 101.205154L695.7969 101.205154L695.7969 98.236404L689.96875 98.236404L689.96875 97.28328L695.7031 88.40828L697.4219 88.40828L697.4219 96.90828ZM691.8125 96.90828L695.7969 96.90828L695.7969 90.62703L695.59375 90.986404L691.8125 96.90828ZM705.90625 101.205154L704.2656 101.205154L704.2656 90.361404L701.0 91.56453L701.0 90.09578L705.65625 88.34578L705.90625 88.34578L705.90625 101.205154Z" fill-rule="nonzero"/><path fill="#757575" d="M62.74375 527.2875Q62.74375 530.45935 61.665627 532.0062Q60.5875 533.5531 58.275 533.5531Q55.99375 533.5531 54.9 532.0375Q53.80625 530.52185 53.775 527.52185L53.775 525.1156Q53.775 521.975 54.853127 520.45935Q55.946877 518.9281 58.259377 518.9281Q60.55625 518.9281 61.634377 520.4125Q62.7125 521.8812 62.74375 524.9437L62.74375 527.2875ZM60.946877 524.8187Q60.946877 522.52185 60.290627 521.475Q59.65 520.4125 58.259377 520.4125Q56.86875 520.4125 56.228127 521.45935Q55.603127 522.5062 55.5875 524.6781L55.5875 527.5687Q55.5875 529.8656 56.24375 530.975Q56.915627 532.0687 58.275 532.0687Q59.61875 532.0687 60.259377 531.0375Q60.915627 530.0062 60.946877 527.77185L60.946877 524.8187ZM66.9625 522.7875L66.9625 528.95935Q66.97813 530.5531 67.47813 531.3187Q67.97813 532.08435 69.10313 532.08435Q71.05625 532.08435 71.66563 530.6L71.66563 522.7875L73.47813 522.7875L73.47813 533.35L71.8375 533.35L71.75938 532.225Q70.85313 533.5531 69.18125 533.5531Q67.75938 533.5531 66.9625 532.83435L66.9625 537.4125L65.15 537.4125L65.15 522.7875L66.9625 522.7875ZM82.16563 530.5531Q82.16563 529.8187 81.61875 529.4125Q81.07188 529.0062 79.69688 528.70935Q78.32188 528.4125 77.50938 528.0062Q76.7125 527.6 76.32188 527.0375Q75.94688 526.45935 75.94688 525.6781Q75.94688 524.3812 77.04063 523.4906Q78.13438 522.58435 79.85313 522.58435Q81.65 522.58435 82.75938 523.52185Q83.88438 524.4437 83.88438 525.8812L82.05625 525.8812Q82.05625 525.14685 81.43125 524.6156Q80.80625 524.0687 79.85313 524.0687Q78.85313 524.0687 78.29063 524.5062Q77.74375 524.9281 77.74375 525.6312Q77.74375 526.27185 78.25938 526.6156Q78.775 526.9437 80.13438 527.2562Q81.49375 527.5531 82.32188 527.975Q83.16563 528.3812 83.57188 528.975Q83.97813 529.5687 83.97813 530.4125Q83.97813 531.83435 82.8375 532.6937Q81.7125 533.5531 79.9 533.5531Q78.63438 533.5531 77.65 533.1Q76.68125 532.64685 76.11875 531.85Q75.57188 531.0375 75.57188 530.1L77.38438 530.1Q77.43125 531.0062 78.10313 531.5375Q78.79063 532.0687 79.9 532.0687Q80.93125 532.0687 81.54063 531.6625Q82.16563 531.2406 82.16563 530.5531Z" fill-rule="nonzero"/><path fill="#757575" d="M52.15 412.425L42.8375 412.425L42.8375 411.1281L47.759377 405.65936Q48.853127 404.40936 49.259377 403.64374Q49.68125 402.8625 49.68125 402.03436Q49.68125 400.925 49.009377 400.20624Q48.3375 399.4875 47.2125 399.4875Q45.853127 399.4875 45.103127 400.26874Q44.36875 401.03436 44.36875 402.39374L42.55625 402.39374Q42.55625 400.425 43.821877 399.22186Q45.0875 398.0031 47.2125 398.0031Q49.196877 398.0031 50.3375 399.05Q51.49375 400.09686 51.49375 401.8156Q51.49375 403.925 48.821877 406.8156L45.009377 410.95624L52.15 410.95624L52.15 412.425ZM54.665627 405.3L55.384377 398.20624L62.665627 398.20624L62.665627 399.8781L56.915627 399.8781L56.49375 403.7531Q57.540627 403.14374 58.86875 403.14374Q60.80625 403.14374 61.946877 404.425Q63.0875 405.70624 63.0875 407.89374Q63.0875 410.09686 61.9 411.3625Q60.7125 412.6281 58.5875 412.6281Q56.696877 412.6281 55.509377 411.58124Q54.321877 410.53436 54.15 408.6906L55.86875 408.6906Q56.025 409.90936 56.728127 410.53436Q57.43125 411.14374 58.5875 411.14374Q59.853127 411.14374 60.571877 410.28436Q61.290627 409.425 61.290627 407.90936Q61.290627 406.4875 60.509377 405.6281Q59.728127 404.7531 58.446877 404.7531Q57.259377 404.7531 56.5875 405.26874L56.103127 405.65936L54.665627 405.3ZM66.9625 401.8625L66.9625 408.03436Q66.97813 409.6281 67.47813 410.39374Q67.97813 411.15936 69.10313 411.15936Q71.05625 411.15936 71.66563 409.675L71.66563 401.8625L73.47813 401.8625L73.47813 412.425L71.8375 412.425L71.75938 411.3Q70.85313 412.6281 69.18125 412.6281Q67.75938 412.6281 66.9625 411.90936L66.9625 416.4875L65.15 416.4875L65.15 401.8625L66.9625 401.8625ZM82.16563 409.6281Q82.16563 408.89374 81.61875 408.4875Q81.07188 408.08124 79.69688 407.78436Q78.32188 407.4875 77.50938 407.08124Q76.7125 406.675 76.32188 406.1125Q75.94688 405.53436 75.94688 404.7531Q75.94688 403.45624 77.04063 402.5656Q78.13438 401.65936 79.85313 401.65936Q81.65 401.65936 82.75938 402.59686Q83.88438 403.51874 83.88438 404.95624L82.05625 404.95624Q82.05625 404.22186 81.43125 403.6906Q80.80625 403.14374 79.85313 403.14374Q78.85313 403.14374 78.29063 403.58124Q77.74375 404.0031 77.74375 404.70624Q77.74375 405.34686 78.25938 405.6906Q78.775 406.01874 80.13438 406.33124Q81.49375 406.6281 82.32188 407.05Q83.16563 407.45624 83.57188 408.05Q83.97813 408.64374 83.97813 409.4875Q83.97813 410.90936 82.8375 411.76874Q81.7125 412.6281 79.9 412.6281Q78.63438 412.6281 77.65 412.175Q76.68125 411.72186 76.11875 410.925Q75.57188 410.1125 75.57188 409.175L77.38438 409.175Q77.43125 410.08124 78.10313 410.6125Q78.79063 411.14374 79.9 411.14374Q80.93125 411.14374 81.54063 410.7375Q82.16563 410.3156 82.16563 409.6281Z" fill-rule="nonzero"/><path fill="#757575" d="M43.665627 284.375L44.384377 277.28125L51.665627 277.28125L51.665627 278.95312L45.915627 278.95312L45.49375 282.82812Q46.540627 282.21875 47.86875 282.21875Q49.80625 282.21875 50.946877 283.5Q52.0875 284.78125 52.0875 286.96875Q52.0875 289.17188 50.9 290.4375Q49.7125 291.70312 47.5875 291.70312Q45.696877 291.70312 44.509377 290.65625Q43.321877 289.60938 43.15 287.76562L44.86875 287.76562Q45.025 288.98438 45.728127 289.60938Q46.43125 290.21875 47.5875 290.21875Q48.853127 290.21875 49.571877 289.35938Q50.290627 288.5 50.290627 286.98438Q50.290627 285.5625 49.509377 284.70312Q48.728127 283.82812 47.446877 283.82812Q46.259377 283.82812 45.5875 284.34375L45.103127 284.73438L43.665627 284.375ZM62.74375 285.4375Q62.74375 288.60938 61.665627 290.15625Q60.5875 291.70312 58.275 291.70312Q55.99375 291.70312 54.9 290.1875Q53.80625 288.67188 53.775 285.67188L53.775 283.26562Q53.775 280.125 54.853127 278.60938Q55.946877 277.07812 58.259377 277.07812Q60.55625 277.07812 61.634377 278.5625Q62.7125 280.03125 62.74375 283.09375L62.74375 285.4375ZM60.946877 282.96875Q60.946877 280.67188 60.290627 279.625Q59.65 278.5625 58.259377 278.5625Q56.86875 278.5625 56.228127 279.60938Q55.603127 280.65625 55.5875 282.82812L55.5875 285.71875Q55.5875 288.01562 56.24375 289.125Q56.915627 290.21875 58.275 290.21875Q59.61875 290.21875 60.259377 289.1875Q60.915627 288.15625 60.946877 285.92188L60.946877 282.96875ZM66.9625 280.9375L66.9625 287.10938Q66.97813 288.70312 67.47813 289.46875Q67.97813 290.23438 69.10313 290.23438Q71.05625 290.23438 71.66563 288.75L71.66563 280.9375L73.47813 280.9375L73.47813 291.5L71.8375 291.5L71.75938 290.375Q70.85313 291.70312 69.18125 291.70312Q67.75938 291.70312 66.9625 290.98438L66.9625 295.5625L65.15 295.5625L65.15 280.9375L66.9625 280.9375ZM82.16563 288.70312Q82.16563 287.96875 81.61875 287.5625Q81.07188 287.15625 79.69688 286.85938Q78.32188 286.5625 77.50938 286.15625Q76.7125 285.75 76.32188 285.1875Q75.94688 284.60938 75.94688 283.82812Q75.94688 282.53125 77.04063 281.64062Q78.13438 280.73438 79.85313 280.73438Q81.65 280.73438 82.75938 281.67188Q83.88438 282.59375 83.88438 284.03125L82.05625 284.03125Q82.05625 283.29688 81.43125 282.76562Q80.80625 282.21875 79.85313 282.21875Q78.85313 282.21875 78.29063 282.65625Q77.74375 283.07812 77.74375 283.78125Q77.74375 284.42188 78.25938 284.76562Q78.775 285.09375 80.13438 285.40625Q81.49375 285.70312 82.32188 286.125Q83.16563 286.53125 83.57188 287.125Q83.97813 287.71875 83.97813 288.5625Q83.97813 289.98438 82.8375 290.84375Q81.7125 291.70312 79.9 291.70312Q78.63438 291.70312 77.65 291.25Q76.68125 290.79688 76.11875 290.0Q75.57188 289.1875 75.57188 288.25L77.38438 288.25Q77.43125 289.15625 78.10313 289.6875Q78.79063 290.21875 79.9 290.21875Q80.93125 290.21875 81.54063 289.8125Q82.16563 289.39062 82.16563 288.70312Z" fill-rule="nonzero"/><path fill="#757575" d="M52.009377 157.37187L46.11875 170.575L44.228127 170.575L50.103127 157.84062L42.4 157.84062L42.4 156.35625L52.009377 156.35625L52.009377 157.37187ZM54.665627 163.45L55.384377 156.35625L62.665627 156.35625L62.665627 158.02812L56.915627 158.02812L56.49375 161.90312Q57.540627 161.29375 58.86875 161.29375Q60.80625 161.29375 61.946877 162.575Q63.0875 163.85625 63.0875 166.04375Q63.0875 168.24687 61.9 169.5125Q60.7125 170.77812 58.5875 170.77812Q56.696877 170.77812 55.509377 169.73125Q54.321877 168.68437 54.15 166.84062L55.86875 166.84062Q56.025 168.05937 56.728127 168.68437Q57.43125 169.29375 58.5875 169.29375Q59.853127 169.29375 60.571877 168.43437Q61.290627 167.575 61.290627 166.05937Q61.290627 164.6375 60.509377 163.77812Q59.728127 162.90312 58.446877 162.90312Q57.259377 162.90312 56.5875 163.41875L56.103127 163.80937L54.665627 163.45ZM66.9625 160.0125L66.9625 166.18437Q66.97813 167.77812 67.47813 168.54375Q67.97813 169.30937 69.10313 169.30937Q71.05625 169.30937 71.66563 167.825L71.66563 160.0125L73.47813 160.0125L73.47813 170.575L71.8375 170.575L71.75938 169.45Q70.85313 170.77812 69.18125 170.77812Q67.75938 170.77812 66.9625 170.05937L66.9625 174.6375L65.15 174.6375L65.15 160.0125L66.9625 160.0125ZM82.16563 167.77812Q82.16563 167.04375 81.61875 166.6375Q81.07188 166.23125 79.69688 165.93437Q78.32188 165.6375 77.50938 165.23125Q76.7125 164.825 76.32188 164.2625Q75.94688 163.68437 75.94688 162.90312Q75.94688 161.60625 77.04063 160.71562Q78.13438 159.80937 79.85313 159.80937Q81.65 159.80937 82.75938 160.74687Q83.88438 161.66875 83.88438 163.10625L82.05625 163.10625Q82.05625 162.37187 81.43125 161.84062Q80.80625 161.29375 79.85313 161.29375Q78.85313 161.29375 78.29063 161.73125Q77.74375 162.15312 77.74375 162.85625Q77.74375 163.49687 78.25938 163.84062Q78.775 164.16875 80.13438 164.48125Q81.49375 164.77812 82.32188 165.2Q83.16563 165.60625 83.57188 166.2Q83.97813 166.79375 83.97813 167.6375Q83.97813 169.05937 82.8375 169.91875Q81.7125 170.77812 79.9 170.77812Q78.63438 170.77812 77.65 170.325Q76.68125 169.87187 76.11875 169.075Q75.57188 168.2625 75.57188 167.325L77.38438 167.325Q77.43125 168.23125 78.10313 168.7625Q78.79063 169.29375 79.9 169.29375Q80.93125 169.29375 81.54063 168.8875Q82.16563 168.46562 82.16563 167.77812Z" fill-rule="nonzero"/><path fill="#757575" d="M37.775 49.65L35.946877 49.65L35.946877 37.603127L32.30625 38.946877L32.30625 37.30625L37.49375 35.36875L37.775 35.36875L37.775 49.65ZM51.74375 43.5875Q51.74375 46.759377 50.665627 48.30625Q49.5875 49.853127 47.275 49.853127Q44.99375 49.853127 43.9 48.3375Q42.80625 46.821877 42.775 43.821877L42.775 41.415627Q42.775 38.275 43.853127 36.759377Q44.946877 35.228127 47.259377 35.228127Q49.55625 35.228127 50.634377 36.7125Q51.7125 38.18125 51.74375 41.24375L51.74375 43.5875ZM49.946877 41.11875Q49.946877 38.821877 49.290627 37.775Q48.65 36.7125 47.259377 36.7125Q45.86875 36.7125 45.228127 37.759377Q44.603127 38.80625 44.5875 40.978127L44.5875 43.86875Q44.5875 46.165627 45.24375 47.275Q45.915627 48.36875 47.275 48.36875Q48.61875 48.36875 49.259377 47.3375Q49.915627 46.30625 49.946877 44.071877L49.946877 41.11875ZM62.74375 43.5875Q62.74375 46.759377 61.665627 48.30625Q60.5875 49.853127 58.275 49.853127Q55.99375 49.853127 54.9 48.3375Q53.80625 46.821877 53.775 43.821877L53.775 41.415627Q53.775 38.275 54.853127 36.759377Q55.946877 35.228127 58.259377 35.228127Q60.55625 35.228127 61.634377 36.7125Q62.7125 38.18125 62.74375 41.24375L62.74375 43.5875ZM60.946877 41.11875Q60.946877 38.821877 60.290627 37.775Q59.65 36.7125 58.259377 36.7125Q56.86875 36.7125 56.228127 37.759377Q55.603127 38.80625 55.5875 40.978127L55.5875 43.86875Q55.5875 46.165627 56.24375 47.275Q56.915627 48.36875 58.275 48.36875Q59.61875 48.36875 60.259377 47.3375Q60.915627 46.30625 60.946877 44.071877L60.946877 41.11875ZM66.9625 39.0875L66.9625 45.259377Q66.97813 46.853127 67.47813 47.61875Q67.97813 48.384377 69.10313 48.384377Q71.05625 48.384377 71.66563 46.9L71.66563 39.0875L73.47813 39.0875L73.47813 49.65L71.8375 49.65L71.75938 48.525Q70.85313 49.853127 69.18125 49.853127Q67.75938 49.853127 66.9625 49.134377L66.9625 53.7125L65.15 53.7125L65.15 39.0875L66.9625 39.0875ZM82.16563 46.853127Q82.16563 46.11875 81.61875 45.7125Q81.07188 45.30625 79.69688 45.009377Q78.32188 44.7125 77.50938 44.30625Q76.7125 43.9 76.32188 43.3375Q75.94688 42.759377 75.94688 41.978127Q75.94688 40.68125 77.04063 39.790627Q78.13438 38.884377 79.85313 38.884377Q81.65 38.884377 82.75938 39.821877Q83.88438 40.74375 83.88438 42.18125L82.05625 42.18125Q82.05625 41.446877 81.43125 40.915627Q80.80625 40.36875 79.85313 40.36875Q78.85313 40.36875 78.29063 40.80625Q77.74375 41.228127 77.74375 41.93125Q77.74375 42.571877 78.25938 42.915627Q78.775 43.24375 80.13438 43.55625Q81.49375 43.853127 82.32188 44.275Q83.16563 44.68125 83.57188 45.275Q83.97813 45.86875 83.97813 46.7125Q83.97813 48.134377 82.8375 48.99375Q81.7125 49.853127 79.9 49.853127Q78.63438 49.853127 77.65 49.4Q76.68125 48.946877 76.11875 48.15Q75.57188 47.3375 75.57188 46.4L77.38438 46.4Q77.43125 47.30625 78.10313 47.8375Q78.79063 48.36875 79.9 48.36875Q80.93125 48.36875 81.54063 47.9625Q82.16563 47.540627 82.16563 46.853127Z" fill-rule="nonzero"/><path fill="#757575" d="M494.735 577.35L492.90686 577.35L492.90686 565.3031L489.26624 566.64685L489.26624 565.0062L494.45374 563.0687L494.735 563.0687L494.735 577.35ZM508.70374 571.2875Q508.70374 574.45935 507.6256 576.0062Q506.5475 577.5531 504.235 577.5531Q501.95374 577.5531 500.86 576.0375Q499.76624 574.52185 499.735 571.52185L499.735 569.1156Q499.735 565.975 500.8131 564.45935Q501.90686 562.9281 504.21936 562.9281Q506.51624 562.9281 507.59436 564.4125Q508.6725 565.8812 508.70374 568.9437L508.70374 571.2875ZM506.90686 568.8187Q506.90686 566.52185 506.2506 565.475Q505.61 564.4125 504.21936 564.4125Q502.82874 564.4125 502.1881 565.45935Q501.5631 566.5062 501.5475 568.6781L501.5475 571.5687Q501.5475 573.8656 502.20374 574.975Q502.8756 576.0687 504.235 576.0687Q505.57874 576.0687 506.21936 575.0375Q506.8756 574.0062 506.90686 571.77185L506.90686 568.8187ZM519.70374 571.2875Q519.70374 574.45935 518.6256 576.0062Q517.5475 577.5531 515.235 577.5531Q512.95374 577.5531 511.86 576.0375Q510.76624 574.52185 510.735 571.52185L510.735 569.1156Q510.735 565.975 511.8131 564.45935Q512.90686 562.9281 515.21936 562.9281Q517.51624 562.9281 518.59436 564.4125Q519.6725 565.8812 519.70374 568.9437L519.70374 571.2875ZM517.90686 568.8187Q517.90686 566.52185 517.2506 565.475Q516.61 564.4125 515.21936 564.4125Q513.82874 564.4125 513.1881 565.45935Q512.5631 566.5062 512.5475 568.6781L512.5475 571.5687Q512.5475 573.8656 513.20374 574.975Q513.8756 576.0687 515.235 576.0687Q516.57874 576.0687 517.21936 575.0375Q517.8756 574.0062 517.90686 571.77185L517.90686 568.8187ZM530.70374 571.2875Q530.70374 574.45935 529.6256 576.0062Q528.5475 577.5531 526.235 577.5531Q523.95374 577.5531 522.86 576.0375Q521.76624 574.52185 521.735 571.52185L521.735 569.1156Q521.735 565.975 522.8131 564.45935Q523.90686 562.9281 526.21936 562.9281Q528.51624 562.9281 529.59436 564.4125Q530.6725 565.8812 530.70374 568.9437L530.70374 571.2875ZM528.90686 568.8187Q528.90686 566.52185 528.2506 565.475Q527.61 564.4125 526.21936 564.4125Q524.82874 564.4125 524.1881 565.45935Q523.5631 566.5062 523.5475 568.6781L523.5475 571.5687Q523.5475 573.8656 524.20374 574.975Q524.8756 576.0687 526.235 576.0687Q527.57874 576.0687 528.21936 575.0375Q528.8756 574.0062 528.90686 571.77185L528.90686 568.8187ZM536.51624 570.64685L538.86 566.7875L540.96936 566.7875L537.51624 572.0062L541.07874 577.35L539.0006 577.35L536.5475 573.39685L534.11 577.35L532.01624 577.35L535.57874 572.0062L532.1256 566.7875L534.20374 566.7875L536.51624 570.64685Z" fill-rule="nonzero"/><path fill="#4285f4" d="M988.35 37.65C988.35 37.097713 988.7977 36.65 989.35 36.65L999.35 36.65C999.9023 36.65 1000.35 37.097713 1000.35 37.65L1000.35 47.65C1000.35 48.202286 999.9023 48.65 999.35 48.65L989.35 48.65C988.7977 48.65 988.35 48.202286 988.35 47.65Z" fill-rule="nonzero"/><path fill="#757575" d="M1014.1937 43.30625Q1011.77185 42.61875 1010.6781 41.61875Q1009.58435 40.603127 1009.58435 39.11875Q1009.58435 37.43125 1010.9281 36.3375Q1012.27185 35.228127 1014.4125 35.228127Q1015.8812 35.228127 1017.02185 35.80625Q1018.1781 36.36875 1018.8031 37.36875Q1019.4281 38.353127 1019.4281 39.540627L1017.5531 39.540627Q1017.5531 38.259377 1016.725 37.525Q1015.9125 36.775 1014.4125 36.775Q1013.02185 36.775 1012.2406 37.384377Q1011.475 37.99375 1011.475 39.0875Q1011.475 39.946877 1012.20935 40.55625Q1012.9437 41.15 1014.70935 41.65Q1016.4906 42.15 1017.4906 42.759377Q1018.4906 43.353127 1018.975 44.15Q1019.45935 44.946877 1019.45935 46.040627Q1019.45935 47.759377 1018.1156 48.80625Q1016.77185 49.853127 1014.5062 49.853127Q1013.0531 49.853127 1011.77185 49.290627Q1010.5062 48.728127 1009.8187 47.759377Q1009.1312 46.775 1009.1312 45.525L1011.02185 45.525Q1011.02185 46.821877 1011.975 47.571877Q1012.9281 48.30625 1014.5062 48.30625Q1015.9906 48.30625 1016.7875 47.7125Q1017.58435 47.103127 1017.58435 46.05625Q1017.58435 45.009377 1016.85 44.446877Q1016.1156 43.86875 1014.1937 43.30625ZM1030.6469 44.478127Q1030.6469 46.9 1029.5375 48.384377Q1028.4437 49.853127 1026.5531 49.853127Q1024.6312 49.853127 1023.52185 48.61875L1023.52185 53.7125L1021.725 53.7125L1021.725 39.0875L1023.3656 39.0875L1023.45935 40.259377Q1024.5531 38.884377 1026.5219 38.884377Q1028.4281 38.884377 1029.5375 40.321877Q1030.6469 41.759377 1030.6469 44.321877L1030.6469 44.478127ZM1028.8344 44.275Q1028.8344 42.49375 1028.0687 41.4625Q1027.3187 40.415627 1025.9906 40.415627Q1024.35 40.415627 1023.52185 41.86875L1023.52185 46.93125Q1024.3344 48.36875 1026.0062 48.36875Q1027.3031 48.36875 1028.0687 47.3375Q1028.8344 46.30625 1028.8344 44.275ZM1034.6781 49.65L1032.8812 49.65L1032.8812 34.65L1034.6781 34.65L1034.6781 49.65ZM1040.4281 35.43125L1045.0687 47.025L1049.725 35.43125L1052.1469 35.43125L1052.1469 49.65L1050.2719 49.65L1050.2719 44.11875L1050.4594 38.134377L1045.7875 49.65L1044.35 49.65L1039.6937 38.165627L1039.8812 44.11875L1039.8812 49.65L1038.0062 49.65L1038.0062 35.43125L1040.4281 35.43125ZM1056.6781 49.65L1054.8812 49.65L1054.8812 39.0875L1056.6781 39.0875L1056.6781 49.65ZM1054.725 36.275Q1054.725 35.8375 1054.9906 35.540627Q1055.2719 35.228127 1055.7875 35.228127Q1056.3187 35.228127 1056.5844 35.540627Q1056.8656 35.8375 1056.8656 36.275Q1056.8656 36.7125 1056.5844 37.009377Q1056.3187 37.30625 1055.7875 37.30625Q1055.2719 37.30625 1054.9906 37.009377Q1054.725 36.7125 1054.725 36.275ZM1061.4281 39.0875L1061.4906 40.415627Q1062.6937 38.884377 1064.6469 38.884377Q1068.0062 38.884377 1068.0219 42.665627L1068.0219 49.65L1066.225 49.65L1066.225 42.65Q1066.2094 41.509377 1065.6937 40.9625Q1065.1937 40.415627 1064.1 40.415627Q1063.225 40.415627 1062.5531 40.884377Q1061.8969 41.353127 1061.5219 42.11875L1061.5219 49.65L1059.725 49.65L1059.725 39.0875L1061.4281 39.0875ZM1081.9281 49.65L1080.0375 49.65L1080.0375 43.071877L1072.8812 43.071877L1072.8812 49.65L1071.0062 49.65L1071.0062 35.43125L1072.8812 35.43125L1072.8812 41.540627L1080.0375 41.540627L1080.0375 35.43125L1081.9281 35.43125L1081.9281 49.65ZM1089.1 49.853127Q1086.9594 49.853127 1085.6 48.446877Q1084.2562 47.025 1084.2562 44.665627L1084.2562 44.321877Q1084.2562 42.759377 1084.85 41.525Q1085.4594 40.290627 1086.5375 39.5875Q1087.6156 38.884377 1088.8812 38.884377Q1090.9437 38.884377 1092.0844 40.24375Q1093.225 41.603127 1093.225 44.134377L1093.225 44.884377L1086.0687 44.884377Q1086.1 46.446877 1086.975 47.415627Q1087.85 48.36875 1089.1937 48.36875Q1090.1625 48.36875 1090.8187 47.978127Q1091.4906 47.5875 1091.9906 46.946877L1093.0844 47.80625Q1091.7562 49.853127 1089.1 49.853127ZM1088.8812 40.36875Q1087.7875 40.36875 1087.0375 41.165627Q1086.3031 41.9625 1086.1312 43.4L1091.4125 43.4L1091.4125 43.259377Q1091.3344 41.884377 1090.6625 41.134377Q1090.0062 40.36875 1088.8812 40.36875ZM1102.2406 49.65Q1102.0844 49.3375 1101.9906 48.540627Q1100.725 49.853127 1098.975 49.853127Q1097.4125 49.853127 1096.4125 48.9625Q1095.4125 48.071877 1095.4125 46.7125Q1095.4125 45.071877 1096.6625 44.165627Q1097.9281 43.24375 1100.1937 43.24375L1101.9594 43.24375L1101.9594 42.415627Q1101.9594 41.4625 1101.3812 40.9Q1100.8187 40.3375 1099.725 40.3375Q1098.7562 40.3375 1098.1 40.8375Q1097.4437 41.321877 1097.4437 42.009377L1095.6312 42.009377Q1095.6312 41.228127 1096.1937 40.49375Q1096.7562 39.74375 1097.7094 39.321877Q1098.6781 38.884377 1099.8344 38.884377Q1101.6625 38.884377 1102.6937 39.80625Q1103.725 40.7125 1103.7719 42.321877L1103.7719 47.18125Q1103.7719 48.634377 1104.1312 49.49375L1104.1312 49.65L1102.2406 49.65ZM1099.2406 48.275Q1100.1 48.275 1100.85 47.8375Q1101.6156 47.4 1101.9594 46.696877L1101.9594 44.525L1100.5375 44.525Q1097.225 44.525 1097.225 46.4625Q1097.225 47.321877 1097.7875 47.80625Q1098.35 48.275 1099.2406 48.275ZM1115.6469 44.478127Q1115.6469 46.9 1114.5375 48.384377Q1113.4437 49.853127 1111.5531 49.853127Q1109.6312 49.853127 1108.5219 48.61875L1108.5219 53.7125L1106.725 53.7125L1106.725 39.0875L1108.3656 39.0875L1108.4594 40.259377Q1109.5531 38.884377 1111.5219 38.884377Q1113.4281 38.884377 1114.5375 40.321877Q1115.6469 41.759377 1115.6469 44.321877L1115.6469 44.478127ZM1113.8344 44.275Q1113.8344 42.49375 1113.0687 41.4625Q1112.3187 40.415627 1110.9906 40.415627Q1109.35 40.415627 1108.5219 41.86875L1108.5219 46.93125Q1109.3344 48.36875 1111.0062 48.36875Q1112.3031 48.36875 1113.0687 47.3375Q1113.8344 46.30625 1113.8344 44.275Z" fill-rule="nonzero"/><path fill="#db4437" d="M988.35 71.65C988.35 71.09772 988.7977 70.65 989.35 70.65L999.35 70.65C999.9023 70.65 1000.35 71.09772 1000.35 71.65L1000.35 81.65C1000.35 82.202286 999.9023 82.65 999.35 82.65L989.35 82.65C988.7977 82.65 988.35 82.202286 988.35 81.65Z" fill-rule="nonzero"/><path fill="#757575" d="M1020.5062 81.79063Q1019.77185 82.82188 1018.475 83.3375Q1017.1937 83.85313 1015.475 83.85313Q1013.725 83.85313 1012.3812 83.04063Q1011.0375 82.2125 1010.3031 80.7125Q1009.5687 79.2125 1009.5375 77.22813L1009.5375 75.97813Q1009.5375 72.775 1011.0375 71.00938Q1012.5375 69.22813 1015.2562 69.22813Q1017.475 69.22813 1018.83435 70.36875Q1020.1937 71.50938 1020.5062 73.60313L1018.6312 73.60313Q1018.1 70.775 1015.27185 70.775Q1013.3812 70.775 1012.4125 72.10313Q1011.4437 73.43125 1011.4281 75.93125L1011.4281 77.10313Q1011.4281 79.49375 1012.52185 80.9Q1013.6156 82.30625 1015.475 82.30625Q1016.5375 82.30625 1017.3187 82.07188Q1018.1156 81.8375 1018.6312 81.29063L1018.6312 78.0875L1015.35 78.0875L1015.35 76.57188L1020.5062 76.57188L1020.5062 81.79063ZM1028.1 83.85313Q1025.9594 83.85313 1024.6 82.44688Q1023.2562 81.025 1023.2562 78.66563L1023.2562 78.32188Q1023.2562 76.75938 1023.85 75.525Q1024.4594 74.29063 1025.5375 73.5875Q1026.6156 72.88438 1027.8812 72.88438Q1029.9437 72.88438 1031.0844 74.24375Q1032.225 75.60313 1032.225 78.13438L1032.225 78.88438L1025.0687 78.88438Q1025.1 80.44688 1025.975 81.41563Q1026.85 82.36875 1028.1937 82.36875Q1029.1625 82.36875 1029.8187 81.97813Q1030.4906 81.5875 1030.9906 80.94688L1032.0844 81.80625Q1030.7562 83.85313 1028.1 83.85313ZM1027.8812 74.36875Q1026.7875 74.36875 1026.0375 75.16563Q1025.3031 75.9625 1025.1312 77.4L1030.4125 77.4L1030.4125 77.25938Q1030.3344 75.88438 1029.6625 75.13438Q1029.0062 74.36875 1027.8812 74.36875ZM1036.4281 73.0875L1036.4906 74.41563Q1037.6937 72.88438 1039.6469 72.88438Q1043.0062 72.88438 1043.0219 76.66563L1043.0219 83.65L1041.225 83.65L1041.225 76.65Q1041.2094 75.50938 1040.6937 74.9625Q1040.1937 74.41563 1039.1 74.41563Q1038.225 74.41563 1037.5531 74.88438Q1036.8969 75.35313 1036.5219 76.11875L1036.5219 83.65L1034.725 83.65L1034.725 73.0875L1036.4281 73.0875ZM1050.1 83.85313Q1047.9594 83.85313 1046.6 82.44688Q1045.2562 81.025 1045.2562 78.66563L1045.2562 78.32188Q1045.2562 76.75938 1045.85 75.525Q1046.4594 74.29063 1047.5375 73.5875Q1048.6156 72.88438 1049.8812 72.88438Q1051.9437 72.88438 1053.0844 74.24375Q1054.225 75.60313 1054.225 78.13438L1054.225 78.88438L1047.0687 78.88438Q1047.1 80.44688 1047.975 81.41563Q1048.85 82.36875 1050.1937 82.36875Q1051.1625 82.36875 1051.8187 81.97813Q1052.4906 81.5875 1052.9906 80.94688L1054.0844 81.80625Q1052.7562 83.85313 1050.1 83.85313ZM1049.8812 74.36875Q1048.7875 74.36875 1048.0375 75.16563Q1047.3031 75.9625 1047.1312 77.4L1052.4125 77.4L1052.4125 77.25938Q1052.3344 75.88438 1051.6625 75.13438Q1051.0062 74.36875 1049.8812 74.36875ZM1061.8187 74.69688Q1061.4125 74.63438 1060.9437 74.63438Q1059.1625 74.63438 1058.5219 76.15L1058.5219 83.65L1056.725 83.65L1056.725 73.0875L1058.475 73.0875L1058.5062 74.30625Q1059.3969 72.88438 1061.0219 72.88438Q1061.5531 72.88438 1061.8187 73.025L1061.8187 74.69688ZM1065.6781 83.65L1063.8812 83.65L1063.8812 73.0875L1065.6781 73.0875L1065.6781 83.65ZM1063.725 70.275Q1063.725 69.8375 1063.9906 69.54063Q1064.2719 69.22813 1064.7875 69.22813Q1065.3187 69.22813 1065.5844 69.54063Q1065.8656 69.8375 1065.8656 70.275Q1065.8656 70.7125 1065.5844 71.00938Q1065.3187 71.30625 1064.7875 71.30625Q1064.2719 71.30625 1063.9906 71.00938Q1063.725 70.7125 1063.725 70.275ZM1072.9594 82.36875Q1073.9281 82.36875 1074.6469 81.79063Q1075.3656 81.19688 1075.4437 80.32188L1077.1625 80.32188Q1077.1 81.22813 1076.5219 82.05625Q1075.9594 82.86875 1074.9906 83.36875Q1074.0375 83.85313 1072.9594 83.85313Q1070.8031 83.85313 1069.5219 82.41563Q1068.2562 80.9625 1068.2562 78.4625L1068.2562 78.16563Q1068.2562 76.61875 1068.8187 75.41563Q1069.3812 74.2125 1070.4437 73.55625Q1071.5062 72.88438 1072.9437 72.88438Q1074.725 72.88438 1075.8969 73.94688Q1077.0844 75.00938 1077.1625 76.7125L1075.4437 76.7125Q1075.3656 75.69688 1074.6625 75.04063Q1073.975 74.36875 1072.9437 74.36875Q1071.5687 74.36875 1070.8031 75.36875Q1070.0531 76.35313 1070.0531 78.22813L1070.0531 78.57188Q1070.0531 80.4 1070.8031 81.38438Q1071.5531 82.36875 1072.9594 82.36875ZM1083.1937 77.30625Q1080.7719 76.61875 1079.6781 75.61875Q1078.5844 74.60313 1078.5844 73.11875Q1078.5844 71.43125 1079.9281 70.3375Q1081.2719 69.22813 1083.4125 69.22813Q1084.8812 69.22813 1086.0219 69.80625Q1087.1781 70.36875 1087.8031 71.36875Q1088.4281 72.35313 1088.4281 73.54063L1086.5531 73.54063Q1086.5531 72.25938 1085.725 71.525Q1084.9125 70.775 1083.4125 70.775Q1082.0219 70.775 1081.2406 71.38438Q1080.475 71.99375 1080.475 73.0875Q1080.475 73.94688 1081.2094 74.55625Q1081.9437 75.15 1083.7094 75.65Q1085.4906 76.15 1086.4906 76.75938Q1087.4906 77.35313 1087.975 78.15Q1088.4594 78.94688 1088.4594 80.04063Q1088.4594 81.75938 1087.1156 82.80625Q1085.7719 83.85313 1083.5062 83.85313Q1082.0531 83.85313 1080.7719 83.29063Q1079.5062 82.72813 1078.8187 81.75938Q1078.1312 80.775 1078.1312 79.525L1080.0219 79.525Q1080.0219 80.82188 1080.975 81.57188Q1081.9281 82.30625 1083.5062 82.30625Q1084.9906 82.30625 1085.7875 81.7125Q1086.5844 81.10313 1086.5844 80.05625Q1086.5844 79.00938 1085.85 78.44688Q1085.1156 77.86875 1083.1937 77.30625ZM1099.6469 78.47813Q1099.6469 80.9 1098.5375 82.38438Q1097.4437 83.85313 1095.5531 83.85313Q1093.6312 83.85313 1092.5219 82.61875L1092.5219 87.7125L1090.725 87.7125L1090.725 73.0875L1092.3656 73.0875L1092.4594 74.25938Q1093.5531 72.88438 1095.5219 72.88438Q1097.4281 72.88438 1098.5375 74.32188Q1099.6469 75.75938 1099.6469 78.32188L1099.6469 78.47813ZM1097.8344 78.275Q1097.8344 76.49375 1097.0687 75.4625Q1096.3187 74.41563 1094.9906 74.41563Q1093.35 74.41563 1092.5219 75.86875L1092.5219 80.93125Q1093.3344 82.36875 1095.0062 82.36875Q1096.3031 82.36875 1097.0687 81.3375Q1097.8344 80.30625 1097.8344 78.275ZM1103.6781 83.65L1101.8812 83.65L1101.8812 68.65L1103.6781 68.65L1103.6781 83.65ZM1117.9281 83.65L1116.0375 83.65L1116.0375 77.07188L1108.8812 77.07188L1108.8812 83.65L1107.0062 83.65L1107.0062 69.43125L1108.8812 69.43125L1108.8812 75.54063L1116.0375 75.54063L1116.0375 69.43125L1117.9281 69.43125L1117.9281 83.65ZM1125.1 83.85313Q1122.9594 83.85313 1121.6 82.44688Q1120.2562 81.025 1120.2562 78.66563L1120.2562 78.32188Q1120.2562 76.75938 1120.85 75.525Q1121.4594 74.29063 1122.5375 73.5875Q1123.6156 72.88438 1124.8812 72.88438Q1126.9437 72.88438 1128.0844 74.24375Q1129.225 75.60313 1129.225 78.13438L1129.225 78.88438L1122.0687 78.88438Q1122.1 80.44688 1122.975 81.41563Q1123.85 82.36875 1125.1937 82.36875Q1126.1625 82.36875 1126.8187 81.97813Q1127.4906 81.5875 1127.9906 80.94688L1129.0844 81.80625Q1127.7562 83.85313 1125.1 83.85313ZM1124.8812 74.36875Q1123.7875 74.36875 1123.0375 75.16563Q1122.3031 75.9625 1122.1312 77.4L1127.4125 77.4L1127.4125 77.25938Q1127.3344 75.88438 1126.6625 75.13438Q1126.0062 74.36875 1124.8812 74.36875ZM1138.2406 83.65Q1138.0844 83.3375 1137.9906 82.54063Q1136.725 83.85313 1134.975 83.85313Q1133.4125 83.85313 1132.4125 82.9625Q1131.4125 82.07188 1131.4125 80.7125Q1131.4125 79.07188 1132.6625 78.16563Q1133.9281 77.24375 1136.1937 77.24375L1137.9594 77.24375L1137.9594 76.41563Q1137.9594 75.4625 1137.3812 74.9Q1136.8187 74.3375 1135.725 74.3375Q1134.7562 74.3375 1134.1 74.8375Q1133.4437 75.32188 1133.4437 76.00938L1131.6312 76.00938Q1131.6312 75.22813 1132.1937 74.49375Q1132.7562 73.74375 1133.7094 73.32188Q1134.6781 72.88438 1135.8344 72.88438Q1137.6625 72.88438 1138.6937 73.80625Q1139.725 74.7125 1139.7719 76.32188L1139.7719 81.18125Q1139.7719 82.63438 1140.1312 83.49375L1140.1312 83.65L1138.2406 83.65ZM1135.2406 82.275Q1136.1 82.275 1136.85 81.8375Q1137.6156 81.4 1137.9594 80.69688L1137.9594 78.525L1136.5375 78.525Q1133.225 78.525 1133.225 80.4625Q1133.225 81.32188 1133.7875 81.80625Q1134.35 82.275 1135.2406 82.275ZM1151.6469 78.47813Q1151.6469 80.9 1150.5375 82.38438Q1149.4437 83.85313 1147.5531 83.85313Q1145.6312 83.85313 1144.5219 82.61875L1144.5219 87.7125L1142.725 87.7125L1142.725 73.0875L1144.3656 73.0875L1144.4594 74.25938Q1145.5531 72.88438 1147.5219 72.88438Q1149.4281 72.88438 1150.5375 74.32188Q1151.6469 75.75938 1151.6469 78.32188L1151.6469 78.47813ZM1149.8344 78.275Q1149.8344 76.49375 1149.0687 75.4625Q1148.3187 74.41563 1146.9906 74.41563Q1145.35 74.41563 1144.5219 75.86875L1144.5219 80.93125Q1145.3344 82.36875 1147.0062 82.36875Q1148.3031 82.36875 1149.0687 81.3375Q1149.8344 80.30625 1149.8344 78.275Z" fill-rule="nonzero"/><path fill="#f4b400" d="M988.35 105.65C988.35 105.09772 988.7977 104.65 989.35 104.65L999.35 104.65C999.9023 104.65 1000.35 105.09772 1000.35 105.65L1000.35 115.65C1000.35 116.202286 999.9023 116.65 999.35 116.65L989.35 116.65C988.7977 116.65 988.35 116.202286 988.35 115.65Z" fill-rule="nonzero"/><path fill="#757575" d="M1010.0062 117.65L1010.0062 103.43125L1014.64685 103.43125Q1016.95935 103.43125 1018.1312 104.38438Q1019.3031 105.3375 1019.3031 107.2125Q1019.3031 108.2125 1018.725 108.97813Q1018.1625 109.74375 1017.1937 110.16563Q1018.33435 110.49375 1019.0062 111.4Q1019.6781 112.29063 1019.6781 113.54063Q1019.6781 115.4625 1018.4281 116.55625Q1017.1937 117.65 1014.9281 117.65L1010.0062 117.65ZM1011.8812 110.99375L1011.8812 116.11875L1014.975 116.11875Q1016.2875 116.11875 1017.0375 115.44688Q1017.7875 114.75938 1017.7875 113.57188Q1017.7875 110.99375 1015.0062 110.99375L1011.8812 110.99375ZM1011.8812 109.49375L1014.70935 109.49375Q1015.9437 109.49375 1016.6781 108.88438Q1017.4125 108.25938 1017.4125 107.2125Q1017.4125 106.04063 1016.725 105.50938Q1016.0531 104.97813 1014.64685 104.97813L1011.8812 104.97813L1011.8812 109.49375ZM1023.6781 117.65L1021.8812 117.65L1021.8812 107.0875L1023.6781 107.0875L1023.6781 117.65ZM1021.725 104.275Q1021.725 103.8375 1021.9906 103.54063Q1022.27185 103.22813 1022.7875 103.22813Q1023.3187 103.22813 1023.58435 103.54063Q1023.8656 103.8375 1023.8656 104.275Q1023.8656 104.7125 1023.58435 105.00938Q1023.3187 105.30625 1022.7875 105.30625Q1022.27185 105.30625 1021.9906 105.00938Q1021.725 104.7125 1021.725 104.275ZM1028.4281 107.0875L1028.4906 108.41563Q1029.6937 106.88438 1031.6469 106.88438Q1035.0062 106.88438 1035.0219 110.66563L1035.0219 117.65L1033.225 117.65L1033.225 110.65Q1033.2094 109.50938 1032.6937 108.9625Q1032.1937 108.41563 1031.1 108.41563Q1030.225 108.41563 1029.5531 108.88438Q1028.8969 109.35313 1028.5219 110.11875L1028.5219 117.65L1026.725 117.65L1026.725 107.0875L1028.4281 107.0875ZM1044.2406 117.65Q1044.0844 117.3375 1043.9906 116.54063Q1042.725 117.85313 1040.975 117.85313Q1039.4125 117.85313 1038.4125 116.9625Q1037.4125 116.07188 1037.4125 114.7125Q1037.4125 113.07188 1038.6625 112.16563Q1039.9281 111.24375 1042.1937 111.24375L1043.9594 111.24375L1043.9594 110.41563Q1043.9594 109.4625 1043.3812 108.9Q1042.8187 108.3375 1041.725 108.3375Q1040.7562 108.3375 1040.1 108.8375Q1039.4437 109.32188 1039.4437 110.00938L1037.6312 110.00938Q1037.6312 109.22813 1038.1937 108.49375Q1038.7562 107.74375 1039.7094 107.32188Q1040.6781 106.88438 1041.8344 106.88438Q1043.6625 106.88438 1044.6937 107.80625Q1045.725 108.7125 1045.7719 110.32188L1045.7719 115.18125Q1045.7719 116.63438 1046.1312 117.49375L1046.1312 117.65L1044.2406 117.65ZM1041.2406 116.275Q1042.1 116.275 1042.85 115.8375Q1043.6156 115.4 1043.9594 114.69688L1043.9594 112.525L1042.5375 112.525Q1039.225 112.525 1039.225 114.4625Q1039.225 115.32188 1039.7875 115.80625Q1040.35 116.275 1041.2406 116.275ZM1053.8187 108.69688Q1053.4125 108.63438 1052.9437 108.63438Q1051.1625 108.63438 1050.5219 110.15L1050.5219 117.65L1048.725 117.65L1048.725 107.0875L1050.475 107.0875L1050.5062 108.30625Q1051.3969 106.88438 1053.0219 106.88438Q1053.5531 106.88438 1053.8187 107.025L1053.8187 108.69688ZM1059.1781 115.00938L1061.6312 107.0875L1063.5687 107.0875L1059.3187 119.275Q1058.3344 121.91563 1056.1937 121.91563L1055.85 121.88438L1055.1781 121.75938L1055.1781 120.29063L1055.6625 120.3375Q1056.5844 120.3375 1057.0844 119.9625Q1057.6 119.5875 1057.9281 118.60313L1058.3344 117.525L1054.5687 107.0875L1056.5375 107.0875L1059.1781 115.00938ZM1075.9281 117.65L1074.0375 117.65L1074.0375 111.07188L1066.8812 111.07188L1066.8812 117.65L1065.0062 117.65L1065.0062 103.43125L1066.8812 103.43125L1066.8812 109.54063L1074.0375 109.54063L1074.0375 103.43125L1075.9281 103.43125L1075.9281 117.65ZM1083.1 117.85313Q1080.9594 117.85313 1079.6 116.44688Q1078.2562 115.025 1078.2562 112.66563L1078.2562 112.32188Q1078.2562 110.75938 1078.85 109.525Q1079.4594 108.29063 1080.5375 107.5875Q1081.6156 106.88438 1082.8812 106.88438Q1084.9437 106.88438 1086.0844 108.24375Q1087.225 109.60313 1087.225 112.13438L1087.225 112.88438L1080.0687 112.88438Q1080.1 114.44688 1080.975 115.41563Q1081.85 116.36875 1083.1937 116.36875Q1084.1625 116.36875 1084.8187 115.97813Q1085.4906 115.5875 1085.9906 114.94688L1087.0844 115.80625Q1085.7562 117.85313 1083.1 117.85313ZM1082.8812 108.36875Q1081.7875 108.36875 1081.0375 109.16563Q1080.3031 109.9625 1080.1312 111.4L1085.4125 111.4L1085.4125 111.25938Q1085.3344 109.88438 1084.6625 109.13438Q1084.0062 108.36875 1082.8812 108.36875ZM1096.2406 117.65Q1096.0844 117.3375 1095.9906 116.54063Q1094.725 117.85313 1092.975 117.85313Q1091.4125 117.85313 1090.4125 116.9625Q1089.4125 116.07188 1089.4125 114.7125Q1089.4125 113.07188 1090.6625 112.16563Q1091.9281 111.24375 1094.1937 111.24375L1095.9594 111.24375L1095.9594 110.41563Q1095.9594 109.4625 1095.3812 108.9Q1094.8187 108.3375 1093.725 108.3375Q1092.7562 108.3375 1092.1 108.8375Q1091.4437 109.32188 1091.4437 110.00938L1089.6312 110.00938Q1089.6312 109.22813 1090.1937 108.49375Q1090.7562 107.74375 1091.7094 107.32188Q1092.6781 106.88438 1093.8344 106.88438Q1095.6625 106.88438 1096.6937 107.80625Q1097.725 108.7125 1097.7719 110.32188L1097.7719 115.18125Q1097.7719 116.63438 1098.1312 117.49375L1098.1312 117.65L1096.2406 117.65ZM1093.2406 116.275Q1094.1 116.275 1094.85 115.8375Q1095.6156 115.4 1095.9594 114.69688L1095.9594 112.525L1094.5375 112.525Q1091.225 112.525 1091.225 114.4625Q1091.225 115.32188 1091.7875 115.80625Q1092.35 116.275 1093.2406 116.275ZM1109.6469 112.47813Q1109.6469 114.9 1108.5375 116.38438Q1107.4437 117.85313 1105.5531 117.85313Q1103.6312 117.85313 1102.5219 116.61875L1102.5219 121.7125L1100.725 121.7125L1100.725 107.0875L1102.3656 107.0875L1102.4594 108.25938Q1103.5531 106.88438 1105.5219 106.88438Q1107.4281 106.88438 1108.5375 108.32188Q1109.6469 109.75938 1109.6469 112.32188L1109.6469 112.47813ZM1107.8344 112.275Q1107.8344 110.49375 1107.0687 109.4625Q1106.3187 108.41563 1104.9906 108.41563Q1103.35 108.41563 1102.5219 109.86875L1102.5219 114.93125Q1103.3344 116.36875 1105.0062 116.36875Q1106.3031 116.36875 1107.0687 115.3375Q1107.8344 114.30625 1107.8344 112.275Z" fill-rule="nonzero"/><path fill="#0f9d58" d="M988.35 139.65C988.35 139.09772 988.7977 138.65 989.35 138.65L999.35 138.65C999.9023 138.65 1000.35 139.09772 1000.35 139.65L1000.35 149.65C1000.35 150.20229 999.9023 150.65 999.35 150.65L989.35 150.65C988.7977 150.65 988.35 150.20229 988.35 149.65Z" fill-rule="nonzero"/><path fill="#757575" d="M1012.4281 137.43124L1017.0687 149.025L1021.725 137.43124L1024.1469 137.43124L1024.1469 151.65L1022.27185 151.65L1022.27185 146.11874L1022.45935 140.13437L1017.7875 151.65L1016.35 151.65L1011.6937 140.16562L1011.8812 146.11874L1011.8812 151.65L1010.0062 151.65L1010.0062 137.43124L1012.4281 137.43124ZM1028.6781 151.65L1026.8812 151.65L1026.8812 141.0875L1028.6781 141.0875L1028.6781 151.65ZM1026.725 138.275Q1026.725 137.8375 1026.9906 137.54062Q1027.2719 137.22812 1027.7875 137.22812Q1028.3187 137.22812 1028.5844 137.54062Q1028.8656 137.8375 1028.8656 138.275Q1028.8656 138.7125 1028.5844 139.00937Q1028.3187 139.30624 1027.7875 139.30624Q1027.2719 139.30624 1026.9906 139.00937Q1026.725 138.7125 1026.725 138.275ZM1033.4281 141.0875L1033.4906 142.41562Q1034.6937 140.88437 1036.6469 140.88437Q1040.0062 140.88437 1040.0219 144.66562L1040.0219 151.65L1038.225 151.65L1038.225 144.65Q1038.2094 143.50937 1037.6937 142.9625Q1037.1937 142.41562 1036.1 142.41562Q1035.225 142.41562 1034.5531 142.88437Q1033.8969 143.35312 1033.5219 144.11874L1033.5219 151.65L1031.725 151.65L1031.725 141.0875L1033.4281 141.0875ZM1050.85 145.36874L1044.8812 145.36874L1044.8812 151.65L1043.0062 151.65L1043.0062 137.43124L1051.8031 137.43124L1051.8031 138.97812L1044.8812 138.97812L1044.8812 143.8375L1050.85 143.8375L1050.85 145.36874ZM1060.2406 150.60312Q1059.1937 151.85312 1057.1469 151.85312Q1055.4594 151.85312 1054.5687 150.86874Q1053.6937 149.88437 1053.6781 147.9625L1053.6781 141.0875L1055.4906 141.0875L1055.4906 147.91562Q1055.4906 150.30624 1057.4437 150.30624Q1059.5062 150.30624 1060.1937 148.775L1060.1937 141.0875L1062.0062 141.0875L1062.0062 151.65L1060.2875 151.65L1060.2406 150.60312ZM1066.4281 141.0875L1066.4906 142.41562Q1067.6937 140.88437 1069.6469 140.88437Q1073.0062 140.88437 1073.0219 144.66562L1073.0219 151.65L1071.225 151.65L1071.225 144.65Q1071.2094 143.50937 1070.6937 142.9625Q1070.1937 142.41562 1069.1 142.41562Q1068.225 142.41562 1067.5531 142.88437Q1066.8969 143.35312 1066.5219 144.11874L1066.5219 151.65L1064.725 151.65L1064.725 141.0875L1066.4281 141.0875ZM1079.9594 150.36874Q1080.9281 150.36874 1081.6469 149.79062Q1082.3656 149.19687 1082.4437 148.32187L1084.1625 148.32187Q1084.1 149.22812 1083.5219 150.05624Q1082.9594 150.86874 1081.9906 151.36874Q1081.0375 151.85312 1079.9594 151.85312Q1077.8031 151.85312 1076.5219 150.41562Q1075.2562 148.9625 1075.2562 146.4625L1075.2562 146.16562Q1075.2562 144.61874 1075.8187 143.41562Q1076.3812 142.2125 1077.4437 141.55624Q1078.5062 140.88437 1079.9437 140.88437Q1081.725 140.88437 1082.8969 141.94687Q1084.0844 143.00937 1084.1625 144.7125L1082.4437 144.7125Q1082.3656 143.69687 1081.6625 143.04062Q1080.975 142.36874 1079.9437 142.36874Q1078.5687 142.36874 1077.8031 143.36874Q1077.0531 144.35312 1077.0531 146.22812L1077.0531 146.57187Q1077.0531 148.4 1077.8031 149.38437Q1078.5531 150.36874 1079.9594 150.36874ZM1088.1625 138.525L1088.1625 141.0875L1090.1469 141.0875L1090.1469 142.47812L1088.1625 142.47812L1088.1625 149.025Q1088.1625 149.66562 1088.4281 149.99374Q1088.6937 150.30624 1089.3344 150.30624Q1089.6469 150.30624 1090.1937 150.18124L1090.1937 151.65Q1089.475 151.85312 1088.8031 151.85312Q1087.6 151.85312 1086.975 151.11874Q1086.3656 150.38437 1086.3656 149.025L1086.3656 142.47812L1084.4437 142.47812L1084.4437 141.0875L1086.3656 141.0875L1086.3656 138.525L1088.1625 138.525ZM1094.6781 151.65L1092.8812 151.65L1092.8812 141.0875L1094.6781 141.0875L1094.6781 151.65ZM1092.725 138.275Q1092.725 137.8375 1092.9906 137.54062Q1093.2719 137.22812 1093.7875 137.22812Q1094.3187 137.22812 1094.5844 137.54062Q1094.8656 137.8375 1094.8656 138.275Q1094.8656 138.7125 1094.5844 139.00937Q1094.3187 139.30624 1093.7875 139.30624Q1093.2719 139.30624 1092.9906 139.00937Q1092.725 138.7125 1092.725 138.275ZM1097.2406 146.275Q1097.2406 144.7125 1097.85 143.47812Q1098.4594 142.22812 1099.5375 141.55624Q1100.6312 140.88437 1102.0375 140.88437Q1104.1937 140.88437 1105.5219 142.38437Q1106.8656 143.86874 1106.8656 146.35312L1106.8656 146.47812Q1106.8656 148.025 1106.2719 149.25937Q1105.6781 150.47812 1104.5687 151.16562Q1103.475 151.85312 1102.0531 151.85312Q1099.9125 151.85312 1098.5687 150.35312Q1097.2406 148.85312 1097.2406 146.4L1097.2406 146.275ZM1099.0531 146.47812Q1099.0531 148.24374 1099.8656 149.30624Q1100.6937 150.36874 1102.0531 150.36874Q1103.4281 150.36874 1104.2406 149.29062Q1105.0531 148.2125 1105.0531 146.275Q1105.0531 144.525 1104.225 143.44687Q1103.3969 142.36874 1102.0375 142.36874Q1100.6937 142.36874 1099.8656 143.43124Q1099.0531 144.49374 1099.0531 146.47812ZM1110.4281 141.0875L1110.4906 142.41562Q1111.6937 140.88437 1113.6469 140.88437Q1117.0062 140.88437 1117.0219 144.66562L1117.0219 151.65L1115.225 151.65L1115.225 144.65Q1115.2094 143.50937 1114.6937 142.9625Q1114.1937 142.41562 1113.1 142.41562Q1112.225 142.41562 1111.5531 142.88437Q1110.8969 143.35312 1110.5219 144.11874L1110.5219 151.65L1108.725 151.65L1108.725 141.0875L1110.4281 141.0875Z" fill-rule="nonzero"/><path fill="#ff6d00" d="M988.35 173.65C988.35 173.09772 988.7977 172.65 989.35 172.65L999.35 172.65C999.9023 172.65 1000.35 173.09772 1000.35 173.65L1000.35 183.65C1000.35 184.20229 999.9023 184.65 999.35 184.65L989.35 184.65C988.7977 184.65 988.35 184.20229 988.35 183.65Z" fill-rule="nonzero"/><path fill="#757575" d="M1017.85 179.36874L1011.8812 179.36874L1011.8812 185.65L1010.0062 185.65L1010.0062 171.43124L1018.8031 171.43124L1018.8031 172.97812L1011.8812 172.97812L1011.8812 177.8375L1017.85 177.8375L1017.85 179.36874ZM1020.2406 180.275Q1020.2406 178.7125 1020.85 177.47812Q1021.45935 176.22812 1022.5375 175.55624Q1023.6312 174.88437 1025.0375 174.88437Q1027.1937 174.88437 1028.5219 176.38437Q1029.8656 177.86874 1029.8656 180.35312L1029.8656 180.47812Q1029.8656 182.025 1029.2719 183.25937Q1028.6781 184.47812 1027.5687 185.16562Q1026.475 185.85312 1025.0531 185.85312Q1022.9125 185.85312 1021.5687 184.35312Q1020.2406 182.85312 1020.2406 180.4L1020.2406 180.275ZM1022.0531 180.47812Q1022.0531 182.24374 1022.8656 183.30624Q1023.6937 184.36874 1025.0531 184.36874Q1026.4281 184.36874 1027.2406 183.29062Q1028.0531 182.2125 1028.0531 180.275Q1028.0531 178.525 1027.225 177.44687Q1026.3969 176.36874 1025.0375 176.36874Q1023.6937 176.36874 1022.8656 177.43124Q1022.0531 178.49374 1022.0531 180.47812ZM1036.8187 176.69687Q1036.4125 176.63437 1035.9437 176.63437Q1034.1625 176.63437 1033.5219 178.15L1033.5219 185.65L1031.725 185.65L1031.725 175.0875L1033.475 175.0875L1033.5062 176.30624Q1034.3969 174.88437 1036.0219 174.88437Q1036.5531 174.88437 1036.8187 175.025L1036.8187 176.69687ZM1043.1 185.85312Q1040.9594 185.85312 1039.6 184.44687Q1038.2562 183.025 1038.2562 180.66562L1038.2562 180.32187Q1038.2562 178.75937 1038.85 177.525Q1039.4594 176.29062 1040.5375 175.5875Q1041.6156 174.88437 1042.8812 174.88437Q1044.9437 174.88437 1046.0844 176.24374Q1047.225 177.60312 1047.225 180.13437L1047.225 180.88437L1040.0687 180.88437Q1040.1 182.44687 1040.975 183.41562Q1041.85 184.36874 1043.1937 184.36874Q1044.1625 184.36874 1044.8187 183.97812Q1045.4906 183.5875 1045.9906 182.94687L1047.0844 183.80624Q1045.7562 185.85312 1043.1 185.85312ZM1042.8812 176.36874Q1041.7875 176.36874 1041.0375 177.16562Q1040.3031 177.9625 1040.1312 179.4L1045.4125 179.4L1045.4125 179.25937Q1045.3344 177.88437 1044.6625 177.13437Q1044.0062 176.36874 1042.8812 176.36874ZM1056.2406 185.65Q1056.0844 185.3375 1055.9906 184.54062Q1054.725 185.85312 1052.975 185.85312Q1051.4125 185.85312 1050.4125 184.9625Q1049.4125 184.07187 1049.4125 182.7125Q1049.4125 181.07187 1050.6625 180.16562Q1051.9281 179.24374 1054.1937 179.24374L1055.9594 179.24374L1055.9594 178.41562Q1055.9594 177.4625 1055.3812 176.9Q1054.8187 176.3375 1053.725 176.3375Q1052.7562 176.3375 1052.1 176.8375Q1051.4437 177.32187 1051.4437 178.00937L1049.6312 178.00937Q1049.6312 177.22812 1050.1937 176.49374Q1050.7562 175.74374 1051.7094 175.32187Q1052.6781 174.88437 1053.8344 174.88437Q1055.6625 174.88437 1056.6937 175.80624Q1057.725 176.7125 1057.7719 178.32187L1057.7719 183.18124Q1057.7719 184.63437 1058.1312 185.49374L1058.1312 185.65L1056.2406 185.65ZM1053.2406 184.275Q1054.1 184.275 1054.85 183.8375Q1055.6156 183.4 1055.9594 182.69687L1055.9594 180.525L1054.5375 180.525Q1051.225 180.525 1051.225 182.4625Q1051.225 183.32187 1051.7875 183.80624Q1052.35 184.275 1053.2406 184.275ZM1064.9594 184.36874Q1065.9281 184.36874 1066.6469 183.79062Q1067.3656 183.19687 1067.4437 182.32187L1069.1625 182.32187Q1069.1 183.22812 1068.5219 184.05624Q1067.9594 184.86874 1066.9906 185.36874Q1066.0375 185.85312 1064.9594 185.85312Q1062.8031 185.85312 1061.5219 184.41562Q1060.2562 182.9625 1060.2562 180.4625L1060.2562 180.16562Q1060.2562 178.61874 1060.8187 177.41562Q1061.3812 176.2125 1062.4437 175.55624Q1063.5062 174.88437 1064.9437 174.88437Q1066.725 174.88437 1067.8969 175.94687Q1069.0844 177.00937 1069.1625 178.7125L1067.4437 178.7125Q1067.3656 177.69687 1066.6625 177.04062Q1065.975 176.36874 1064.9437 176.36874Q1063.5687 176.36874 1062.8031 177.36874Q1062.0531 178.35312 1062.0531 180.22812L1062.0531 180.57187Q1062.0531 182.4 1062.8031 183.38437Q1063.5531 184.36874 1064.9594 184.36874ZM1072.5219 176.36874Q1073.725 174.88437 1075.6469 174.88437Q1079.0062 174.88437 1079.0219 178.66562L1079.0219 185.65L1077.225 185.65L1077.225 178.65Q1077.2094 177.50937 1076.6937 176.9625Q1076.1937 176.41562 1075.1 176.41562Q1074.225 176.41562 1073.5531 176.88437Q1072.8969 177.35312 1072.5219 178.11874L1072.5219 185.65L1070.725 185.65L1070.725 170.65L1072.5219 170.65L1072.5219 176.36874ZM1083.8812 184.11874L1090.6312 184.11874L1090.6312 185.65L1082.0062 185.65L1082.0062 171.43124L1083.8812 171.43124L1083.8812 184.11874ZM1092.2406 180.275Q1092.2406 178.7125 1092.85 177.47812Q1093.4594 176.22812 1094.5375 175.55624Q1095.6312 174.88437 1097.0375 174.88437Q1099.1937 174.88437 1100.5219 176.38437Q1101.8656 177.86874 1101.8656 180.35312L1101.8656 180.47812Q1101.8656 182.025 1101.2719 183.25937Q1100.6781 184.47812 1099.5687 185.16562Q1098.475 185.85312 1097.0531 185.85312Q1094.9125 185.85312 1093.5687 184.35312Q1092.2406 182.85312 1092.2406 180.4L1092.2406 180.275ZM1094.0531 180.47812Q1094.0531 182.24374 1094.8656 183.30624Q1095.6937 184.36874 1097.0531 184.36874Q1098.4281 184.36874 1099.2406 183.29062Q1100.0531 182.2125 1100.0531 180.275Q1100.0531 178.525 1099.225 177.44687Q1098.3969 176.36874 1097.0375 176.36874Q1095.6937 176.36874 1094.8656 177.43124Q1094.0531 178.49374 1094.0531 180.47812ZM1103.2406 180.275Q1103.2406 178.7125 1103.85 177.47812Q1104.4594 176.22812 1105.5375 175.55624Q1106.6312 174.88437 1108.0375 174.88437Q1110.1937 174.88437 1111.5219 176.38437Q1112.8656 177.86874 1112.8656 180.35312L1112.8656 180.47812Q1112.8656 182.025 1112.2719 183.25937Q1111.6781 184.47812 1110.5687 185.16562Q1109.475 185.85312 1108.0531 185.85312Q1105.9125 185.85312 1104.5687 184.35312Q1103.2406 182.85312 1103.2406 180.4L1103.2406 180.275ZM1105.0531 180.47812Q1105.0531 182.24374 1105.8656 183.30624Q1106.6937 184.36874 1108.0531 184.36874Q1109.4281 184.36874 1110.2406 183.29062Q1111.0531 182.2125 1111.0531 180.275Q1111.0531 178.525 1110.225 177.44687Q1109.3969 176.36874 1108.0375 176.36874Q1106.6937 176.36874 1105.8656 177.43124Q1105.0531 178.49374 1105.0531 180.47812ZM1123.6469 180.47812Q1123.6469 182.9 1122.5375 184.38437Q1121.4437 185.85312 1119.5531 185.85312Q1117.6312 185.85312 1116.5219 184.61874L1116.5219 189.7125L1114.725 189.7125L1114.725 175.0875L1116.3656 175.0875L1116.4594 176.25937Q1117.5531 174.88437 1119.5219 174.88437Q1121.4281 174.88437 1122.5375 176.32187Q1123.6469 177.75937 1123.6469 180.32187L1123.6469 180.47812ZM1121.8344 180.275Q1121.8344 178.49374 1121.0687 177.4625Q1120.3187 176.41562 1118.9906 176.41562Q1117.35 176.41562 1116.5219 177.86874L1116.5219 182.93124Q1117.3344 184.36874 1119.0062 184.36874Q1120.3031 184.36874 1121.0687 183.3375Q1121.8344 182.30624 1121.8344 180.275Z" fill-rule="nonzero"/><path fill="#46bdc6" d="M988.35 207.65C988.35 207.09772 988.7977 206.65 989.35 206.65L999.35 206.65C999.9023 206.65 1000.35 207.09772 1000.35 207.65L1000.35 217.65C1000.35 218.20229 999.9023 218.65 999.35 218.65L989.35 218.65C988.7977 218.65 988.35 218.20229 988.35 217.65Z" fill-rule="nonzero"/><path fill="#757575" d="M1014.1937 213.30624Q1011.77185 212.61874 1010.6781 211.61874Q1009.58435 210.60312 1009.58435 209.11874Q1009.58435 207.43124 1010.9281 206.3375Q1012.27185 205.22812 1014.4125 205.22812Q1015.8812 205.22812 1017.02185 205.80624Q1018.1781 206.36874 1018.8031 207.36874Q1019.4281 208.35312 1019.4281 209.54062L1017.5531 209.54062Q1017.5531 208.25937 1016.725 207.525Q1015.9125 206.775 1014.4125 206.775Q1013.02185 206.775 1012.2406 207.38437Q1011.475 207.99374 1011.475 209.0875Q1011.475 209.94687 1012.20935 210.55624Q1012.9437 211.15 1014.70935 211.65Q1016.4906 212.15 1017.4906 212.75937Q1018.4906 213.35312 1018.975 214.15Q1019.45935 214.94687 1019.45935 216.04062Q1019.45935 217.75937 1018.1156 218.80624Q1016.77185 219.85312 1014.5062 219.85312Q1013.0531 219.85312 1011.77185 219.29062Q1010.5062 218.72812 1009.8187 217.75937Q1009.1312 216.775 1009.1312 215.525L1011.02185 215.525Q1011.02185 216.82187 1011.975 217.57187Q1012.9281 218.30624 1014.5062 218.30624Q1015.9906 218.30624 1016.7875 217.7125Q1017.58435 217.10312 1017.58435 216.05624Q1017.58435 215.00937 1016.85 214.44687Q1016.1156 213.86874 1014.1937 213.30624ZM1021.2406 214.275Q1021.2406 212.7125 1021.85 211.47812Q1022.45935 210.22812 1023.5375 209.55624Q1024.6312 208.88437 1026.0375 208.88437Q1028.1937 208.88437 1029.5219 210.38437Q1030.8656 211.86874 1030.8656 214.35312L1030.8656 214.47812Q1030.8656 216.025 1030.2719 217.25937Q1029.6781 218.47812 1028.5687 219.16562Q1027.475 219.85312 1026.0531 219.85312Q1023.9125 219.85312 1022.5687 218.35312Q1021.2406 216.85312 1021.2406 214.4L1021.2406 214.275ZM1023.0531 214.47812Q1023.0531 216.24374 1023.8656 217.30624Q1024.6937 218.36874 1026.0531 218.36874Q1027.4281 218.36874 1028.2406 217.29062Q1029.0531 216.2125 1029.0531 214.275Q1029.0531 212.525 1028.225 211.44687Q1027.3969 210.36874 1026.0375 210.36874Q1024.6937 210.36874 1023.8656 211.43124Q1023.0531 212.49374 1023.0531 214.47812ZM1037.8187 210.69687Q1037.4125 210.63437 1036.9437 210.63437Q1035.1625 210.63437 1034.5219 212.15L1034.5219 219.65L1032.725 219.65L1032.725 209.0875L1034.475 209.0875L1034.5062 210.30624Q1035.3969 208.88437 1037.0219 208.88437Q1037.5531 208.88437 1037.8187 209.025L1037.8187 210.69687ZM1042.1625 206.525L1042.1625 209.0875L1044.1469 209.0875L1044.1469 210.47812L1042.1625 210.47812L1042.1625 217.025Q1042.1625 217.66562 1042.4281 217.99374Q1042.6937 218.30624 1043.3344 218.30624Q1043.6469 218.30624 1044.1937 218.18124L1044.1937 219.65Q1043.475 219.85312 1042.8031 219.85312Q1041.6 219.85312 1040.975 219.11874Q1040.3656 218.38437 1040.3656 217.025L1040.3656 210.47812L1038.4437 210.47812L1038.4437 209.0875L1040.3656 209.0875L1040.3656 206.525L1042.1625 206.525ZM1054.85 213.36874L1048.8812 213.36874L1048.8812 219.65L1047.0062 219.65L1047.0062 205.43124L1055.8031 205.43124L1055.8031 206.97812L1048.8812 206.97812L1048.8812 211.8375L1054.85 211.8375L1054.85 213.36874ZM1064.2406 218.60312Q1063.1937 219.85312 1061.1469 219.85312Q1059.4594 219.85312 1058.5687 218.86874Q1057.6937 217.88437 1057.6781 215.9625L1057.6781 209.0875L1059.4906 209.0875L1059.4906 215.91562Q1059.4906 218.30624 1061.4437 218.30624Q1063.5062 218.30624 1064.1937 216.775L1064.1937 209.0875L1066.0062 209.0875L1066.0062 219.65L1064.2875 219.65L1064.2406 218.60312ZM1070.4281 209.0875L1070.4906 210.41562Q1071.6937 208.88437 1073.6469 208.88437Q1077.0062 208.88437 1077.0219 212.66562L1077.0219 219.65L1075.225 219.65L1075.225 212.65Q1075.2094 211.50937 1074.6937 210.9625Q1074.1937 210.41562 1073.1 210.41562Q1072.225 210.41562 1071.5531 210.88437Q1070.8969 211.35312 1070.5219 212.11874L1070.5219 219.65L1068.725 219.65L1068.725 209.0875L1070.4281 209.0875ZM1083.9594 218.36874Q1084.9281 218.36874 1085.6469 217.79062Q1086.3656 217.19687 1086.4437 216.32187L1088.1625 216.32187Q1088.1 217.22812 1087.5219 218.05624Q1086.9594 218.86874 1085.9906 219.36874Q1085.0375 219.85312 1083.9594 219.85312Q1081.8031 219.85312 1080.5219 218.41562Q1079.2562 216.9625 1079.2562 214.4625L1079.2562 214.16562Q1079.2562 212.61874 1079.8187 211.41562Q1080.3812 210.2125 1081.4437 209.55624Q1082.5062 208.88437 1083.9437 208.88437Q1085.725 208.88437 1086.8969 209.94687Q1088.0844 211.00937 1088.1625 212.7125L1086.4437 212.7125Q1086.3656 211.69687 1085.6625 211.04062Q1084.975 210.36874 1083.9437 210.36874Q1082.5687 210.36874 1081.8031 211.36874Q1081.0531 212.35312 1081.0531 214.22812L1081.0531 214.57187Q1081.0531 216.4 1081.8031 217.38437Q1082.5531 218.36874 1083.9594 218.36874ZM1092.1625 206.525L1092.1625 209.0875L1094.1469 209.0875L1094.1469 210.47812L1092.1625 210.47812L1092.1625 217.025Q1092.1625 217.66562 1092.4281 217.99374Q1092.6937 218.30624 1093.3344 218.30624Q1093.6469 218.30624 1094.1937 218.18124L1094.1937 219.65Q1093.475 219.85312 1092.8031 219.85312Q1091.6 219.85312 1090.975 219.11874Q1090.3656 218.38437 1090.3656 217.025L1090.3656 210.47812L1088.4437 210.47812L1088.4437 209.0875L1090.3656 209.0875L1090.3656 206.525L1092.1625 206.525ZM1098.6781 219.65L1096.8812 219.65L1096.8812 209.0875L1098.6781 209.0875L1098.6781 219.65ZM1096.725 206.275Q1096.725 205.8375 1096.9906 205.54062Q1097.2719 205.22812 1097.7875 205.22812Q1098.3187 205.22812 1098.5844 205.54062Q1098.8656 205.8375 1098.8656 206.275Q1098.8656 206.7125 1098.5844 207.00937Q1098.3187 207.30624 1097.7875 207.30624Q1097.2719 207.30624 1096.9906 207.00937Q1096.725 206.7125 1096.725 206.275ZM1101.2406 214.275Q1101.2406 212.7125 1101.85 211.47812Q1102.4594 210.22812 1103.5375 209.55624Q1104.6312 208.88437 1106.0375 208.88437Q1108.1937 208.88437 1109.5219 210.38437Q1110.8656 211.86874 1110.8656 214.35312L1110.8656 214.47812Q1110.8656 216.025 1110.2719 217.25937Q1109.6781 218.47812 1108.5687 219.16562Q1107.475 219.85312 1106.0531 219.85312Q1103.9125 219.85312 1102.5687 218.35312Q1101.2406 216.85312 1101.2406 214.4L1101.2406 214.275ZM1103.0531 214.47812Q1103.0531 216.24374 1103.8656 217.30624Q1104.6937 218.36874 1106.0531 218.36874Q1107.4281 218.36874 1108.2406 217.29062Q1109.0531 216.2125 1109.0531 214.275Q1109.0531 212.525 1108.225 211.44687Q1107.3969 210.36874 1106.0375 210.36874Q1104.6937 210.36874 1103.8656 211.43124Q1103.0531 212.49374 1103.0531 214.47812ZM1114.4281 209.0875L1114.4906 210.41562Q1115.6937 208.88437 1117.6469 208.88437Q1121.0062 208.88437 1121.0219 212.66562L1121.0219 219.65L1119.225 219.65L1119.225 212.65Q1119.2094 211.50937 1118.6937 210.9625Q1118.1937 210.41562 1117.1 210.41562Q1116.225 210.41562 1115.5531 210.88437Q1114.8969 211.35312 1114.5219 212.11874L1114.5219 219.65L1112.725 219.65L1112.725 209.0875L1114.4281 209.0875Z" fill-rule="nonzero"/></svg>