<svg version="1.1" viewBox="0.0 0.0 1180.0 566.0" fill="none" stroke="none" stroke-linecap="square" stroke-miterlimit="10" width="1180" height="566" xmlns:xlink="http://www.w3.org/1999/xlink" xmlns="http://www.w3.org/2000/svg"><path fill="#ffffff" d="M0 0L1180.0 0L1180.0 566.0L0 566.0L0 0Z" fill-rule="nonzero"/><path fill="#ffffff" d="M0 0L1180.0 0L1180.0 566.0L0 566.0L0 0Z" fill-rule="nonzero"/><path stroke="#333333" stroke-width="1.0" stroke-linecap="butt" d="M98.5 497.5L953.5 497.5" fill-rule="nonzero"/><path fill="#eeeeee" d="M92.5 503.5L98.5 498.5L953.5 498.5L947.5 503.5Z" fill-rule="nonzero"/><path stroke="#cccccc" stroke-width="1.0" stroke-linecap="butt" d="M98.5 383.5L953.5 383.5" fill-rule="nonzero"/><path stroke="#cccccc" stroke-width="1.0" stroke-linecap="butt" d="M98.5 269.5L953.5 269.5" fill-rule="nonzero"/><path stroke="#cccccc" stroke-width="1.0" stroke-linecap="butt" d="M98.5 154.5L953.5 154.5" fill-rule="nonzero"/><path stroke="#cccccc" stroke-width="1.0" stroke-linecap="butt" d="M98.5 40.5L953.5 40.5" fill-rule="nonzero"/><clipPath id="id_0"><path d="M92.3 40.3L953.74 40.3L953.74 503.7L92.3 503.7L92.3 40.3Z" clip-rule="nonzero"/></clipPath><path fill="#2b569f" clip-path="url(#id_0)" d="M168.0 495.0L168.0 498.0L164.0 502.0L164.0 499.0Z" fill-rule="nonzero"/><path fill="#689df6" clip-path="url(#id_0)" d="M164.0 499.0L148.0 499.0L152.0 495.0L168.0 495.0Z" fill-rule="nonzero"/><path stroke="#000000" stroke-width="0.0" stroke-linecap="butt" stroke-opacity="0.0" clip-path="url(#id_0)" d="M164.0 502.0L148.0 502.0L148.0 499.0L164.0 499.0Z" fill-rule="nonzero"/><path fill="#4285f4" clip-path="url(#id_0)" d="M164.0 502.0L148.0 502.0L148.0 499.0L164.0 499.0Z" fill-rule="nonzero"/><path fill="#2b569f" clip-path="url(#id_0)" d="M329.0 494.0L329.0 498.0L325.0 502.0L325.0 498.0Z" fill-rule="nonzero"/><path fill="#689df6" clip-path="url(#id_0)" d="M325.0 498.0L309.0 498.0L313.0 494.0L329.0 494.0Z" fill-rule="nonzero"/><path stroke="#000000" stroke-width="0.0" stroke-linecap="butt" stroke-opacity="0.0" clip-path="url(#id_0)" d="M325.0 502.0L309.0 502.0L309.0 498.0L325.0 498.0Z" fill-rule="nonzero"/><path fill="#4285f4" clip-path="url(#id_0)" d="M325.0 502.0L309.0 502.0L309.0 498.0L325.0 498.0Z" fill-rule="nonzero"/><path fill="#2b569f" clip-path="url(#id_0)" d="M490.0 494.0L490.0 498.0L486.0 502.0L486.0 498.0Z" fill-rule="nonzero"/><path fill="#689df6" clip-path="url(#id_0)" d="M486.0 498.0L470.0 498.0L474.0 494.0L490.0 494.0Z" fill-rule="nonzero"/><path stroke="#000000" stroke-width="0.0" stroke-linecap="butt" stroke-opacity="0.0" clip-path="url(#id_0)" d="M486.0 502.0L470.0 502.0L470.0 498.0L486.0 498.0Z" fill-rule="nonzero"/><path fill="#4285f4" clip-path="url(#id_0)" d="M486.0 502.0L470.0 502.0L470.0 498.0L486.0 498.0Z" fill-rule="nonzero"/><path fill="#2b569f" clip-path="url(#id_0)" d="M651.0 494.0L651.0 498.0L647.0 502.0L647.0 498.0Z" fill-rule="nonzero"/><path fill="#689df6" clip-path="url(#id_0)" d="M647.0 498.0L631.0 498.0L635.0 494.0L651.0 494.0Z" fill-rule="nonzero"/><path stroke="#000000" stroke-width="0.0" stroke-linecap="butt" stroke-opacity="0.0" clip-path="url(#id_0)" d="M647.0 502.0L631.0 502.0L631.0 498.0L647.0 498.0Z" fill-rule="nonzero"/><path fill="#4285f4" clip-path="url(#id_0)" d="M647.0 502.0L631.0 502.0L631.0 498.0L647.0 498.0Z" fill-rule="nonzero"/><path fill="#2b569f" clip-path="url(#id_0)" d="M812.0 494.0L812.0 498.0L808.0 502.0L808.0 498.0Z" fill-rule="nonzero"/><path fill="#689df6" clip-path="url(#id_0)" d="M808.0 498.0L792.0 498.0L796.0 494.0L812.0 494.0Z" fill-rule="nonzero"/><path stroke="#000000" stroke-width="0.0" stroke-linecap="butt" stroke-opacity="0.0" clip-path="url(#id_0)" d="M808.0 502.0L792.0 502.0L792.0 498.0L808.0 498.0Z" fill-rule="nonzero"/><path fill="#4285f4" clip-path="url(#id_0)" d="M808.0 502.0L792.0 502.0L792.0 498.0L808.0 498.0Z" fill-rule="nonzero"/><path fill="#8e2c24" clip-path="url(#id_0)" d="M185.0 494.0L185.0 498.0L181.0 502.0L181.0 498.0Z" fill-rule="nonzero"/><path fill="#e2695f" clip-path="url(#id_0)" d="M181.0 498.0L165.0 498.0L169.0 494.0L185.0 494.0Z" fill-rule="nonzero"/><path stroke="#000000" stroke-width="0.0" stroke-linecap="butt" stroke-opacity="0.0" clip-path="url(#id_0)" d="M181.0 502.0L165.0 502.0L165.0 498.0L181.0 498.0Z" fill-rule="nonzero"/><path fill="#db4437" clip-path="url(#id_0)" d="M181.0 502.0L165.0 502.0L165.0 498.0L181.0 498.0Z" fill-rule="nonzero"/><path fill="#8e2c24" clip-path="url(#id_0)" d="M346.0 494.0L346.0 498.0L342.0 502.0L342.0 498.0Z" fill-rule="nonzero"/><path fill="#e2695f" clip-path="url(#id_0)" d="M342.0 498.0L326.0 498.0L330.0 494.0L346.0 494.0Z" fill-rule="nonzero"/><path stroke="#000000" stroke-width="0.0" stroke-linecap="butt" stroke-opacity="0.0" clip-path="url(#id_0)" d="M342.0 502.0L326.0 502.0L326.0 498.0L342.0 498.0Z" fill-rule="nonzero"/><path fill="#db4437" clip-path="url(#id_0)" d="M342.0 502.0L326.0 502.0L326.0 498.0L342.0 498.0Z" fill-rule="nonzero"/><path fill="#8e2c24" clip-path="url(#id_0)" d="M507.0 494.0L507.0 498.0L503.0 502.0L503.0 498.0Z" fill-rule="nonzero"/><path fill="#e2695f" clip-path="url(#id_0)" d="M503.0 498.0L487.0 498.0L491.0 494.0L507.0 494.0Z" fill-rule="nonzero"/><path stroke="#000000" stroke-width="0.0" stroke-linecap="butt" stroke-opacity="0.0" clip-path="url(#id_0)" d="M503.0 502.0L487.0 502.0L487.0 498.0L503.0 498.0Z" fill-rule="nonzero"/><path fill="#db4437" clip-path="url(#id_0)" d="M503.0 502.0L487.0 502.0L487.0 498.0L503.0 498.0Z" fill-rule="nonzero"/><path fill="#8e2c24" clip-path="url(#id_0)" d="M668.0 494.0L668.0 498.0L664.0 502.0L664.0 498.0Z" fill-rule="nonzero"/><path fill="#e2695f" clip-path="url(#id_0)" d="M664.0 498.0L648.0 498.0L652.0 494.0L668.0 494.0Z" fill-rule="nonzero"/><path stroke="#000000" stroke-width="0.0" stroke-linecap="butt" stroke-opacity="0.0" clip-path="url(#id_0)" d="M664.0 502.0L648.0 502.0L648.0 498.0L664.0 498.0Z" fill-rule="nonzero"/><path fill="#db4437" clip-path="url(#id_0)" d="M664.0 502.0L648.0 502.0L648.0 498.0L664.0 498.0Z" fill-rule="nonzero"/><path fill="#8e2c24" clip-path="url(#id_0)" d="M829.0 494.0L829.0 498.0L825.0 502.0L825.0 498.0Z" fill-rule="nonzero"/><path fill="#e2695f" clip-path="url(#id_0)" d="M825.0 498.0L809.0 498.0L813.0 494.0L829.0 494.0Z" fill-rule="nonzero"/><path stroke="#000000" stroke-width="0.0" stroke-linecap="butt" stroke-opacity="0.0" clip-path="url(#id_0)" d="M825.0 502.0L809.0 502.0L809.0 498.0L825.0 498.0Z" fill-rule="nonzero"/><path fill="#db4437" clip-path="url(#id_0)" d="M825.0 502.0L809.0 502.0L809.0 498.0L825.0 498.0Z" fill-rule="nonzero"/><path fill="#9f7500" clip-path="url(#id_0)" d="M202.0 492.0L202.0 498.0L198.0 502.0L198.0 496.0Z" fill-rule="nonzero"/><path fill="#f6c333" clip-path="url(#id_0)" d="M198.0 496.0L182.0 496.0L186.0 492.0L202.0 492.0Z" fill-rule="nonzero"/><path stroke="#000000" stroke-width="0.0" stroke-linecap="butt" stroke-opacity="0.0" clip-path="url(#id_0)" d="M198.0 502.0L182.0 502.0L182.0 496.0L198.0 496.0Z" fill-rule="nonzero"/><path fill="#f4b400" clip-path="url(#id_0)" d="M198.0 502.0L182.0 502.0L182.0 496.0L198.0 496.0Z" fill-rule="nonzero"/><path fill="#9f7500" clip-path="url(#id_0)" d="M363.0 492.0L363.0 498.0L359.0 502.0L359.0 496.0Z" fill-rule="nonzero"/><path fill="#f6c333" clip-path="url(#id_0)" d="M359.0 496.0L343.0 496.0L347.0 492.0L363.0 492.0Z" fill-rule="nonzero"/><path stroke="#000000" stroke-width="0.0" stroke-linecap="butt" stroke-opacity="0.0" clip-path="url(#id_0)" d="M359.0 502.0L343.0 502.0L343.0 496.0L359.0 496.0Z" fill-rule="nonzero"/><path fill="#f4b400" clip-path="url(#id_0)" d="M359.0 502.0L343.0 502.0L343.0 496.0L359.0 496.0Z" fill-rule="nonzero"/><path fill="#9f7500" clip-path="url(#id_0)" d="M524.0 492.0L524.0 498.0L520.0 502.0L520.0 496.0Z" fill-rule="nonzero"/><path fill="#f6c333" clip-path="url(#id_0)" d="M520.0 496.0L504.0 496.0L508.0 492.0L524.0 492.0Z" fill-rule="nonzero"/><path stroke="#000000" stroke-width="0.0" stroke-linecap="butt" stroke-opacity="0.0" clip-path="url(#id_0)" d="M520.0 502.0L504.0 502.0L504.0 496.0L520.0 496.0Z" fill-rule="nonzero"/><path fill="#f4b400" clip-path="url(#id_0)" d="M520.0 502.0L504.0 502.0L504.0 496.0L520.0 496.0Z" fill-rule="nonzero"/><path fill="#9f7500" clip-path="url(#id_0)" d="M685.0 492.0L685.0 498.0L681.0 502.0L681.0 496.0Z" fill-rule="nonzero"/><path fill="#f6c333" clip-path="url(#id_0)" d="M681.0 496.0L665.0 496.0L669.0 492.0L685.0 492.0Z" fill-rule="nonzero"/><path stroke="#000000" stroke-width="0.0" stroke-linecap="butt" stroke-opacity="0.0" clip-path="url(#id_0)" d="M681.0 502.0L665.0 502.0L665.0 496.0L681.0 496.0Z" fill-rule="nonzero"/><path fill="#f4b400" clip-path="url(#id_0)" d="M681.0 502.0L665.0 502.0L665.0 496.0L681.0 496.0Z" fill-rule="nonzero"/><path fill="#9f7500" clip-path="url(#id_0)" d="M846.0 493.0L846.0 498.0L842.0 502.0L842.0 497.0Z" fill-rule="nonzero"/><path fill="#f6c333" clip-path="url(#id_0)" d="M842.0 497.0L826.0 497.0L830.0 493.0L846.0 493.0Z" fill-rule="nonzero"/><path stroke="#000000" stroke-width="0.0" stroke-linecap="butt" stroke-opacity="0.0" clip-path="url(#id_0)" d="M842.0 502.0L826.0 502.0L826.0 497.0L842.0 497.0Z" fill-rule="nonzero"/><path fill="#f4b400" clip-path="url(#id_0)" d="M842.0 502.0L826.0 502.0L826.0 497.0L842.0 497.0Z" fill-rule="nonzero"/><path fill="#0a6639" clip-path="url(#id_0)" d="M219.0 479.0L219.0 498.0L215.0 502.0L215.0 483.0Z" fill-rule="nonzero"/><path fill="#3fb179" clip-path="url(#id_0)" d="M215.0 483.0L199.0 483.0L203.0 479.0L219.0 479.0Z" fill-rule="nonzero"/><path stroke="#000000" stroke-width="0.0" stroke-linecap="butt" stroke-opacity="0.0" clip-path="url(#id_0)" d="M215.0 502.0L199.0 502.0L199.0 483.0L215.0 483.0Z" fill-rule="nonzero"/><path fill="#0f9d58" clip-path="url(#id_0)" d="M215.0 502.0L199.0 502.0L199.0 483.0L215.0 483.0Z" fill-rule="nonzero"/><path fill="#0a6639" clip-path="url(#id_0)" d="M380.0 476.0L380.0 498.0L376.0 502.0L376.0 480.0Z" fill-rule="nonzero"/><path fill="#3fb179" clip-path="url(#id_0)" d="M376.0 480.0L360.0 480.0L364.0 476.0L380.0 476.0Z" fill-rule="nonzero"/><path stroke="#000000" stroke-width="0.0" stroke-linecap="butt" stroke-opacity="0.0" clip-path="url(#id_0)" d="M376.0 502.0L360.0 502.0L360.0 480.0L376.0 480.0Z" fill-rule="nonzero"/><path fill="#0f9d58" clip-path="url(#id_0)" d="M376.0 502.0L360.0 502.0L360.0 480.0L376.0 480.0Z" fill-rule="nonzero"/><path fill="#0a6639" clip-path="url(#id_0)" d="M541.0 449.0L541.0 498.0L537.0 502.0L537.0 453.0Z" fill-rule="nonzero"/><path fill="#3fb179" clip-path="url(#id_0)" d="M537.0 453.0L521.0 453.0L525.0 449.0L541.0 449.0Z" fill-rule="nonzero"/><path stroke="#000000" stroke-width="0.0" stroke-linecap="butt" stroke-opacity="0.0" clip-path="url(#id_0)" d="M537.0 502.0L521.0 502.0L521.0 453.0L537.0 453.0Z" fill-rule="nonzero"/><path fill="#0f9d58" clip-path="url(#id_0)" d="M537.0 502.0L521.0 502.0L521.0 453.0L537.0 453.0Z" fill-rule="nonzero"/><path fill="#0a6639" clip-path="url(#id_0)" d="M702.0 161.0L702.0 498.0L698.0 502.0L698.0 165.0Z" fill-rule="nonzero"/><path fill="#3fb179" clip-path="url(#id_0)" d="M698.0 165.0L682.0 165.0L686.0 161.0L702.0 161.0Z" fill-rule="nonzero"/><path stroke="#000000" stroke-width="0.0" stroke-linecap="butt" stroke-opacity="0.0" clip-path="url(#id_0)" d="M698.0 502.0L682.0 502.0L682.0 165.0L698.0 165.0Z" fill-rule="nonzero"/><path fill="#0f9d58" clip-path="url(#id_0)" d="M698.0 502.0L682.0 502.0L682.0 165.0L698.0 165.0Z" fill-rule="nonzero"/><path fill="#0a6639" clip-path="url(#id_0)" d="M863.0 -2867.0L863.0 498.0L859.0 502.0L859.0 -2863.0Z" fill-rule="nonzero"/><path fill="#3fb179" clip-path="url(#id_0)" d="M859.0 -2863.0L843.0 -2863.0L847.0 -2867.0L863.0 -2867.0Z" fill-rule="nonzero"/><path stroke="#000000" stroke-width="0.0" stroke-linecap="butt" stroke-opacity="0.0" clip-path="url(#id_0)" d="M859.0 502.0L843.0 502.0L843.0 -2863.0L859.0 -2863.0Z" fill-rule="nonzero"/><path fill="#0f9d58" clip-path="url(#id_0)" d="M859.0 502.0L843.0 502.0L843.0 -2863.0L859.0 -2863.0Z" fill-rule="nonzero"/><path fill="#a64700" clip-path="url(#id_0)" d="M236.0 476.0L236.0 498.0L232.0 502.0L232.0 480.0Z" fill-rule="nonzero"/><path fill="#ff8a33" clip-path="url(#id_0)" d="M232.0 480.0L216.0 480.0L220.0 476.0L236.0 476.0Z" fill-rule="nonzero"/><path stroke="#000000" stroke-width="0.0" stroke-linecap="butt" stroke-opacity="0.0" clip-path="url(#id_0)" d="M232.0 502.0L216.0 502.0L216.0 480.0L232.0 480.0Z" fill-rule="nonzero"/><path fill="#ff6d00" clip-path="url(#id_0)" d="M232.0 502.0L216.0 502.0L216.0 480.0L232.0 480.0Z" fill-rule="nonzero"/><path fill="#a64700" clip-path="url(#id_0)" d="M397.0 473.0L397.0 498.0L393.0 502.0L393.0 477.0Z" fill-rule="nonzero"/><path fill="#ff8a33" clip-path="url(#id_0)" d="M393.0 477.0L377.0 477.0L381.0 473.0L397.0 473.0Z" fill-rule="nonzero"/><path stroke="#000000" stroke-width="0.0" stroke-linecap="butt" stroke-opacity="0.0" clip-path="url(#id_0)" d="M393.0 502.0L377.0 502.0L377.0 477.0L393.0 477.0Z" fill-rule="nonzero"/><path fill="#ff6d00" clip-path="url(#id_0)" d="M393.0 502.0L377.0 502.0L377.0 477.0L393.0 477.0Z" fill-rule="nonzero"/><path fill="#a64700" clip-path="url(#id_0)" d="M558.0 439.0L558.0 498.0L554.0 502.0L554.0 443.0Z" fill-rule="nonzero"/><path fill="#ff8a33" clip-path="url(#id_0)" d="M554.0 443.0L538.0 443.0L542.0 439.0L558.0 439.0Z" fill-rule="nonzero"/><path stroke="#000000" stroke-width="0.0" stroke-linecap="butt" stroke-opacity="0.0" clip-path="url(#id_0)" d="M554.0 502.0L538.0 502.0L538.0 443.0L554.0 443.0Z" fill-rule="nonzero"/><path fill="#ff6d00" clip-path="url(#id_0)" d="M554.0 502.0L538.0 502.0L538.0 443.0L554.0 443.0Z" fill-rule="nonzero"/><path fill="#a64700" clip-path="url(#id_0)" d="M719.0 116.0L719.0 498.0L715.0 502.0L715.0 120.0Z" fill-rule="nonzero"/><path fill="#ff8a33" clip-path="url(#id_0)" d="M715.0 120.0L699.0 120.0L703.0 116.0L719.0 116.0Z" fill-rule="nonzero"/><path stroke="#000000" stroke-width="0.0" stroke-linecap="butt" stroke-opacity="0.0" clip-path="url(#id_0)" d="M715.0 502.0L699.0 502.0L699.0 120.0L715.0 120.0Z" fill-rule="nonzero"/><path fill="#ff6d00" clip-path="url(#id_0)" d="M715.0 502.0L699.0 502.0L699.0 120.0L715.0 120.0Z" fill-rule="nonzero"/><path fill="#a64700" clip-path="url(#id_0)" d="M880.0 -3281.0L880.0 498.0L876.0 502.0L876.0 -3277.0Z" fill-rule="nonzero"/><path fill="#ff8a33" clip-path="url(#id_0)" d="M876.0 -3277.0L860.0 -3277.0L864.0 -3281.0L880.0 -3281.0Z" fill-rule="nonzero"/><path stroke="#000000" stroke-width="0.0" stroke-linecap="butt" stroke-opacity="0.0" clip-path="url(#id_0)" d="M876.0 502.0L860.0 502.0L860.0 -3277.0L876.0 -3277.0Z" fill-rule="nonzero"/><path fill="#ff6d00" clip-path="url(#id_0)" d="M876.0 502.0L860.0 502.0L860.0 -3277.0L876.0 -3277.0Z" fill-rule="nonzero"/><path fill="#2e7b81" clip-path="url(#id_0)" d="M253.0 365.0L253.0 498.0L249.0 502.0L249.0 369.0Z" fill-rule="nonzero"/><path fill="#6bcad1" clip-path="url(#id_0)" d="M249.0 369.0L233.0 369.0L237.0 365.0L253.0 365.0Z" fill-rule="nonzero"/><path stroke="#000000" stroke-width="0.0" stroke-linecap="butt" stroke-opacity="0.0" clip-path="url(#id_0)" d="M249.0 502.0L233.0 502.0L233.0 369.0L249.0 369.0Z" fill-rule="nonzero"/><path fill="#46bdc6" clip-path="url(#id_0)" d="M249.0 502.0L233.0 502.0L233.0 369.0L249.0 369.0Z" fill-rule="nonzero"/><path fill="#2e7b81" clip-path="url(#id_0)" d="M414.0 342.0L414.0 498.0L410.0 502.0L410.0 346.0Z" fill-rule="nonzero"/><path fill="#6bcad1" clip-path="url(#id_0)" d="M410.0 346.0L394.0 346.0L398.0 342.0L414.0 342.0Z" fill-rule="nonzero"/><path stroke="#000000" stroke-width="0.0" stroke-linecap="butt" stroke-opacity="0.0" clip-path="url(#id_0)" d="M410.0 502.0L394.0 502.0L394.0 346.0L410.0 346.0Z" fill-rule="nonzero"/><path fill="#46bdc6" clip-path="url(#id_0)" d="M410.0 502.0L394.0 502.0L394.0 346.0L410.0 346.0Z" fill-rule="nonzero"/><path fill="#2e7b81" clip-path="url(#id_0)" d="M575.0 52.0L575.0 498.0L571.0 502.0L571.0 56.0Z" fill-rule="nonzero"/><path fill="#6bcad1" clip-path="url(#id_0)" d="M571.0 56.0L555.0 56.0L559.0 52.0L575.0 52.0Z" fill-rule="nonzero"/><path stroke="#000000" stroke-width="0.0" stroke-linecap="butt" stroke-opacity="0.0" clip-path="url(#id_0)" d="M571.0 502.0L555.0 502.0L555.0 56.0L571.0 56.0Z" fill-rule="nonzero"/><path fill="#46bdc6" clip-path="url(#id_0)" d="M571.0 502.0L555.0 502.0L555.0 56.0L571.0 56.0Z" fill-rule="nonzero"/><path fill="#2e7b81" clip-path="url(#id_0)" d="M736.0 -3814.0L736.0 498.0L732.0 502.0L732.0 -3810.0Z" fill-rule="nonzero"/><path fill="#6bcad1" clip-path="url(#id_0)" d="M732.0 -3810.0L716.0 -3810.0L720.0 -3814.0L736.0 -3814.0Z" fill-rule="nonzero"/><path stroke="#000000" stroke-width="0.0" stroke-linecap="butt" stroke-opacity="0.0" clip-path="url(#id_0)" d="M732.0 502.0L716.0 502.0L716.0 -3810.0L732.0 -3810.0Z" fill-rule="nonzero"/><path fill="#46bdc6" clip-path="url(#id_0)" d="M732.0 502.0L716.0 502.0L716.0 -3810.0L732.0 -3810.0Z" fill-rule="nonzero"/><path fill="#2e7b81" clip-path="url(#id_0)" d="M897.0 -44819.0L897.0 498.0L893.0 502.0L893.0 -44815.0Z" fill-rule="nonzero"/><path fill="#6bcad1" clip-path="url(#id_0)" d="M893.0 -44815.0L877.0 -44815.0L881.0 -44819.0L897.0 -44819.0Z" fill-rule="nonzero"/><path stroke="#000000" stroke-width="0.0" stroke-linecap="butt" stroke-opacity="0.0" clip-path="url(#id_0)" d="M893.0 502.0L877.0 502.0L877.0 -44815.0L893.0 -44815.0Z" fill-rule="nonzero"/><path fill="#46bdc6" clip-path="url(#id_0)" d="M893.0 502.0L877.0 502.0L877.0 -44815.0L893.0 -44815.0Z" fill-rule="nonzero"/><path fill="#757575" d="M60.39375 498.6375Q60.39375 501.8094 59.315624 503.35626Q58.2375 504.90314 55.925 504.90314Q53.64375 504.90314 52.55 503.3875Q51.45625 501.8719 51.425 498.8719L51.425 496.46564Q51.425 493.325 52.503124 491.8094Q53.596874 490.27814 55.909374 490.27814Q58.20625 490.27814 59.284374 491.7625Q60.3625 493.23126 60.39375 496.29376L60.39375 498.6375ZM58.596874 496.16876Q58.596874 493.8719 57.940624 492.825Q57.3 491.7625 55.909374 491.7625Q54.51875 491.7625 53.878124 492.8094Q53.253124 493.85626 53.2375 496.02814L53.2375 498.91876Q53.2375 501.21564 53.89375 502.325Q54.565624 503.41876 55.925 503.41876Q57.26875 503.41876 57.909374 502.3875Q58.565624 501.35626 58.596874 499.1219L58.596874 496.16876ZM64.6125 494.1375L64.6125 500.3094Q64.62813 501.90314 65.12813 502.66876Q65.62813 503.4344 66.75313 503.4344Q68.70625 503.4344 69.31563 501.95L69.31563 494.1375L71.12813 494.1375L71.12813 504.7L69.4875 504.7L69.40938 503.575Q68.50313 504.90314 66.83125 504.90314Q65.40938 504.90314 64.6125 504.1844L64.6125 508.7625L62.8 508.7625L62.8 494.1375L64.6125 494.1375ZM79.81563 501.90314Q79.81563 501.16876 79.26875 500.7625Q78.72188 500.35626 77.34688 500.0594Q75.97188 499.7625 75.15938 499.35626Q74.3625 498.95 73.97188 498.3875Q73.59688 497.8094 73.59688 497.02814Q73.59688 495.73126 74.69063 494.84064Q75.78438 493.9344 77.50313 493.9344Q79.3 493.9344 80.40938 494.8719Q81.53438 495.79376 81.53438 497.23126L79.70625 497.23126Q79.70625 496.4969 79.08125 495.96564Q78.45625 495.41876 77.50313 495.41876Q76.50313 495.41876 75.94063 495.85626Q75.39375 496.27814 75.39375 496.98126Q75.39375 497.6219 75.90938 497.96564Q76.425 498.29376 77.78438 498.60626Q79.14375 498.90314 79.97188 499.325Q80.81563 499.73126 81.22188 500.325Q81.62813 500.91876 81.62813 501.7625Q81.62813 503.1844 80.4875 504.04376Q79.3625 504.90314 77.55 504.90314Q76.28438 504.90314 75.3 504.45Q74.33125 503.9969 73.76875 503.2Q73.22188 502.3875 73.22188 501.45L75.03438 501.45Q75.08125 502.35626 75.75313 502.8875Q76.44063 503.41876 77.55 503.41876Q78.58125 503.41876 79.19063 503.0125Q79.81563 502.59064 79.81563 501.90314Z" fill-rule="nonzero"/><path fill="#757575" d="M49.8 390.35L40.4875 390.35L40.4875 389.05313L45.409374 383.58438Q46.503124 382.33438 46.909374 381.56876Q47.33125 380.7875 47.33125 379.95938Q47.33125 378.85 46.659374 378.13126Q45.9875 377.4125 44.8625 377.4125Q43.503124 377.4125 42.753124 378.19376Q42.01875 378.95938 42.01875 380.31876L40.20625 380.31876Q40.20625 378.35 41.471874 377.14688Q42.7375 375.92813 44.8625 375.92813Q46.846874 375.92813 47.9875 376.975Q49.14375 378.02188 49.14375 379.74063Q49.14375 381.85 46.471874 384.74063L42.659374 388.88126L49.8 388.88126L49.8 390.35ZM52.315624 383.225L53.034374 376.13126L60.315624 376.13126L60.315624 377.80313L54.565624 377.80313L54.14375 381.67813Q55.190624 381.06876 56.51875 381.06876Q58.45625 381.06876 59.596874 382.35Q60.7375 383.63126 60.7375 385.81876Q60.7375 388.02188 59.55 389.2875Q58.3625 390.55313 56.2375 390.55313Q54.346874 390.55313 53.159374 389.50626Q51.971874 388.45938 51.8 386.61563L53.51875 386.61563Q53.675 387.83438 54.378124 388.45938Q55.08125 389.06876 56.2375 389.06876Q57.503124 389.06876 58.221874 388.20938Q58.940624 387.35 58.940624 385.83438Q58.940624 384.4125 58.159374 383.55313Q57.378124 382.67813 56.096874 382.67813Q54.909374 382.67813 54.2375 383.19376L53.753124 383.58438L52.315624 383.225ZM64.6125 379.7875L64.6125 385.95938Q64.62813 387.55313 65.12813 388.31876Q65.62813 389.08438 66.75313 389.08438Q68.70625 389.08438 69.31563 387.6L69.31563 379.7875L71.12813 379.7875L71.12813 390.35L69.4875 390.35L69.40938 389.225Q68.50313 390.55313 66.83125 390.55313Q65.40938 390.55313 64.6125 389.83438L64.6125 394.4125L62.8 394.4125L62.8 379.7875L64.6125 379.7875ZM79.81563 387.55313Q79.81563 386.81876 79.26875 386.4125Q78.72188 386.00626 77.34688 385.70938Q75.97188 385.4125 75.15938 385.00626Q74.3625 384.6 73.97188 384.0375Q73.59688 383.45938 73.59688 382.67813Q73.59688 381.38126 74.69063 380.49063Q75.78438 379.58438 77.50313 379.58438Q79.3 379.58438 80.40938 380.52188Q81.53438 381.44376 81.53438 382.88126L79.70625 382.88126Q79.70625 382.14688 79.08125 381.61563Q78.45625 381.06876 77.50313 381.06876Q76.50313 381.06876 75.94063 381.50626Q75.39375 381.92813 75.39375 382.63126Q75.39375 383.27188 75.90938 383.61563Q76.425 383.94376 77.78438 384.25626Q79.14375 384.55313 79.97188 384.975Q80.81563 385.38126 81.22188 385.975Q81.62813 386.56876 81.62813 387.4125Q81.62813 388.83438 80.4875 389.69376Q79.3625 390.55313 77.55 390.55313Q76.28438 390.55313 75.3 390.1Q74.33125 389.64688 73.76875 388.85Q73.22188 388.0375 73.22188 387.1L75.03438 387.1Q75.08125 388.00626 75.75313 388.5375Q76.44063 389.06876 77.55 389.06876Q78.58125 389.06876 79.19063 388.6625Q79.81563 388.24063 79.81563 387.55313Z" fill-rule="nonzero"/><path fill="#757575" d="M41.315624 268.875L42.034374 261.78125L49.315624 261.78125L49.315624 263.45312L43.565624 263.45312L43.14375 267.32812Q44.190624 266.71875 45.51875 266.71875Q47.45625 266.71875 48.596874 268.0Q49.7375 269.28125 49.7375 271.46875Q49.7375 273.67188 48.55 274.9375Q47.3625 276.20312 45.2375 276.20312Q43.346874 276.20312 42.159374 275.15625Q40.971874 274.10938 40.8 272.26562L42.51875 272.26562Q42.675 273.48438 43.378124 274.10938Q44.08125 274.71875 45.2375 274.71875Q46.503124 274.71875 47.221874 273.85938Q47.940624 273.0 47.940624 271.48438Q47.940624 270.0625 47.159374 269.20312Q46.378124 268.32812 45.096874 268.32812Q43.909374 268.32812 43.2375 268.84375L42.753124 269.23438L41.315624 268.875ZM60.39375 269.9375Q60.39375 273.10938 59.315624 274.65625Q58.2375 276.20312 55.925 276.20312Q53.64375 276.20312 52.55 274.6875Q51.45625 273.17188 51.425 270.17188L51.425 267.76562Q51.425 264.625 52.503124 263.10938Q53.596874 261.57812 55.909374 261.57812Q58.20625 261.57812 59.284374 263.0625Q60.3625 264.53125 60.39375 267.59375L60.39375 269.9375ZM58.596874 267.46875Q58.596874 265.17188 57.940624 264.125Q57.3 263.0625 55.909374 263.0625Q54.51875 263.0625 53.878124 264.10938Q53.253124 265.15625 53.2375 267.32812L53.2375 270.21875Q53.2375 272.51562 53.89375 273.625Q54.565624 274.71875 55.925 274.71875Q57.26875 274.71875 57.909374 273.6875Q58.565624 272.65625 58.596874 270.42188L58.596874 267.46875ZM64.6125 265.4375L64.6125 271.60938Q64.62813 273.20312 65.12813 273.96875Q65.62813 274.73438 66.75313 274.73438Q68.70625 274.73438 69.31563 273.25L69.31563 265.4375L71.12813 265.4375L71.12813 276.0L69.4875 276.0L69.40938 274.875Q68.50313 276.20312 66.83125 276.20312Q65.40938 276.20312 64.6125 275.48438L64.6125 280.0625L62.8 280.0625L62.8 265.4375L64.6125 265.4375ZM79.81563 273.20312Q79.81563 272.46875 79.26875 272.0625Q78.72188 271.65625 77.34688 271.35938Q75.97188 271.0625 75.15938 270.65625Q74.3625 270.25 73.97188 269.6875Q73.59688 269.10938 73.59688 268.32812Q73.59688 267.03125 74.69063 266.14062Q75.78438 265.23438 77.50313 265.23438Q79.3 265.23438 80.40938 266.17188Q81.53438 267.09375 81.53438 268.53125L79.70625 268.53125Q79.70625 267.79688 79.08125 267.26562Q78.45625 266.71875 77.50313 266.71875Q76.50313 266.71875 75.94063 267.15625Q75.39375 267.57812 75.39375 268.28125Q75.39375 268.92188 75.90938 269.26562Q76.425 269.59375 77.78438 269.90625Q79.14375 270.20312 79.97188 270.625Q80.81563 271.03125 81.22188 271.625Q81.62813 272.21875 81.62813 273.0625Q81.62813 274.48438 80.4875 275.34375Q79.3625 276.20312 77.55 276.20312Q76.28438 276.20312 75.3 275.75Q74.33125 275.29688 73.76875 274.5Q73.22188 273.6875 73.22188 272.75L75.03438 272.75Q75.08125 273.65625 75.75313 274.1875Q76.44063 274.71875 77.55 274.71875Q78.58125 274.71875 79.19063 274.3125Q79.81563 273.89062 79.81563 273.20312Z" fill-rule="nonzero"/><path fill="#757575" d="M49.659374 148.44687L43.76875 161.65L41.878124 161.65L47.753124 148.91562L40.05 148.91562L40.05 147.43124L49.659374 147.43124L49.659374 148.44687ZM52.315624 154.525L53.034374 147.43124L60.315624 147.43124L60.315624 149.10312L54.565624 149.10312L54.14375 152.97812Q55.190624 152.36874 56.51875 152.36874Q58.45625 152.36874 59.596874 153.65Q60.7375 154.93124 60.7375 157.11874Q60.7375 159.32187 59.55 160.5875Q58.3625 161.85312 56.2375 161.85312Q54.346874 161.85312 53.159374 160.80624Q51.971874 159.75937 51.8 157.91562L53.51875 157.91562Q53.675 159.13437 54.378124 159.75937Q55.08125 160.36874 56.2375 160.36874Q57.503124 160.36874 58.221874 159.50937Q58.940624 158.65 58.940624 157.13437Q58.940624 155.7125 58.159374 154.85312Q57.378124 153.97812 56.096874 153.97812Q54.909374 153.97812 54.2375 154.49374L53.753124 154.88437L52.315624 154.525ZM64.6125 151.0875L64.6125 157.25937Q64.62813 158.85312 65.12813 159.61874Q65.62813 160.38437 66.75313 160.38437Q68.70625 160.38437 69.31563 158.9L69.31563 151.0875L71.12813 151.0875L71.12813 161.65L69.4875 161.65L69.40938 160.525Q68.50313 161.85312 66.83125 161.85312Q65.40938 161.85312 64.6125 161.13437L64.6125 165.7125L62.8 165.7125L62.8 151.0875L64.6125 151.0875ZM79.81563 158.85312Q79.81563 158.11874 79.26875 157.7125Q78.72188 157.30624 77.34688 157.00937Q75.97188 156.7125 75.15938 156.30624Q74.3625 155.9 73.97188 155.3375Q73.59688 154.75937 73.59688 153.97812Q73.59688 152.68124 74.69063 151.79062Q75.78438 150.88437 77.50313 150.88437Q79.3 150.88437 80.40938 151.82187Q81.53438 152.74374 81.53438 154.18124L79.70625 154.18124Q79.70625 153.44687 79.08125 152.91562Q78.45625 152.36874 77.50313 152.36874Q76.50313 152.36874 75.94063 152.80624Q75.39375 153.22812 75.39375 153.93124Q75.39375 154.57187 75.90938 154.91562Q76.425 155.24374 77.78438 155.55624Q79.14375 155.85312 79.97188 156.275Q80.81563 156.68124 81.22188 157.275Q81.62813 157.86874 81.62813 158.7125Q81.62813 160.13437 80.4875 160.99374Q79.3625 161.85312 77.55 161.85312Q76.28438 161.85312 75.3 161.4Q74.33125 160.94687 73.76875 160.15Q73.22188 159.3375 73.22188 158.4L75.03438 158.4Q75.08125 159.30624 75.75313 159.8375Q76.44063 160.36874 77.55 160.36874Q78.58125 160.36874 79.19063 159.9625Q79.81563 159.54062 79.81563 158.85312Z" fill-rule="nonzero"/><path fill="#757575" d="M35.425 47.3L33.596874 47.3L33.596874 35.253124L29.95625 36.596874L29.95625 34.95625L35.14375 33.01875L35.425 33.01875L35.425 47.3ZM49.39375 41.2375Q49.39375 44.409374 48.315624 45.95625Q47.2375 47.503124 44.925 47.503124Q42.64375 47.503124 41.55 45.9875Q40.45625 44.471874 40.425 41.471874L40.425 39.065624Q40.425 35.925 41.503124 34.409374Q42.596874 32.878124 44.909374 32.878124Q47.20625 32.878124 48.284374 34.3625Q49.3625 35.83125 49.39375 38.89375L49.39375 41.2375ZM47.596874 38.76875Q47.596874 36.471874 46.940624 35.425Q46.3 34.3625 44.909374 34.3625Q43.51875 34.3625 42.878124 35.409374Q42.253124 36.45625 42.2375 38.628124L42.2375 41.51875Q42.2375 43.815624 42.89375 44.925Q43.565624 46.01875 44.925 46.01875Q46.26875 46.01875 46.909374 44.9875Q47.565624 43.95625 47.596874 41.721874L47.596874 38.76875ZM60.39375 41.2375Q60.39375 44.409374 59.315624 45.95625Q58.2375 47.503124 55.925 47.503124Q53.64375 47.503124 52.55 45.9875Q51.45625 44.471874 51.425 41.471874L51.425 39.065624Q51.425 35.925 52.503124 34.409374Q53.596874 32.878124 55.909374 32.878124Q58.20625 32.878124 59.284374 34.3625Q60.3625 35.83125 60.39375 38.89375L60.39375 41.2375ZM58.596874 38.76875Q58.596874 36.471874 57.940624 35.425Q57.3 34.3625 55.909374 34.3625Q54.51875 34.3625 53.878124 35.409374Q53.253124 36.45625 53.2375 38.628124L53.2375 41.51875Q53.2375 43.815624 53.89375 44.925Q54.565624 46.01875 55.925 46.01875Q57.26875 46.01875 57.909374 44.9875Q58.565624 43.95625 58.596874 41.721874L58.596874 38.76875ZM64.6125 36.7375L64.6125 42.909374Q64.62813 44.503124 65.12813 45.26875Q65.62813 46.034374 66.75313 46.034374Q68.70625 46.034374 69.31563 44.55L69.31563 36.7375L71.12813 36.7375L71.12813 47.3L69.4875 47.3L69.40938 46.175Q68.50313 47.503124 66.83125 47.503124Q65.40938 47.503124 64.6125 46.784374L64.6125 51.3625L62.8 51.3625L62.8 36.7375L64.6125 36.7375ZM79.81563 44.503124Q79.81563 43.76875 79.26875 43.3625Q78.72188 42.95625 77.34688 42.659374Q75.97188 42.3625 75.15938 41.95625Q74.3625 41.55 73.97188 40.9875Q73.59688 40.409374 73.59688 39.628124Q73.59688 38.33125 74.69063 37.440624Q75.78438 36.534374 77.50313 36.534374Q79.3 36.534374 80.40938 37.471874Q81.53438 38.39375 81.53438 39.83125L79.70625 39.83125Q79.70625 39.096874 79.08125 38.565624Q78.45625 38.01875 77.50313 38.01875Q76.50313 38.01875 75.94063 38.45625Q75.39375 38.878124 75.39375 39.58125Q75.39375 40.221874 75.90938 40.565624Q76.425 40.89375 77.78438 41.20625Q79.14375 41.503124 79.97188 41.925Q80.81563 42.33125 81.22188 42.925Q81.62813 43.51875 81.62813 44.3625Q81.62813 45.784374 80.4875 46.64375Q79.3625 47.503124 77.55 47.503124Q76.28438 47.503124 75.3 47.05Q74.33125 46.596874 73.76875 45.8Q73.22188 44.9875 73.22188 44.05L75.03438 44.05Q75.08125 44.95625 75.75313 45.4875Q76.44063 46.01875 77.55 46.01875Q78.58125 46.01875 79.19063 45.6125Q79.81563 45.190624 79.81563 44.503124Z" fill-rule="nonzero"/><path fill="#757575" d="M190.11136 532.7L188.28323 532.7L188.28323 520.65314L184.64261 521.9969L184.64261 520.35626L189.83011 518.41876L190.11136 518.41876L190.11136 532.7ZM204.08011 526.6375Q204.08011 529.8094 203.00198 531.35626Q201.92386 532.90314 199.61136 532.90314Q197.33011 532.90314 196.23636 531.3875Q195.14261 529.8719 195.11136 526.8719L195.11136 524.46564Q195.11136 521.325 196.18948 519.8094Q197.28323 518.27814 199.59573 518.27814Q201.89261 518.27814 202.97073 519.7625Q204.04886 521.23126 204.08011 524.29376L204.08011 526.6375ZM202.28323 524.16876Q202.28323 521.8719 201.62698 520.825Q200.98636 519.7625 199.59573 519.7625Q198.20511 519.7625 197.56448 520.8094Q196.93948 521.85626 196.92386 524.02814L196.92386 526.91876Q196.92386 529.21564 197.58011 530.325Q198.25198 531.41876 199.61136 531.41876Q200.95511 531.41876 201.59573 530.3875Q202.25198 529.35626 202.28323 527.1219L202.28323 524.16876ZM209.89261 525.9969L212.23636 522.1375L214.34573 522.1375L210.89261 527.35626L214.45511 532.7L212.37698 532.7L209.92386 528.7469L207.48636 532.7L205.39261 532.7L208.95511 527.35626L205.50198 522.1375L207.58011 522.1375L209.89261 525.9969Z" fill-rule="nonzero"/><path fill="#757575" d="M345.62817 532.7L343.80005 532.7L343.80005 520.65314L340.15942 521.9969L340.15942 520.35626L345.34692 518.41876L345.62817 518.41876L345.62817 532.7ZM359.59692 526.6375Q359.59692 529.8094 358.5188 531.35626Q357.44067 532.90314 355.12817 532.90314Q352.84692 532.90314 351.75317 531.3875Q350.65942 529.8719 350.62817 526.8719L350.62817 524.46564Q350.62817 521.325 351.7063 519.8094Q352.80005 518.27814 355.11255 518.27814Q357.40942 518.27814 358.48755 519.7625Q359.56567 521.23126 359.59692 524.29376L359.59692 526.6375ZM357.80005 524.16876Q357.80005 521.8719 357.1438 520.825Q356.50317 519.7625 355.11255 519.7625Q353.72192 519.7625 353.0813 520.8094Q352.4563 521.85626 352.44067 524.02814L352.44067 526.91876Q352.44067 529.21564 353.09692 530.325Q353.7688 531.41876 355.12817 531.41876Q356.47192 531.41876 357.11255 530.3875Q357.7688 529.35626 357.80005 527.1219L357.80005 524.16876ZM370.59692 526.6375Q370.59692 529.8094 369.5188 531.35626Q368.44067 532.90314 366.12817 532.90314Q363.84692 532.90314 362.75317 531.3875Q361.65942 529.8719 361.62817 526.8719L361.62817 524.46564Q361.62817 521.325 362.7063 519.8094Q363.80005 518.27814 366.11255 518.27814Q368.40942 518.27814 369.48755 519.7625Q370.56567 521.23126 370.59692 524.29376L370.59692 526.6375ZM368.80005 524.16876Q368.80005 521.8719 368.1438 520.825Q367.50317 519.7625 366.11255 519.7625Q364.72192 519.7625 364.0813 520.8094Q363.4563 521.85626 363.44067 524.02814L363.44067 526.91876Q363.44067 529.21564 364.09692 530.325Q364.7688 531.41876 366.12817 531.41876Q367.47192 531.41876 368.11255 530.3875Q368.7688 529.35626 368.80005 527.1219L368.80005 524.16876ZM376.40942 525.9969L378.75317 522.1375L380.86255 522.1375L377.40942 527.35626L380.97192 532.7L378.8938 532.7L376.44067 528.7469L374.00317 532.7L371.90942 532.7L375.47192 527.35626L372.0188 522.1375L374.09692 522.1375L376.40942 525.9969Z" fill-rule="nonzero"/><path fill="#757575" d="M501.145 532.7L499.31686 532.7L499.31686 520.65314L495.67624 521.9969L495.67624 520.35626L500.86374 518.41876L501.145 518.41876L501.145 532.7ZM515.1138 526.6375Q515.1138 529.8094 514.03564 531.35626Q512.9575 532.90314 510.645 532.90314Q508.36374 532.90314 507.27 531.3875Q506.17624 529.8719 506.145 526.8719L506.145 524.46564Q506.145 521.325 507.2231 519.8094Q508.31686 518.27814 510.62936 518.27814Q512.9263 518.27814 514.0044 519.7625Q515.0825 521.23126 515.1138 524.29376L515.1138 526.6375ZM513.3169 524.16876Q513.3169 521.8719 512.66064 520.825Q512.02 519.7625 510.62936 519.7625Q509.23874 519.7625 508.5981 520.8094Q507.9731 521.85626 507.9575 524.02814L507.9575 526.91876Q507.9575 529.21564 508.61374 530.325Q509.2856 531.41876 510.645 531.41876Q511.98874 531.41876 512.6294 530.3875Q513.28564 529.35626 513.3169 527.1219L513.3169 524.16876ZM526.1138 526.6375Q526.1138 529.8094 525.03564 531.35626Q523.9575 532.90314 521.645 532.90314Q519.3638 532.90314 518.27 531.3875Q517.1763 529.8719 517.145 526.8719L517.145 524.46564Q517.145 521.325 518.22314 519.8094Q519.3169 518.27814 521.6294 518.27814Q523.9263 518.27814 525.0044 519.7625Q526.0825 521.23126 526.1138 524.29376L526.1138 526.6375ZM524.3169 524.16876Q524.3169 521.8719 523.66064 520.825Q523.02 519.7625 521.6294 519.7625Q520.2388 519.7625 519.59814 520.8094Q518.97314 521.85626 518.9575 524.02814L518.9575 526.91876Q518.9575 529.21564 519.6138 530.325Q520.28564 531.41876 521.645 531.41876Q522.9888 531.41876 523.6294 530.3875Q524.28564 529.35626 524.3169 527.1219L524.3169 524.16876ZM537.1138 526.6375Q537.1138 529.8094 536.03564 531.35626Q534.9575 532.90314 532.645 532.90314Q530.3638 532.90314 529.27 531.3875Q528.1763 529.8719 528.145 526.8719L528.145 524.46564Q528.145 521.325 529.22314 519.8094Q530.3169 518.27814 532.6294 518.27814Q534.9263 518.27814 536.0044 519.7625Q537.0825 521.23126 537.1138 524.29376L537.1138 526.6375ZM535.3169 524.16876Q535.3169 521.8719 534.66064 520.825Q534.02 519.7625 532.6294 519.7625Q531.2388 519.7625 530.59814 520.8094Q529.97314 521.85626 529.9575 524.02814L529.9575 526.91876Q529.9575 529.21564 530.6138 530.325Q531.28564 531.41876 532.645 531.41876Q533.9888 531.41876 534.6294 530.3875Q535.28564 529.35626 535.3169 527.1219L535.3169 524.16876ZM542.9263 525.9969L545.27 522.1375L547.3794 522.1375L543.9263 527.35626L547.4888 532.7L545.41064 532.7L542.9575 528.7469L540.52 532.7L538.4263 532.7L541.9888 527.35626L538.53564 522.1375L540.6138 522.1375L542.9263 525.9969Z" fill-rule="nonzero"/><path fill="#757575" d="M656.6618 532.7L654.8337 532.7L654.8337 520.65314L651.19305 521.9969L651.19305 520.35626L656.38055 518.41876L656.6618 518.41876L656.6618 532.7ZM670.63055 526.6375Q670.63055 529.8094 669.5524 531.35626Q668.4743 532.90314 666.1618 532.90314Q663.88055 532.90314 662.7868 531.3875Q661.69305 529.8719 661.6618 526.8719L661.6618 524.46564Q661.6618 521.325 662.7399 519.8094Q663.8337 518.27814 666.1462 518.27814Q668.44305 518.27814 669.5212 519.7625Q670.5993 521.23126 670.63055 524.29376L670.63055 526.6375ZM668.8337 524.16876Q668.8337 521.8719 668.1774 520.825Q667.5368 519.7625 666.1462 519.7625Q664.75555 519.7625 664.1149 520.8094Q663.4899 521.85626 663.4743 524.02814L663.4743 526.91876Q663.4743 529.21564 664.13055 530.325Q664.8024 531.41876 666.1618 531.41876Q667.50555 531.41876 668.1462 530.3875Q668.8024 529.35626 668.8337 527.1219L668.8337 524.16876ZM681.63055 526.6375Q681.63055 529.8094 680.5524 531.35626Q679.4743 532.90314 677.1618 532.90314Q674.88055 532.90314 673.7868 531.3875Q672.69305 529.8719 672.6618 526.8719L672.6618 524.46564Q672.6618 521.325 673.7399 519.8094Q674.8337 518.27814 677.1462 518.27814Q679.44305 518.27814 680.5212 519.7625Q681.5993 521.23126 681.63055 524.29376L681.63055 526.6375ZM679.8337 524.16876Q679.8337 521.8719 679.1774 520.825Q678.5368 519.7625 677.1462 519.7625Q675.75555 519.7625 675.1149 520.8094Q674.4899 521.85626 674.4743 524.02814L674.4743 526.91876Q674.4743 529.21564 675.13055 530.325Q675.8024 531.41876 677.1618 531.41876Q678.50555 531.41876 679.1462 530.3875Q679.8024 529.35626 679.8337 527.1219L679.8337 524.16876ZM692.63055 526.6375Q692.63055 529.8094 691.5524 531.35626Q690.4743 532.90314 688.1618 532.90314Q685.88055 532.90314 684.7868 531.3875Q683.69305 529.8719 683.6618 526.8719L683.6618 524.46564Q683.6618 521.325 684.7399 519.8094Q685.8337 518.27814 688.1462 518.27814Q690.44305 518.27814 691.5212 519.7625Q692.5993 521.23126 692.63055 524.29376L692.63055 526.6375ZM690.8337 524.16876Q690.8337 521.8719 690.1774 520.825Q689.5368 519.7625 688.1462 519.7625Q686.75555 519.7625 686.1149 520.8094Q685.4899 521.85626 685.4743 524.02814L685.4743 526.91876Q685.4743 529.21564 686.13055 530.325Q686.8024 531.41876 688.1618 531.41876Q689.50555 531.41876 690.1462 530.3875Q690.8024 529.35626 690.8337 527.1219L690.8337 524.16876ZM703.63055 526.6375Q703.63055 529.8094 702.5524 531.35626Q701.4743 532.90314 699.1618 532.90314Q696.88055 532.90314 695.7868 531.3875Q694.69305 529.8719 694.6618 526.8719L694.6618 524.46564Q694.6618 521.325 695.7399 519.8094Q696.8337 518.27814 699.1462 518.27814Q701.44305 518.27814 702.5212 519.7625Q703.5993 521.23126 703.63055 524.29376L703.63055 526.6375ZM701.8337 524.16876Q701.8337 521.8719 701.1774 520.825Q700.5368 519.7625 699.1462 519.7625Q697.75555 519.7625 697.1149 520.8094Q696.4899 521.85626 696.4743 524.02814L696.4743 526.91876Q696.4743 529.21564 697.13055 530.325Q697.8024 531.41876 699.1618 531.41876Q700.50555 531.41876 701.1462 530.3875Q701.8024 529.35626 701.8337 527.1219L701.8337 524.16876ZM709.44305 525.9969L711.7868 522.1375L713.8962 522.1375L710.44305 527.35626L714.00555 532.7L711.9274 532.7L709.4743 528.7469L707.0368 532.7L704.94305 532.7L708.50555 527.35626L705.0524 522.1375L707.13055 522.1375L709.44305 525.9969Z" fill-rule="nonzero"/><path fill="#757575" d="M812.17865 532.7L810.3505 532.7L810.3505 520.65314L806.7099 521.9969L806.7099 520.35626L811.8974 518.41876L812.17865 518.41876L812.17865 532.7ZM826.1474 526.6375Q826.1474 529.8094 825.0693 531.35626Q823.99115 532.90314 821.67865 532.90314Q819.3974 532.90314 818.30365 531.3875Q817.2099 529.8719 817.17865 526.8719L817.17865 524.46564Q817.17865 521.325 818.2568 519.8094Q819.3505 518.27814 821.663 518.27814Q823.9599 518.27814 825.038 519.7625Q826.11615 521.23126 826.1474 524.29376L826.1474 526.6375ZM824.3505 524.16876Q824.3505 521.8719 823.6943 520.825Q823.05365 519.7625 821.663 519.7625Q820.2724 519.7625 819.6318 520.8094Q819.0068 521.85626 818.99115 524.02814L818.99115 526.91876Q818.99115 529.21564 819.6474 530.325Q820.3193 531.41876 821.67865 531.41876Q823.0224 531.41876 823.663 530.3875Q824.3193 529.35626 824.3505 527.1219L824.3505 524.16876ZM837.1474 526.6375Q837.1474 529.8094 836.0693 531.35626Q834.99115 532.90314 832.67865 532.90314Q830.3974 532.90314 829.30365 531.3875Q828.2099 529.8719 828.17865 526.8719L828.17865 524.46564Q828.17865 521.325 829.2568 519.8094Q830.3505 518.27814 832.663 518.27814Q834.9599 518.27814 836.038 519.7625Q837.11615 521.23126 837.1474 524.29376L837.1474 526.6375ZM835.3505 524.16876Q835.3505 521.8719 834.6943 520.825Q834.05365 519.7625 832.663 519.7625Q831.2724 519.7625 830.6318 520.8094Q830.0068 521.85626 829.99115 524.02814L829.99115 526.91876Q829.99115 529.21564 830.6474 530.325Q831.3193 531.41876 832.67865 531.41876Q834.0224 531.41876 834.663 530.3875Q835.3193 529.35626 835.3505 527.1219L835.3505 524.16876ZM848.1474 526.6375Q848.1474 529.8094 847.0693 531.35626Q845.99115 532.90314 843.67865 532.90314Q841.3974 532.90314 840.30365 531.3875Q839.2099 529.8719 839.17865 526.8719L839.17865 524.46564Q839.17865 521.325 840.2568 519.8094Q841.3505 518.27814 843.663 518.27814Q845.9599 518.27814 847.038 519.7625Q848.11615 521.23126 848.1474 524.29376L848.1474 526.6375ZM846.3505 524.16876Q846.3505 521.8719 845.6943 520.825Q845.05365 519.7625 843.663 519.7625Q842.2724 519.7625 841.6318 520.8094Q841.0068 521.85626 840.99115 524.02814L840.99115 526.91876Q840.99115 529.21564 841.6474 530.325Q842.3193 531.41876 843.67865 531.41876Q845.0224 531.41876 845.663 530.3875Q846.3193 529.35626 846.3505 527.1219L846.3505 524.16876ZM859.1474 526.6375Q859.1474 529.8094 858.0693 531.35626Q856.99115 532.90314 854.67865 532.90314Q852.3974 532.90314 851.30365 531.3875Q850.2099 529.8719 850.17865 526.8719L850.17865 524.46564Q850.17865 521.325 851.2568 519.8094Q852.3505 518.27814 854.663 518.27814Q856.9599 518.27814 858.038 519.7625Q859.11615 521.23126 859.1474 524.29376L859.1474 526.6375ZM857.3505 524.16876Q857.3505 521.8719 856.6943 520.825Q856.05365 519.7625 854.663 519.7625Q853.2724 519.7625 852.6318 520.8094Q852.0068 521.85626 851.99115 524.02814L851.99115 526.91876Q851.99115 529.21564 852.6474 530.325Q853.3193 531.41876 854.67865 531.41876Q856.0224 531.41876 856.663 530.3875Q857.3193 529.35626 857.3505 527.1219L857.3505 524.16876ZM870.1474 526.6375Q870.1474 529.8094 869.0693 531.35626Q867.99115 532.90314 865.67865 532.90314Q863.3974 532.90314 862.30365 531.3875Q861.2099 529.8719 861.17865 526.8719L861.17865 524.46564Q861.17865 521.325 862.2568 519.8094Q863.3505 518.27814 865.663 518.27814Q867.9599 518.27814 869.038 519.7625Q870.11615 521.23126 870.1474 524.29376L870.1474 526.6375ZM868.3505 524.16876Q868.3505 521.8719 867.6943 520.825Q867.05365 519.7625 865.663 519.7625Q864.2724 519.7625 863.6318 520.8094Q863.0068 521.85626 862.99115 524.02814L862.99115 526.91876Q862.99115 529.21564 863.6474 530.325Q864.3193 531.41876 865.67865 531.41876Q867.0224 531.41876 867.663 530.3875Q868.3193 529.35626 868.3505 527.1219L868.3505 524.16876ZM875.9599 525.9969L878.30365 522.1375L880.413 522.1375L876.9599 527.35626L880.5224 532.7L878.4443 532.7L875.99115 528.7469L873.55365 532.7L871.4599 532.7L875.0224 527.35626L871.5693 522.1375L873.6474 522.1375L875.9599 525.9969Z" fill-rule="nonzero"/><path fill="#4285f4" d="M987.7 35.3C987.7 34.747715 988.1477 34.3 988.7 34.3L998.7 34.3C999.25226 34.3 999.7 34.747715 999.7 35.3L999.7 45.3C999.7 45.852283 999.25226 46.3 998.7 46.3L988.7 46.3C988.1477 46.3 987.7 45.852283 987.7 45.3Z" fill-rule="nonzero"/><path fill="#757575" d="M1013.54376 40.95625Q1011.1219 40.26875 1010.02814 39.26875Q1008.9344 38.253124 1008.9344 36.76875Q1008.9344 35.08125 1010.27814 33.9875Q1011.6219 32.878124 1013.7625 32.878124Q1015.23126 32.878124 1016.3719 33.45625Q1017.52814 34.01875 1018.15314 35.01875Q1018.77814 36.003124 1018.77814 37.190624L1016.90314 37.190624Q1016.90314 35.909374 1016.075 35.175Q1015.2625 34.425 1013.7625 34.425Q1012.3719 34.425 1011.59064 35.034374Q1010.825 35.64375 1010.825 36.7375Q1010.825 37.596874 1011.5594 38.20625Q1012.29376 38.8 1014.0594 39.3Q1015.84064 39.8 1016.84064 40.409374Q1017.84064 41.003124 1018.325 41.8Q1018.8094 42.596874 1018.8094 43.690624Q1018.8094 45.409374 1017.46564 46.45625Q1016.1219 47.503124 1013.85626 47.503124Q1012.40314 47.503124 1011.1219 46.940624Q1009.85626 46.378124 1009.16876 45.409374Q1008.48126 44.425 1008.48126 43.175L1010.3719 43.175Q1010.3719 44.471874 1011.325 45.221874Q1012.27814 45.95625 1013.85626 45.95625Q1015.34064 45.95625 1016.1375 45.3625Q1016.9344 44.753124 1016.9344 43.70625Q1016.9344 42.659374 1016.2 42.096874Q1015.46564 41.51875 1013.54376 40.95625ZM1029.9968 42.128124Q1029.9968 44.55 1028.8875 46.034374Q1027.7937 47.503124 1025.9031 47.503124Q1023.98126 47.503124 1022.8719 46.26875L1022.8719 51.3625L1021.075 51.3625L1021.075 36.7375L1022.71564 36.7375L1022.8094 37.909374Q1023.90314 36.534374 1025.8718 36.534374Q1027.7781 36.534374 1028.8875 37.971874Q1029.9968 39.409374 1029.9968 41.971874L1029.9968 42.128124ZM1028.1843 41.925Q1028.1843 40.14375 1027.4187 39.1125Q1026.6687 38.065624 1025.3406 38.065624Q1023.7 38.065624 1022.8719 39.51875L1022.8719 44.58125Q1023.6844 46.01875 1025.3562 46.01875Q1026.6531 46.01875 1027.4187 44.9875Q1028.1843 43.95625 1028.1843 41.925ZM1034.0281 47.3L1032.2312 47.3L1032.2312 32.3L1034.0281 32.3L1034.0281 47.3ZM1039.7781 33.08125L1044.4187 44.675L1049.075 33.08125L1051.4968 33.08125L1051.4968 47.3L1049.6218 47.3L1049.6218 41.76875L1049.8093 35.784374L1045.1375 47.3L1043.7 47.3L1039.0437 35.815624L1039.2312 41.76875L1039.2312 47.3L1037.3562 47.3L1037.3562 33.08125L1039.7781 33.08125ZM1056.0281 47.3L1054.2312 47.3L1054.2312 36.7375L1056.0281 36.7375L1056.0281 47.3ZM1054.075 33.925Q1054.075 33.4875 1054.3406 33.190624Q1054.6218 32.878124 1055.1375 32.878124Q1055.6687 32.878124 1055.9343 33.190624Q1056.2156 33.4875 1056.2156 33.925Q1056.2156 34.3625 1055.9343 34.659374Q1055.6687 34.95625 1055.1375 34.95625Q1054.6218 34.95625 1054.3406 34.659374Q1054.075 34.3625 1054.075 33.925ZM1060.7781 36.7375L1060.8406 38.065624Q1062.0437 36.534374 1063.9968 36.534374Q1067.3562 36.534374 1067.3718 40.315624L1067.3718 47.3L1065.575 47.3L1065.575 40.3Q1065.5593 39.159374 1065.0437 38.6125Q1064.5437 38.065624 1063.45 38.065624Q1062.575 38.065624 1061.9031 38.534374Q1061.2468 39.003124 1060.8718 39.76875L1060.8718 47.3L1059.075 47.3L1059.075 36.7375L1060.7781 36.7375ZM1081.2781 47.3L1079.3875 47.3L1079.3875 40.721874L1072.2312 40.721874L1072.2312 47.3L1070.3562 47.3L1070.3562 33.08125L1072.2312 33.08125L1072.2312 39.190624L1079.3875 39.190624L1079.3875 33.08125L1081.2781 33.08125L1081.2781 47.3ZM1088.45 47.503124Q1086.3093 47.503124 1084.95 46.096874Q1083.6062 44.675 1083.6062 42.315624L1083.6062 41.971874Q1083.6062 40.409374 1084.2 39.175Q1084.8093 37.940624 1085.8875 37.2375Q1086.9656 36.534374 1088.2312 36.534374Q1090.2937 36.534374 1091.4343 37.89375Q1092.575 39.253124 1092.575 41.784374L1092.575 42.534374L1085.4187 42.534374Q1085.45 44.096874 1086.325 45.065624Q1087.2 46.01875 1088.5437 46.01875Q1089.5125 46.01875 1090.1687 45.628124Q1090.8406 45.2375 1091.3406 44.596874L1092.4343 45.45625Q1091.1062 47.503124 1088.45 47.503124ZM1088.2312 38.01875Q1087.1375 38.01875 1086.3875 38.815624Q1085.6531 39.6125 1085.4812 41.05L1090.7625 41.05L1090.7625 40.909374Q1090.6843 39.534374 1090.0125 38.784374Q1089.3562 38.01875 1088.2312 38.01875ZM1101.5906 47.3Q1101.4343 46.9875 1101.3406 46.190624Q1100.075 47.503124 1098.325 47.503124Q1096.7625 47.503124 1095.7625 46.6125Q1094.7625 45.721874 1094.7625 44.3625Q1094.7625 42.721874 1096.0125 41.815624Q1097.2781 40.89375 1099.5437 40.89375L1101.3093 40.89375L1101.3093 40.065624Q1101.3093 39.1125 1100.7312 38.55Q1100.1687 37.9875 1099.075 37.9875Q1098.1062 37.9875 1097.45 38.4875Q1096.7937 38.971874 1096.7937 39.659374L1094.9812 39.659374Q1094.9812 38.878124 1095.5437 38.14375Q1096.1062 37.39375 1097.0593 36.971874Q1098.0281 36.534374 1099.1843 36.534374Q1101.0125 36.534374 1102.0437 37.45625Q1103.075 38.3625 1103.1218 39.971874L1103.1218 44.83125Q1103.1218 46.284374 1103.4812 47.14375L1103.4812 47.3L1101.5906 47.3ZM1098.5906 45.925Q1099.45 45.925 1100.2 45.4875Q1100.9656 45.05 1101.3093 44.346874L1101.3093 42.175L1099.8875 42.175Q1096.575 42.175 1096.575 44.1125Q1096.575 44.971874 1097.1375 45.45625Q1097.7 45.925 1098.5906 45.925ZM1114.9968 42.128124Q1114.9968 44.55 1113.8875 46.034374Q1112.7937 47.503124 1110.9031 47.503124Q1108.9812 47.503124 1107.8718 46.26875L1107.8718 51.3625L1106.075 51.3625L1106.075 36.7375L1107.7156 36.7375L1107.8093 37.909374Q1108.9031 36.534374 1110.8718 36.534374Q1112.7781 36.534374 1113.8875 37.971874Q1114.9968 39.409374 1114.9968 41.971874L1114.9968 42.128124ZM1113.1843 41.925Q1113.1843 40.14375 1112.4187 39.1125Q1111.6687 38.065624 1110.3406 38.065624Q1108.7 38.065624 1107.8718 39.51875L1107.8718 44.58125Q1108.6843 46.01875 1110.3562 46.01875Q1111.6531 46.01875 1112.4187 44.9875Q1113.1843 43.95625 1113.1843 41.925Z" fill-rule="nonzero"/><path fill="#db4437" d="M987.7 69.3C987.7 68.74772 988.1477 68.3 988.7 68.3L998.7 68.3C999.25226 68.3 999.7 68.74772 999.7 69.3L999.7 79.3C999.7 79.85229 999.25226 80.3 998.7 80.3L988.7 80.3C988.1477 80.3 987.7 79.85229 987.7 79.3Z" fill-rule="nonzero"/><path fill="#757575" d="M1019.85626 79.44063Q1019.1219 80.47188 1017.825 80.9875Q1016.54376 81.50313 1014.825 81.50313Q1013.075 81.50313 1011.73126 80.69063Q1010.3875 79.8625 1009.65314 78.3625Q1008.91876 76.8625 1008.8875 74.87813L1008.8875 73.62813Q1008.8875 70.425 1010.3875 68.65938Q1011.8875 66.87813 1014.60626 66.87813Q1016.825 66.87813 1018.1844 68.01875Q1019.54376 69.15938 1019.85626 71.25313L1017.98126 71.25313Q1017.45 68.425 1014.6219 68.425Q1012.73126 68.425 1011.7625 69.75313Q1010.79376 71.08125 1010.77814 73.58125L1010.77814 74.75313Q1010.77814 77.14375 1011.8719 78.55Q1012.96564 79.95625 1014.825 79.95625Q1015.8875 79.95625 1016.66876 79.72188Q1017.46564 79.4875 1017.98126 78.94063L1017.98126 75.7375L1014.7 75.7375L1014.7 74.22188L1019.85626 74.22188L1019.85626 79.44063ZM1027.45 81.50313Q1025.3093 81.50313 1023.95 80.09688Q1022.60626 78.675 1022.60626 76.31563L1022.60626 75.97188Q1022.60626 74.40938 1023.2 73.175Q1023.8094 71.94063 1024.8875 71.2375Q1025.9656 70.53438 1027.2312 70.53438Q1029.2937 70.53438 1030.4343 71.89375Q1031.575 73.25313 1031.575 75.78438L1031.575 76.53438L1024.4187 76.53438Q1024.45 78.09688 1025.325 79.06563Q1026.2 80.01875 1027.5437 80.01875Q1028.5125 80.01875 1029.1687 79.62813Q1029.8406 79.2375 1030.3406 78.59688L1031.4343 79.45625Q1030.1062 81.50313 1027.45 81.50313ZM1027.2312 72.01875Q1026.1375 72.01875 1025.3875 72.81563Q1024.6531 73.6125 1024.4812 75.05L1029.7625 75.05L1029.7625 74.90938Q1029.6843 73.53438 1029.0125 72.78438Q1028.3562 72.01875 1027.2312 72.01875ZM1035.7781 70.7375L1035.8406 72.06563Q1037.0437 70.53438 1038.9968 70.53438Q1042.3562 70.53438 1042.3718 74.31563L1042.3718 81.3L1040.575 81.3L1040.575 74.3Q1040.5593 73.15938 1040.0437 72.6125Q1039.5437 72.06563 1038.45 72.06563Q1037.575 72.06563 1036.9031 72.53438Q1036.2468 73.00313 1035.8718 73.76875L1035.8718 81.3L1034.075 81.3L1034.075 70.7375L1035.7781 70.7375ZM1049.45 81.50313Q1047.3093 81.50313 1045.95 80.09688Q1044.6062 78.675 1044.6062 76.31563L1044.6062 75.97188Q1044.6062 74.40938 1045.2 73.175Q1045.8093 71.94063 1046.8875 71.2375Q1047.9656 70.53438 1049.2312 70.53438Q1051.2937 70.53438 1052.4343 71.89375Q1053.575 73.25313 1053.575 75.78438L1053.575 76.53438L1046.4187 76.53438Q1046.45 78.09688 1047.325 79.06563Q1048.2 80.01875 1049.5437 80.01875Q1050.5125 80.01875 1051.1687 79.62813Q1051.8406 79.2375 1052.3406 78.59688L1053.4343 79.45625Q1052.1062 81.50313 1049.45 81.50313ZM1049.2312 72.01875Q1048.1375 72.01875 1047.3875 72.81563Q1046.6531 73.6125 1046.4812 75.05L1051.7625 75.05L1051.7625 74.90938Q1051.6843 73.53438 1051.0125 72.78438Q1050.3562 72.01875 1049.2312 72.01875ZM1061.1687 72.34688Q1060.7625 72.28438 1060.2937 72.28438Q1058.5125 72.28438 1057.8718 73.8L1057.8718 81.3L1056.075 81.3L1056.075 70.7375L1057.825 70.7375L1057.8562 71.95625Q1058.7468 70.53438 1060.3718 70.53438Q1060.9031 70.53438 1061.1687 70.675L1061.1687 72.34688ZM1065.0281 81.3L1063.2312 81.3L1063.2312 70.7375L1065.0281 70.7375L1065.0281 81.3ZM1063.075 67.925Q1063.075 67.4875 1063.3406 67.19063Q1063.6218 66.87813 1064.1375 66.87813Q1064.6687 66.87813 1064.9343 67.19063Q1065.2156 67.4875 1065.2156 67.925Q1065.2156 68.3625 1064.9343 68.65938Q1064.6687 68.95625 1064.1375 68.95625Q1063.6218 68.95625 1063.3406 68.65938Q1063.075 68.3625 1063.075 67.925ZM1072.3093 80.01875Q1073.2781 80.01875 1073.9968 79.44063Q1074.7156 78.84688 1074.7937 77.97188L1076.5125 77.97188Q1076.45 78.87813 1075.8718 79.70625Q1075.3093 80.51875 1074.3406 81.01875Q1073.3875 81.50313 1072.3093 81.50313Q1070.1531 81.50313 1068.8718 80.06563Q1067.6062 78.6125 1067.6062 76.1125L1067.6062 75.81563Q1067.6062 74.26875 1068.1687 73.06563Q1068.7312 71.8625 1069.7937 71.20625Q1070.8562 70.53438 1072.2937 70.53438Q1074.075 70.53438 1075.2468 71.59688Q1076.4343 72.65938 1076.5125 74.3625L1074.7937 74.3625Q1074.7156 73.34688 1074.0125 72.69063Q1073.325 72.01875 1072.2937 72.01875Q1070.9187 72.01875 1070.1531 73.01875Q1069.4031 74.00313 1069.4031 75.87813L1069.4031 76.22188Q1069.4031 78.05 1070.1531 79.03438Q1070.9031 80.01875 1072.3093 80.01875ZM1082.5437 74.95625Q1080.1218 74.26875 1079.0281 73.26875Q1077.9343 72.25313 1077.9343 70.76875Q1077.9343 69.08125 1079.2781 67.9875Q1080.6218 66.87813 1082.7625 66.87813Q1084.2312 66.87813 1085.3718 67.45625Q1086.5281 68.01875 1087.1531 69.01875Q1087.7781 70.00313 1087.7781 71.19063L1085.9031 71.19063Q1085.9031 69.90938 1085.075 69.175Q1084.2625 68.425 1082.7625 68.425Q1081.3718 68.425 1080.5906 69.03438Q1079.825 69.64375 1079.825 70.7375Q1079.825 71.59688 1080.5593 72.20625Q1081.2937 72.8 1083.0593 73.3Q1084.8406 73.8 1085.8406 74.40938Q1086.8406 75.00313 1087.325 75.8Q1087.8093 76.59688 1087.8093 77.69063Q1087.8093 79.40938 1086.4656 80.45625Q1085.1218 81.50313 1082.8562 81.50313Q1081.4031 81.50313 1080.1218 80.94063Q1078.8562 80.37813 1078.1687 79.40938Q1077.4812 78.425 1077.4812 77.175L1079.3718 77.175Q1079.3718 78.47188 1080.325 79.22188Q1081.2781 79.95625 1082.8562 79.95625Q1084.3406 79.95625 1085.1375 79.3625Q1085.9343 78.75313 1085.9343 77.70625Q1085.9343 76.65938 1085.2 76.09688Q1084.4656 75.51875 1082.5437 74.95625ZM1098.9968 76.12813Q1098.9968 78.55 1097.8875 80.03438Q1096.7937 81.50313 1094.9031 81.50313Q1092.9812 81.50313 1091.8718 80.26875L1091.8718 85.3625L1090.075 85.3625L1090.075 70.7375L1091.7156 70.7375L1091.8093 71.90938Q1092.9031 70.53438 1094.8718 70.53438Q1096.7781 70.53438 1097.8875 71.97188Q1098.9968 73.40938 1098.9968 75.97188L1098.9968 76.12813ZM1097.1843 75.925Q1097.1843 74.14375 1096.4187 73.1125Q1095.6687 72.06563 1094.3406 72.06563Q1092.7 72.06563 1091.8718 73.51875L1091.8718 78.58125Q1092.6843 80.01875 1094.3562 80.01875Q1095.6531 80.01875 1096.4187 78.9875Q1097.1843 77.95625 1097.1843 75.925ZM1103.0281 81.3L1101.2312 81.3L1101.2312 66.3L1103.0281 66.3L1103.0281 81.3ZM1117.2781 81.3L1115.3875 81.3L1115.3875 74.72188L1108.2312 74.72188L1108.2312 81.3L1106.3562 81.3L1106.3562 67.08125L1108.2312 67.08125L1108.2312 73.19063L1115.3875 73.19063L1115.3875 67.08125L1117.2781 67.08125L1117.2781 81.3ZM1124.45 81.50313Q1122.3093 81.50313 1120.95 80.09688Q1119.6062 78.675 1119.6062 76.31563L1119.6062 75.97188Q1119.6062 74.40938 1120.2 73.175Q1120.8093 71.94063 1121.8875 71.2375Q1122.9656 70.53438 1124.2312 70.53438Q1126.2937 70.53438 1127.4343 71.89375Q1128.575 73.25313 1128.575 75.78438L1128.575 76.53438L1121.4187 76.53438Q1121.45 78.09688 1122.325 79.06563Q1123.2 80.01875 1124.5437 80.01875Q1125.5125 80.01875 1126.1687 79.62813Q1126.8406 79.2375 1127.3406 78.59688L1128.4343 79.45625Q1127.1062 81.50313 1124.45 81.50313ZM1124.2312 72.01875Q1123.1375 72.01875 1122.3875 72.81563Q1121.6531 73.6125 1121.4812 75.05L1126.7625 75.05L1126.7625 74.90938Q1126.6843 73.53438 1126.0125 72.78438Q1125.3562 72.01875 1124.2312 72.01875ZM1137.5906 81.3Q1137.4343 80.9875 1137.3406 80.19063Q1136.075 81.50313 1134.325 81.50313Q1132.7625 81.50313 1131.7625 80.6125Q1130.7625 79.72188 1130.7625 78.3625Q1130.7625 76.72188 1132.0125 75.81563Q1133.2781 74.89375 1135.5437 74.89375L1137.3093 74.89375L1137.3093 74.06563Q1137.3093 73.1125 1136.7312 72.55Q1136.1687 71.9875 1135.075 71.9875Q1134.1062 71.9875 1133.45 72.4875Q1132.7937 72.97188 1132.7937 73.65938L1130.9812 73.65938Q1130.9812 72.87813 1131.5437 72.14375Q1132.1062 71.39375 1133.0593 70.97188Q1134.0281 70.53438 1135.1843 70.53438Q1137.0125 70.53438 1138.0437 71.45625Q1139.075 72.3625 1139.1218 73.97188L1139.1218 78.83125Q1139.1218 80.28438 1139.4812 81.14375L1139.4812 81.3L1137.5906 81.3ZM1134.5906 79.925Q1135.45 79.925 1136.2 79.4875Q1136.9656 79.05 1137.3093 78.34688L1137.3093 76.175L1135.8875 76.175Q1132.575 76.175 1132.575 78.1125Q1132.575 78.97188 1133.1375 79.45625Q1133.7 79.925 1134.5906 79.925ZM1150.9968 76.12813Q1150.9968 78.55 1149.8875 80.03438Q1148.7937 81.50313 1146.9031 81.50313Q1144.9812 81.50313 1143.8718 80.26875L1143.8718 85.3625L1142.075 85.3625L1142.075 70.7375L1143.7156 70.7375L1143.8093 71.90938Q1144.9031 70.53438 1146.8718 70.53438Q1148.7781 70.53438 1149.8875 71.97188Q1150.9968 73.40938 1150.9968 75.97188L1150.9968 76.12813ZM1149.1843 75.925Q1149.1843 74.14375 1148.4187 73.1125Q1147.6687 72.06563 1146.3406 72.06563Q1144.7 72.06563 1143.8718 73.51875L1143.8718 78.58125Q1144.6843 80.01875 1146.3562 80.01875Q1147.6531 80.01875 1148.4187 78.9875Q1149.1843 77.95625 1149.1843 75.925Z" fill-rule="nonzero"/><path fill="#f4b400" d="M987.7 103.3C987.7 102.74772 988.1477 102.3 988.7 102.3L998.7 102.3C999.25226 102.3 999.7 102.74772 999.7 103.3L999.7 113.3C999.7 113.85229 999.25226 114.3 998.7 114.3L988.7 114.3C988.1477 114.3 987.7 113.85229 987.7 113.3Z" fill-rule="nonzero"/><path fill="#757575" d="M1009.35626 115.3L1009.35626 101.08125L1013.9969 101.08125Q1016.3094 101.08125 1017.48126 102.03438Q1018.65314 102.9875 1018.65314 104.8625Q1018.65314 105.8625 1018.075 106.62813Q1017.5125 107.39375 1016.54376 107.81563Q1017.6844 108.14375 1018.35626 109.05Q1019.02814 109.94063 1019.02814 111.19063Q1019.02814 113.1125 1017.77814 114.20625Q1016.54376 115.3 1014.27814 115.3L1009.35626 115.3ZM1011.23126 108.64375L1011.23126 113.76875L1014.325 113.76875Q1015.6375 113.76875 1016.3875 113.09688Q1017.1375 112.40938 1017.1375 111.22188Q1017.1375 108.64375 1014.35626 108.64375L1011.23126 108.64375ZM1011.23126 107.14375L1014.0594 107.14375Q1015.29376 107.14375 1016.02814 106.53438Q1016.7625 105.90938 1016.7625 104.8625Q1016.7625 103.69063 1016.075 103.15938Q1015.40314 102.62813 1013.9969 102.62813L1011.23126 102.62813L1011.23126 107.14375ZM1023.02814 115.3L1021.23126 115.3L1021.23126 104.7375L1023.02814 104.7375L1023.02814 115.3ZM1021.075 101.925Q1021.075 101.4875 1021.34064 101.19063Q1021.6219 100.87813 1022.1375 100.87813Q1022.66876 100.87813 1022.9344 101.19063Q1023.21564 101.4875 1023.21564 101.925Q1023.21564 102.3625 1022.9344 102.65938Q1022.66876 102.95625 1022.1375 102.95625Q1021.6219 102.95625 1021.34064 102.65938Q1021.075 102.3625 1021.075 101.925ZM1027.7781 104.7375L1027.8406 106.06563Q1029.0437 104.53438 1030.9968 104.53438Q1034.3562 104.53438 1034.3718 108.31563L1034.3718 115.3L1032.575 115.3L1032.575 108.3Q1032.5593 107.15938 1032.0437 106.6125Q1031.5437 106.06563 1030.45 106.06563Q1029.575 106.06563 1028.9031 106.53438Q1028.2468 107.00313 1027.8718 107.76875L1027.8718 115.3L1026.075 115.3L1026.075 104.7375L1027.7781 104.7375ZM1043.5906 115.3Q1043.4343 114.9875 1043.3406 114.19063Q1042.075 115.50313 1040.325 115.50313Q1038.7625 115.50313 1037.7625 114.6125Q1036.7625 113.72188 1036.7625 112.3625Q1036.7625 110.72188 1038.0125 109.81563Q1039.2781 108.89375 1041.5437 108.89375L1043.3093 108.89375L1043.3093 108.06563Q1043.3093 107.1125 1042.7312 106.55Q1042.1687 105.9875 1041.075 105.9875Q1040.1062 105.9875 1039.45 106.4875Q1038.7937 106.97188 1038.7937 107.65938L1036.9812 107.65938Q1036.9812 106.87813 1037.5437 106.14375Q1038.1062 105.39375 1039.0593 104.97188Q1040.0281 104.53438 1041.1843 104.53438Q1043.0125 104.53438 1044.0437 105.45625Q1045.075 106.3625 1045.1218 107.97188L1045.1218 112.83125Q1045.1218 114.28438 1045.4812 115.14375L1045.4812 115.3L1043.5906 115.3ZM1040.5906 113.925Q1041.45 113.925 1042.2 113.4875Q1042.9656 113.05 1043.3093 112.34688L1043.3093 110.175L1041.8875 110.175Q1038.575 110.175 1038.575 112.1125Q1038.575 112.97188 1039.1375 113.45625Q1039.7 113.925 1040.5906 113.925ZM1053.1687 106.34688Q1052.7625 106.28438 1052.2937 106.28438Q1050.5125 106.28438 1049.8718 107.8L1049.8718 115.3L1048.075 115.3L1048.075 104.7375L1049.825 104.7375L1049.8562 105.95625Q1050.7468 104.53438 1052.3718 104.53438Q1052.9031 104.53438 1053.1687 104.675L1053.1687 106.34688ZM1058.5281 112.65938L1060.9812 104.7375L1062.9187 104.7375L1058.6687 116.925Q1057.6843 119.56563 1055.5437 119.56563L1055.2 119.53438L1054.5281 119.40938L1054.5281 117.94063L1055.0125 117.9875Q1055.9343 117.9875 1056.4343 117.6125Q1056.95 117.2375 1057.2781 116.25313L1057.6843 115.175L1053.9187 104.7375L1055.8875 104.7375L1058.5281 112.65938ZM1075.2781 115.3L1073.3875 115.3L1073.3875 108.72188L1066.2312 108.72188L1066.2312 115.3L1064.3562 115.3L1064.3562 101.08125L1066.2312 101.08125L1066.2312 107.19063L1073.3875 107.19063L1073.3875 101.08125L1075.2781 101.08125L1075.2781 115.3ZM1082.45 115.50313Q1080.3093 115.50313 1078.95 114.09688Q1077.6062 112.675 1077.6062 110.31563L1077.6062 109.97188Q1077.6062 108.40938 1078.2 107.175Q1078.8093 105.94063 1079.8875 105.2375Q1080.9656 104.53438 1082.2312 104.53438Q1084.2937 104.53438 1085.4343 105.89375Q1086.575 107.25313 1086.575 109.78438L1086.575 110.53438L1079.4187 110.53438Q1079.45 112.09688 1080.325 113.06563Q1081.2 114.01875 1082.5437 114.01875Q1083.5125 114.01875 1084.1687 113.62813Q1084.8406 113.2375 1085.3406 112.59688L1086.4343 113.45625Q1085.1062 115.50313 1082.45 115.50313ZM1082.2312 106.01875Q1081.1375 106.01875 1080.3875 106.81563Q1079.6531 107.6125 1079.4812 109.05L1084.7625 109.05L1084.7625 108.90938Q1084.6843 107.53438 1084.0125 106.78438Q1083.3562 106.01875 1082.2312 106.01875ZM1095.5906 115.3Q1095.4343 114.9875 1095.3406 114.19063Q1094.075 115.50313 1092.325 115.50313Q1090.7625 115.50313 1089.7625 114.6125Q1088.7625 113.72188 1088.7625 112.3625Q1088.7625 110.72188 1090.0125 109.81563Q1091.2781 108.89375 1093.5437 108.89375L1095.3093 108.89375L1095.3093 108.06563Q1095.3093 107.1125 1094.7312 106.55Q1094.1687 105.9875 1093.075 105.9875Q1092.1062 105.9875 1091.45 106.4875Q1090.7937 106.97188 1090.7937 107.65938L1088.9812 107.65938Q1088.9812 106.87813 1089.5437 106.14375Q1090.1062 105.39375 1091.0593 104.97188Q1092.0281 104.53438 1093.1843 104.53438Q1095.0125 104.53438 1096.0437 105.45625Q1097.075 106.3625 1097.1218 107.97188L1097.1218 112.83125Q1097.1218 114.28438 1097.4812 115.14375L1097.4812 115.3L1095.5906 115.3ZM1092.5906 113.925Q1093.45 113.925 1094.2 113.4875Q1094.9656 113.05 1095.3093 112.34688L1095.3093 110.175L1093.8875 110.175Q1090.575 110.175 1090.575 112.1125Q1090.575 112.97188 1091.1375 113.45625Q1091.7 113.925 1092.5906 113.925ZM1108.9968 110.12813Q1108.9968 112.55 1107.8875 114.03438Q1106.7937 115.50313 1104.9031 115.50313Q1102.9812 115.50313 1101.8718 114.26875L1101.8718 119.3625L1100.075 119.3625L1100.075 104.7375L1101.7156 104.7375L1101.8093 105.90938Q1102.9031 104.53438 1104.8718 104.53438Q1106.7781 104.53438 1107.8875 105.97188Q1108.9968 107.40938 1108.9968 109.97188L1108.9968 110.12813ZM1107.1843 109.925Q1107.1843 108.14375 1106.4187 107.1125Q1105.6687 106.06563 1104.3406 106.06563Q1102.7 106.06563 1101.8718 107.51875L1101.8718 112.58125Q1102.6843 114.01875 1104.3562 114.01875Q1105.6531 114.01875 1106.4187 112.9875Q1107.1843 111.95625 1107.1843 109.925Z" fill-rule="nonzero"/><path fill="#0f9d58" d="M987.7 137.3C987.7 136.74771 988.1477 136.3 988.7 136.3L998.7 136.3C999.25226 136.3 999.7 136.74771 999.7 137.3L999.7 147.3C999.7 147.85228 999.25226 148.3 998.7 148.3L988.7 148.3C988.1477 148.3 987.7 147.85228 987.7 147.3Z" fill-rule="nonzero"/><path fill="#757575" d="M1011.77814 135.08125L1016.41876 146.675L1021.075 135.08125L1023.4969 135.08125L1023.4969 149.3L1021.6219 149.3L1021.6219 143.76875L1021.8094 137.78438L1017.1375 149.3L1015.7 149.3L1011.04376 137.81563L1011.23126 143.76875L1011.23126 149.3L1009.35626 149.3L1009.35626 135.08125L1011.77814 135.08125ZM1028.0281 149.3L1026.2312 149.3L1026.2312 138.7375L1028.0281 138.7375L1028.0281 149.3ZM1026.075 135.925Q1026.075 135.4875 1026.3406 135.19063Q1026.6218 134.87813 1027.1375 134.87813Q1027.6687 134.87813 1027.9343 135.19063Q1028.2156 135.4875 1028.2156 135.925Q1028.2156 136.3625 1027.9343 136.65938Q1027.6687 136.95625 1027.1375 136.95625Q1026.6218 136.95625 1026.3406 136.65938Q1026.075 136.3625 1026.075 135.925ZM1032.7781 138.7375L1032.8406 140.06563Q1034.0437 138.53438 1035.9968 138.53438Q1039.3562 138.53438 1039.3718 142.31563L1039.3718 149.3L1037.575 149.3L1037.575 142.3Q1037.5593 141.15938 1037.0437 140.6125Q1036.5437 140.06563 1035.45 140.06563Q1034.575 140.06563 1033.9031 140.53438Q1033.2468 141.00313 1032.8718 141.76875L1032.8718 149.3L1031.075 149.3L1031.075 138.7375L1032.7781 138.7375ZM1050.2 143.01875L1044.2312 143.01875L1044.2312 149.3L1042.3562 149.3L1042.3562 135.08125L1051.1531 135.08125L1051.1531 136.62813L1044.2312 136.62813L1044.2312 141.4875L1050.2 141.4875L1050.2 143.01875ZM1059.5906 148.25313Q1058.5437 149.50313 1056.4968 149.50313Q1054.8093 149.50313 1053.9187 148.51875Q1053.0437 147.53438 1053.0281 145.6125L1053.0281 138.7375L1054.8406 138.7375L1054.8406 145.56563Q1054.8406 147.95625 1056.7937 147.95625Q1058.8562 147.95625 1059.5437 146.425L1059.5437 138.7375L1061.3562 138.7375L1061.3562 149.3L1059.6375 149.3L1059.5906 148.25313ZM1065.7781 138.7375L1065.8406 140.06563Q1067.0437 138.53438 1068.9968 138.53438Q1072.3562 138.53438 1072.3718 142.31563L1072.3718 149.3L1070.575 149.3L1070.575 142.3Q1070.5593 141.15938 1070.0437 140.6125Q1069.5437 140.06563 1068.45 140.06563Q1067.575 140.06563 1066.9031 140.53438Q1066.2468 141.00313 1065.8718 141.76875L1065.8718 149.3L1064.075 149.3L1064.075 138.7375L1065.7781 138.7375ZM1079.3093 148.01875Q1080.2781 148.01875 1080.9968 147.44063Q1081.7156 146.84688 1081.7937 145.97188L1083.5125 145.97188Q1083.45 146.87813 1082.8718 147.70625Q1082.3093 148.51875 1081.3406 149.01875Q1080.3875 149.50313 1079.3093 149.50313Q1077.1531 149.50313 1075.8718 148.06563Q1074.6062 146.6125 1074.6062 144.1125L1074.6062 143.81563Q1074.6062 142.26875 1075.1687 141.06563Q1075.7312 139.8625 1076.7937 139.20625Q1077.8562 138.53438 1079.2937 138.53438Q1081.075 138.53438 1082.2468 139.59688Q1083.4343 140.65938 1083.5125 142.3625L1081.7937 142.3625Q1081.7156 141.34688 1081.0125 140.69063Q1080.325 140.01875 1079.2937 140.01875Q1077.9187 140.01875 1077.1531 141.01875Q1076.4031 142.00313 1076.4031 143.87813L1076.4031 144.22188Q1076.4031 146.05 1077.1531 147.03438Q1077.9031 148.01875 1079.3093 148.01875ZM1087.5125 136.175L1087.5125 138.7375L1089.4968 138.7375L1089.4968 140.12813L1087.5125 140.12813L1087.5125 146.675Q1087.5125 147.31563 1087.7781 147.64375Q1088.0437 147.95625 1088.6843 147.95625Q1088.9968 147.95625 1089.5437 147.83125L1089.5437 149.3Q1088.825 149.50313 1088.1531 149.50313Q1086.95 149.50313 1086.325 148.76875Q1085.7156 148.03438 1085.7156 146.675L1085.7156 140.12813L1083.7937 140.12813L1083.7937 138.7375L1085.7156 138.7375L1085.7156 136.175L1087.5125 136.175ZM1094.0281 149.3L1092.2312 149.3L1092.2312 138.7375L1094.0281 138.7375L1094.0281 149.3ZM1092.075 135.925Q1092.075 135.4875 1092.3406 135.19063Q1092.6218 134.87813 1093.1375 134.87813Q1093.6687 134.87813 1093.9343 135.19063Q1094.2156 135.4875 1094.2156 135.925Q1094.2156 136.3625 1093.9343 136.65938Q1093.6687 136.95625 1093.1375 136.95625Q1092.6218 136.95625 1092.3406 136.65938Q1092.075 136.3625 1092.075 135.925ZM1096.5906 143.925Q1096.5906 142.3625 1097.2 141.12813Q1097.8093 139.87813 1098.8875 139.20625Q1099.9812 138.53438 1101.3875 138.53438Q1103.5437 138.53438 1104.8718 140.03438Q1106.2156 141.51875 1106.2156 144.00313L1106.2156 144.12813Q1106.2156 145.675 1105.6218 146.90938Q1105.0281 148.12813 1103.9187 148.81563Q1102.825 149.50313 1101.4031 149.50313Q1099.2625 149.50313 1097.9187 148.00313Q1096.5906 146.50313 1096.5906 144.05L1096.5906 143.925ZM1098.4031 144.12813Q1098.4031 145.89375 1099.2156 146.95625Q1100.0437 148.01875 1101.4031 148.01875Q1102.7781 148.01875 1103.5906 146.94063Q1104.4031 145.8625 1104.4031 143.925Q1104.4031 142.175 1103.575 141.09688Q1102.7468 140.01875 1101.3875 140.01875Q1100.0437 140.01875 1099.2156 141.08125Q1098.4031 142.14375 1098.4031 144.12813ZM1109.7781 138.7375L1109.8406 140.06563Q1111.0437 138.53438 1112.9968 138.53438Q1116.3562 138.53438 1116.3718 142.31563L1116.3718 149.3L1114.575 149.3L1114.575 142.3Q1114.5593 141.15938 1114.0437 140.6125Q1113.5437 140.06563 1112.45 140.06563Q1111.575 140.06563 1110.9031 140.53438Q1110.2468 141.00313 1109.8718 141.76875L1109.8718 149.3L1108.075 149.3L1108.075 138.7375L1109.7781 138.7375Z" fill-rule="nonzero"/><path fill="#ff6d00" d="M987.7 171.3C987.7 170.74771 988.1477 170.3 988.7 170.3L998.7 170.3C999.25226 170.3 999.7 170.74771 999.7 171.3L999.7 181.3C999.7 181.85228 999.25226 182.3 998.7 182.3L988.7 182.3C988.1477 182.3 987.7 181.85228 987.7 181.3Z" fill-rule="nonzero"/><path fill="#757575" d="M1017.2 177.01875L1011.23126 177.01875L1011.23126 183.3L1009.35626 183.3L1009.35626 169.08125L1018.15314 169.08125L1018.15314 170.62813L1011.23126 170.62813L1011.23126 175.4875L1017.2 175.4875L1017.2 177.01875ZM1019.59064 177.925Q1019.59064 176.3625 1020.2 175.12813Q1020.8094 173.87813 1021.8875 173.20625Q1022.98126 172.53438 1024.3875 172.53438Q1026.5437 172.53438 1027.8718 174.03438Q1029.2156 175.51875 1029.2156 178.00313L1029.2156 178.12813Q1029.2156 179.675 1028.6218 180.90938Q1028.0281 182.12813 1026.9187 182.81563Q1025.825 183.50313 1024.4031 183.50313Q1022.2625 183.50313 1020.91876 182.00313Q1019.59064 180.50313 1019.59064 178.05L1019.59064 177.925ZM1021.40314 178.12813Q1021.40314 179.89375 1022.21564 180.95625Q1023.04376 182.01875 1024.4031 182.01875Q1025.7781 182.01875 1026.5906 180.94063Q1027.4031 179.8625 1027.4031 177.925Q1027.4031 176.175 1026.575 175.09688Q1025.7468 174.01875 1024.3875 174.01875Q1023.04376 174.01875 1022.21564 175.08125Q1021.40314 176.14375 1021.40314 178.12813ZM1036.1687 174.34688Q1035.7625 174.28438 1035.2937 174.28438Q1033.5125 174.28438 1032.8718 175.8L1032.8718 183.3L1031.075 183.3L1031.075 172.7375L1032.825 172.7375L1032.8562 173.95625Q1033.7468 172.53438 1035.3718 172.53438Q1035.9031 172.53438 1036.1687 172.675L1036.1687 174.34688ZM1042.45 183.50313Q1040.3093 183.50313 1038.95 182.09688Q1037.6062 180.675 1037.6062 178.31563L1037.6062 177.97188Q1037.6062 176.40938 1038.2 175.175Q1038.8093 173.94063 1039.8875 173.2375Q1040.9656 172.53438 1042.2312 172.53438Q1044.2937 172.53438 1045.4343 173.89375Q1046.575 175.25313 1046.575 177.78438L1046.575 178.53438L1039.4187 178.53438Q1039.45 180.09688 1040.325 181.06563Q1041.2 182.01875 1042.5437 182.01875Q1043.5125 182.01875 1044.1687 181.62813Q1044.8406 181.2375 1045.3406 180.59688L1046.4343 181.45625Q1045.1062 183.50313 1042.45 183.50313ZM1042.2312 174.01875Q1041.1375 174.01875 1040.3875 174.81563Q1039.6531 175.6125 1039.4812 177.05L1044.7625 177.05L1044.7625 176.90938Q1044.6843 175.53438 1044.0125 174.78438Q1043.3562 174.01875 1042.2312 174.01875ZM1055.5906 183.3Q1055.4343 182.9875 1055.3406 182.19063Q1054.075 183.50313 1052.325 183.50313Q1050.7625 183.50313 1049.7625 182.6125Q1048.7625 181.72188 1048.7625 180.3625Q1048.7625 178.72188 1050.0125 177.81563Q1051.2781 176.89375 1053.5437 176.89375L1055.3093 176.89375L1055.3093 176.06563Q1055.3093 175.1125 1054.7312 174.55Q1054.1687 173.9875 1053.075 173.9875Q1052.1062 173.9875 1051.45 174.4875Q1050.7937 174.97188 1050.7937 175.65938L1048.9812 175.65938Q1048.9812 174.87813 1049.5437 174.14375Q1050.1062 173.39375 1051.0593 172.97188Q1052.0281 172.53438 1053.1843 172.53438Q1055.0125 172.53438 1056.0437 173.45625Q1057.075 174.3625 1057.1218 175.97188L1057.1218 180.83125Q1057.1218 182.28438 1057.4812 183.14375L1057.4812 183.3L1055.5906 183.3ZM1052.5906 181.925Q1053.45 181.925 1054.2 181.4875Q1054.9656 181.05 1055.3093 180.34688L1055.3093 178.175L1053.8875 178.175Q1050.575 178.175 1050.575 180.1125Q1050.575 180.97188 1051.1375 181.45625Q1051.7 181.925 1052.5906 181.925ZM1064.3093 182.01875Q1065.2781 182.01875 1065.9968 181.44063Q1066.7156 180.84688 1066.7937 179.97188L1068.5125 179.97188Q1068.45 180.87813 1067.8718 181.70625Q1067.3093 182.51875 1066.3406 183.01875Q1065.3875 183.50313 1064.3093 183.50313Q1062.1531 183.50313 1060.8718 182.06563Q1059.6062 180.6125 1059.6062 178.1125L1059.6062 177.81563Q1059.6062 176.26875 1060.1687 175.06563Q1060.7312 173.8625 1061.7937 173.20625Q1062.8562 172.53438 1064.2937 172.53438Q1066.075 172.53438 1067.2468 173.59688Q1068.4343 174.65938 1068.5125 176.3625L1066.7937 176.3625Q1066.7156 175.34688 1066.0125 174.69063Q1065.325 174.01875 1064.2937 174.01875Q1062.9187 174.01875 1062.1531 175.01875Q1061.4031 176.00313 1061.4031 177.87813L1061.4031 178.22188Q1061.4031 180.05 1062.1531 181.03438Q1062.9031 182.01875 1064.3093 182.01875ZM1071.8718 174.01875Q1073.075 172.53438 1074.9968 172.53438Q1078.3562 172.53438 1078.3718 176.31563L1078.3718 183.3L1076.575 183.3L1076.575 176.3Q1076.5593 175.15938 1076.0437 174.6125Q1075.5437 174.06563 1074.45 174.06563Q1073.575 174.06563 1072.9031 174.53438Q1072.2468 175.00313 1071.8718 175.76875L1071.8718 183.3L1070.075 183.3L1070.075 168.3L1071.8718 168.3L1071.8718 174.01875ZM1083.2312 181.76875L1089.9812 181.76875L1089.9812 183.3L1081.3562 183.3L1081.3562 169.08125L1083.2312 169.08125L1083.2312 181.76875ZM1091.5906 177.925Q1091.5906 176.3625 1092.2 175.12813Q1092.8093 173.87813 1093.8875 173.20625Q1094.9812 172.53438 1096.3875 172.53438Q1098.5437 172.53438 1099.8718 174.03438Q1101.2156 175.51875 1101.2156 178.00313L1101.2156 178.12813Q1101.2156 179.675 1100.6218 180.90938Q1100.0281 182.12813 1098.9187 182.81563Q1097.825 183.50313 1096.4031 183.50313Q1094.2625 183.50313 1092.9187 182.00313Q1091.5906 180.50313 1091.5906 178.05L1091.5906 177.925ZM1093.4031 178.12813Q1093.4031 179.89375 1094.2156 180.95625Q1095.0437 182.01875 1096.4031 182.01875Q1097.7781 182.01875 1098.5906 180.94063Q1099.4031 179.8625 1099.4031 177.925Q1099.4031 176.175 1098.575 175.09688Q1097.7468 174.01875 1096.3875 174.01875Q1095.0437 174.01875 1094.2156 175.08125Q1093.4031 176.14375 1093.4031 178.12813ZM1102.5906 177.925Q1102.5906 176.3625 1103.2 175.12813Q1103.8093 173.87813 1104.8875 173.20625Q1105.9812 172.53438 1107.3875 172.53438Q1109.5437 172.53438 1110.8718 174.03438Q1112.2156 175.51875 1112.2156 178.00313L1112.2156 178.12813Q1112.2156 179.675 1111.6218 180.90938Q1111.0281 182.12813 1109.9187 182.81563Q1108.825 183.50313 1107.4031 183.50313Q1105.2625 183.50313 1103.9187 182.00313Q1102.5906 180.50313 1102.5906 178.05L1102.5906 177.925ZM1104.4031 178.12813Q1104.4031 179.89375 1105.2156 180.95625Q1106.0437 182.01875 1107.4031 182.01875Q1108.7781 182.01875 1109.5906 180.94063Q1110.4031 179.8625 1110.4031 177.925Q1110.4031 176.175 1109.575 175.09688Q1108.7468 174.01875 1107.3875 174.01875Q1106.0437 174.01875 1105.2156 175.08125Q1104.4031 176.14375 1104.4031 178.12813ZM1122.9968 178.12813Q1122.9968 180.55 1121.8875 182.03438Q1120.7937 183.50313 1118.9031 183.50313Q1116.9812 183.50313 1115.8718 182.26875L1115.8718 187.3625L1114.075 187.3625L1114.075 172.7375L1115.7156 172.7375L1115.8093 173.90938Q1116.9031 172.53438 1118.8718 172.53438Q1120.7781 172.53438 1121.8875 173.97188Q1122.9968 175.40938 1122.9968 177.97188L1122.9968 178.12813ZM1121.1843 177.925Q1121.1843 176.14375 1120.4187 175.1125Q1119.6687 174.06563 1118.3406 174.06563Q1116.7 174.06563 1115.8718 175.51875L1115.8718 180.58125Q1116.6843 182.01875 1118.3562 182.01875Q1119.6531 182.01875 1120.4187 180.9875Q1121.1843 179.95625 1121.1843 177.925Z" fill-rule="nonzero"/><path fill="#46bdc6" d="M987.7 205.3C987.7 204.74771 988.1477 204.3 988.7 204.3L998.7 204.3C999.25226 204.3 999.7 204.74771 999.7 205.3L999.7 215.3C999.7 215.85228 999.25226 216.3 998.7 216.3L988.7 216.3C988.1477 216.3 987.7 215.85228 987.7 215.3Z" fill-rule="nonzero"/><path fill="#757575" d="M1013.54376 210.95625Q1011.1219 210.26875 1010.02814 209.26875Q1008.9344 208.25313 1008.9344 206.76875Q1008.9344 205.08125 1010.27814 203.9875Q1011.6219 202.87813 1013.7625 202.87813Q1015.23126 202.87813 1016.3719 203.45625Q1017.52814 204.01875 1018.15314 205.01875Q1018.77814 206.00313 1018.77814 207.19063L1016.90314 207.19063Q1016.90314 205.90938 1016.075 205.175Q1015.2625 204.425 1013.7625 204.425Q1012.3719 204.425 1011.59064 205.03438Q1010.825 205.64375 1010.825 206.7375Q1010.825 207.59688 1011.5594 208.20625Q1012.29376 208.8 1014.0594 209.3Q1015.84064 209.8 1016.84064 210.40938Q1017.84064 211.00313 1018.325 211.8Q1018.8094 212.59688 1018.8094 213.69063Q1018.8094 215.40938 1017.46564 216.45625Q1016.1219 217.50313 1013.85626 217.50313Q1012.40314 217.50313 1011.1219 216.94063Q1009.85626 216.37813 1009.16876 215.40938Q1008.48126 214.425 1008.48126 213.175L1010.3719 213.175Q1010.3719 214.47188 1011.325 215.22188Q1012.27814 215.95625 1013.85626 215.95625Q1015.34064 215.95625 1016.1375 215.3625Q1016.9344 214.75313 1016.9344 213.70625Q1016.9344 212.65938 1016.2 212.09688Q1015.46564 211.51875 1013.54376 210.95625ZM1020.59064 211.925Q1020.59064 210.3625 1021.2 209.12813Q1021.8094 207.87813 1022.8875 207.20625Q1023.98126 206.53438 1025.3875 206.53438Q1027.5437 206.53438 1028.8718 208.03438Q1030.2156 209.51875 1030.2156 212.00313L1030.2156 212.12813Q1030.2156 213.675 1029.6218 214.90938Q1029.0281 216.12813 1027.9187 216.81563Q1026.825 217.50313 1025.4031 217.50313Q1023.2625 217.50313 1021.91876 216.00313Q1020.59064 214.50313 1020.59064 212.05L1020.59064 211.925ZM1022.40314 212.12813Q1022.40314 213.89375 1023.21564 214.95625Q1024.0437 216.01875 1025.4031 216.01875Q1026.7781 216.01875 1027.5906 214.94063Q1028.4031 213.8625 1028.4031 211.925Q1028.4031 210.175 1027.575 209.09688Q1026.7468 208.01875 1025.3875 208.01875Q1024.0437 208.01875 1023.21564 209.08125Q1022.40314 210.14375 1022.40314 212.12813ZM1037.1687 208.34688Q1036.7625 208.28438 1036.2937 208.28438Q1034.5125 208.28438 1033.8718 209.8L1033.8718 217.3L1032.075 217.3L1032.075 206.7375L1033.825 206.7375L1033.8562 207.95625Q1034.7468 206.53438 1036.3718 206.53438Q1036.9031 206.53438 1037.1687 206.675L1037.1687 208.34688ZM1041.5125 204.175L1041.5125 206.7375L1043.4968 206.7375L1043.4968 208.12813L1041.5125 208.12813L1041.5125 214.675Q1041.5125 215.31563 1041.7781 215.64375Q1042.0437 215.95625 1042.6843 215.95625Q1042.9968 215.95625 1043.5437 215.83125L1043.5437 217.3Q1042.825 217.50313 1042.1531 217.50313Q1040.95 217.50313 1040.325 216.76875Q1039.7156 216.03438 1039.7156 214.675L1039.7156 208.12813L1037.7937 208.12813L1037.7937 206.7375L1039.7156 206.7375L1039.7156 204.175L1041.5125 204.175ZM1054.2 211.01875L1048.2312 211.01875L1048.2312 217.3L1046.3562 217.3L1046.3562 203.08125L1055.1531 203.08125L1055.1531 204.62813L1048.2312 204.62813L1048.2312 209.4875L1054.2 209.4875L1054.2 211.01875ZM1063.5906 216.25313Q1062.5437 217.50313 1060.4968 217.50313Q1058.8093 217.50313 1057.9187 216.51875Q1057.0437 215.53438 1057.0281 213.6125L1057.0281 206.7375L1058.8406 206.7375L1058.8406 213.56563Q1058.8406 215.95625 1060.7937 215.95625Q1062.8562 215.95625 1063.5437 214.425L1063.5437 206.7375L1065.3562 206.7375L1065.3562 217.3L1063.6375 217.3L1063.5906 216.25313ZM1069.7781 206.7375L1069.8406 208.06563Q1071.0437 206.53438 1072.9968 206.53438Q1076.3562 206.53438 1076.3718 210.31563L1076.3718 217.3L1074.575 217.3L1074.575 210.3Q1074.5593 209.15938 1074.0437 208.6125Q1073.5437 208.06563 1072.45 208.06563Q1071.575 208.06563 1070.9031 208.53438Q1070.2468 209.00313 1069.8718 209.76875L1069.8718 217.3L1068.075 217.3L1068.075 206.7375L1069.7781 206.7375ZM1083.3093 216.01875Q1084.2781 216.01875 1084.9968 215.44063Q1085.7156 214.84688 1085.7937 213.97188L1087.5125 213.97188Q1087.45 214.87813 1086.8718 215.70625Q1086.3093 216.51875 1085.3406 217.01875Q1084.3875 217.50313 1083.3093 217.50313Q1081.1531 217.50313 1079.8718 216.06563Q1078.6062 214.6125 1078.6062 212.1125L1078.6062 211.81563Q1078.6062 210.26875 1079.1687 209.06563Q1079.7312 207.8625 1080.7937 207.20625Q1081.8562 206.53438 1083.2937 206.53438Q1085.075 206.53438 1086.2468 207.59688Q1087.4343 208.65938 1087.5125 210.3625L1085.7937 210.3625Q1085.7156 209.34688 1085.0125 208.69063Q1084.325 208.01875 1083.2937 208.01875Q1081.9187 208.01875 1081.1531 209.01875Q1080.4031 210.00313 1080.4031 211.87813L1080.4031 212.22188Q1080.4031 214.05 1081.1531 215.03438Q1081.9031 216.01875 1083.3093 216.01875ZM1091.5125 204.175L1091.5125 206.7375L1093.4968 206.7375L1093.4968 208.12813L1091.5125 208.12813L1091.5125 214.675Q1091.5125 215.31563 1091.7781 215.64375Q1092.0437 215.95625 1092.6843 215.95625Q1092.9968 215.95625 1093.5437 215.83125L1093.5437 217.3Q1092.825 217.50313 1092.1531 217.50313Q1090.95 217.50313 1090.325 216.76875Q1089.7156 216.03438 1089.7156 214.675L1089.7156 208.12813L1087.7937 208.12813L1087.7937 206.7375L1089.7156 206.7375L1089.7156 204.175L1091.5125 204.175ZM1098.0281 217.3L1096.2312 217.3L1096.2312 206.7375L1098.0281 206.7375L1098.0281 217.3ZM1096.075 203.925Q1096.075 203.4875 1096.3406 203.19063Q1096.6218 202.87813 1097.1375 202.87813Q1097.6687 202.87813 1097.9343 203.19063Q1098.2156 203.4875 1098.2156 203.925Q1098.2156 204.3625 1097.9343 204.65938Q1097.6687 204.95625 1097.1375 204.95625Q1096.6218 204.95625 1096.3406 204.65938Q1096.075 204.3625 1096.075 203.925ZM1100.5906 211.925Q1100.5906 210.3625 1101.2 209.12813Q1101.8093 207.87813 1102.8875 207.20625Q1103.9812 206.53438 1105.3875 206.53438Q1107.5437 206.53438 1108.8718 208.03438Q1110.2156 209.51875 1110.2156 212.00313L1110.2156 212.12813Q1110.2156 213.675 1109.6218 214.90938Q1109.0281 216.12813 1107.9187 216.81563Q1106.825 217.50313 1105.4031 217.50313Q1103.2625 217.50313 1101.9187 216.00313Q1100.5906 214.50313 1100.5906 212.05L1100.5906 211.925ZM1102.4031 212.12813Q1102.4031 213.89375 1103.2156 214.95625Q1104.0437 216.01875 1105.4031 216.01875Q1106.7781 216.01875 1107.5906 214.94063Q1108.4031 213.8625 1108.4031 211.925Q1108.4031 210.175 1107.575 209.09688Q1106.7468 208.01875 1105.3875 208.01875Q1104.0437 208.01875 1103.2156 209.08125Q1102.4031 210.14375 1102.4031 212.12813ZM1113.7781 206.7375L1113.8406 208.06563Q1115.0437 206.53438 1116.9968 206.53438Q1120.3562 206.53438 1120.3718 210.31563L1120.3718 217.3L1118.575 217.3L1118.575 210.3Q1118.5593 209.15938 1118.0437 208.6125Q1117.5437 208.06563 1116.45 208.06563Q1115.575 208.06563 1114.9031 208.53438Q1114.2468 209.00313 1113.8718 209.76875L1113.8718 217.3L1112.075 217.3L1112.075 206.7375L1113.7781 206.7375Z" fill-rule="nonzero"/></svg>